<?xml version="1.0" standalone="no"?>
<!DOCTYPE svg PUBLIC "-//W3C//DTD SVG 1.1//EN" "http://www.w3.org/Graphics/SVG/1.1/DTD/svg11.dtd" >
<svg width="100%" height="100%" 
xmlns="http://www.w3.org/2000/svg" 
xmlns:xlink="http://www.w3.org/1999/xlink">
<defs>
<font id="CourierBold" horiz-adv-x="1229" >
  <font-face 
    font-family="CourierBoldFont"
    font-weight="400"
    font-stretch="normal"
    units-per-em="2048"
    panose-1="2 6 4 4 2 2 5 2 2 4"
    ascent="1638"
    descent="-410"
    x-height="874"
    cap-height="1153"
    bbox="-8 -432 1269 1633"
    underline-thickness="75"
    underline-position="-127"
    unicode-range="U+0020-U+F002"
  />
<missing-glyph 
d="M123 0v1153h983v-1153h-983zM983 123v907h-737v-907h737z" />
    <glyph glyph-name=".notdef" 
d="M123 0v1153h983v-1153h-983zM983 123v907h-737v-907h737z" />
    <glyph glyph-name="glyph1" horiz-adv-x="0" 
 />
    <glyph glyph-name="glyph2" 
 />
    <glyph glyph-name="space" unicode=" " 
 />
    <glyph glyph-name="exclam" unicode="!" 
d="M687 1170l-37 -763h-68l-37 763h142zM617 197q42 0 77 -22q52 -34 52 -92q0 -57 -52 -91q-35 -22 -78 -22q-44 0 -79 22q-52 34 -52 91q0 59 52 92q36 22 80 22z" />
    <glyph glyph-name="quotedbl" unicode="&#x22;" 
d="M387 1188h144l-26 -455h-93zM698 1188h144l-26 -455h-92z" />
    <glyph glyph-name="numbersign" unicode="#" 
d="M416 1355h70l-26 -473h336l26 473h68l-26 -473h200v-65h-203l-23 -381h226v-65h-228l-30 -491h-69l29 491h-332l-26 -491h-71l27 491h-201v65h205l20 381h-225v65h227zM457 817l-21 -381h335l21 381h-335z" />
    <glyph glyph-name="dollar" unicode="$" 
d="M580 1348h75v-216q39 -7 69 -14q24 -6 106 -36q12 -5 23 -5q37 0 55 86l62 -10q-31 -93 -31 -150q0 -44 15 -112l-62 -12q-17 82 -58 117q-31 26 -92 45q-66 20 -131 20q-135 0 -219 -73q-61 -53 -61 -144q0 -100 78 -151q57 -38 223 -85q153 -44 193 -61
q93 -39 137.5 -97t44.5 -141q0 -154 -160 -233q-75 -37 -192 -49v-313h-75v313q-50 4 -112 16t-113 27q-10 3 -16 3q-24 0 -47 -59l-54 17q20 63 20 120q0 62 -20 146l59 13q22 -98 58 -137q68 -74 250 -74q163 0 253 69q68 54 68 140q0 79 -55 127q-45 38 -112 60
q-62 20 -144 41q-139 37 -192 61q-173 77 -173 244q0 163 152 243q75 40 178 48v216z" />
    <glyph glyph-name="percent" unicode="%" 
d="M1021 847l31 -69l-827 -367l-30 70zM741 502q111 0 190 -71q88 -79 88 -195q0 -115 -88 -194q-79 -71 -194 -71q-114 0 -193 71q-88 80 -88 194q0 117 88 195q81 71 197 71zM735 435q-89 0 -147 -64q-51 -56 -51 -135q0 -77 51 -134q57 -64 149 -64q93 0 150 64
q51 57 51 134q0 80 -51 135q-59 64 -152 64zM488 1259q111 0 190 -71q88 -78 88 -194q0 -114 -88 -193q-79 -71 -194 -71t-194 71q-88 79 -88 193q0 117 88 194q81 71 198 71zM482 1192q-90 0 -148 -64q-51 -56 -51 -134q0 -77 51 -133q58 -64 150 -64t150 64q51 56 51 133
q0 80 -51 134q-59 64 -152 64z" />
    <glyph glyph-name="ampersand" unicode="&#x26;" 
d="M908 559h207v-69h-157q-63 -195 -128 -290l92 -135h232v-65h-273l-93 137q-125 -152 -291 -152q-132 0 -214 89q-77 84 -77 201q0 71 30.5 138t85.5 115q54 48 144 82l-20 29q-46 63 -76 120q-35 65 -35 133q0 96 85 162q70 54 165 54q140 0 274 -97l-44 -58
q-120 85 -226 85q-69 0 -119 -40q-58 -46 -58 -111q0 -74 113 -239l263 -388q30 55 63 138t57 161zM747 196l-245 360q-67 -27 -114 -67q-103 -88 -103 -209q0 -85 50 -147q62 -77 168 -77q140 0 244 140z" />
    <glyph glyph-name="quotesingle" unicode="'" 
d="M542 1188h144l-26 -455h-93z" />
    <glyph glyph-name="parenleft" unicode="(" 
d="M858 1215h75q-90 -172 -133 -284q-101 -259 -101 -484q0 -224 101 -484q45 -116 133 -284h-75q-75 113 -132 247q-124 289 -124 521q0 233 124 521q56 131 132 247z" />
    <glyph glyph-name="parenright" unicode=")" 
d="M371 -321h-75q89 168 134 284q100 259 100 484q0 226 -100 484q-44 112 -134 284h75q76 -117 132 -247q124 -287 124 -521q0 -232 -124 -521q-57 -133 -132 -247z" />
    <glyph glyph-name="asterisk" unicode="*" 
d="M550 1173h113l-14 -323l301 111l34 -106l-309 -85l200 -250l-90 -66l-178 267l-179 -267l-90 66l201 250l-310 85l34 106l301 -111z" />
    <glyph glyph-name="plus" unicode="+" 
d="M580 1062h75v-430h440v-75h-440v-431h-75v431h-440v75h440v430z" />
    <glyph glyph-name="comma" unicode="," 
d="M528 250h182l-215 -480h-119z" />
    <glyph glyph-name="hyphen" unicode="-" 
d="M406 635h415v-85h-415v85z" />
    <glyph glyph-name="period" unicode="." 
d="M616 224q58 0 103 -38q41 -35 41 -89t-41 -89q-45 -38 -105 -38t-105 38q-41 35 -41 89t41 89q45 38 107 38z" />
    <glyph glyph-name="slash" unicode="/" 
d="M970 1310l63 -28l-775 -1688l-63 29z" />
    <glyph glyph-name="zero" unicode="0" 
d="M619 1274q98 0 182 -56q96 -62 144 -205q54 -161 54 -391q0 -183 -35 -322.5t-101 -219.5q-42 -51 -108.5 -80.5t-139.5 -29.5q-74 0 -140.5 29.5t-108.5 80.5q-66 80 -101 218.5t-35 318.5q0 187 35 327t101 220q43 52 110 81t143 29zM610 1199q-111 0 -189 -95
q-63 -76 -91 -245q-19 -110 -19 -237q0 -249 67 -411q27 -64 82 -110q66 -56 155 -56q115 0 193 95q62 76 91 246q19 110 19 234q0 255 -67 414q-28 64 -82 109q-66 56 -159 56z" />
    <glyph glyph-name="one" unicode="1" 
d="M223 1096l400 178h48v-1206h361v-68h-803v68h367v1118l-345 -153z" />
    <glyph glyph-name="two" unicode="2" 
d="M895 275h66v-275h-789v88q80 67 246.5 217.5l251.5 232.5q102 98 146 158q66 88 66 207q0 111 -70 188q-46 50 -109.5 79t-127.5 29q-58 0 -117.5 -21t-98.5 -55q-68 -60 -68 -126v-17h-77v116q55 66 119 106q117 72 247 72q86 0 165 -37t135 -103q83 -100 83 -233
q0 -81 -29 -150.5t-95 -142.5q-76 -87 -260 -247q-223 -195 -322 -293h638v207z" />
    <glyph glyph-name="three" unicode="3" 
d="M207 1148q70 45 128 74q107 52 207 52q163 0 267 -111q76 -82 76 -198q0 -194 -185 -289q98 -28 167 -107q84 -95 84 -225q0 -162 -114 -267q-116 -107 -294 -107q-109 0 -219 40q-42 16 -143 58l30 70l20 -8q113 -48 152 -59q90 -26 169 -26q147 0 243 101q75 79 75 196
q0 120 -73 196q-89 93 -240 93q-23 0 -62 -2v68q137 4 206 56q103 77 103 206q0 90 -55 153q-78 87 -209 87q-93 0 -184 -46q-38 -19 -113 -65z" />
    <glyph glyph-name="four" unicode="4" 
d="M788 1274v-899h190v-68h-190v-239h190v-68h-546v68h281v239h-559v100l511 867h123zM713 375v827h-10l-487 -827h497z" />
    <glyph glyph-name="five" unicode="5" 
d="M264 1244h673v-68h-607v-467q69 30 99 40q84 28 169 28q98 0 181 -38t137 -107q82 -106 82 -251q0 -149 -86 -261q-115 -150 -339 -150q-107 0 -216 31q-44 13 -162 58l26 65q187 -79 341 -79q190 0 284 117q71 88 71 214q0 116 -62 202q-95 133 -271 133
q-144 0 -282 -100l-38 21v612z" />
    <glyph glyph-name="six" unicode="6" 
d="M1003 1273v-71q-25 -2 -238 -7q-84 -3 -164 -43.5t-141 -112.5q-68 -79 -108 -203.5t-49 -285.5q48 77 115 126q99 71 216 71q68 0 133 -28t112 -78q54 -56 84 -142q26 -73 26 -146q0 -81 -31 -157t-85 -128q-100 -98 -241 -98q-84 0 -162.5 41t-132.5 112
q-112 149 -112 409q0 136 33 264.5t93 223.5q122 194 351 239q81 16 208 16q46 0 93 -2zM311 432q9 -142 65 -233q43 -72 112 -113q68 -41 143 -41q56 0 110 25t90 67q72 85 72 218q0 121 -69 214q-75 103 -197 103q-103 0 -193 -63q-70 -48 -112 -132q-21 -41 -21 -45z" />
    <glyph glyph-name="seven" unicode="7" 
d="M91 1244h797v-80l-402 -1164h-89l424 1176h-655v-194h-75v262z" />
    <glyph glyph-name="eight" unicode="8" 
d="M461 633q-80 33 -139 105q-75 90 -75 207q0 131 100 226q109 103 268 103q158 0 267 -103q100 -95 100 -226q0 -128 -89 -224q-56 -60 -126 -88q90 -31 150 -96q89 -97 89 -219q0 -67 -30.5 -133.5t-82.5 -114.5q-109 -100 -278 -100q-170 0 -279 100q-56 52 -87 124
q-26 63 -26 124q0 134 105 235q55 53 133 80zM611 1199q-119 0 -202 -75q-81 -72 -81 -182q0 -98 66 -173q89 -103 220 -103t221 103q66 75 66 172q0 112 -81 183q-85 75 -209 75zM611 591q-123 0 -209 -72q-45 -37 -71.5 -92.5t-26.5 -112.5q0 -97 71 -172q93 -97 240 -97
t239 97q71 75 71 171q0 58 -26.5 114t-71.5 92q-88 72 -216 72z" />
    <glyph glyph-name="nine" unicode="9" 
d="M168 -29l5 71q27 3 233 9q178 5 306 155q67 79 107 204.5t49 285.5q-49 -79 -115 -127q-99 -71 -216 -71q-67 0 -132.5 28t-112.5 77q-54 57 -84 143q-26 73 -26 146q0 80 31 156t85 129q101 97 241 97q84 0 162.5 -41t132.5 -112q112 -149 112 -408q0 -137 -33 -265.5
t-93 -223.5q-122 -194 -351 -239q-81 -16 -207 -16q-44 0 -94 2zM859 813q-9 142 -64 232q-43 72 -111 113q-69 41 -143 41q-57 0 -110.5 -24.5t-89.5 -67.5q-72 -85 -72 -217q0 -122 69 -215q75 -102 197 -102q102 0 192 63q71 49 112 132q21 41 20 45z" />
    <glyph glyph-name="colon" unicode=":" 
d="M615 882q58 0 103 -38q41 -35 41 -89t-41 -89q-44 -38 -105 -38t-105 38q-41 36 -41 89q0 54 41 89q45 38 107 38zM616 224q58 0 103 -38q41 -35 41 -89t-41 -89q-45 -38 -105 -38t-105 38q-41 35 -41 89t41 89q45 38 107 38z" />
    <glyph glyph-name="semicolon" unicode=";" 
d="M617 882q59 0 103 -38q41 -35 41 -89t-41 -89q-44 -38 -105 -38t-105 38q-41 35 -41 89t41 89q44 38 107 38zM538 251h182l-215 -479h-119z" />
    <glyph glyph-name="less" unicode="&#x3c;" 
d="M1010 970v-85l-699 -308l699 -309v-85l-791 356v76z" />
    <glyph glyph-name="equal" unicode="=" 
d="M134 823h961v-75h-961v75zM134 444h961v-75h-961v75z" />
    <glyph glyph-name="greater" unicode="&#x3e;" 
d="M220 970l790 -355v-77l-790 -355v85l698 309l-698 308v85z" />
    <glyph glyph-name="question" unicode="?" 
d="M252 914v190q67 23 110 36q110 32 214 32q189 0 298 -107q92 -90 92 -222q0 -171 -166 -267q-76 -44 -216 -78v-124h-72v178q73 18 109 28q267 71 267 268q0 95 -65 163q-84 88 -246 88q-124 0 -252 -56v-129h-73zM545 197q42 0 77 -22q52 -34 52 -92q0 -57 -52 -91
q-35 -22 -79 -22q-43 0 -78 22q-52 34 -52 91q0 59 52 92q36 22 80 22z" />
    <glyph glyph-name="at" unicode="@" 
d="M753 300l18 127q-36 -57 -71 -85q-76 -62 -181 -62q-103 0 -163 72q-58 69 -58 176q0 146 100 248q90 90 206 90q149 0 208 -146l18 126h154l-7 -45h-81l-64 -455h19q32 0 73.5 18t70.5 44q52 47 81.5 118t29.5 150q0 169 -120 285q-63 61 -151 95t-183 34
q-105 0 -200.5 -40t-166.5 -113q-143 -149 -143 -364q0 -197 122 -339q71 -81 170 -126t209 -45q176 0 321 108q74 56 119 132h75q-47 -106 -141 -182q-167 -133 -376 -133q-181 0 -328 100q-134 92 -201 242q-51 115 -51 242q0 119 45 229.5t128 192.5q82 82 190 126.5
t225 44.5q109 0 209 -38.5t173 -109.5q144 -139 144 -334q0 -168 -109 -280q-91 -94 -196 -101q-34 -2 -61 -2h-56zM599 795q-104 0 -172 -99q-48 -70 -48 -160q0 -80 36 -131q37 -53 108 -53q98 0 171 74q77 77 77 183q0 74 -40 125q-48 61 -132 61z" />
    <glyph glyph-name="A" unicode="A" 
d="M237 1153h427l444 -1085h102v-68h-401v68h222l-134 323h-566l-134 -323h224v-68h-401v68h106l420 1017h-309v68zM615 1085l-259 -632h518z" />
    <glyph glyph-name="B" unicode="B" 
d="M843 599q76 -21 121 -44q71 -37 110 -102.5t39 -147.5q0 -128 -93 -213q-84 -76 -241 -88q-53 -4 -145 -4h-541v68h175v1017h-175v68h560q155 0 241 -48q76 -42 113 -113q32 -60 32 -130q0 -115 -87 -196q-42 -40 -109 -67zM343 634h295q118 0 181 30q64 30 101 84
q38 55 38 118q0 81 -58 141q-76 78 -251 78h-306v-451zM343 68h287q172 0 245 25q157 54 157 214q0 177 -215 238q-74 21 -195 21h-279v-498z" />
    <glyph glyph-name="C" unicode="C" 
d="M1057 1153l66 -9q-21 -111 -21 -176q0 -93 21 -181l-66 -15q-9 69 -21 110q-33 111 -145 178q-91 54 -205 54q-104 0 -195 -43t-157 -122q-115 -140 -115 -356q0 -120 34.5 -228.5t94.5 -180.5q63 -73 161 -112q82 -33 176 -33q132 0 264 65q52 26 126 76l48 -61
q-215 -155 -436 -155q-178 0 -315 95q-120 85 -183 239q-56 137 -56 293q0 251 142 416q157 182 405 182q95 0 177 -31q43 -16 131 -74q18 -11 30 -11q21 0 30 31q3 13 9 49z" />
    <glyph glyph-name="D" unicode="D" 
d="M70 1153h510q111 0 177 -11q194 -31 295 -219q73 -137 73 -324q0 -252 -110 -413q-99 -144 -280 -175q-68 -11 -163 -11h-502v68h167v1017h-167v68zM312 68h260q83 0 141 10q70 13 131.5 53.5t99.5 100.5q95 145 95 362q0 154 -57 275q-80 171 -233 203q-60 13 -167 13
h-270v-1017z" />
    <glyph glyph-name="E" unicode="E" 
d="M119 1153h968l8 -355h-68l-21 287h-633v-440h370v153h66v-374h-66v153h-370v-509h654l12 289h67v-357h-987v68h179v1017h-179v68z" />
    <glyph glyph-name="F" unicode="F" 
d="M152 1153h953l10 -353h-64l-25 285h-626v-441h366v156h65v-374h-65v150h-366v-508h269v-68h-517v68h172v1017h-172v68z" />
    <glyph glyph-name="G" unicode="G" 
d="M694 488h489v-68h-101v-362q-231 -97 -416 -97q-246 0 -397 150q-79 80 -122 197q-47 125 -47 261q0 128 40 244.5t113 200.5q152 175 384 175q100 0 191 -37q59 -24 128 -79q17 -13 27 -13q31 0 41 93l69 -14q-25 -100 -25 -178q0 -63 25 -182l-69 -12q-21 132 -82 209
q-53 67 -135 103q-79 35 -167 35q-98 0 -186 -42.5t-150 -119.5q-118 -148 -118 -380q0 -258 138 -403q60 -63 150.5 -98t195.5 -35q129 0 337 72v312h-313v68z" />
    <glyph glyph-name="H" unicode="H" 
d="M81 1153h390v-68h-157v-454h603v454h-157v68h389v-68h-157v-1017h157v-68h-389v68h157v495h-603v-495h157v-68h-390v68h158v1017h-158v68z" />
    <glyph glyph-name="I" unicode="I" 
d="M210 1153h808v-68h-366v-1017h366v-68h-808v68h367v1017h-367v68z" />
    <glyph glyph-name="J" unicode="J" 
d="M430 1153h756v-68h-267v-667q0 -113 -8.5 -175.5t-29.5 -111.5q-36 -80 -117 -123q-82 -44 -179 -44q-171 0 -443 123l-19 435h73l8 -189q4 -93 21 -135q30 -73 132 -117q97 -42 211 -42q95 0 160 36.5t90 103.5q26 72 26 232v674h-414v68z" />
    <glyph glyph-name="K" unicode="K" 
d="M125 1153h430v-68h-177v-570l581 570h-195v68h380v-68h-86l-440 -427q119 -143 261 -355q86 -128 136 -235h190v-68h-236q-75 151 -162 281q-154 228 -238 329l-191 -188v-354h177v-68h-430v68h178v1017h-178v68z" />
    <glyph glyph-name="L" unicode="L" 
d="M124 1153h543v-68h-258v-1017h623l29 425h70l-22 -493h-985v68h210v1017h-210v68z" />
    <glyph glyph-name="M" unicode="M" 
d="M19 1153h301l292 -738l295 738h295v-68h-155l36 -1017h143v-68h-439v68h224l-35 997q-1 23 -16 23q-10 0 -20 -23l-309 -774h-50l-310 784q-6 14 -18 14q-16 0 -17 -24l-36 -997h226v-68h-423v68h134l38 1017h-156v68z" />
    <glyph glyph-name="N" unicode="N" 
d="M58 1153h285l650 -1096v1028h-221v68h439v-68h-149v-1112h-99l-661 1112v-1017h224v-68h-468v68h175v1017h-175v68z" />
    <glyph glyph-name="O" unicode="O" 
d="M622 1189q217 0 364 -166q155 -175 155 -447q0 -268 -155 -446q-145 -166 -371 -166t-371 166q-155 179 -155 445q0 274 155 448q149 166 378 166zM609 1114q-180 0 -303 -146q-131 -156 -131 -392q0 -232 131 -391q121 -146 309 -146t309 146q131 159 131 390
q0 238 -131 393q-124 146 -315 146z" />
    <glyph glyph-name="P" unicode="P" 
d="M441 464v-396h305v-68h-551v68h171v1017h-171v68h464q158 0 241 -27q98 -31 161 -113q75 -97 75 -214q0 -136 -97 -233q-68 -69 -183 -90q-62 -11 -285 -12h-130zM441 532h132q231 0 308 24q82 25 128 96q46 69 46 151q0 129 -96 211q-70 59 -195 68q-40 3 -105 3h-218
v-553z" />
    <glyph glyph-name="Q" unicode="Q" 
d="M303 -200q86 51 187 181q-127 28 -219 114q-83 77 -129 193q-52 131 -52 288q0 277 154 448q148 165 368 165q152 0 279 -85q128 -85 192 -244q55 -135 55 -293q0 -131 -38.5 -246t-108.5 -192q-101 -111 -259 -147q-64 -14 -163 -14q-28 -43 -90 -95q57 19 103 19
q80 0 179 -43l76 -33q39 -16 81 -16q66 0 147 55l45 -55q-98 -68 -189 -68q-53 0 -99 18q-29 11 -74 31q-96 43 -171 43q-85 0 -180 -49q-22 -11 -61 -33zM607 1114q-121 0 -230 -80q-201 -147 -201 -457q0 -268 139 -412q118 -122 293 -122q97 0 185.5 40t147.5 110
q111 133 111 370q0 256 -125 400q-62 72 -146 111.5t-174 39.5z" />
    <glyph glyph-name="R" unicode="R" 
d="M343 544v-476h185v-68h-432v68h172v1017h-172v68h522q157 0 224 -26q80 -30 128 -111q46 -77 46 -163q0 -152 -119 -240q-76 -56 -205 -69q244 -364 311 -476h179v-68h-239q-41 86 -105 193q-65 105 -217 331l-13 20h-265zM343 606h215q138 0 200 19q76 24 120 75
q57 66 57 157q0 80 -45 143q-51 70 -157 81q-37 4 -114 4h-276v-479z" />
    <glyph glyph-name="S" unicode="S" 
d="M982 1184l67 -16q-40 -132 -40 -208q0 -65 15 -146l-73 -6q-12 134 -46 188q-34 55 -111 87q-75 31 -167 31q-150 0 -245 -79q-95 -78 -95 -194q0 -130 123 -196q71 -37 215 -49q162 -14 215 -29q207 -62 207 -261q0 -145 -107 -237q-123 -105 -318 -105q-173 0 -293 64
q-50 27 -61 27q-34 0 -43 -97l-70 11q17 100 17 154q0 78 -32 201l67 13q25 -120 83 -187q95 -111 312 -111q193 0 292 93q72 68 72 173q0 130 -116 178q-55 22 -213 36q-95 8 -148.5 19.5t-103.5 34.5q-72 32 -119 91q-60 78 -60 178q0 109 75 200q119 147 344 147
q105 0 199 -37q31 -13 92 -46q13 -7 20 -7q31 0 46 85z" />
    <glyph glyph-name="T" unicode="T" 
d="M124 1153h980l34 -467l-72 -10l-29 409h-385v-1017h255v-68h-582v68h252v1017h-386l-29 -409l-72 10z" />
    <glyph glyph-name="U" unicode="U" 
d="M62 1153h443v-68h-214v-608q0 -160 21 -232q61 -206 318 -206q175 0 265 92q46 46 58 102q18 81 18 226v626h-215v68h431v-68h-150v-633q0 -207 -35 -289q-47 -109 -177 -162q-92 -37 -199 -37q-179 0 -289 100q-86 78 -109 208q-12 71 -12 205v608h-154v68z" />
    <glyph glyph-name="V" unicode="V" 
d="M13 1153h419v-68h-205l370 -971q11 -28 25 -28t25 28l375 971h-222v68h417v-68h-126l-418 -1085h-109l-413 1085h-138v68z" />
    <glyph glyph-name="W" unicode="W" 
d="M4 1153h384v-68h-216l131 -963l291 815h49l285 -815l136 963h-218v68h379v-68h-95l-156 -1085h-81l-280 796l-285 -796h-81l-146 1085h-97v68z" />
    <glyph glyph-name="X" unicode="X" 
d="M108 1153h377v-68h-187l318 -426l324 426h-174v68h354v-68h-100l-365 -478l404 -539h102v-68h-395v68h204l-354 486l-369 -486h238v-68h-417v68h99l409 539l-365 478h-103v68z" />
    <glyph glyph-name="Y" unicode="Y" 
d="M65 1153h382v-68h-172l346 -567l341 567h-175v68h378v-68h-126l-384 -639v-378h248v-68h-575v68h252v378l-389 639h-126v68z" />
    <glyph glyph-name="Z" unicode="Z" 
d="M190 1153h818v-68l-752 -1017h732v341h66v-409h-878v76l741 1009h-661v-307h-66v375z" />
    <glyph glyph-name="bracketleft" unicode="[" 
d="M649 1222h339v-68h-253v-1405h253v-68h-339v1541z" />
    <glyph glyph-name="backslash" unicode="\" 
d="M258 1310l775 -1687l-63 -29l-775 1688z" />
    <glyph glyph-name="bracketright" unicode="]" 
d="M580 -319h-339v68h253v1405h-253v68h339v-1541z" />
    <glyph glyph-name="asciicircum" unicode="^" 
d="M331 665h-82l318 489h95l318 -489h-83l-284 433z" />
    <glyph glyph-name="underscore" unicode="_" 
d="M0 -127h1229v-75h-1229v75z" />
    <glyph glyph-name="grave" unicode="`" 
d="M311 1390h183l273 -359h-71z" />
    <glyph glyph-name="a" unicode="a" 
d="M938 68h187v-68h-262v172q-201 -203 -418 -203q-136 0 -228 82q-94 83 -94 199q0 141 140 231q111 70 289 70q164 0 311 -28v73q0 93 -31 139q-64 97 -241 97q-154 0 -349 -82l-29 66q218 89 380 89q140 0 234 -59q70 -44 93 -115q18 -55 18 -135v-528zM863 457
q-177 21 -282 21q-179 0 -278 -66q-43 -29 -68.5 -73.5t-25.5 -90.5q0 -95 88 -158q67 -48 151 -48q215 0 415 229v186z" />
    <glyph glyph-name="b" unicode="b" 
d="M9 1275l267 14v-614q57 95 134 150q111 80 245 80q89 0 174.5 -36t147.5 -99q134 -136 134 -336q0 -184 -125 -320q-133 -145 -323 -145q-149 0 -273 95q-54 41 -114 129v-193h-244v68h169v1147l-192 -10v70zM651 832q-69 0 -138 -29.5t-122 -80.5q-114 -113 -114 -284
q0 -152 92 -261q53 -63 130 -99t159 -36q148 0 251 104q54 54 85 131.5t31 156.5q0 76 -28 150t-77 129q-106 119 -269 119z" />
    <glyph glyph-name="c" unicode="c" 
d="M986 906l70 -13q-23 -95 -23 -154q0 -47 23 -153l-70 -9q-8 54 -18 82q-29 89 -124 134q-81 39 -190 39q-186 0 -299 -107q-58 -54 -90 -135q-29 -74 -29 -150q0 -79 31.5 -159t82.5 -130q58 -57 151 -87q67 -22 137 -22q136 0 263 72q39 22 127 81l42 -60
q-88 -59 -139 -86q-153 -80 -304 -80q-102 0 -194.5 37.5t-156.5 104.5q-65 68 -99 165q-28 80 -28 162q0 144 78 263q71 110 201 163q99 41 206 41q73 0 155 -22q21 -5 134 -52q14 -5 23 -5q31 0 40 80z" />
    <glyph glyph-name="d" unicode="d" 
d="M603 1249l411 37v-1218h177v-68h-252v191q-37 -76 -104 -129q-119 -93 -272 -93q-198 0 -331 147q-119 132 -119 322q0 208 135 340q68 67 161 100q74 27 149 27q125 0 240 -68q87 -52 141 -148v516l-344 -26zM562 832q-72 0 -140 -30t-119 -84q-103 -111 -103 -276
q0 -169 107 -285q106 -115 258 -115q77 0 148 32.5t123 91.5q100 112 100 268q0 159 -97 273q-107 125 -277 125z" />
    <glyph glyph-name="e" unicode="e" 
d="M1076 164l35 -66q-115 -60 -237.5 -94.5t-221.5 -34.5q-214 0 -347 114q-79 68 -119 171q-33 84 -33 180q0 211 146 347q134 124 337 124q238 0 371 -157q92 -110 92 -245q0 -30 -4 -79h-864q6 -135 80 -236q108 -146 334 -146q181 0 431 122zM1018 492q0 110 -62 194
q-107 146 -319 146q-224 0 -336 -169q-51 -77 -65 -171h782z" />
    <glyph glyph-name="f" unicode="f" 
d="M202 874h220v110q0 131 32 187q64 112 281 112q117 0 292 -25l-31 -75q-199 27 -281 27q-118 0 -173 -48q-27 -24 -35 -60q-10 -48 -10 -123v-105h448v-68h-448v-738h448v-68h-743v68h220v738h-220v68z" />
    <glyph glyph-name="g" unicode="g" 
d="M884 874h248v-68h-173v-757q0 -139 -36 -207q-87 -164 -338 -164q-147 0 -401 69l18 67l142 -35q127 -28 231 -28q160 0 239 74q46 43 59 102q11 50 11 122v164q-61 -78 -119 -118q-105 -72 -234 -72q-191 0 -319 140q-116 126 -116 299q0 90 36 175t100 146
q63 60 149 92q75 29 148 29q144 0 255 -92q53 -45 100 -128v190zM530 831q-71 0 -139.5 -32.5t-119.5 -91.5q-89 -102 -89 -243q0 -166 118 -275q100 -93 235 -93q80 0 151.5 35t120.5 99q77 101 77 235q0 165 -119 275q-97 91 -235 91z" />
    <glyph glyph-name="h" unicode="h" 
d="M51 1268l280 22v-559q79 67 137 102q119 72 257 72q80 0 142.5 -31t94.5 -87q40 -71 40 -221v-498h176v-68h-432v68h181v488q0 135 -31 190q-47 86 -178 86q-128 0 -265 -92q-56 -37 -122 -93v-579h165v-68h-419v68h179v1148l-200 -16z" />
    <glyph glyph-name="i" unicode="i" 
d="M271 874h384v-806h364v-68h-808v68h369v738h-309v68zM522 1130v218h135v-218h-135z" />
    <glyph glyph-name="j" unicode="j" 
d="M176 874h613v-806q0 -133 -30 -203q-80 -183 -347 -183q-118 0 -268 33l17 70q148 -30 255 -30q156 0 235 82q40 43 51 96q12 58 12 146v727h-538v68zM612 1112v217h135v-217h-135z" />
    <glyph glyph-name="k" unicode="k" 
d="M77 1266l281 24v-833l453 349h-147v68h410v-68h-155l-373 -287q132 -118 248.5 -238t189.5 -213h168v-68h-405v68h150q-129 158 -404 411l-135 -102v-377h-248v68h173v1147l-199 -18z" />
    <glyph glyph-name="l" unicode="l" 
d="M224 1225l428 29v-1186h366v-68h-808v68h367v1114l-346 -23z" />
    <glyph glyph-name="m" unicode="m" 
d="M-8 874h217v-98q57 57 81 76q65 52 144 52q137 0 208 -152q45 56 80 86q76 66 160 66q50 0 96 -23t76 -63q34 -45 43 -99q10 -67 10 -162v-489h130v-68h-205v557q0 127 -13 169q-33 105 -135 105q-117 0 -218 -159v-604h129v-68h-204v565q0 105 -11 145q-33 121 -145 121
q-86 0 -158 -70q-24 -24 -57 -67v-626h149v-68h-377v68h153v738h-153v68z" />
    <glyph glyph-name="n" unicode="n" 
d="M69 874h249v-133q190 163 384 163q127 0 205 -59q58 -45 76 -132q10 -49 10 -121v-524h166v-68h-429v68h188v518q0 124 -34 172q-23 33 -71.5 53t-106.5 20q-154 0 -284 -91q-38 -26 -104 -82v-590h176v-68h-425v68h174v738h-174v68z" />
    <glyph glyph-name="o" unicode="o" 
d="M622 905q229 0 359 -128q66 -65 102.5 -154t36.5 -186t-36.5 -186t-102.5 -154q-67 -66 -155.5 -97t-211.5 -31q-122 0 -210 31t-156 97q-66 65 -102.5 154t-36.5 185q0 98 36.5 187.5t102.5 153.5q77 75 171 102q88 26 203 26zM607 832q-101 0 -172.5 -27.5
t-129.5 -87.5q-110 -115 -110 -279t110 -280q66 -70 145 -94q70 -22 165 -22q143 0 228 50q103 62 155 176q36 80 36 169q0 167 -110 280q-67 70 -145 94q-70 21 -172 21z" />
    <glyph glyph-name="p" unicode="p" 
d="M40 874h247v-182q57 81 110 123q114 89 271 89q197 0 328 -140q125 -135 125 -320q0 -187 -124 -323q-64 -71 -150.5 -111t-174.5 -40q-76 0 -154.5 30.5t-137.5 84.5q-48 43 -93 113v-451h313v-68h-560v68h172v1059h-172v68zM660 831q-84 0 -161 -36.5t-132 -102.5
q-88 -106 -88 -248q0 -179 130 -298q114 -104 255 -104q86 0 162.5 40.5t129.5 112.5q79 110 79 252q0 157 -102 271q-100 113 -273 113z" />
    <glyph glyph-name="q" unicode="q" 
d="M942 874h249v-68h-174v-1059h174v-68h-560v68h311v449q-49 -83 -116 -135q-119 -92 -265 -92q-187 0 -319 134q-137 139 -137 335q0 93 35.5 180.5t99.5 151.5q63 63 147.5 98.5t172.5 35.5q154 0 280 -103q62 -50 102 -124v197zM556 831q-169 0 -279 -137
q-91 -114 -91 -256q0 -76 30 -151t83 -133q105 -112 262 -112q86 0 167 39t136 108q83 104 83 247q0 159 -107 273q-114 122 -284 122z" />
    <glyph glyph-name="r" unicode="r" 
d="M172 874h320v-236q134 121 191 163q69 50 122 72q72 31 148 31q98 0 152 -58q33 -36 41 -88l-75 -12q-18 85 -117 85q-78 0 -166 -48q-72 -40 -195 -145l-101 -88v-482h401v-68h-740v68h264v738h-245v68z" />
    <glyph glyph-name="s" unicode="s" 
d="M926 910l60 -9q-13 -74 -13 -122q0 -74 23 -161l-70 -9q-9 83 -55 133q-38 41 -111 65q-76 25 -172 25q-103 0 -175 -35q-49 -23 -77 -61.5t-28 -83.5q0 -53 38 -94t108 -62q51 -16 150 -23q14 -1 152 -8q143 -8 215.5 -65t72.5 -162q0 -115 -104 -188q-114 -81 -299 -81
q-109 0 -196 28q-46 15 -109 47q-15 7 -25 7q-29 0 -38 -82l-71 9q19 67 19 133q0 69 -19 167l71 10q17 -91 51 -133q93 -113 313 -113q80 0 148.5 18t108.5 49q69 53 69 133q0 39 -19.5 72t-52.5 49q-43 22 -97 28q-63 6 -146 9q-175 7 -263 41q-79 31 -121 89t-42 126
q0 133 139 201q97 48 229 48q88 0 166 -21q18 -6 112 -40q10 -3 21 -3q25 0 32 31q3 15 5 38z" />
    <glyph glyph-name="t" unicode="t" 
d="M364 1149h75v-275h536v-68h-536v-441q0 -150 18 -196q49 -128 220 -128q145 0 408 115l13 -73q-253 -114 -416 -114q-181 0 -268 117q-42 56 -47 125q-3 45 -3 149v446h-144v68h144v275z" />
    <glyph glyph-name="u" unicode="u" 
d="M66 874h246v-540q0 -120 17 -163q26 -68 102 -103q57 -26 118 -26q174 0 339 194v570h-178v68h253v-806h173v-68h-248v136q-166 -167 -342 -167q-143 0 -235 92q-46 46 -59 102q-15 62 -15 164v479h-171v68z" />
    <glyph glyph-name="v" unicode="v" 
d="M43 874h418v-68h-179l339 -738l342 738h-173v68h396v-68h-149l-381 -806h-81l-381 806h-151v68z" />
    <glyph glyph-name="w" unicode="w" 
d="M4 874h344v-68h-179l206 -702l221 605h52l223 -613l208 710h-180v68h325v-68h-77l-235 -806h-88l-210 573l-207 -573h-81l-236 806h-86v68z" />
    <glyph glyph-name="x" unicode="x" 
d="M84 874h376v-68h-150l299 -302l300 302h-143v68h357v-68h-120l-346 -348l394 -390h125v-68h-397v68h170l-340 343l-340 -343h169v-68h-385v68h121l386 390l-350 348h-126v68z" />
    <glyph glyph-name="y" unicode="y" 
d="M50 874h362v-68h-155l358 -687l392 687h-154v68h353v-68h-114l-607 -1059h199v-68h-602v68h319l170 295l-399 764h-122v68z" />
    <glyph glyph-name="z" unicode="z" 
d="M239 874h773v-68l-698 -738h623v195h75v-263h-795v75l693 731h-596v-188h-75v256z" />
    <glyph glyph-name="braceleft" unicode="{" 
d="M928 -246v-75h-17q-110 0 -154 19q-76 31 -97 126q-11 48 -11 121v289q0 90 -30 129q-25 30 -70 43v90q45 13 70 43q30 39 30 129v289q0 141 46 200q36 47 92 56q56 10 124 10h17v-75h-35q-77 -2 -110 -31q-39 -35 -44 -105q-4 -42 -4 -67v-288q0 -88 -21 -129
q-24 -47 -77 -77q56 -32 80 -86q18 -40 18 -120v-288q0 -74 10.5 -111.5t37.5 -60.5q33 -29 110 -31h35z" />
    <glyph glyph-name="bar" unicode="|" 
d="M575 1153h80v-1441h-80v1441z" />
    <glyph glyph-name="braceright" unicode="}" 
d="M301 1148v75h18q110 0 154 -19q76 -32 97 -126q11 -47 11 -121v-289q0 -89 30 -129q24 -30 69 -43v-90q-45 -13 -69 -43q-30 -39 -30 -129v-289q0 -141 -46 -200q-36 -47 -92 -56q-57 -10 -124 -10h-18v75h35q77 2 111 31q39 35 44 105q4 41 4 67v288q0 87 21 129
q24 47 77 77q-56 32 -80 86q-18 41 -18 120v288q0 74 -10.5 111.5t-37.5 60.5q-34 29 -111 31h-35z" />
    <glyph glyph-name="asciitilde" unicode="~" 
d="M251 1025l-49 36q32 60 66 99q66 76 157 76q68 0 203 -71q78 -41 108 -51q37 -13 70 -13q60 0 107 49q32 33 65 90l49 -36q-33 -62 -68 -101q-66 -75 -155 -75q-47 0 -112 28q-36 16 -96 48q-69 36 -97 45q-42 15 -78 15q-63 0 -111 -54q-29 -32 -59 -85z" />
    <glyph glyph-name="Adieresis" unicode="&#xc4;" 
d="M237 1153h427l444 -1085h102v-68h-401v68h222l-134 323h-566l-134 -323h224v-68h-401v68h106l420 1017h-309v68zM615 1085l-259 -632h518zM396 1302v218h135v-218h-135zM699 1302v218h135v-218h-135z" />
    <glyph glyph-name="Aring" unicode="&#xc5;" 
d="M237 1153h427l444 -1085h102v-68h-401v68h222l-134 323h-566l-134 -323h224v-68h-401v68h106l420 1017h-309v68zM615 1085l-259 -632h518zM617 1561q63 0 107 -49q38 -41 38 -98q0 -66 -49 -109q-41 -38 -98 -38q-66 0 -109 49q-38 42 -38 99q0 64 49 108q41 38 100 38z
M614 1498q-36 0 -61 -28q-22 -24 -22 -56q0 -37 28 -62q24 -22 56 -22q37 0 62 28q22 24 22 57q0 36 -28 61q-24 22 -57 22z" />
    <glyph glyph-name="Ccedilla" unicode="&#xc7;" 
d="M711 -36l-5 -58q33 -4 54 -22q35 -30 35 -80q0 -46 -28 -79q-33 -38 -86 -38q-44 0 -98 35l30 51q40 -25 65 -25q23 0 39 18q15 15 15 37q0 20 -14 34q-15 15 -37 15q-3 0 -42 -2l11 115q-181 13 -308 117q-98 80 -153 215q-56 137 -56 293q0 251 142 416
q157 182 405 182q95 0 177 -31q45 -17 131 -73q18 -11 30 -11q21 0 30 31q3 13 9 49l66 -10q-21 -111 -21 -175q0 -94 21 -181l-66 -15q-9 68 -21 110q-33 110 -145 177q-91 54 -205 54q-216 0 -352 -165q-115 -140 -115 -355q0 -120 34.5 -229t94.5 -180q63 -73 161 -112
q83 -33 176 -33q132 0 264 65q52 25 126 75l48 -60q-93 -69 -212 -114q-102 -37 -200 -41z" />
    <glyph glyph-name="Eacute" unicode="&#xc9;" 
d="M119 1153h968l8 -355h-68l-21 287h-633v-440h370v153h66v-374h-66v153h-370v-509h654l12 289h67v-357h-987v68h179v1017h-179v68zM929 1598l-360 -330h-75l253 330h182z" />
    <glyph glyph-name="Ntilde" unicode="&#xd1;" 
d="M58 1153h285l650 -1096v1028h-221v68h439v-68h-149v-1112h-99l-661 1112v-1017h224v-68h-468v68h175v1017h-175v68zM938 1517l68 -32q-20 -60 -57 -102q-74 -83 -177 -83q-75 0 -175 70q-50 35 -82 52q-33 19 -71 19q-97 0 -152 -131l-68 34q27 69 65 110q68 70 155 70
q63 0 117 -32q28 -17 64 -42q54 -39 88 -53.5t70 -14.5q70 0 120 68q19 27 35 67z" />
    <glyph glyph-name="Odieresis" unicode="&#xd6;" 
d="M622 1189q217 0 364 -166q155 -175 155 -447q0 -268 -155 -446q-145 -166 -371 -166t-371 166q-155 179 -155 445q0 274 155 448q149 166 378 166zM609 1114q-180 0 -303 -146q-131 -156 -131 -392q0 -232 131 -391q121 -146 309 -146t309 146q131 159 131 390
q0 238 -131 393q-124 146 -315 146zM396 1302v218h135v-218h-135zM699 1302v218h135v-218h-135z" />
    <glyph glyph-name="Udieresis" unicode="&#xdc;" 
d="M62 1153h443v-68h-214v-608q0 -160 21 -232q61 -206 318 -206q175 0 265 92q46 46 58 102q18 81 18 226v626h-215v68h431v-68h-150v-633q0 -207 -35 -289q-47 -109 -177 -162q-92 -37 -199 -37q-179 0 -289 100q-86 78 -109 208q-12 71 -12 205v608h-154v68zM395 1302
v218h135v-218h-135zM699 1302v218h135v-218h-135z" />
    <glyph glyph-name="aacute" unicode="&#xe1;" 
d="M938 68h187v-68h-262v172q-201 -203 -418 -203q-136 0 -228 82q-94 83 -94 199q0 141 140 231q111 70 289 70q164 0 311 -28v73q0 93 -31 139q-64 97 -241 97q-154 0 -349 -82l-29 66q218 89 380 89q140 0 234 -59q70 -44 93 -115q18 -55 18 -135v-528zM863 457
q-177 21 -282 21q-179 0 -278 -66q-43 -29 -68.5 -73.5t-25.5 -90.5q0 -95 88 -158q67 -48 151 -48q215 0 415 229v186zM905 1390l-385 -359h-71l274 359h182z" />
    <glyph glyph-name="agrave" unicode="&#xe0;" 
d="M938 68h187v-68h-262v172q-201 -203 -418 -203q-136 0 -228 82q-94 83 -94 199q0 141 140 231q111 70 289 70q164 0 311 -28v73q0 93 -31 139q-64 97 -241 97q-154 0 -349 -82l-29 66q218 89 380 89q140 0 234 -59q70 -44 93 -115q18 -55 18 -135v-528zM863 457
q-177 21 -282 21q-179 0 -278 -66q-43 -29 -68.5 -73.5t-25.5 -90.5q0 -95 88 -158q67 -48 151 -48q215 0 415 229v186zM276 1390h183l273 -359h-71z" />
    <glyph glyph-name="acircumflex" unicode="&#xe2;" 
d="M938 68h187v-68h-262v172q-201 -203 -418 -203q-136 0 -228 82q-94 83 -94 199q0 141 140 231q111 70 289 70q164 0 311 -28v73q0 93 -31 139q-64 97 -241 97q-154 0 -349 -82l-29 66q218 89 380 89q140 0 234 -59q70 -44 93 -115q18 -55 18 -135v-528zM863 457
q-177 21 -282 21q-179 0 -278 -66q-43 -29 -68.5 -73.5t-25.5 -90.5q0 -95 88 -158q67 -48 151 -48q215 0 415 229v186zM498 1355h152l302 -325l-50 -38l-333 277l-311 -277l-51 38z" />
    <glyph glyph-name="adieresis" unicode="&#xe4;" 
d="M938 68h187v-68h-262v172q-201 -203 -418 -203q-136 0 -228 82q-94 83 -94 199q0 141 140 231q111 70 289 70q164 0 311 -28v73q0 93 -31 139q-64 97 -241 97q-154 0 -349 -82l-29 66q218 89 380 89q140 0 234 -59q70 -44 93 -115q18 -55 18 -135v-528zM863 457
q-177 21 -282 21q-179 0 -278 -66q-43 -29 -68.5 -73.5t-25.5 -90.5q0 -95 88 -158q67 -48 151 -48q215 0 415 229v186zM360 1060v218h135v-218h-135zM663 1060v218h135v-218h-135z" />
    <glyph glyph-name="atilde" unicode="&#xe3;" 
d="M938 68h187v-68h-262v172q-201 -203 -418 -203q-136 0 -228 82q-94 83 -94 199q0 141 140 231q111 70 289 70q164 0 311 -28v73q0 93 -31 139q-64 97 -241 97q-154 0 -349 -82l-29 66q218 89 380 89q140 0 234 -59q70 -44 93 -115q18 -55 18 -135v-528zM863 457
q-177 21 -282 21q-179 0 -278 -66q-43 -29 -68.5 -73.5t-25.5 -90.5q0 -95 88 -158q67 -48 151 -48q215 0 415 229v186zM903 1274l69 -32q-21 -59 -58 -102q-74 -83 -177 -83q-75 0 -175 70q-50 35 -82 53q-33 18 -71 18q-97 0 -152 -131l-68 35q27 69 65 109q68 70 155 70
q63 0 117 -32q28 -17 64 -42q54 -39 88.5 -53.5t69.5 -14.5q102 0 155 135z" />
    <glyph glyph-name="aring" unicode="&#xe5;" 
d="M938 68h187v-68h-262v172q-201 -203 -418 -203q-136 0 -228 82q-94 83 -94 199q0 141 140 231q111 70 289 70q164 0 311 -28v73q0 93 -31 139q-64 97 -241 97q-154 0 -349 -82l-29 66q218 89 380 89q140 0 234 -59q70 -44 93 -115q18 -55 18 -135v-528zM863 457
q-177 21 -282 21q-179 0 -278 -66q-43 -29 -68.5 -73.5t-25.5 -90.5q0 -95 88 -158q67 -48 151 -48q215 0 415 229v186zM582 1324q62 0 106 -48q38 -42 38 -98q0 -66 -48 -109q-42 -38 -99 -38q-65 0 -108 48q-38 42 -38 100q0 63 49 107q41 38 100 38zM578 1261
q-35 0 -61 -28q-21 -23 -21 -55q0 -38 28 -62q24 -22 55 -22q37 0 63 28q21 23 21 56q0 36 -28 61q-23 22 -57 22z" />
    <glyph glyph-name="ccedilla" unicode="&#xe7;" 
d="M654 -31l-6 -63q33 -4 54 -22q35 -30 35 -80q0 -46 -28 -79q-33 -38 -86 -38q-44 0 -98 35l30 51q40 -25 65 -25q23 0 39 18q15 15 15 37q0 20 -14 34q-14 15 -37 15q-6 0 -42 -2l11 120q-145 10 -256 89q-95 67 -145 181q-42 96 -42 198q0 144 78 263q71 109 201 163
q99 41 206 41q73 0 155 -22q21 -5 134 -52q14 -5 23 -5q31 0 40 80l70 -13q-23 -95 -23 -154q0 -47 23 -153l-70 -10q-10 67 -24 101.5t-42 63.5q-88 91 -266 91q-186 0 -299 -107q-58 -54 -90 -135q-29 -74 -29 -151q0 -79 31.5 -159t82.5 -130q58 -57 151 -87
q67 -22 137 -22q136 0 263 73q40 22 127 81l42 -60q-127 -87 -220 -123q-103 -39 -196 -43z" />
    <glyph glyph-name="eacute" unicode="&#xe9;" 
d="M1076 164l35 -66q-115 -60 -237.5 -94.5t-221.5 -34.5q-214 0 -347 114q-79 68 -119 171q-33 84 -33 180q0 211 146 347q134 124 337 124q238 0 371 -157q92 -110 92 -245q0 -30 -4 -79h-864q6 -135 80 -236q108 -146 334 -146q181 0 431 122zM1018 492q0 110 -62 194
q-107 146 -319 146q-224 0 -336 -169q-51 -77 -65 -171h782zM952 1390l-385 -359h-71l274 359h182z" />
    <glyph glyph-name="egrave" unicode="&#xe8;" 
d="M1076 164l35 -66q-115 -60 -237.5 -94.5t-221.5 -34.5q-214 0 -347 114q-79 68 -119 171q-33 84 -33 180q0 211 146 347q134 124 337 124q238 0 371 -157q92 -110 92 -245q0 -30 -4 -79h-864q6 -135 80 -236q108 -146 334 -146q181 0 431 122zM1018 492q0 110 -62 194
q-107 146 -319 146q-224 0 -336 -169q-51 -77 -65 -171h782zM311 1390h183l273 -359h-71z" />
    <glyph glyph-name="ecircumflex" unicode="&#xea;" 
d="M1076 164l35 -66q-115 -60 -237.5 -94.5t-221.5 -34.5q-214 0 -347 114q-79 68 -119 171q-33 84 -33 180q0 211 146 347q134 124 337 124q238 0 371 -157q92 -110 92 -245q0 -30 -4 -79h-864q6 -135 80 -236q108 -146 334 -146q181 0 431 122zM1018 492q0 110 -62 194
q-107 146 -319 146q-224 0 -336 -169q-51 -77 -65 -171h782zM533 1355h152l302 -325l-50 -38l-333 277l-311 -277l-51 38z" />
    <glyph glyph-name="edieresis" unicode="&#xeb;" 
d="M1076 164l35 -66q-115 -60 -237.5 -94.5t-221.5 -34.5q-214 0 -347 114q-79 68 -119 171q-33 84 -33 180q0 211 146 347q134 124 337 124q238 0 371 -157q92 -110 92 -245q0 -30 -4 -79h-864q6 -135 80 -236q108 -146 334 -146q181 0 431 122zM1018 492q0 110 -62 194
q-107 146 -319 146q-224 0 -336 -169q-51 -77 -65 -171h782zM395 1060v218h135v-218h-135zM698 1060v218h135v-218h-135z" />
    <glyph glyph-name="iacute" unicode="&#xed;" 
d="M271 874h384v-806h364v-68h-808v68h369v738h-309v68zM941 1390l-328 -359h-71l216 359h183z" />
    <glyph glyph-name="igrave" unicode="&#xec;" 
d="M271 874h384v-806h364v-68h-808v68h369v738h-309v68zM277 1390h183l216 -359h-71z" />
    <glyph glyph-name="icircumflex" unicode="&#xee;" 
d="M271 874h384v-806h364v-68h-808v68h369v738h-309v68zM534 1355h152l302 -325l-50 -38l-333 277l-311 -277l-51 38z" />
    <glyph glyph-name="idieresis" unicode="&#xef;" 
d="M271 874h384v-806h364v-68h-808v68h369v738h-309v68zM396 1060v218h135v-218h-135zM699 1060v218h135v-218h-135z" />
    <glyph glyph-name="ntilde" unicode="&#xf1;" 
d="M69 874h249v-133q190 163 384 163q127 0 205 -59q58 -45 76 -132q10 -49 10 -121v-524h166v-68h-429v68h188v518q0 124 -34 172q-23 33 -71.5 53t-106.5 20q-154 0 -284 -91q-38 -26 -104 -82v-590h176v-68h-425v68h174v738h-174v68zM938 1274l69 -32q-21 -59 -58 -102
q-74 -83 -177 -83q-75 0 -175 70q-50 35 -82 53q-33 18 -71 18q-97 0 -152 -131l-68 35q27 69 65 109q68 70 155 70q63 0 117 -32q28 -17 64 -42q54 -39 88.5 -53.5t69.5 -14.5q102 0 155 135z" />
    <glyph glyph-name="oacute" unicode="&#xf3;" 
d="M622 905q229 0 359 -128q66 -65 102.5 -154t36.5 -186t-36.5 -186t-102.5 -154q-67 -66 -155.5 -97t-211.5 -31q-122 0 -210 31t-156 97q-66 65 -102.5 154t-36.5 185q0 98 36.5 187.5t102.5 153.5q77 75 171 102q88 26 203 26zM607 832q-101 0 -172.5 -27.5
t-129.5 -87.5q-110 -115 -110 -279t110 -280q66 -70 145 -94q70 -22 165 -22q143 0 228 50q103 62 155 176q36 80 36 169q0 167 -110 280q-67 70 -145 94q-70 21 -172 21zM952 1390l-385 -359h-71l274 359h182z" />
    <glyph glyph-name="ograve" unicode="&#xf2;" 
d="M622 905q229 0 359 -128q66 -65 102.5 -154t36.5 -186t-36.5 -186t-102.5 -154q-67 -66 -155.5 -97t-211.5 -31q-122 0 -210 31t-156 97q-66 65 -102.5 154t-36.5 185q0 98 36.5 187.5t102.5 153.5q77 75 171 102q88 26 203 26zM607 832q-101 0 -172.5 -27.5
t-129.5 -87.5q-110 -115 -110 -279t110 -280q66 -70 145 -94q70 -22 165 -22q143 0 228 50q103 62 155 176q36 80 36 169q0 167 -110 280q-67 70 -145 94q-70 21 -172 21zM312 1390h183l273 -359h-71z" />
    <glyph glyph-name="ocircumflex" unicode="&#xf4;" 
d="M622 905q229 0 359 -128q66 -65 102.5 -154t36.5 -186t-36.5 -186t-102.5 -154q-67 -66 -155.5 -97t-211.5 -31q-122 0 -210 31t-156 97q-66 65 -102.5 154t-36.5 185q0 98 36.5 187.5t102.5 153.5q77 75 171 102q88 26 203 26zM607 832q-101 0 -172.5 -27.5
t-129.5 -87.5q-110 -115 -110 -279t110 -280q66 -70 145 -94q70 -22 165 -22q143 0 228 50q103 62 155 176q36 80 36 169q0 167 -110 280q-67 70 -145 94q-70 21 -172 21zM533 1355h152l302 -325l-50 -38l-333 277l-311 -277l-51 38z" />
    <glyph glyph-name="odieresis" unicode="&#xf6;" 
d="M622 905q229 0 359 -128q66 -65 102.5 -154t36.5 -186t-36.5 -186t-102.5 -154q-67 -66 -155.5 -97t-211.5 -31q-122 0 -210 31t-156 97q-66 65 -102.5 154t-36.5 185q0 98 36.5 187.5t102.5 153.5q77 75 171 102q88 26 203 26zM607 832q-101 0 -172.5 -27.5
t-129.5 -87.5q-110 -115 -110 -279t110 -280q66 -70 145 -94q70 -22 165 -22q143 0 228 50q103 62 155 176q36 80 36 169q0 167 -110 280q-67 70 -145 94q-70 21 -172 21zM396 1060v218h135v-218h-135zM699 1060v218h135v-218h-135z" />
    <glyph glyph-name="otilde" unicode="&#xf5;" 
d="M622 905q229 0 359 -128q66 -65 102.5 -154t36.5 -186t-36.5 -186t-102.5 -154q-67 -66 -155.5 -97t-211.5 -31q-122 0 -210 31t-156 97q-66 65 -102.5 154t-36.5 185q0 98 36.5 187.5t102.5 153.5q77 75 171 102q88 26 203 26zM607 832q-101 0 -172.5 -27.5
t-129.5 -87.5q-110 -115 -110 -279t110 -280q66 -70 145 -94q70 -22 165 -22q143 0 228 50q103 62 155 176q36 80 36 169q0 167 -110 280q-67 70 -145 94q-70 21 -172 21zM939 1274l69 -32q-21 -59 -58 -102q-74 -83 -177 -83q-75 0 -175 70q-50 35 -82 53q-33 18 -71 18
q-97 0 -152 -131l-68 35q27 69 65 109q68 70 155 70q63 0 117 -32q28 -17 64 -42q54 -39 88.5 -53.5t69.5 -14.5q102 0 155 135z" />
    <glyph glyph-name="uacute" unicode="&#xfa;" 
d="M66 874h246v-540q0 -120 17 -163q26 -68 102 -103q57 -26 118 -26q174 0 339 194v570h-178v68h253v-806h173v-68h-248v136q-166 -167 -342 -167q-143 0 -235 92q-46 46 -59 102q-15 62 -15 164v479h-171v68zM952 1390l-385 -359h-71l274 359h182z" />
    <glyph glyph-name="ugrave" unicode="&#xf9;" 
d="M66 874h246v-540q0 -120 17 -163q26 -68 102 -103q57 -26 118 -26q174 0 339 194v570h-178v68h253v-806h173v-68h-248v136q-166 -167 -342 -167q-143 0 -235 92q-46 46 -59 102q-15 62 -15 164v479h-171v68zM265 1390h183l273 -359h-71z" />
    <glyph glyph-name="ucircumflex" unicode="&#xfb;" 
d="M66 874h246v-540q0 -120 17 -163q26 -68 102 -103q57 -26 118 -26q174 0 339 194v570h-178v68h253v-806h173v-68h-248v136q-166 -167 -342 -167q-143 0 -235 92q-46 46 -59 102q-15 62 -15 164v479h-171v68zM510 1355h152l302 -325l-50 -38l-333 277l-311 -277l-51 38z
" />
    <glyph glyph-name="udieresis" unicode="&#xfc;" 
d="M66 874h246v-540q0 -120 17 -163q26 -68 102 -103q57 -26 118 -26q174 0 339 194v570h-178v68h253v-806h173v-68h-248v136q-166 -167 -342 -167q-143 0 -235 92q-46 46 -59 102q-15 62 -15 164v479h-171v68zM395 1060v218h135v-218h-135zM698 1060v218h135v-218h-135z
" />
    <glyph glyph-name="dagger" unicode="&#x2020;" 
d="M571 1153h86v-289h234v-86h-234v-974h-86v974h-234v86h234v289z" />
    <glyph glyph-name="degree" unicode="&#xb0;" 
d="M620 1327q145 0 252 -106q106 -106 106 -257q0 -150 -106 -256t-256 -106q-151 0 -257 106t-106 256q0 153 106 257q109 106 261 106zM612 1260q-118 0 -205 -87q-87 -86 -87 -208q0 -123 87 -209q86 -87 209 -87q122 0 208 87q87 86 87 208q0 125 -87 209
q-88 87 -212 87z" />
    <glyph glyph-name="cent" unicode="&#xa2;" 
d="M593 1256h75v-286q98 -5 206 -45q12 -5 19 -5q32 0 46 77l66 -14q-18 -70 -18 -109q0 -52 30 -153l-66 -16q-24 88 -65 125q-38 34 -100 54t-131 20q-157 0 -252 -98q-90 -94 -90 -229q0 -122 74 -214q89 -111 243 -111q128 0 259 63q37 18 111 63l34 -59
q-195 -128 -366 -137v-303h-75v303q-155 13 -251 112q-110 113 -110 280q0 209 164 323q80 55 197 73v286z" />
    <glyph glyph-name="sterling" unicode="&#xa3;" 
d="M200 694h191q-54 144 -54 237q0 63 29 124t81 106q106 92 252 92q141 0 246 -80q58 -43 103 -121l-65 -32q-96 158 -284 158q-120 0 -202 -69q-85 -73 -85 -188q0 -85 55 -227h451v-68h-433q31 -94 31 -191q0 -218 -145 -394q107 60 202 60q64 0 157 -37q79 -31 127 -31
q80 0 176 80l42 -53q-105 -93 -215 -93q-48 0 -115 21q-13 4 -90 31q-41 15 -87 15q-110 0 -239 -81l-53 70q57 61 93 125q78 139 78 280q0 99 -35 198h-212v68z" />
    <glyph glyph-name="section" unicode="&#xa7;" 
d="M953 1153v-257h-69v182h-338q-83 0 -108 -9q-63 -23 -63 -78q0 -34 27 -68q13 -18 138 -115l290 -226q121 -94 148 -147q20 -39 20 -83q0 -97 -79 -153q-44 -32 -110 -42q53 -45 84 -82q46 -54 46 -114q0 -75 -58 -119q-36 -27 -79 -33q-45 -6 -112 -6h-417v275h69v-201
h344q97 0 122 10q29 12 43 37q12 20 12 37q0 43 -48 93q-25 25 -123 103l-282 220q-102 80 -126 120q-24 41 -24 89q0 100 85 164q39 29 93 43l-74 62q-68 57 -68 132q0 85 67 129q35 24 73 30q49 7 120 7h397zM501 748q-56 -17 -89 -37q-35 -21 -57.5 -56t-22.5 -68
q0 -40 29 -71q29 -30 88 -76l289 -226q62 5 103 26q36 18 58.5 50t22.5 65q0 37 -28 74q-25 32 -111 100z" />
    <glyph glyph-name="bullet" unicode="&#x2022;" 
d="M620 825q95 0 166 -70q70 -70 70 -169q0 -100 -70 -170t-170 -70q-99 0 -169 70t-70 169q0 102 70 170q72 70 173 70z" />
    <glyph glyph-name="paragraph" unicode="&#xb6;" 
d="M960 1085v-1213h166v-68h-757v68h247v676h-95q-116 0 -166 12q-225 52 -225 295q0 88 30 155t85 101q53 32 141 40q28 2 129 2h603v-68h-158zM885 1085h-194v-1213h194v1213z" />
    <glyph glyph-name="germandbls" unicode="&#xdf;" 
d="M480 63l47 60q130 -86 270 -86q139 0 244 62q89 53 89 147q0 86 -71 127q-46 26 -191 77q-130 46 -176 76q-101 65 -101 165q0 44 19 85.5t50 65.5q37 29 136 73q80 35 108 58q49 40 49 101q0 71 -53 105q-52 34 -267 34q-133 0 -183 -26q-41 -21 -58 -67
q-18 -51 -18 -144v-976h-239v68h164v706h-159v75h159v127q0 119 25 178q33 78 117 107q70 24 220 24q208 0 284 -44q39 -23 64 -69t25 -96q0 -110 -99 -173q-36 -22 -146 -72q-60 -28 -83 -53q-34 -38 -34 -84q0 -72 75 -115q44 -25 154 -64q178 -62 230 -100
q80 -57 80 -168q0 -141 -136 -217q-117 -66 -276 -66q-121 0 -222 45q-43 19 -97 54z" />
    <glyph glyph-name="registered" unicode="&#xae;" 
d="M621 1153q109 0 214.5 -44t185.5 -124q82 -80 126 -187t44 -222t-44 -220.5t-125 -186.5q-82 -81 -188 -125t-220 -44q-115 0 -220.5 44t-186.5 125q-81 80 -125 186t-44 220q0 115 44 222.5t124 185.5q173 170 415 170zM608 1087q-95 0 -185 -39t-159 -110
q-70 -71 -108 -166t-38 -196q0 -102 38.5 -196.5t108.5 -166.5q145 -147 349 -147t349 147q71 72 109.5 166.5t38.5 195.5q0 103 -39 199.5t-109 166.5q-149 146 -355 146zM457 553v-238h106v-61h-269v61h97v536h-97v60h309q91 0 132 -15q48 -18 78 -65q28 -46 28 -97
q0 -90 -73 -141q-44 -31 -102 -38q147 -213 163 -240h107v-61h-155q-44 91 -137 223q-44 61 -53 76h-134zM457 610h112q76 0 110 10q93 28 93 117q0 35 -18 63.5t-48 39.5q-27 11 -103 11h-146v-241z" />
    <glyph glyph-name="copyright" unicode="&#xa9;" 
d="M621 1153q109 0 214.5 -44t185.5 -124q82 -80 126 -187t44 -222q0 -239 -169 -407q-82 -81 -187.5 -125t-220.5 -44t-220.5 44t-186.5 125q-81 80 -125 186t-44 220q0 115 44 222.5t124 185.5q173 170 415 170zM608 1087q-95 0 -185 -39t-159 -110q-70 -71 -108 -166
t-38 -196q0 -102 38.5 -196.5t108.5 -166.5q145 -147 349 -147t349 147q71 72 109.5 166.5t38.5 195.5q0 103 -39 199.5t-109 166.5q-149 146 -355 146zM800 912l62 -8q-15 -71 -15 -106q0 -52 15 -109l-62 -13q-6 47 -13 71q-17 56 -77 91q-49 28 -111 28q-118 0 -192 -87
q-63 -74 -63 -188q0 -136 71 -217q67 -76 183 -76q73 0 146 35q29 14 79 46l42 -51q-135 -94 -266 -94q-147 0 -236 98q-91 99 -91 258q0 142 84 236q93 104 241 104q53 0 103 -18q51 -19 77 -41q6 -4 8 -4q8 0 11 18q1 3 1 6z" />
    <glyph glyph-name="trademark" unicode="&#x2122;" 
d="M26 1153h514l18 -279l-56 -8l-15 227h-172v-537h126v-61h-314v61h125v537h-173l-15 -227l-56 8zM592 1153h169l140 -387l142 387h166v-60h-74l17 -537h69v-61h-242v61h113l-16 533l-158 -433h-39l-157 437l-18 -537h114v-61h-234v61h65l18 537h-75v60z" />
    <glyph glyph-name="acute" unicode="&#xb4;" 
d="M906 1390l-385 -359h-71l274 359h182z" />
    <glyph glyph-name="dieresis" unicode="&#xa8;" 
d="M395 1060v218h135v-218h-135zM698 1060v218h135v-218h-135z" />
    <glyph glyph-name="notequal" unicode="&#x2260;" 
d="M721 823l151 232l63 -40l-124 -192h284v-75h-333l-198 -304h531v-75h-579l-153 -236l-63 41l127 195h-293v75h341l198 304h-539v75h587z" />
    <glyph glyph-name="AE" unicode="&#xc6;" 
d="M329 1153h767l6 -354h-67l-20 286h-308v-437h168v151h66v-374h-66v155h-168v-512h338l13 289h67v-357h-493v391h-283l-132 -323h194v-68h-372v68h106l416 1017h-232v68zM632 1085l-260 -629h260v629z" />
    <glyph glyph-name="Oslash" unicode="&#xd8;" 
d="M209 -51l-81 57l106 137q-145 175 -145 435q0 266 155 445q144 166 371 166q190 0 332 -127l81 105l74 -56l-92 -119q131 -171 131 -417q0 -267 -155 -445q-145 -166 -373 -166q-178 0 -309 104zM351 134q114 -95 262 -95q190 0 311 146q131 159 131 393q0 189 -97 347z
M899 1000q-120 114 -283 114q-190 0 -310 -146q-131 -159 -131 -391q0 -212 109 -369z" />
    <glyph glyph-name="infinity" unicode="&#x221e;" 
d="M615 515q-40 -59 -76 -99q-94 -104 -222 -104q-121 0 -194 87q-61 73 -61 182t66 180q74 80 190 80q161 0 296 -203q41 60 75 98q94 105 223 105q122 0 194 -87q60 -73 60 -180q0 -116 -71 -188q-72 -74 -184 -74q-120 0 -218 102q-38 40 -78 101zM658 577q31 -50 62 -87
q42 -50 85 -76q44 -27 104 -27q76 0 125 53q50 53 50 138q0 91 -59 144q-50 44 -119 44q-106 0 -195 -113q-10 -13 -32 -44t-21 -32zM571 576q-32 49 -62 86q-47 55 -91.5 79.5t-98.5 24.5q-76 0 -125 -52q-50 -54 -50 -139q0 -92 59 -144q50 -44 119 -44q106 0 195 112
q11 14 32.5 45t21.5 32z" />
    <glyph glyph-name="plusminus" unicode="&#xb1;" 
d="M577 1114h75v-412h436v-68h-436v-418h-75v418h-437v68h437v412zM140 75h949v-75h-949v75z" />
    <glyph glyph-name="lessequal" unicode="&#x2264;" 
d="M1010 1012v-81l-698 -288l698 -288v-82l-791 332v76zM1010 219v-75h-791v75h791z" />
    <glyph glyph-name="greaterequal" unicode="&#x2265;" 
d="M219 1012l791 -331v-76l-791 -332v82l697 288l-697 288v81zM219 219h791v-75h-791v75z" />
    <glyph glyph-name="yen" unicode="&#xa5;" 
d="M655 497v-429h248v-68h-575v68h252v429h-406v68h403l-138 186h-265v68h215l-197 266h-127v68h382v-68h-172l204 -266h282l201 266h-175v68h378v-68h-126l-195 -266h220v-68h-270l-136 -186h406v-68h-409zM710 751h-179l90 -118z" />
    <glyph glyph-name="mu" unicode="&#xb5;" 
d="M73 874h248v-480q0 -75 3 -109q9 -101 84 -168q82 -75 196 -75q111 0 198 71q79 64 94 180q5 40 5 101v412h-173v68h248v-806h174v-68h-249v144q-115 -175 -290 -175q-89 0 -162.5 42t-127.5 123v-455h-75v1127h-173v68z" />
    <glyph glyph-name="partialdiff" unicode="&#x2202;" 
d="M350 1098l10 66q248 -38 396 -181q118 -114 177 -290q47 -139 47 -291q0 -169 -74 -274q-56 -78 -145 -118q-70 -32 -147 -32q-146 0 -251 106q-115 116 -115 285q0 139 80 244q59 77 149 114q67 27 138 27q120 0 199 -66q32 -26 76 -89q-46 144 -86 209
q-76 122 -187 193t-267 97zM623 692q-100 0 -181 -63q-56 -43 -88.5 -113.5t-32.5 -148.5q0 -105 58 -193q40 -62 105 -97t135 -35q98 0 176 66q112 94 112 268q0 154 -92 241q-79 75 -192 75z" />
    <glyph glyph-name="summation" unicode="&#x2211;" 
d="M1052 1297v-375h-72l-5 303h-793l437 -756l-436 -830h808l3 302h74v-373h-970v84l431 817l-431 749v79h954z" />
    <glyph glyph-name="product" unicode="&#x220f;" 
d="M91 1297h1047v-65h-129v-1599h129v-65h-340v65h140v1599h-646v-1599h138v-65h-339v65h130v1599h-130v65z" />
    <glyph glyph-name="pi" unicode="&#x3c0;" 
d="M1135 874v-68h-174v-738h174v-68h-399v68h150v738h-543v-738h151v-68h-399v68h173v738h-173v68h1040z" />
    <glyph glyph-name="integral" unicode="&#x222b;" 
d="M392 -413l21 70q35 -17 66 -17q64 0 84 48q12 29 12 152v1174q0 142 13 184q15 47 62 76q39 23 95 23q38 0 93 -19l-21 -71q-36 18 -67 18q-62 0 -82 -46q-13 -31 -13 -138v-1204q0 -96 -5 -135q-9 -62 -61 -98t-117 -36q-32 0 -80 19z" />
    <glyph glyph-name="ordfeminine" unicode="&#xaa;" 
d="M407 1112q119 48 195 48q172 0 172 -156v-223h84v-70h-155v54q-89 -67 -168 -67q-68 0 -114 42q-48 44 -48 104q0 73 71 118q54 35 140 35q47 0 119 -9v14q0 49 -24 67q-28 21 -77 21q-68 0 -168 -43zM703 920q-68 7 -108 7q-74 0 -113 -27q-34 -23 -34 -58q0 -32 32 -55
q25 -19 55 -19q83 0 168 92v60z" />
    <glyph glyph-name="ordmasculine" unicode="&#xba;" 
d="M617 1160q107 0 175 -66q69 -65 69 -166q0 -102 -69 -167q-68 -66 -178 -66t-178 66q-69 66 -69 166q0 102 69 167q69 66 181 66zM612 1091q-77 0 -124 -49q-44 -46 -44 -115q0 -67 44 -114q47 -49 126 -49t126 49q44 47 44 114q0 69 -44 115q-48 49 -128 49z" />
    <glyph glyph-name="Omega" unicode="&#x2126;" 
d="M66 0v207h66v-139h299v107q-78 21 -113 36t-73 45q-83 63 -132 163q-53 109 -53 236q0 228 157 379q76 74 180 114t218 40q237 0 397 -154q157 -151 157 -379q0 -184 -105 -319q-78 -100 -185 -137q-26 -9 -81 -24v-107h299v139h66v-207h-431v220q128 30 207 94
q70 57 109 142q40 86 40 188q0 203 -142 338q-66 62 -153 96.5t-178 34.5q-92 0 -179 -34.5t-153 -96.5q-142 -134 -142 -339q0 -132 64 -235q87 -140 292 -188v-220h-431z" />
    <glyph glyph-name="ae" unicode="&#xe6;" 
d="M624 736q14 28 23 43q33 59 88.5 92t120.5 33q135 0 213 -125q74 -118 74 -273q0 -28 -4 -84h-506q2 -93 6 -140q11 -120 81 -188q58 -57 142 -57q108 0 258 91l35 -67q-156 -97 -282 -97q-144 0 -222 90q-21 24 -48 76q-71 -68 -112 -96q-96 -65 -191 -65
q-104 0 -168 82q-66 85 -66 195q0 124 91 202q81 69 218 69q95 0 187 -23v102q0 93 -18 137q-39 100 -161 100q-90 0 -223 -60l-29 66q153 66 264 66q178 0 229 -169zM562 428q-100 16 -166 16q-118 0 -182 -57q-62 -55 -62 -145q0 -87 51 -152q39 -49 100 -49
q128 0 259 149v238zM1062 490q0 135 -44 223q-58 118 -160 118q-125 0 -186 -172q-26 -74 -34 -169h424z" />
    <glyph glyph-name="oslash" unicode="&#xf8;" 
d="M1039 917l58 -59l-100 -97q123 -137 123 -324q0 -97 -36.5 -186t-102.5 -154q-130 -128 -364 -128q-169 0 -272 59q-28 16 -59 40l-94 -95l-59 57l93 91q-117 137 -117 317q0 96 36.5 185t102.5 154q68 67 156.5 97.5t212.5 30.5q197 0 319 -89zM879 761q-55 39 -114 55
t-147 16q-148 0 -231 -50q-105 -62 -156 -175q-36 -81 -36 -171q0 -143 89 -257zM342 120q56 -42 117 -60t149 -18q151 0 235 50q104 62 155 176q36 81 36 171q0 150 -95 264z" />
    <glyph glyph-name="questiondown" unicode="&#xbf;" 
d="M966 -63v-190q-67 -23 -110 -36q-110 -32 -215 -32q-188 0 -297 107q-92 90 -92 222q0 172 166 267q76 44 216 79v123h72v-178q-73 -18 -110 -28q-266 -71 -266 -268q0 -95 65 -163q84 -88 246 -88q121 0 252 56v129h73zM676 882q42 0 77 -22q52 -34 52 -92
q0 -57 -52 -91q-35 -22 -79 -22q-43 0 -78 22q-52 34 -52 91q0 59 52 92q36 22 80 22z" />
    <glyph glyph-name="exclamdown" unicode="&#xa1;" 
d="M687 -321h-142l37 764h68zM617 882q42 0 77 -22q52 -34 52 -91q0 -58 -52 -92q-35 -22 -78 -22q-44 0 -79 22q-52 34 -52 91q0 59 52 92q35 22 80 22z" />
    <glyph glyph-name="logicalnot" unicode="&#xac;" 
d="M911 0v399h-671v71h749v-470h-78z" />
    <glyph glyph-name="radical" unicode="&#x221a;" 
d="M1191 1430v-66h-353l-426 -1364h-76l-167 539h-131v66h180l85 -269q9 -28 30 -101q29 -101 36 -128h3l48 163l52 172l99 315l210 673h410z" />
    <glyph glyph-name="florin" unicode="&#x192;" 
d="M352 927h220l25 139q24 135 64 187q53 69 148 94q63 16 162 16q52 0 112 -6l-49 -82q-90 17 -126 17q-94 0 -159 -47q-35 -26 -49 -59q-15 -39 -31 -126l-23 -133h225l-15 -68h-222l-135 -768q-24 -133 -66 -188q-53 -70 -149 -95q-62 -16 -154 -16q-54 0 -117 6l49 80
q90 -15 121 -15q97 0 163 48q35 25 48 59q16 40 31 127l135 762h-221z" />
    <glyph glyph-name="approxequal" unicode="&#x2248;" 
d="M214 605l-54 36q37 69 73 110q73 83 173 83q74 0 222 -78q87 -46 120 -57q41 -14 75 -14q70 0 120 51q35 36 72 98l54 -35q-38 -70 -75 -113q-72 -81 -170 -81q-53 0 -125 31q-34 15 -105 52q-72 38 -106 50q-47 16 -86 16q-69 0 -123 -57q-31 -34 -65 -92zM214 319
l-54 36q38 70 73 110q73 83 173 83q74 0 222 -78q87 -46 120 -57q41 -14 75 -14q69 0 120 51q36 36 72 98l54 -35q-37 -70 -75 -113q-72 -81 -171 -81q-52 0 -124 31q-37 16 -105 51q-75 40 -106 51q-47 16 -87 16q-68 0 -122 -58q-31 -33 -65 -91z" />
    <glyph glyph-name="Delta" unicode="&#x2206;" 
d="M96 0l479 1153h78l479 -1153h-1036zM199 68h830l-415 1000z" />
    <glyph glyph-name="guillemotleft" unicode="&#xab;" 
d="M999 810l43 -55l-415 -299l415 -299l-40 -58l-470 357zM656 861l47 -53l-428 -352l420 -350l-46 -52l-463 402z" />
    <glyph glyph-name="guillemotright" unicode="&#xbb;" 
d="M229 810l467 -354l-470 -357l-40 58l415 299l-415 299zM572 861l470 -405l-463 -402l-46 52l420 350l-428 352z" />
    <glyph glyph-name="ellipsis" unicode="&#x2026;" 
d="M188 224q58 0 103 -38q41 -35 41 -89t-41 -89q-45 -38 -105 -38t-105 38q-41 35 -41 89t41 89q45 38 107 38zM616 224q58 0 103 -38q41 -35 41 -89t-41 -89q-45 -38 -105 -38t-105 38q-41 35 -41 89t41 89q45 38 107 38zM1044 224q58 0 103 -38q41 -35 41 -89t-41 -89
q-45 -38 -105 -38t-105 38q-41 35 -41 89t41 89q45 38 107 38z" />
    <glyph glyph-name="glyph172" 
 />
    <glyph glyph-name="Agrave" unicode="&#xc0;" 
d="M237 1153h427l444 -1085h102v-68h-401v68h222l-134 323h-566l-134 -323h224v-68h-401v68h106l420 1017h-309v68zM615 1085l-259 -632h518zM300 1598h183l252 -330h-75z" />
    <glyph glyph-name="Atilde" unicode="&#xc3;" 
d="M237 1153h427l444 -1085h102v-68h-401v68h222l-134 323h-566l-134 -323h224v-68h-401v68h106l420 1017h-309v68zM615 1085l-259 -632h518zM939 1517l68 -32q-20 -60 -57 -102q-74 -83 -177 -83q-75 0 -175 70q-50 35 -82 52q-33 19 -71 19q-97 0 -152 -131l-68 34
q27 69 65 110q68 70 155 70q63 0 117 -32q28 -17 64 -42q54 -39 88 -53.5t70 -14.5q70 0 120 68q19 27 35 67z" />
    <glyph glyph-name="Otilde" unicode="&#xd5;" 
d="M622 1189q217 0 364 -166q155 -175 155 -447q0 -268 -155 -446q-145 -166 -371 -166t-371 166q-155 179 -155 445q0 274 155 448q149 166 378 166zM609 1114q-180 0 -303 -146q-131 -156 -131 -392q0 -232 131 -391q121 -146 309 -146t309 146q131 159 131 390
q0 238 -131 393q-124 146 -315 146zM939 1517l68 -32q-20 -60 -57 -102q-74 -83 -177 -83q-75 0 -175 70q-50 35 -82 52q-33 19 -71 19q-97 0 -152 -131l-68 34q27 69 65 110q68 70 155 70q63 0 117 -32q28 -17 64 -42q54 -39 88 -53.5t70 -14.5q70 0 120 68q19 27 35 67z
" />
    <glyph glyph-name="OE" unicode="&#x152;" 
d="M1125 0h-632q-188 0 -308 142q-72 85 -111.5 198t-39.5 234q0 217 123 376q155 203 414 203h525l6 -354h-67l-20 286h-306v-437h166v151h66v-372h-66v153h-166v-512h336l13 291h67v-359zM634 1085h-70q-127 0 -224 -59q-110 -67 -167 -177q-63 -124 -63 -269
q0 -124 44 -234.5t123 -183.5q100 -94 250 -94h107v1017z" />
    <glyph glyph-name="oe" unicode="&#x153;" 
d="M1176 422h-490q2 -93 6 -140q10 -119 75 -188q53 -57 134 -57q105 0 256 91l35 -67q-156 -97 -282 -97q-127 0 -206 72q-32 30 -74 112q-32 -76 -70 -112q-71 -67 -184 -67q-159 0 -237 128q-84 138 -84 340t84 340q78 128 237 128q131 0 208 -98q32 -41 58 -103
q82 200 250 200q136 0 214 -125q74 -118 74 -272q0 -28 -4 -85zM1099 490q-1 136 -44 223q-58 118 -160 118q-100 0 -157 -107q-54 -102 -54 -196q0 -12 2 -38h413zM374 832q-72 0 -133 -58q-56 -53 -82 -168q-18 -80 -18 -168q0 -167 57 -280q27 -53 81 -88q46 -28 98 -28
q76 0 132 58q50 53 74 169q16 80 16 167q0 171 -51 281q-25 54 -71 84.5t-103 30.5z" />
    <glyph glyph-name="endash" unicode="&#x2013;" 
d="M183 635h861v-85h-861v85z" />
    <glyph glyph-name="emdash" unicode="&#x2014;" 
d="M0 635h1229v-85h-1229v85z" />
    <glyph glyph-name="quotedblleft" unicode="&#x201c;" 
d="M882 709h-182l215 480h119zM520 709h-182l215 480h119z" />
    <glyph glyph-name="quotedblright" unicode="&#x201d;" 
d="M347 1189h182l-215 -480h-119zM709 1189h182l-215 -480h-119z" />
    <glyph glyph-name="quoteleft" unicode="&#x2018;" 
d="M558 709h-182l215 480h119z" />
    <glyph glyph-name="quoteright" unicode="&#x2019;" 
d="M528 1189h182l-215 -480h-119z" />
    <glyph glyph-name="divide" unicode="&#xf7;" 
d="M613 1055q34 0 58 -26q20 -23 20 -53q0 -36 -26 -60q-23 -20 -54 -20q-35 0 -59 26q-20 23 -20 54q0 35 26 59q23 20 55 20zM140 636h949v-75h-949v75zM613 299q34 0 58 -26q20 -23 20 -53q0 -36 -26 -60q-23 -20 -54 -20q-35 0 -59 26q-20 23 -20 54q0 34 26 59
q23 20 55 20z" />
    <glyph glyph-name="lozenge" unicode="&#x25ca;" 
d="M614 1198l449 -621l-449 -622l-449 622zM614 1045l-341 -468l341 -469l341 469z" />
    <glyph glyph-name="ydieresis" unicode="&#xff;" 
d="M50 874h362v-68h-155l358 -687l392 687h-154v68h353v-68h-114l-607 -1059h199v-68h-602v68h319l170 295l-399 764h-122v68zM396 1060v218h135v-218h-135zM699 1060v218h135v-218h-135z" />
    <glyph glyph-name="Ydieresis" unicode="&#x178;" 
d="M65 1153h382v-68h-172l346 -567l341 567h-175v68h378v-68h-126l-384 -639v-378h248v-68h-575v68h252v378l-389 639h-126v68zM396 1302v218h135v-218h-135zM699 1302v218h135v-218h-135z" />
    <glyph glyph-name="fraction" unicode="&#x2215;" 
d="M1130 1297l59 -41l-1045 -1439l-57 44z" />
    <glyph glyph-name="currency" unicode="&#xa4;" 
d="M973 288l104 -104l-53 -53l-102 102q-134 -117 -308 -117q-175 0 -308 117l-109 -109l-53 53l110 111q-101 129 -101 289q0 173 118 308l-120 120l53 53l121 -122q129 102 289 102q159 0 289 -102l128 129l53 -54l-127 -126q118 -135 118 -308q0 -159 -102 -289zM609 974
q-155 0 -268 -116t-113 -281q0 -166 115 -283q112 -114 271 -114q158 0 271 114q115 117 115 282q0 80 -30.5 155t-84.5 129q-116 114 -276 114z" />
    <glyph glyph-name="guilsinglleft" unicode="&#x2039;" 
d="M827 810l42 -55l-415 -299l415 -299l-40 -58l-470 357z" />
    <glyph glyph-name="guilsinglright" unicode="&#x203a;" 
d="M402 810l467 -354l-470 -357l-40 58l415 299l-415 299z" />
    <glyph glyph-name="fi" unicode="&#xf001;" 
d="M870 874v-806h340v-68h-1192v68h197v738h-197v68h197v110q0 132 32 187q65 111 255 111q106 0 201 -31l-30 -68q-111 24 -184 24q-103 0 -154 -45q-27 -25 -35 -60q-10 -48 -10 -123v-105h580zM290 68h505v738h-505v-738zM781 1130v218h135v-218h-135z" />
    <glyph glyph-name="fl" unicode="&#xf002;" 
d="M637 1256l230 15v-1203h321v-68h-1169v68h197v731h-197v75h197v110q0 131 29 186q60 112 231 112q94 0 161 -26zM626 1188q-83 21 -148 21q-100 0 -147 -47q-25 -25 -31 -60q-9 -49 -9 -123v-105h396v-75h-396v-731h501v1131z" />
    <glyph glyph-name="daggerdbl" unicode="&#x2021;" 
d="M571 1153h86v-289h234v-86h-234v-541h234v-86h-234v-347h-86v347h-234v86h234v541h-234v86h234v289z" />
    <glyph glyph-name="periodcentered" unicode="&#x2219;" 
d="M616 564q58 0 103 -38q41 -35 41 -89t-41 -89q-44 -38 -105 -38t-105 38q-41 36 -41 89q0 54 41 89q45 38 107 38z" />
    <glyph glyph-name="quotesinglbase" unicode="&#x201a;" 
d="M528 250h182l-215 -480h-119z" />
    <glyph glyph-name="quotedblbase" unicode="&#x201e;" 
d="M347 250h182l-215 -480h-119zM709 250h182l-215 -480h-119z" />
    <glyph glyph-name="perthousand" unicode="&#x2030;" 
d="M859 874l30 -70l-827 -366l-30 70zM429 502q89 0 151 -71q70 -80 70 -195q0 -113 -70 -194q-62 -71 -155 -71q-92 0 -154 71q-70 81 -70 193q0 116 70 196q63 71 158 71zM424 435q-66 0 -105 -64q-37 -59 -37 -135q0 -75 37 -134q39 -64 107 -64q67 0 107 64
q36 59 36 134q0 77 -36 135q-40 64 -109 64zM301 1259q90 0 151 -71q70 -80 70 -194t-70 -194q-62 -71 -154 -71q-93 0 -154 71q-70 81 -70 193q0 116 70 195q62 71 157 71zM297 1192q-66 0 -106 -64q-36 -58 -36 -134q0 -75 36 -134q40 -64 107 -64q68 0 107 64
q36 59 36 133q0 77 -36 135q-40 64 -108 64zM952 502q90 0 151 -71q70 -81 70 -194q0 -114 -70 -195q-62 -71 -154 -71t-154 71q-70 81 -70 193q0 116 70 196q62 71 157 71zM948 435q-66 0 -106 -64q-36 -59 -36 -135q0 -74 36 -134q39 -64 107 -64t107 64q36 59 36 134
q0 77 -36 135q-40 64 -108 64z" />
    <glyph glyph-name="Acircumflex" unicode="&#xc2;" 
d="M237 1153h427l444 -1085h102v-68h-401v68h222l-134 323h-566l-134 -323h224v-68h-401v68h106l420 1017h-309v68zM615 1085l-259 -632h518zM539 1598h141l307 -325l-50 -38l-333 277l-311 -277l-51 38z" />
    <glyph glyph-name="Ecircumflex" unicode="&#xca;" 
d="M119 1153h968l8 -355h-68l-21 287h-633v-440h370v153h66v-374h-66v153h-370v-509h654l12 289h67v-357h-987v68h179v1017h-179v68zM539 1598h141l307 -325l-50 -38l-333 277l-311 -277l-51 38z" />
    <glyph glyph-name="Aacute" unicode="&#xc1;" 
d="M237 1153h427l444 -1085h102v-68h-401v68h222l-134 323h-566l-134 -323h224v-68h-401v68h106l420 1017h-309v68zM615 1085l-259 -632h518zM929 1598l-360 -330h-75l253 330h182z" />
    <glyph glyph-name="Edieresis" unicode="&#xcb;" 
d="M119 1153h968l8 -355h-68l-21 287h-633v-440h370v153h66v-374h-66v153h-370v-509h654l12 289h67v-357h-987v68h179v1017h-179v68zM395 1302v218h135v-218h-135zM698 1302v218h135v-218h-135z" />
    <glyph glyph-name="Egrave" unicode="&#xc8;" 
d="M119 1153h968l8 -355h-68l-21 287h-633v-440h370v153h66v-374h-66v153h-370v-509h654l12 289h67v-357h-987v68h179v1017h-179v68zM300 1598h183l252 -330h-75z" />
    <glyph glyph-name="Iacute" unicode="&#xcd;" 
d="M210 1153h808v-68h-366v-1017h366v-68h-808v68h367v1017h-367v68zM929 1598l-360 -330h-75l253 330h182z" />
    <glyph glyph-name="Icircumflex" unicode="&#xce;" 
d="M210 1153h808v-68h-366v-1017h366v-68h-808v68h367v1017h-367v68zM539 1598h141l307 -325l-50 -38l-333 277l-311 -277l-51 38z" />
    <glyph glyph-name="Idieresis" unicode="&#xcf;" 
d="M210 1153h808v-68h-366v-1017h366v-68h-808v68h367v1017h-367v68zM430 1302v218h100v-218h-100zM699 1302v218h100v-218h-100z" />
    <glyph glyph-name="Igrave" unicode="&#xcc;" 
d="M210 1153h808v-68h-366v-1017h366v-68h-808v68h367v1017h-367v68zM300 1598h183l252 -330h-75z" />
    <glyph glyph-name="Oacute" unicode="&#xd3;" 
d="M622 1189q217 0 364 -166q155 -175 155 -447q0 -268 -155 -446q-145 -166 -371 -166t-371 166q-155 179 -155 445q0 274 155 448q149 166 378 166zM609 1114q-180 0 -303 -146q-131 -156 -131 -392q0 -232 131 -391q121 -146 309 -146t309 146q131 159 131 390
q0 238 -131 393q-124 146 -315 146zM929 1598l-360 -330h-75l253 330h182z" />
    <glyph glyph-name="Ocircumflex" unicode="&#xd4;" 
d="M622 1189q217 0 364 -166q155 -175 155 -447q0 -268 -155 -446q-145 -166 -371 -166t-371 166q-155 179 -155 445q0 274 155 448q149 166 378 166zM609 1114q-180 0 -303 -146q-131 -156 -131 -392q0 -232 131 -391q121 -146 309 -146t309 146q131 159 131 390
q0 238 -131 393q-124 146 -315 146zM539 1598h141l307 -325l-50 -38l-333 277l-311 -277l-51 38z" />
    <glyph glyph-name="apple" unicode="&#xf000;" 
d="M869 1196q0 -119 -66 -200q-78 -97 -191 -100q2 124 69 202q77 87 188 98zM1116 790q-53 -41 -79 -73q-60 -75 -60 -168q0 -122 90 -206q32 -30 82 -52q-55 -135 -118 -216q-93 -121 -172 -121q-43 0 -112 32q-42 19 -89 19q-63 0 -102 -15q-11 -4 -49 -20
q-44 -18 -80 -18q-44 0 -94 37.5t-94 103.5q-145 215 -145 444q0 79 27.5 153.5t75.5 127.5q84 91 219 91q54 0 146 -34q48 -18 72 -18q27 0 101 28q75 28 130 28q161 0 251 -123z" />
    <glyph glyph-name="Ograve" unicode="&#xd2;" 
d="M622 1189q217 0 364 -166q155 -175 155 -447q0 -268 -155 -446q-145 -166 -371 -166t-371 166q-155 179 -155 445q0 274 155 448q149 166 378 166zM609 1114q-180 0 -303 -146q-131 -156 -131 -392q0 -232 131 -391q121 -146 309 -146t309 146q131 159 131 390
q0 238 -131 393q-124 146 -315 146zM300 1598h183l252 -330h-75z" />
    <glyph glyph-name="Uacute" unicode="&#xda;" 
d="M62 1153h443v-68h-214v-608q0 -160 21 -232q61 -206 318 -206q175 0 265 92q46 46 58 102q18 81 18 226v626h-215v68h431v-68h-150v-633q0 -207 -35 -289q-47 -109 -177 -162q-92 -37 -199 -37q-179 0 -289 100q-86 78 -109 208q-12 71 -12 205v608h-154v68zM929 1598
l-360 -330h-75l253 330h182z" />
    <glyph glyph-name="Ucircumflex" unicode="&#xdb;" 
d="M62 1153h443v-68h-214v-608q0 -160 21 -232q61 -206 318 -206q175 0 265 92q46 46 58 102q18 81 18 226v626h-215v68h431v-68h-150v-633q0 -207 -35 -289q-47 -109 -177 -162q-92 -37 -199 -37q-179 0 -289 100q-86 78 -109 208q-12 71 -12 205v608h-154v68zM539 1598
h141l307 -325l-50 -38l-333 277l-311 -277l-51 38z" />
    <glyph glyph-name="Ugrave" unicode="&#xd9;" 
d="M62 1153h443v-68h-214v-608q0 -160 21 -232q61 -206 318 -206q175 0 265 92q46 46 58 102q18 81 18 226v626h-215v68h431v-68h-150v-633q0 -207 -35 -289q-47 -109 -177 -162q-92 -37 -199 -37q-179 0 -289 100q-86 78 -109 208q-12 71 -12 205v608h-154v68zM300 1598
h183l252 -330h-75z" />
    <glyph glyph-name="dotlessi" unicode="&#x131;" 
d="M271 874h384v-806h364v-68h-808v68h369v738h-309v68z" />
    <glyph glyph-name="circumflex" unicode="&#x2c6;" 
d="M533 1355h152l302 -325l-50 -38l-333 277l-311 -277l-51 38z" />
    <glyph glyph-name="tilde" unicode="&#x2dc;" 
d="M938 1274l69 -32q-21 -59 -58 -102q-74 -83 -177 -83q-75 0 -175 70q-50 35 -82 53q-33 18 -71 18q-97 0 -152 -131l-68 35q27 69 65 109q68 70 155 70q63 0 117 -32q28 -17 64 -42q54 -39 88.5 -53.5t69.5 -14.5q102 0 155 135z" />
    <glyph glyph-name="macron" unicode="&#x2c9;" 
d="M235 1200h757v-85h-757v85z" />
    <glyph glyph-name="breve" unicode="&#x2d8;" 
d="M221 1287h88q30 -49 68 -79q98 -81 238 -81q138 0 237 81q38 30 68 79h88q-30 -79 -85 -130q-125 -116 -309 -116t-308 116q-55 51 -85 130z" />
    <glyph glyph-name="dotaccent" unicode="&#x2d9;" 
d="M547 1060v218h135v-218h-135z" />
    <glyph glyph-name="ring" unicode="&#x2da;" 
d="M617 1324q62 0 106 -48q38 -42 38 -98q0 -66 -48 -109q-42 -38 -98 -38q-66 0 -109 48q-38 42 -38 100q0 63 49 107q41 38 100 38zM613 1261q-36 0 -60 -28q-22 -24 -22 -55q0 -38 28 -62q24 -22 56 -22q37 0 62 28q21 24 21 56q0 36 -28 61q-23 22 -57 22z" />
    <glyph glyph-name="cedilla" unicode="&#xb8;" 
d="M595 0h61l-8 -94q33 -4 54 -22q35 -30 35 -80q0 -46 -28 -79q-33 -38 -86 -38q-44 0 -98 35l30 51q40 -25 65 -25q23 0 39 18q15 15 15 37q0 20 -14 34q-14 15 -37 15q-8 0 -42 -2z" />
    <glyph glyph-name="hungarumlaut" unicode="&#x2dd;" 
d="M825 1390l-351 -359h-59l285 359h125zM1079 1390l-351 -359h-59l285 359h125z" />
    <glyph glyph-name="ogonek" unicode="&#x2db;" 
d="M901 49h103q-113 -41 -154 -83q-50 -49 -50 -117q0 -49 37 -80q34 -29 82 -29q62 0 145 48l34 -63q-103 -55 -184 -55q-88 0 -139 46q-54 48 -54 126q0 90 69 144q36 28 111 63z" />
    <glyph glyph-name="caron" unicode="&#x2c7;" 
d="M696 1027h-153l-301 325l49 38l334 -277l311 277l51 -38z" />
    <glyph glyph-name="Lslash" unicode="&#x141;" 
d="M409 669l332 200v-86l-332 -201v-514h623l29 425h70l-22 -493h-985v68h210v469l-185 -112v86l185 112v462h-210v68h543v-68h-258v-416z" />
    <glyph glyph-name="lslash" unicode="&#x142;" 
d="M652 713l258 157v-86l-258 -157v-559h366v-68h-808v68h367v514l-259 -156v86l259 156v514l-346 -23l-7 66l428 29v-541z" />
    <glyph glyph-name="Scaron" unicode="&#x160;" 
d="M982 1184l67 -16q-40 -132 -40 -208q0 -65 15 -146l-73 -6q-12 134 -46 188q-34 55 -111 87q-75 31 -167 31q-150 0 -245 -79q-95 -78 -95 -194q0 -130 123 -196q71 -37 215 -49q162 -14 215 -29q207 -62 207 -261q0 -145 -107 -237q-123 -105 -318 -105q-173 0 -293 64
q-50 27 -61 27q-34 0 -43 -97l-70 11q17 100 17 154q0 78 -32 201l67 13q25 -120 83 -187q95 -111 312 -111q193 0 292 93q72 68 72 173q0 130 -116 178q-55 22 -213 36q-95 8 -148.5 19.5t-103.5 34.5q-72 32 -119 91q-60 78 -60 178q0 109 75 200q119 147 344 147
q105 0 199 -37q31 -13 92 -46q13 -7 20 -7q31 0 46 85zM690 1270h-141l-307 325l49 38l334 -277l311 277l51 -38z" />
    <glyph glyph-name="scaron" unicode="&#x161;" 
d="M926 910l60 -9q-13 -74 -13 -122q0 -74 23 -161l-70 -9q-9 83 -55 133q-38 41 -111 65q-76 25 -172 25q-103 0 -175 -35q-49 -23 -77 -61.5t-28 -83.5q0 -53 38 -94t108 -62q51 -16 150 -23q14 -1 152 -8q143 -8 215.5 -65t72.5 -162q0 -115 -104 -188q-114 -81 -299 -81
q-109 0 -196 28q-46 15 -109 47q-15 7 -25 7q-29 0 -38 -82l-71 9q19 67 19 133q0 69 -19 167l71 10q17 -91 51 -133q93 -113 313 -113q80 0 148.5 18t108.5 49q69 53 69 133q0 39 -19.5 72t-52.5 49q-43 22 -97 28q-63 6 -146 9q-175 7 -263 41q-79 31 -121 89t-42 126
q0 133 139 201q97 48 229 48q88 0 166 -21q18 -6 112 -40q10 -3 21 -3q25 0 32 31q3 15 5 38zM696 1027h-153l-301 325l49 38l334 -277l311 277l51 -38z" />
    <glyph glyph-name="Zcaron" unicode="&#x17d;" 
d="M190 1153h818v-68l-752 -1017h732v341h66v-409h-878v76l741 1009h-661v-307h-66v375zM690 1270h-141l-307 325l49 38l334 -277l311 277l51 -38z" />
    <glyph glyph-name="zcaron" unicode="&#x17e;" 
d="M239 874h773v-68l-698 -738h623v195h75v-263h-795v75l693 731h-596v-188h-75v256zM696 1027h-153l-301 325l49 38l334 -277l311 277l51 -38z" />
    <glyph glyph-name="brokenbar" unicode="&#xa6;" 
d="M575 1153h80v-565h-80v565zM575 265h80v-553h-80v553z" />
    <glyph glyph-name="Eth" unicode="&#xd0;" 
d="M237 575h-167v68h167v442h-167v68h510q111 0 177 -11q194 -31 294 -219q74 -137 74 -325q0 -254 -111 -412q-100 -144 -279 -175q-68 -11 -163 -11h-502v68h167v507zM312 575v-507h259q84 0 141 10q150 27 232 153q95 146 95 363q0 154 -57 275q-80 171 -233 203
q-60 13 -167 13h-270v-442h388v-68h-388z" />
    <glyph glyph-name="eth" unicode="&#xf0;" 
d="M519 1165l280 131l29 -62l-241 -112q143 -96 248 -189q141 -125 211 -240q74 -120 74 -255q0 -97 -36.5 -186.5t-102.5 -154.5q-67 -66 -155.5 -97t-211.5 -31q-122 0 -210 31t-156 97q-66 65 -102.5 154t-36.5 186t36.5 186t102.5 154q67 66 155.5 97t209.5 31
q64 0 134 -12q-141 117 -247 188l-278 -129l-29 61l239 111l-15 9q-51 32 -157 93l48 69q154 -93 211 -130zM607 832q-101 0 -172.5 -27.5t-129.5 -87.5q-110 -115 -110 -279t110 -280q66 -70 145 -94q70 -22 165 -22q143 0 228 50q103 62 155 176q36 80 36 169
q0 167 -110 280q-67 70 -145 94q-70 21 -172 21z" />
    <glyph glyph-name="Yacute" unicode="&#xdd;" 
d="M65 1153h382v-68h-172l346 -567l341 567h-175v68h378v-68h-126l-384 -639v-378h248v-68h-575v68h252v378l-389 639h-126v68zM929 1598l-360 -330h-75l253 330h182z" />
    <glyph glyph-name="yacute" unicode="&#xfd;" 
d="M50 874h362v-68h-155l358 -687l392 687h-154v68h353v-68h-114l-607 -1059h199v-68h-602v68h319l170 295l-399 764h-122v68zM952 1390l-385 -359h-71l274 359h182z" />
    <glyph glyph-name="Thorn" unicode="&#xde;" 
d="M441 68h305v-68h-551v68h171v1017h-171v68h416v-68h-170v-93h218q158 0 241 -27q98 -31 161 -113q75 -97 75 -214q0 -137 -97 -234q-68 -69 -183 -90q-62 -11 -285 -12h-130v-234zM441 370h132q231 0 308 24q82 25 128 96q46 69 46 152q0 129 -96 211q-70 59 -195 68
q-40 3 -105 3h-218v-554z" />
    <glyph glyph-name="thorn" unicode="&#xfe;" 
d="M19 1275l267 14v-597q57 81 110 123q114 89 272 89q197 0 328 -141q125 -134 125 -319q0 -187 -124 -323q-64 -71 -150.5 -111t-174.5 -40q-77 0 -155 30.5t-138 84.5q-48 43 -93 113v-451h314v-68h-560v68h171v1468l-192 -10v70zM660 831q-84 0 -161.5 -36.5
t-132.5 -102.5q-88 -106 -88 -248q0 -179 131 -298q114 -104 255 -104q85 0 162 40.5t130 112.5q79 110 79 252q0 158 -102 271q-100 113 -273 113z" />
    <glyph glyph-name="minus" unicode="&#x2212;" 
d="M1095 632v-75h-955v75h955z" />
    <glyph glyph-name="multiply" unicode="&#xd7;" 
d="M220 939l53 53l345 -345l352 352l53 -53l-352 -352l345 -345l-53 -53l-345 345l-352 -352l-53 53l352 352z" />
    <glyph glyph-name="onesuperior" unicode="&#xb9;" 
d="M359 1113l255 110h51v-699h217v-62h-516v62h219v616l-198 -86z" />
    <glyph glyph-name="twosuperior" unicode="&#xb2;" 
d="M766 644h74v-183h-508v67q163 133 307 268q59 55 84 89q35 47 35 112q0 59 -35 98q-54 61 -132 61q-74 0 -120 -43q-33 -30 -33 -63q0 -8 1 -20h-82v81q97 112 237 112q116 0 191 -83q56 -61 56 -144q0 -78 -53 -147q-37 -49 -119 -120l-66 -57l-169 -148h332v120z" />
    <glyph glyph-name="threesuperior" unicode="&#xb3;" 
d="M349 1141q54 34 92 52q65 30 130 30q102 0 170 -66q53 -51 53 -125q0 -59 -31 -105q-20 -30 -66 -60q136 -67 136 -195q0 -100 -76 -165q-75 -63 -186 -63q-67 0 -135 24q-30 10 -102 39l27 63l27 -10q67 -27 90 -34q53 -15 98 -15q83 0 136 57q38 42 38 103
q0 63 -37 104q-47 52 -135 52q-20 0 -53 -2v63q95 2 133 32q53 41 53 109q0 46 -27 78q-41 49 -113 49q-54 0 -107 -26q-19 -10 -80 -45z" />
    <glyph glyph-name="onehalf" unicode="&#xbd;" 
d="M8 1182l255 110h51v-699h217v-62h-516v62h219v616l-198 -86zM1130 1297l60 -41l-1046 -1439l-57 44zM1124 21h74v-182h-508v66q170 139 307 267q60 56 84 90q35 47 35 111q0 60 -35 99q-54 61 -132 61q-73 0 -120 -43q-33 -29 -33 -63q0 -8 1 -20h-82v82q96 111 237 111
q116 0 191 -83q56 -61 56 -144q0 -78 -53 -147q-36 -49 -119 -120l-66 -57l-169 -148h332v120z" />
    <glyph glyph-name="onequarter" unicode="&#xbc;" 
d="M8 1182l255 110h51v-699h217v-62h-516v62h219v616l-198 -86zM1130 1297l60 -41l-1046 -1439l-57 44zM1042 601v-523h115v-62h-115v-115h115v-62h-363v62h168v115h-335v71l312 514h103zM962 78v424l-255 -424h255z" />
    <glyph glyph-name="threequarters" unicode="&#xbe;" 
d="M58 1210q54 34 92 52q65 30 130 30q102 0 170 -66q53 -51 53 -125q0 -59 -31 -105q-20 -30 -66 -60q136 -67 136 -194q0 -101 -76 -166q-75 -63 -186 -63q-67 0 -135 24q-29 10 -102 39l27 63q17 -6 27 -10q68 -28 90 -34q53 -15 98 -15q83 0 136 57q38 42 38 103
q0 63 -37 104q-48 52 -136 52q-20 0 -52 -2v63q95 2 133 32q53 41 53 109q0 46 -27 78q-41 49 -114 49q-53 0 -106 -26q-21 -11 -80 -45zM1131 1297l59 -41l-1045 -1439l-57 44zM1043 601v-523h114v-62h-114v-115h114v-62h-363v62h169v115h-335v71l312 514h103zM963 78v424
l-256 -424h256z" />
    <glyph glyph-name="franc" unicode="&#x20a3;" 
d="M730 644v-237q100 121 144 163q52 51 91 73q55 31 119 31q89 0 144 -58q33 -36 41 -88l-75 -12q-8 37 -30 56q-34 29 -83 29q-63 0 -129 -49q-58 -43 -222 -232v-252h401v-68h-1094v68h172v1017h-172v68h953l10 -353h-63l-26 285h-626v-441h445zM655 576h-370v-508h370
v508z" />
    <glyph glyph-name="Gbreve" unicode="&#x11e;" 
d="M220 1529h88q30 -49 68 -79q98 -81 238 -81q138 0 237 81q38 30 68 79h88q-30 -79 -85 -130q-124 -116 -309 -116q-184 0 -308 116q-55 51 -85 130zM694 488h489v-68h-101v-362q-231 -97 -416 -97q-246 0 -397 150q-79 80 -122 197q-47 125 -47 261q0 128 40 244.5
t113 200.5q152 175 384 175q100 0 191 -37q59 -24 128 -79q17 -13 27 -13q31 0 41 93l69 -14q-25 -100 -25 -178q0 -63 25 -182l-69 -12q-21 132 -82 209q-53 67 -135 103q-79 35 -167 35q-98 0 -186 -42.5t-150 -119.5q-118 -148 -118 -380q0 -258 138 -403
q60 -63 150.5 -98t195.5 -35q129 0 337 72v312h-313v68z" />
    <glyph glyph-name="gbreve" unicode="&#x11f;" 
d="M175 1287h88q30 -49 68 -79q98 -81 238 -81q138 0 237 81q38 30 68 79h88q-30 -79 -85 -130q-125 -116 -309 -116t-308 116q-55 51 -85 130zM884 874h248v-68h-173v-757q0 -139 -36 -207q-87 -164 -338 -164q-147 0 -401 69l18 67l142 -35q127 -28 231 -28q160 0 239 74
q46 43 59 102q11 50 11 122v164q-61 -78 -119 -118q-105 -72 -234 -72q-191 0 -319 140q-116 126 -116 299q0 90 36 175t100 146q63 60 149 92q75 29 148 29q144 0 255 -92q53 -45 100 -128v190zM530 831q-71 0 -139.5 -32.5t-119.5 -91.5q-89 -102 -89 -243
q0 -166 118 -275q100 -93 235 -93q80 0 151.5 35t120.5 99q77 101 77 235q0 165 -119 275q-97 91 -235 91z" />
    <glyph glyph-name="Idot" unicode="&#x130;" 
d="M547 1302v218h135v-218h-135zM210 1153h808v-68h-366v-1017h366v-68h-808v68h367v1017h-367v68z" />
    <glyph glyph-name="Scedilla" unicode="&#x15e;" 
d="M653 -36l-4 -58q32 -4 53 -22q35 -30 35 -80q0 -46 -28 -79q-33 -38 -86 -38q-44 0 -98 35l30 51q40 -25 65 -25q23 0 39 18q15 15 15 37q0 20 -14 34q-14 15 -36 15q-4 0 -42 -2l10 114q-160 8 -263 64q-50 27 -61 27q-34 0 -43 -97l-70 10q17 101 17 154q0 79 -32 201
l67 14q25 -120 83 -188q95 -110 312 -110q193 0 292 93q72 67 72 172q0 131 -116 178q-55 23 -213 37q-95 8 -148.5 19.5t-103.5 33.5q-72 33 -119 92q-60 78 -60 177q0 109 75 201q119 146 344 146q105 0 199 -37q23 -9 92 -46q12 -7 20 -7q31 0 46 85l67 -15
q-40 -132 -40 -208q0 -66 15 -146l-73 -6q-12 133 -46 187q-34 55 -111 87q-75 31 -167 31q-150 0 -245 -79q-95 -78 -95 -193q0 -131 123 -196q71 -38 215 -50q162 -14 215 -29q207 -62 207 -260q0 -110 -66 -194q-105 -134 -328 -148z" />
    <glyph glyph-name="scedilla" unicode="&#x15f;" 
d="M653 -31l-5 -63q32 -4 53 -22q35 -30 35 -80q0 -46 -28 -79q-33 -38 -86 -38q-44 0 -98 35l30 51q40 -25 65 -25q23 0 39 18q15 15 15 37q0 20 -13 34q-15 15 -37 15q-6 0 -42 -2l11 120q-129 8 -256 73q-15 7 -25 7q-29 0 -38 -81l-71 9q19 67 19 133q0 69 -19 167
l71 10q17 -92 51 -134q93 -113 313 -113q80 0 148.5 18t108.5 49q69 53 69 133q0 39 -19.5 72t-52.5 50q-43 22 -97 27q-63 6 -146 10q-174 6 -263 41q-79 31 -121 88q-42 59 -42 126q0 134 139 202q97 48 229 48q88 0 166 -21q18 -6 112 -40q10 -3 21 -3q25 0 32 31
q3 15 5 38l60 -9q-13 -74 -13 -122q0 -74 23 -161l-70 -9q-9 83 -55 133q-38 41 -111 65q-76 25 -172 25q-103 0 -175 -35q-49 -23 -77 -61.5t-28 -83.5q0 -53 38 -94t108 -62q51 -16 150 -23q14 -1 152 -9q143 -7 215.5 -64t72.5 -163q0 -88 -64 -154q-104 -108 -327 -114z
" />
    <glyph glyph-name="Cacute" unicode="&#x106;" 
d="M975 1598l-360 -330h-75l253 330h182zM1057 1153l66 -9q-21 -111 -21 -176q0 -93 21 -181l-66 -15q-9 69 -21 110q-33 111 -145 178q-91 54 -205 54q-104 0 -195 -43t-157 -122q-115 -140 -115 -356q0 -120 34.5 -228.5t94.5 -180.5q63 -73 161 -112q82 -33 176 -33
q132 0 264 65q52 26 126 76l48 -61q-215 -155 -436 -155q-178 0 -315 95q-120 85 -183 239q-56 137 -56 293q0 251 142 416q157 182 405 182q95 0 177 -31q43 -16 131 -74q18 -11 30 -11q21 0 30 31q3 13 9 49z" />
    <glyph glyph-name="cacute" unicode="&#x107;" 
d="M952 1390l-385 -359h-71l274 359h182zM986 906l70 -13q-23 -95 -23 -154q0 -47 23 -153l-70 -9q-8 54 -18 82q-29 89 -124 134q-81 39 -190 39q-186 0 -299 -107q-58 -54 -90 -135q-29 -74 -29 -150q0 -79 31.5 -159t82.5 -130q58 -57 151 -87q67 -22 137 -22
q136 0 263 72q39 22 127 81l42 -60q-88 -59 -139 -86q-153 -80 -304 -80q-102 0 -194.5 37.5t-156.5 104.5q-65 68 -99 165q-28 80 -28 162q0 144 78 263q71 110 201 163q99 41 206 41q73 0 155 -22q21 -5 134 -52q14 -5 23 -5q31 0 40 80z" />
    <glyph glyph-name="Ccaron" unicode="&#x10c;" 
d="M736 1270h-141l-307 325l49 38l334 -277l311 277l51 -38zM1057 1153l66 -9q-21 -111 -21 -176q0 -93 21 -181l-66 -15q-9 69 -21 110q-33 111 -145 178q-91 54 -205 54q-104 0 -195 -43t-157 -122q-115 -140 -115 -356q0 -120 34.5 -228.5t94.5 -180.5q63 -73 161 -112
q82 -33 176 -33q132 0 264 65q52 26 126 76l48 -61q-215 -155 -436 -155q-178 0 -315 95q-120 85 -183 239q-56 137 -56 293q0 251 142 416q157 182 405 182q95 0 177 -31q43 -16 131 -74q18 -11 30 -11q21 0 30 31q3 13 9 49z" />
    <glyph glyph-name="ccaron" unicode="&#x10d;" 
d="M719 1027h-153l-301 325l49 38l334 -277l311 277l51 -38zM986 906l70 -13q-23 -95 -23 -154q0 -47 23 -153l-70 -9q-8 54 -18 82q-29 89 -124 134q-81 39 -190 39q-186 0 -299 -107q-58 -54 -90 -135q-29 -74 -29 -150q0 -79 31.5 -159t82.5 -130q58 -57 151 -87
q67 -22 137 -22q136 0 263 72q39 22 127 81l42 -60q-88 -59 -139 -86q-153 -80 -304 -80q-102 0 -194.5 37.5t-156.5 104.5q-65 68 -99 165q-28 80 -28 162q0 144 78 263q71 110 201 163q99 41 206 41q73 0 155 -22q21 -5 134 -52q14 -5 23 -5q31 0 40 80z" />
    <glyph glyph-name="dmacron" unicode="&#x111;" 
d="M1014 1065h177v-68h-177v-929h177v-68h-252v191q-37 -76 -104 -129q-119 -93 -272 -93q-198 0 -331 147q-119 132 -119 322q0 208 135 340q61 60 143 93.5t167 33.5q126 0 240 -68q87 -52 141 -148v308h-417v68h417v140l-344 -26l7 70l412 36v-220zM562 832
q-72 0 -140 -30t-119 -84q-103 -111 -103 -276q0 -169 107 -285q106 -115 258 -115q77 0 148 32.5t123 91.5q100 112 100 268q0 159 -97 273q-107 125 -277 125z" />
    <glyph glyph-name="nbspace" unicode="&#xa0;" 
 />
    <glyph glyph-name="sfthyphen" unicode="&#xad;" 
d="M406 635h415v-85h-415v85z" />
    <glyph glyph-name="overscore" unicode="&#xaf;" 
d="M0 1355h1229v-75h-1229v75z" />
    <glyph glyph-name="middot" unicode="&#xb7;" 
d="M616 564q58 0 103 -38q41 -35 41 -89t-41 -89q-44 -38 -105 -38t-105 38q-41 36 -41 89q0 54 41 89q45 38 107 38z" />
    <glyph glyph-name="glyph262" 
d="M938 1517l68 -32q-20 -60 -57 -102q-74 -83 -177 -83q-75 0 -175 70q-50 35 -82 52q-33 19 -71 19q-97 0 -152 -131l-68 34q27 69 65 110q68 70 155 70q63 0 117 -32q28 -17 64 -42q54 -39 88 -53.5t70 -14.5q70 0 120 68q19 27 35 67z" />
    <glyph glyph-name="glyph263" 
d="M539 1598h141l307 -325l-50 -38l-333 277l-311 -277l-51 38z" />
    <glyph glyph-name="glyph264" 
d="M547 1302v218h135v-218h-135z" />
    <glyph glyph-name="glyph265" 
d="M929 1598l-360 -330h-75l253 330h182z" />
    <glyph glyph-name="glyph266" 
d="M395 1060v218h135v-218h-135zM698 1060v218h135v-218h-135z" />
    <glyph glyph-name="glyph267" 
d="M430 1302v218h100v-218h-100zM699 1302v218h100v-218h-100z" />
    <glyph glyph-name="glyph268" 
d="M690 1270h-141l-307 325l49 38l334 -277l311 277l51 -38z" />
    <glyph glyph-name="glyph269" 
d="M221 1529h88q30 -49 68 -79q98 -81 238 -81q138 0 237 81q38 30 68 79h88q-30 -79 -85 -130q-124 -116 -309 -116q-184 0 -308 116q-55 51 -85 130z" />
    <glyph glyph-name="glyph270" 
d="M300 1598h183l252 -330h-75z" />
    <glyph glyph-name="glyph271" 
 />
  </font>
</defs>
</svg>
