<?xml version="1.0" standalone="no"?>
<!DOCTYPE svg PUBLIC "-//W3C//DTD SVG 1.1//EN" "http://www.w3.org/Graphics/SVG/1.1/DTD/svg11.dtd" >
<svg width="100%" height="100%" 
xmlns="http://www.w3.org/2000/svg" 
xmlns:xlink="http://www.w3.org/1999/xlink">
<defs>
<font id="HelveticaNormal" horiz-adv-x="278" >
  <font-face 
    font-family="HelveticaNormalFont"
    font-weight="100"
    font-stretch="normal"
    units-per-em="1000"
    panose-1="0 0 0 0 0 0 0 0 0 0"
    ascent="800"
    descent="-200"
    x-height="473"
    cap-height="667"
    bbox="-163 -206 985 861"
    underline-thickness="50"
    underline-position="-55"
    unicode-range="U+0020-U+F002"
  />
<missing-glyph 
 />
    <glyph glyph-name=".notdef" 
 />
    <glyph glyph-name="glyph1" horiz-adv-x="0" 
 />
    <glyph glyph-name="glyph2" 
 />
    <glyph glyph-name="space" unicode=" " 
 />
    <glyph glyph-name="space" unicode="&#xa0;" 
 />
    <glyph glyph-name="exclam" unicode="!" horiz-adv-x="163" 
d="M90 91v-91h-17v91h17v0zM90 173h-17v494h17v-494v0z" />
    <glyph glyph-name="quotedbl" unicode="&#x22;" horiz-adv-x="251" 
d="M85 400h-20v267h20v-267v0zM185 400h-19v267h20l-1 -267v0z" />
    <glyph glyph-name="numbersign" unicode="#" horiz-adv-x="577" 
d="M362 245l-31 -217h-19l30 217h-130l-31 -217h-19l30 217h-137l3 19h137l18 125h-138l3 19h137l28 201h20l-28 -201h130l29 201h19l-28 -201h137l-3 -19h-137l-18 -125h138l-3 -19h-137v0zM363 389h-131l-18 -125h131l18 125v0z" />
    <glyph glyph-name="dollar" unicode="$" horiz-adv-x="571" 
d="M39 195h17q0 -111 60.5 -149t160.5 -45v321q-4 1 -8.5 2t-9.5 2q-3 1 -5.5 1.5t-5.5 1.5q-66 16 -120.5 45t-54.5 113q0 79 56 115.5t123 44.5q6 1 12.5 1.5t12.5 0.5v67h17v-67q95 -5 150.5 -44t57.5 -142h-18q0 95 -51.5 130t-138.5 40v-297q13 -2 27 -4.5t28 -6.5
q69 -15 126.5 -51t57.5 -118q0 -52 -31 -91t-78 -58q-25 -9 -51 -13.5t-53 -6.5q-6 0 -12.5 -0.5t-13.5 -0.5v-69h-17v68q-104 7 -171 50t-67 160v0zM294 0l27 2t28 3q63 10 115 44t52 108t-50.5 104.5t-111.5 44.5q-15 4 -29.5 7t-27.5 5q-1 1 -1.5 1h-1.5v-319v0zM277 633
q-5 0 -10 -0.5t-10 -0.5q-63 -5 -114.5 -40t-51.5 -107q0 -76 48 -100.5t106 -37.5q1 0 2.5 -0.5t2.5 -0.5q7 -1 13.5 -2.5t13.5 -3.5v293v0z" />
    <glyph glyph-name="percent" unicode="%" horiz-adv-x="642" 
d="M549 676l-438 -703h-22l438 703h22v0zM479 306q71 0 106.5 -45t35.5 -111q0 -67 -36.5 -113t-107.5 -46q-74 0 -108 46.5t-34 114.5q0 66 38 110t106 44v0zM479 288q-62 0 -94.5 -38.5t-32.5 -98.5q0 -59 30 -101.5t94 -42.5q65 0 97 41.5t32 102.5q0 58 -32 97.5
t-94 39.5v0zM167 660q72 0 107 -46.5t35 -113.5t-38.5 -111.5t-108.5 -44.5q-71 0 -105.5 47.5t-34.5 113.5t38 110.5t107 44.5v0zM167 642q-61 0 -94.5 -39t-33.5 -98t30 -101t94 -42q62 0 95.5 40t33.5 99t-30.5 100t-94.5 41v0z" />
    <glyph glyph-name="ampersand" unicode="&#x26;" horiz-adv-x="572" 
d="M537 2h-19l-88 110q-34 -55 -81 -86.5t-115 -31.5h-4h-4q-68 3 -124.5 45.5t-56.5 115.5q0 65 42.5 108.5t93.5 76.5q11 8 22.5 15l22.5 14q-7 9 -15 18t-16 19q-26 29 -47 62t-21 72q0 56 41.5 88t94.5 32t93.5 -32t40.5 -88q0 -49 -31.5 -83.5t-69.5 -61.5l-23.5 -16
l-21.5 -15l176 -220q11 28 17 56.5t7 58.5h17q0 -34 -7.5 -67t-22.5 -65l99 -125v0zM236 355l-28.5 -17t-30.5 -20q-43 -28 -79 -66.5t-36 -88.5q0 -73 53 -114t121 -41q62 0 106.5 34t75.5 84l-182 229v0zM241 378l19 12.5l21 13.5q36 25 67 57.5t31 79.5q0 50 -34.5 76.5
t-81.5 26.5q-46 0 -82.5 -26.5t-36.5 -76.5q0 -35 20 -66.5t44 -58.5l17.5 -19.5t15.5 -18.5v0z" />
    <glyph glyph-name="quotesingle" unicode="'" horiz-adv-x="150" 
d="M85 400h-20v267h20v-267v0z" />
    <glyph glyph-name="parenleft" unicode="(" horiz-adv-x="347" 
d="M306 -174h-20q-11 21 -20.5 41t-17.5 39q-38 86 -56.5 173.5t-18.5 186.5q0 107 28.5 207t74.5 194h17q-5 -10 -9.5 -20.5t-9.5 -20.5q-39 -87 -62 -176t-23 -186q0 -119 29.5 -226.5t87.5 -210.5v-1z" />
    <glyph glyph-name="parenright" unicode=")" horiz-adv-x="347" 
d="M40 -174q59 104 88 211.5t29 226.5q0 107 -28.5 207t-74.5 196h16q48 -94 75.5 -194.5t27.5 -206.5q0 -99 -18.5 -186.5t-55.5 -173.5l-18.5 -39t-20.5 -40l-20 -1v0z" />
    <glyph glyph-name="asterisk" unicode="*" horiz-adv-x="290" 
d="M145 548l-61 -76l-13 10l59 75l-90 32l5 15l91 -32v95h18v-95l91 32l5 -15l-90 -32l59 -75l-13 -10l-61 76v0z" />
    <glyph glyph-name="plus" unicode="+" horiz-adv-x="500" 
d="M33 336h207v188h20v-188h207v-19h-207v-187h-20v187h-207v19v0z" />
    <glyph glyph-name="comma" unicode="," horiz-adv-x="119" 
d="M64 90h15v-82q0 -24 -3.5 -44.5t-13.5 -39.5q-4 -8 -9.5 -16.5t-12.5 -17.5v26q14 20 19 42.5t5 44.5v87v0z" />
    <glyph glyph-name="hyphen" unicode="-" horiz-adv-x="208" 
d="M208 245v-16h-208v16h208v0z" />
    <glyph glyph-name="period" unicode="." horiz-adv-x="95" 
d="M40 91h15v-91h-15v91v0z" />
    <glyph glyph-name="slash" unicode="/" horiz-adv-x="397" 
d="M-20 -177h-19l376 843h20l-377 -843v0z" />
    <glyph glyph-name="zero" unicode="0" horiz-adv-x="571" 
d="M524 316q0 -13 -0.5 -26.5t-1.5 -27.5q-10 -103 -63.5 -188.5t-175.5 -85.5q-110 0 -164 79t-67 174q-3 19 -4 37t-1 36q0 20 1.5 41t4.5 42q15 95 69 174t163 79q113 0 167 -81t67 -178q3 -19 4 -38t1 -37v0zM509 315q0 20 -1.5 41.5t-5.5 42.5q-14 88 -65 162t-152 74
q-99 0 -149 -72.5t-65 -158.5q-4 -23 -6 -46t-2 -44q0 -19 1.5 -38t4.5 -39q13 -88 63 -161t151 -73q112 0 162.5 79.5t60.5 174.5q2 15 2.5 29.5t0.5 28.5v0z" />
    <glyph glyph-name="one" unicode="1" horiz-adv-x="571" 
d="M380 0h-16v560l2 63q-33 -44 -77.5 -74.5t-97.5 -47.5v16q51 16 94 47t77 73h18v-637v0z" />
    <glyph glyph-name="two" unicode="2" horiz-adv-x="571" 
d="M500 16v-16h-429q5 27 14 52.5t27 47.5q24 30 58 56.5t72 51.5q6 5 13 9.5t14 9.5q74 51 136 109.5t62 146.5q0 72 -53 111.5t-120 39.5q-98 0 -146 -55.5t-48 -151.5h-17q0 101 54 162t157 61q74 0 132 -44.5t58 -123.5q0 -72 -46.5 -128t-102.5 -97q-10 -8 -20 -15
l-20 -14l-31 -21l-33 -22q-47 -32 -88.5 -72t-50.5 -97h408v0z" />
    <glyph glyph-name="three" unicode="3" horiz-adv-x="571" 
d="M62 216h19q0 -98 51 -155.5t153 -57.5h2.5h3.5q76 2 139 47.5t63 128.5q0 98 -64 125.5t-140 31.5q-8 0 -15.5 0.5t-14.5 0.5v18q14 0 29 0.5t30 2.5q59 7 108 35t49 98q0 66 -49 101.5t-108 41.5q-5 0 -10.5 0.5t-11.5 0.5q-92 0 -146.5 -50.5t-56.5 -145.5h-18
q6 101 63 156t159 55h4h4q70 -2 128.5 -41.5t58.5 -118.5q0 -66 -42.5 -101t-101.5 -44q71 -10 116.5 -48.5t45.5 -115.5q0 -97 -68.5 -145t-157.5 -48q-106 0 -164 62t-58 166v0z" />
    <glyph glyph-name="four" unicode="4" horiz-adv-x="571" 
d="M395 0h-16v170h-321v22l315 445h22v-452h118v-15h-118v-170v0zM379 185v432l-305 -432h305v0z" />
    <glyph glyph-name="five" unicode="5" horiz-adv-x="571" 
d="M482 636v-15h-315l-60 -274q32 44 77 66t98 22q96 0 160 -61.5t64 -159.5q0 -95 -63.5 -158t-158.5 -63q-98 0 -158.5 59.5t-60.5 157.5h17q0 -92 56 -147.5t148 -55.5q88 0 145 59.5t57 146.5q0 92 -56.5 149t-148.5 57q-54 0 -101.5 -25t-74.5 -72h-20l67 314h328v0z
" />
    <glyph glyph-name="six" unicode="6" horiz-adv-x="571" 
d="M490 488h-16q-16 67 -61.5 107t-116.5 40q-117 0 -161 -81t-53 -178q-2 -23 -3 -45t-1 -43v-9.5v-9.5t0.5 -9.5t0.5 -9.5q15 80 72.5 128t139.5 48q92 0 154 -66t62 -155q0 -88 -63.5 -152.5t-152.5 -64.5q-55 0 -104.5 25t-80.5 71q-20 31 -29 67t-12 73q-1 14 -1.5 29
t-0.5 29q0 20 0.5 41t2.5 42q8 107 54 196t176 89q77 0 127.5 -44.5t66.5 -117.5v0zM491 205q0 83 -58 144.5t-142 61.5q-83 0 -145 -59.5t-62 -144.5q0 -84 61 -144t144 -60t142.5 60t59.5 142v0z" />
    <glyph glyph-name="seven" unicode="7" horiz-adv-x="571" 
d="M207 0h-18q8 178 83 339t205 282h-396v16h408v-24q-126 -119 -202.5 -278.5t-79.5 -334.5v0z" />
    <glyph glyph-name="eight" unicode="8" horiz-adv-x="571" 
d="M341 348q76 -10 124 -48.5t48 -123.5q0 -98 -70.5 -143t-158.5 -45q-86 0 -155.5 48t-69.5 142q0 83 53 122t126 48q-67 11 -112.5 41.5t-45.5 107.5t54 111t119 40q10 1 19 1.5t18 0.5t17.5 -0.5t17.5 -1.5q63 -8 115.5 -46t52.5 -110q0 -67 -45.5 -101.5t-106.5 -42.5
v0zM496 174q0 94 -61.5 130t-144.5 36h-9.5h-9.5q-73 -4 -134.5 -39t-61.5 -123q0 -85 64.5 -130t143.5 -45q80 0 146.5 40t66.5 131v0zM477 490q0 71 -52.5 106t-115.5 39q-5 1 -10 1h-10q-10 0 -20 -0.5t-21 -2.5q-57 -7 -104.5 -38.5t-47.5 -98.5q0 -79 54.5 -107.5
t120.5 -31.5h8.5h9.5q9 0 19 0.5t20 1.5q56 6 102.5 35.5t46.5 95.5v0z" />
    <glyph glyph-name="nine" unicode="9" horiz-adv-x="571" 
d="M80 149h15q16 -67 62.5 -106.5t116.5 -39.5q116 0 160.5 80.5t53.5 176.5q2 23 3 45.5t1 43.5v10v9q-1 5 -1 10v9q-17 -81 -72 -128.5t-141 -47.5q-91 0 -153 66t-62 156q0 87 63.5 152t151.5 65q56 0 105 -25t80 -72q21 -31 30 -67t12 -73q1 -14 1.5 -29t0.5 -29
q0 -20 -0.5 -41t-2.5 -42q-8 -107 -54.5 -195.5t-176.5 -88.5q-76 0 -126 44.5t-67 116.5v0zM79 432q0 -82 58 -144t141 -62q84 0 146 60t62 144t-61 144.5t-145 60.5q-82 0 -141.5 -60t-59.5 -143v0z" />
    <glyph glyph-name="colon" unicode=":" horiz-adv-x="95" 
d="M40 91h15v-91h-15v91v0zM40 473h15v-90h-15v90v0z" />
    <glyph glyph-name="semicolon" unicode=";" horiz-adv-x="119" 
d="M64 90h15v-82q0 -24 -3.5 -44.5t-13.5 -39.5q-4 -8 -9.5 -16.5t-12.5 -17.5v26q14 20 19 42.5t5 44.5v87v0zM64 473h15v-90h-15v90v0z" />
    <glyph glyph-name="less" unicode="&#x3c;" horiz-adv-x="500" 
d="M466 530v-21l-410 -175l410 -176v-21l-433 186v21l433 186v0z" />
    <glyph glyph-name="equal" unicode="=" horiz-adv-x="500" 
d="M33 270h434v-19h-434v19v0zM33 403h434v-19h-434v19v0z" />
    <glyph glyph-name="greater" unicode="&#x3e;" horiz-adv-x="500" 
d="M34 137v21l409 176l-409 175v21l433 -186v-21l-433 -186v0z" />
    <glyph glyph-name="question" unicode="?" horiz-adv-x="467" 
d="M245 91v-91h-16v91h16v0zM245 171h-16q0 45 11.5 75t34.5 56q9 11 19.5 21.5l23.5 22.5l6 6l6 6q31 28 56 62.5t25 78.5q0 71 -52 110t-119 39q-97 0 -138 -56.5t-46 -145.5h-16q2 95 50 156t150 61q74 0 130.5 -42.5t56.5 -121.5q0 -51 -29 -89t-64 -70l-4 -4l-4 -4
l-29.5 -28.5t-22.5 -24.5q-16 -20 -22.5 -44t-6.5 -64v0z" />
    <glyph glyph-name="at" unicode="@" horiz-adv-x="700" 
d="M627 165h19q-33 -78 -106.5 -121t-154.5 -49q-8 0 -15.5 -0.5t-14.5 -0.5q-140 0 -229.5 100.5t-89.5 235.5t99.5 230.5t232.5 95.5q120 0 207.5 -76.5t87.5 -200.5q0 -7 -0.5 -14.5t-1.5 -15.5q-11 -76 -68.5 -140t-138.5 -64q-28 0 -44.5 19t-16.5 45q-21 -25 -48 -43
t-62 -18q-49 0 -71 34.5t-22 78.5q0 18 3 37t9 39q18 63 63 115t109 52q36 0 57.5 -21t31.5 -53l22 58l18 1l-82 -235q-2 -6 -3.5 -11.5t-3.5 -11.5l-2 -11.5t-1 -11.5q0 -19 13.5 -31.5t32.5 -12.5q72 0 121.5 56t61.5 123l2 18.5t1 18.5q0 118 -81 188t-195 70
q-128 0 -219.5 -91.5t-91.5 -219.5q0 -125 84 -220.5t214 -95.5h2.5h3.5q81 1 155 40.5t112 113.5v0zM412 284q3 8 6.5 16.5t6.5 16.5q6 13 11 26.5t8 27.5q2 8 3.5 17t1.5 18q0 31 -21.5 56t-53.5 25q-53 0 -92.5 -45t-57.5 -99q-7 -21 -11 -41.5t-4 -38.5v-6v-6
q3 -32 18.5 -58.5t53.5 -26.5q53 0 84 37t47 81v0z" />
    <glyph glyph-name="A" unicode="A" horiz-adv-x="571" 
d="M565 0h-19l-87 217h-345l-89 -217h-18l273 667h18l267 -667v0zM451 235l-163 409l-166 -409h329v0z" />
    <glyph glyph-name="B" unicode="B" horiz-adv-x="619" 
d="M90 0v667h251q8 0 16.5 -0.5t16.5 -0.5q70 -7 128.5 -44t58.5 -119q0 -70 -41.5 -109t-106.5 -50q70 -5 121 -45.5t51 -116.5q0 -46 -21.5 -85t-59.5 -64q-18 -11 -41.5 -18t-48.5 -10q-19 -3 -38 -4t-35 -1h-251v0zM106 16h231q13 0 26 0.5t26 1.5q31 2 61.5 10t54.5 27
q29 23 46 55t17 69q0 86 -61 120.5t-133 38.5h-9.5h-9.5h-249v-322v0zM106 353h248q73 0 132.5 33.5t59.5 116.5q0 72 -51 105.5t-113 40.5q-10 1 -20.5 1.5t-20.5 0.5h-235v-298v0z" />
    <glyph glyph-name="C" unicode="C" horiz-adv-x="658" 
d="M608 257h16q-8 -112 -90.5 -190.5t-196.5 -78.5q-144 0 -224 103.5t-80 237.5q0 141 80 246t231 105q98 0 176 -59.5t96 -157.5h-17q-20 95 -89 148.5t-167 53.5q-142 0 -218 -101.5t-76 -233.5q0 -127 74 -227t212 -100q109 0 186 74t87 180v0z" />
    <glyph glyph-name="D" unicode="D" horiz-adv-x="639" 
d="M90 0v667h196q158 0 239 -84t81 -242q0 -157 -78 -249t-242 -92h-196v0zM106 16h174h21.5t21.5 1q29 1 57 6t54 17q72 33 107.5 101.5t44.5 143.5l2 29t1 28q0 11 -0.5 22t-1.5 22q-6 58 -28 112t-66 92q-38 34 -86 46.5t-98 13.5q-8 1 -15.5 1h-14.5h-173v-635v0z" />
    <glyph glyph-name="E" unicode="E" horiz-adv-x="610" 
d="M537 0h-447v667h447v-16h-430v-298h403v-15h-403v-322h430v-16v0z" />
    <glyph glyph-name="F" unicode="F" horiz-adv-x="574" 
d="M106 338v-338h-16v667h413v-16h-397v-298h353v-15h-353v0z" />
    <glyph glyph-name="G" unicode="G" horiz-adv-x="689" 
d="M636 313v-313h-16v195q-27 -98 -98.5 -152.5t-174.5 -54.5q-144 0 -229 97.5t-85 236.5q0 140 78 246.5t229 106.5q104 0 180 -60t102 -159h-17q-24 92 -95.5 147.5t-168.5 55.5q-144 0 -217.5 -102t-73.5 -235t79.5 -226t218.5 -93q71 0 133 32.5t99 93.5q23 39 30.5 82
t9.5 87h-262v15h278v0z" />
    <glyph glyph-name="H" unicode="H" horiz-adv-x="683" 
d="M593 667v-667h-17v338h-470v-338h-16v667h16v-313h470v313h17v0z" />
    <glyph glyph-name="I" unicode="I" horiz-adv-x="223" 
d="M119 667v-667h-16v667h16v0z" />
    <glyph glyph-name="J" unicode="J" horiz-adv-x="483" 
d="M393 667v-488q0 -86 -45.5 -138.5t-137.5 -52.5q-97 0 -137 49.5t-40 141.5v28h17q0 -3 -0.5 -6.5t-0.5 -7.5v-7.5v-6.5q0 -82 35.5 -129t123.5 -47q42 0 80.5 16.5t62.5 52.5q14 19 18.5 41.5t5.5 45.5q1 7 1 15v15v18v460h17v0z" />
    <glyph glyph-name="K" unicode="K" horiz-adv-x="643" 
d="M616 0h-20l-333 375l-157 -136v-239h-16v667h16v-408l466 408h24l-322 -282l342 -385v0z" />
    <glyph glyph-name="L" unicode="L" horiz-adv-x="529" 
d="M502 0h-412v667h17v-651h395v-16v0z" />
    <glyph glyph-name="M" unicode="M" horiz-adv-x="809" 
d="M719 0h-17v605v10t1 11v10v10l-288 -646h-21l-287 646v-646h-17v667h28l286 -650l290 650h25v-667v0z" />
    <glyph glyph-name="N" unicode="N" horiz-adv-x="683" 
d="M593 0h-22l-437 609q-3 5 -6.5 10l-7.5 11q-4 5 -7.5 10t-6.5 10v-650h-16v667h24l466 -651q-1 5 -1 9v9q-1 4 -1 8.5t-1 8.5v616h16v-667v0z" />
    <glyph glyph-name="O" unicode="O" horiz-adv-x="686" 
d="M343 -13q-147 1 -228 105t-81 242q0 137 81 241.5t228 104.5t228.5 -104t81.5 -242t-81 -242t-229 -104v-1zM343 3q142 0 218 99t76 232q0 132 -76 231.5t-218 99.5q-141 0 -217 -100t-76 -231q0 -132 75.5 -231.5t217.5 -99.5v0z" />
    <glyph glyph-name="P" unicode="P" horiz-adv-x="581" 
d="M90 0v667h270q86 0 143.5 -44t57.5 -137q0 -95 -64 -136t-149 -41h-241v-309h-17v0zM107 324h242q78 0 136.5 38t58.5 125q0 95 -56.5 129.5t-139.5 34.5h-241v-327v0z" />
    <glyph glyph-name="Q" unicode="Q" horiz-adv-x="685" 
d="M665 -2l-10 -15l-112 78q-41 -38 -92.5 -56t-107.5 -18q-150 0 -230 103t-80 243q0 142 82.5 244.5t231.5 102.5q146 0 225.5 -106t79.5 -241q0 -74 -23.5 -139t-72.5 -121l109 -75v0zM421 163l121 -81q46 56 69 116.5t23 133.5q0 129 -73.5 230.5t-214.5 101.5
q-140 0 -218 -99t-78 -232q0 -10 0.5 -21t0.5 -21q2 -32 9 -63.5t21 -60.5q35 -75 107 -120t155 -45h5.5h5.5q47 2 92.5 18.5t81.5 49.5l-116 80l9 13v0z" />
    <glyph glyph-name="R" unicode="R" horiz-adv-x="624" 
d="M91 0l-1 667h245q14 0 28 -0.5t28 -1.5q31 -2 60.5 -10t53.5 -27q32 -25 48 -61t16 -77q0 -75 -46 -114.5t-114 -53.5q111 -17 130 -72t20 -125v-4.5v-4.5q0 -28 2 -57.5t10 -58.5h-17q-5 18 -7.5 36.5t-3.5 37.5q0 10 -0.5 20t-0.5 20v4.5v5.5q-1 76 -27.5 133
t-166.5 57h-241v-314h-16v0zM107 331h246q76 0 137 36t61 122q0 42 -18 78t-55 58q-23 15 -50 20t-56 6h-14.5h-15.5h-20h-215v-320v0z" />
    <glyph glyph-name="S" unicode="S" horiz-adv-x="613" 
d="M69 253v-28q0 -117 68.5 -169t178.5 -52q12 0 24 1t25 3q67 9 122.5 48.5t55.5 116.5q0 80 -53.5 108t-118.5 45l-131 36q-5 1 -11 2.5t-11 3.5q-54 16 -99.5 46t-45.5 97q0 85 60 122t132 44q8 0 17 0.5t18 0.5q111 0 175 -53.5t64 -169.5h-17q0 105 -58.5 156.5
t-161.5 51.5q-12 0 -24 -1l-24 -2q-61 -8 -112 -42.5t-51 -105.5q0 -57 39 -85t86 -42l13.5 -4l13.5 -4l133 -36q1 0 1.5 -0.5t1.5 -0.5q70 -19 125.5 -49.5t55.5 -117.5q0 -83 -61 -127t-134 -53q-13 -2 -25.5 -3t-24.5 -1q-114 0 -188 55.5t-74 176.5v32h16v0z" />
    <glyph glyph-name="T" unicode="T" horiz-adv-x="555" 
d="M284 0h-17v651h-241v16h502v-16h-244v-651v0z" />
    <glyph glyph-name="U" unicode="U" horiz-adv-x="676" 
d="M571 667h15v-397q0 -127 -52.5 -204.5t-195.5 -77.5q-141 0 -194.5 76t-53.5 206v397h16v-398q0 -121 49.5 -193.5t182.5 -72.5t183 72.5t50 193.5v398v0z" />
    <glyph glyph-name="V" unicode="V" horiz-adv-x="558" 
d="M532 667h19l-260 -667h-23l-262 667h19l245 -627q2 -4 3 -7.5t2 -6.5q1 -4 2 -7.5t2 -7.5l6 18q0 2 0.5 3.5t1.5 2.5q0 1 0.5 2t0.5 2l244 628v0z" />
    <glyph glyph-name="W" unicode="W" horiz-adv-x="851" 
d="M827 667h17l-195 -667h-24l-199 657l-200 -657h-19l-200 667h18l182 -610q2 -4 3 -8.5t2 -8.5q1 -5 1.5 -9.5t1.5 -8.5l197 645h29l184 -609l6 -20.5t5 -21.5l191 651v0z" />
    <glyph glyph-name="X" unicode="X" horiz-adv-x="591" 
d="M564 0h-20l-248 329l-248 -329h-21l259 343l-244 324h21l233 -311l235 311h21l-245 -324l257 -343v0z" />
    <glyph glyph-name="Y" unicode="Y" horiz-adv-x="578" 
d="M301 0h-17v281l-277 386h20l250 -348l9 -13t5 -10l6 8t5 8l249 355h20l-270 -386v-281v0z" />
    <glyph glyph-name="Z" unicode="Z" horiz-adv-x="602" 
d="M548 16v-16h-495v24l467 627h-446v16h462v-22l-468 -629h480v0z" />
    <glyph glyph-name="bracketleft" unicode="[" horiz-adv-x="357" 
d="M317 666v-15h-126v-812h126v-16h-143v843h143v0z" />
    <glyph glyph-name="backslash" unicode="\" horiz-adv-x="397" 
d="M417 -177l-377 843h20l376 -843h-19v0z" />
    <glyph glyph-name="bracketright" unicode="]" horiz-adv-x="357" 
d="M40 666h143v-843h-143v16h127v812h-127v15v0z" />
    <glyph glyph-name="asciicircum" unicode="^" horiz-adv-x="500" 
d="M71 393h-26l192 274h27l192 -274h-27l-180 258l-178 -258v0z" />
    <glyph glyph-name="underscore" unicode="_" horiz-adv-x="500" 
d="M0 -83h500v-21h-500v21v0z" />
    <glyph glyph-name="grave" unicode="`" horiz-adv-x="500" 
d="M314 551l-159 98h30l160 -98h-31v0z" />
    <glyph glyph-name="a" unicode="a" horiz-adv-x="482" 
d="M462 16v-16h-25q-34 0 -44 16t-10 50v49q-25 -58 -73 -93.5t-114 -35.5h-5.5h-5.5q-58 3 -106.5 34t-48.5 97q0 47 26 79t69 48q21 8 45.5 11.5t50.5 5.5q8 0 17 0.5t17 1.5q51 2 89.5 10t38.5 43q0 80 -34 117t-116 37q-73 0 -111.5 -33.5t-46.5 -105.5h-17
q8 78 53 116.5t122 38.5t121.5 -33.5t44.5 -115.5v-264l1 -19q1 -25 11.5 -32t35.5 -7l15 1v0zM383 280q-16 -19 -51 -24.5t-77 -8.5q-9 -1 -17.5 -1.5t-17.5 -1.5q-65 -6 -119 -28.5t-54 -97.5q0 -60 43.5 -87t95.5 -30h5.5h5.5q80 0 133 57t53 136v86v0z" />
    <glyph glyph-name="b" unicode="b" horiz-adv-x="515" 
d="M70 0v667h15v-322q23 65 71 104.5t119 39.5q113 0 161.5 -77.5t48.5 -178.5q0 -102 -49 -174.5t-160 -72.5q-76 0 -122 40.5t-69 110.5v-137h-15v0zM469 234q0 91 -45.5 165t-147.5 74q-90 0 -138 -67.5t-53 -148.5v-8v-8q0 -91 45 -166t147 -75q103 0 147.5 71t44.5 163
v0z" />
    <glyph glyph-name="c" unicode="c" horiz-adv-x="471" 
d="M425 163h16q-13 -80 -63.5 -128.5t-135.5 -48.5q-105 0 -158.5 77t-53.5 173q0 101 55.5 176.5t163.5 75.5q68 0 124.5 -40.5t60.5 -112.5h-17q-3 68 -55 103t-115 35q-100 0 -150 -71t-50 -163q0 -91 48 -165t148 -74q78 0 123.5 45t58.5 118v0z" />
    <glyph glyph-name="d" unicode="d" horiz-adv-x="505" 
d="M445 0h-15v137q-23 -69 -68.5 -110t-122.5 -41q-111 0 -160 72.5t-49 174.5q0 101 49 178.5t161 77.5q71 0 119.5 -39.5t70.5 -104.5v322h15v-667v0zM46 234q0 -92 44.5 -163t147.5 -71q100 0 145.5 74.5t46.5 163.5v1.5v1.5v2.5v3.5q-2 85 -49 155.5t-142 70.5
q-102 0 -147.5 -74t-45.5 -165v0z" />
    <glyph glyph-name="e" unicode="e" horiz-adv-x="478" 
d="M425 164h17q-14 -76 -65.5 -126.5t-133.5 -50.5q-107 0 -160 76.5t-53 173.5q0 99 53.5 175.5t162.5 76.5q92 0 147 -67.5t55 -154.5v-10v-9q-1 -5 -1 -10v-10h-399q2 -89 49 -157.5t146 -68.5q74 0 122 45.5t60 116.5v0zM430 244v4t1 5v4v4v2.5v3.5q-2 77 -50.5 141.5
t-132.5 64.5q-101 0 -149 -68.5t-51 -160.5h382v0z" />
    <glyph glyph-name="f" unicode="f" horiz-adv-x="240" 
d="M118 0h-15v457h-76v16h76v64q0 55 16.5 93t80.5 38h27v-16h-27q-14 0 -28 -2t-26 -11q-15 -10 -20.5 -26t-6.5 -33q-1 -7 -1 -14.5v-14.5v-78h98v-16h-98v-457v0z" />
    <glyph glyph-name="g" unicode="g" horiz-adv-x="496" 
d="M420 473h16v-429q0 -99 -43 -157.5t-153 -58.5q-76 0 -125.5 31t-57.5 114l17 -1q5 -71 52.5 -99.5t112.5 -28.5q101 0 141.5 55t40.5 147v30.5t1 30.5v30.5v30.5q-22 -64 -70 -102.5t-118 -38.5q-103 0 -153.5 66.5t-50.5 161.5q0 92 51 164t152 72q74 0 118.5 -38.5
t70.5 -103.5q-1 15 -1.5 30.5t-0.5 31.5v31.5v30.5v0zM420 259q0 82 -48.5 149t-137.5 67q-96 0 -142 -66t-46 -153q0 -88 46.5 -150.5t141.5 -62.5q94 0 140 65.5t46 150.5v0z" />
    <glyph glyph-name="h" unicode="h" horiz-adv-x="499" 
d="M70 667h16v-310q24 59 66.5 97t109.5 38q89 0 133 -52t44 -138v-302h-16v289q0 80 -35.5 133.5t-124.5 53.5q-94 0 -135.5 -68.5t-41.5 -151.5v-256h-16v667v0z" />
    <glyph glyph-name="i" unicode="i" horiz-adv-x="145" 
d="M85 473v-473h-15v473h15v0zM85 571h-15v96h15v-96v0z" />
    <glyph glyph-name="j" unicode="j" horiz-adv-x="157" 
d="M97 474v-547q0 -61 -32 -75.5t-84 -14.5l-1 15q59 1 80.5 14.5t21.5 77.5v530h15v0zM97 571h-15v96h15v-96v0z" />
    <glyph glyph-name="k" unicode="k" horiz-adv-x="507" 
d="M461 0h-20l-228 288l-127 -104v-184h-16v667h16v-462l333 268h23l-216 -176l235 -297v0z" />
    <glyph glyph-name="l" unicode="l" horiz-adv-x="146" 
d="M86 0h-16v667h16v-667v0z" />
    <glyph glyph-name="m" unicode="m" horiz-adv-x="753" 
d="M70 473h15v-112q19 53 57 90t98 37q59 0 96.5 -30t49.5 -87q20 57 60.5 86t100.5 29q5 0 9.5 -0.5t9.5 -0.5q27 -4 52.5 -16.5t43.5 -32.5q22 -25 26.5 -54t4.5 -61v-321h-15v320q0 63 -30 107t-101 44q-72 0 -114 -46t-42 -117v-308h-15v306q0 67 -27.5 116.5
t-105.5 49.5q-81 0 -118 -58.5t-40 -128.5v-5.5v-5.5v-274h-15v473v0z" />
    <glyph glyph-name="n" unicode="n" horiz-adv-x="499" 
d="M70 473h16v-116q24 59 66.5 97t109.5 38q89 0 133 -52t44 -138v-302h-16v289q0 80 -35.5 133.5t-124.5 53.5q-94 0 -135.5 -68.5t-41.5 -151.5v-256h-16v473v0z" />
    <glyph glyph-name="o" unicode="o" horiz-adv-x="490" 
d="M460 231q0 -99 -53 -172t-161 -73q-109 0 -162.5 77t-53.5 177t55 174t162 74q110 0 161.5 -79.5t51.5 -177.5v0zM444 231q0 92 -46.5 167t-150.5 75q-100 0 -150.5 -70t-50.5 -163q0 -94 48.5 -166.5t151.5 -72.5q101 0 149.5 69t48.5 161v0z" />
    <glyph glyph-name="p" unicode="p" horiz-adv-x="515" 
d="M70 460h15v-123q24 71 68.5 111t122.5 40q111 0 160 -73t49 -175q0 -100 -48.5 -177.5t-161.5 -77.5q-69 0 -119 40t-71 104v-289h-15v620v0zM469 239q0 93 -44.5 163.5t-147.5 70.5q-101 0 -146.5 -75t-45.5 -165v-9.5t1 -9.5q5 -80 52.5 -147t137.5 -67q102 0 147.5 74
t45.5 165v0z" />
    <glyph glyph-name="q" unicode="q" horiz-adv-x="505" 
d="M445 460v-620h-15v289q-21 -64 -71 -104t-119 -40q-112 0 -161 77.5t-49 177.5q0 102 49 175t160 73q78 0 122.5 -40.5t68.5 -110.5v123h15v0zM46 239q0 -91 46 -165t147 -74q97 0 143.5 72t47.5 158v1.5v1.5q0 90 -45 165t-147 75t-147 -71t-45 -163v0z" />
    <glyph glyph-name="r" unicode="r" horiz-adv-x="303" 
d="M86 0h-16v473h16v-139q26 72 70 105.5t121 33.5v-13q-102 -4 -146.5 -67t-44.5 -160v-233v0z" />
    <glyph glyph-name="s" unicode="s" horiz-adv-x="459" 
d="M46 162h17q0 -77 47.5 -118.5t122.5 -41.5q7 0 14 0.5t14 0.5q50 6 92 33t42 85q0 60 -49.5 81t-109.5 35q-2 0 -3.5 0.5t-2.5 0.5q-63 14 -114.5 38t-51.5 90q0 56 40.5 84.5t89.5 35.5q8 1 17 1.5t17 0.5q74 0 121.5 -35t47.5 -115h-16q-2 72 -42.5 103t-109.5 31
q-7 0 -15 -0.5t-15 -1.5q-44 -5 -81 -29.5t-37 -75.5q0 -57 47.5 -77t106.5 -33q3 -1 6 -1.5t5 -1.5q63 -13 114.5 -37.5t51.5 -93.5q0 -64 -46.5 -94.5t-102.5 -36.5q-7 -1 -15 -1.5t-15 -0.5q-83 0 -134 44.5t-53 129.5v0z" />
    <glyph glyph-name="t" unicode="t" horiz-adv-x="276" 
d="M127 628v-155h103v-16h-103v-335q0 -46 13.5 -75t66.5 -29h18v-17q-70 0 -92 25.5t-22 95.5v335h-81v16h81v155h16v0z" />
    <glyph glyph-name="u" unicode="u" horiz-adv-x="491" 
d="M431 474v-474h-17v116q-16 -57 -63 -92t-107 -35q-89 0 -131.5 59t-42.5 141v285h15v-285q0 -75 39.5 -131t121.5 -56q41 0 76.5 21t58.5 53q21 30 27 64t6 69v265h17v0z" />
    <glyph glyph-name="v" unicode="v" horiz-adv-x="420" 
d="M395 473h19l-183 -473h-23l-201 473h19l193 -456l176 456v0z" />
    <glyph glyph-name="w" unicode="w" horiz-adv-x="675" 
d="M650 473h18l-158 -473h-23l-149 460l-152 -460h-25l-154 473h17l149 -460l153 460h25l147 -454l152 454v0z" />
    <glyph glyph-name="x" unicode="x" horiz-adv-x="531" 
d="M484 0h-22l-198 237l-195 -237h-22l205 250l-187 223h22l177 -211l173 211h21l-182 -224l208 -249v0z" />
    <glyph glyph-name="y" unicode="y" horiz-adv-x="418" 
d="M412 473l-211 -543q-3 -6 -5.5 -12l-4.5 -11q-16 -37 -38 -52t-71 -15h-5.5h-4.5q-2 1 -4.5 1h-4.5v15q2 1 4.5 1t4.5 -1h4.5h4.5q40 0 58 9.5t31 36.5q3 6 5.5 12.5l5.5 14.5l29 72l-203 472h19l193 -453l175 453h18v0z" />
    <glyph glyph-name="z" unicode="z" horiz-adv-x="506" 
d="M446 16v-16h-376v24l340 432h-315v17h334v-21l-342 -436h359v0z" />
    <glyph glyph-name="braceleft" unicode="{" horiz-adv-x="500" 
d="M195 249q30 -13 41 -40t12 -57v-6.5v-6.5v-198q0 -52 19 -79t73 -30v-15q-78 2 -95 44t-17 109v173q0 39 -10.5 62.5t-48.5 38.5v11q38 14 48.5 38.5t10.5 61.5v197q0 59 24 95.5t88 36.5v-14q-56 -7 -74 -32t-18 -72v-210q0 -36 -9 -63t-44 -44v0z" />
    <glyph glyph-name="bar" unicode="|" horiz-adv-x="500" 
d="M240 666h20v-833h-20v833v0z" />
    <glyph glyph-name="braceright" unicode="}" horiz-adv-x="500" 
d="M305 252q-32 14 -42 43.5t-11 61.5v2.5v2.5v198q0 53 -18.5 79.5t-73.5 30.5v14q79 -1 95.5 -43t16.5 -109v-175q0 -37 11 -61.5t48 -38.5v-11q-37 -13 -48 -38t-11 -62v-197q0 -58 -22.5 -94.5t-89.5 -36.5v13q50 7 71 30.5t21 74.5v209q0 35 9 63t44 44v0z" />
    <glyph glyph-name="asciitilde" unicode="~" horiz-adv-x="500" 
d="M30 281l-17 11q20 35 51 64t74 29q32 0 59 -13t54 -29q26 -16 53.5 -29t58.5 -13q37 0 61.5 24t41.5 53q2 2 3 4l2 4l17 -10q-20 -35 -49.5 -64t-73.5 -29q-32 0 -60.5 13.5t-55.5 29.5q-26 16 -53 28.5t-58 12.5q-35 0 -59.5 -23.5t-42.5 -52.5q-2 -2 -3.5 -4.5
t-2.5 -5.5v0z" />
    <glyph glyph-name="Adieresis" unicode="&#xc4;" horiz-adv-x="571" 
d="M565 0h-19l-87 217h-345l-89 -217h-18l273 667h18l267 -667v0zM451 235l-163 409l-166 -409h329v0zM200 736h-17v99h17v-99v0zM389 736h-17v99h17v-99v0z" />
    <glyph glyph-name="Aring" unicode="&#xc5;" horiz-adv-x="571" 
d="M565 0h-19l-87 217h-345l-89 -217h-18l273 667h18l267 -667v0zM451 235l-163 409l-166 -409h329v0zM357 788q0 -28 -20.5 -48.5t-49.5 -20.5q-28 0 -50.5 20t-22.5 49t21 51t51 22q29 0 50 -22t21 -51v0zM342 788q0 23 -16.5 40.5t-39.5 17.5t-40 -17t-17 -40t17.5 -39
t40.5 -16q22 0 38.5 16t16.5 38v0z" />
    <glyph glyph-name="Ccedilla" unicode="&#xc7;" horiz-adv-x="658" 
d="M335 -27h18v-70q0 -33 -9.5 -60.5t-38.5 -48.5v23q22 18 26 39t4 47v70v0zM608 257h16q-8 -112 -91 -190.5t-196 -78.5q-144 0 -224 103.5t-80 237.5q0 140 80.5 245.5t230.5 105.5q98 0 176.5 -60t95.5 -158h-17q-20 95 -89 148.5t-167 53.5q-142 0 -218 -100.5
t-76 -233.5q0 -127 74 -227.5t212 -100.5q109 0 186 74.5t87 180.5v0z" />
    <glyph glyph-name="Eacute" unicode="&#xc9;" horiz-adv-x="610" 
d="M537 0h-447v667h447v-16h-430v-298h403v-15h-403v-322h430v-16v0zM288 738h-31l160 98h30l-159 -98v0z" />
    <glyph glyph-name="Ntilde" unicode="&#xd1;" horiz-adv-x="683" 
d="M593 0h-22l-437 609q-3 5 -6.5 10l-7.5 11q-4 5 -7.5 10t-6.5 10v-650h-16v667h24l466 -651q-1 5 -1 9v9q-1 4 -1 8.5t-1 8.5v616h16v-667v0zM466 823q-1 -4 -1.5 -7.5t-1.5 -7.5q-6 -19 -18.5 -35.5t-33.5 -19.5q-22 0 -38 9t-30 19q-1 1 -2 1.5t-2 1.5q-11 9 -23.5 16
t-27.5 9q-25 0 -37.5 -16t-17.5 -39h-17q1 4 2 7.5t2 7.5q6 22 21.5 40t40.5 18q18 0 32.5 -9t27.5 -19l1 -1h1q13 -11 27 -19.5t31 -8.5q19 0 29 13t15 29q1 3 1.5 5.5t1.5 5.5h17v0z" />
    <glyph glyph-name="Odieresis" unicode="&#xd6;" horiz-adv-x="686" 
d="M343 -13q-147 1 -228 105t-81 242q0 137 81 241.5t228 104.5t228.5 -104t81.5 -242t-81 -242t-229 -104v-1zM343 3q142 0 218 99t76 232q0 132 -76 231.5t-218 99.5q-141 0 -217 -100t-76 -231q0 -132 75.5 -231.5t217.5 -99.5v0zM257 736h-17v99h17v-99v0zM446 736h-17
v99h17v-99v0z" />
    <glyph glyph-name="Udieresis" unicode="&#xdc;" horiz-adv-x="676" 
d="M571 667h15v-397q0 -127 -52.5 -204.5t-195.5 -77.5q-141 0 -194.5 76t-53.5 206v397h16v-398q0 -121 49.5 -193.5t182.5 -72.5t183 72.5t50 193.5v398v0zM252 736h-17v99h17v-99v0zM441 736h-17v99h17v-99v0z" />
    <glyph glyph-name="aacute" unicode="&#xe1;" horiz-adv-x="482" 
d="M462 16v-16h-25q-34 0 -44 16t-10 50v49q-25 -58 -73 -93.5t-114 -35.5h-5.5h-5.5q-58 3 -106.5 34t-48.5 97q0 47 26 79t69 48q21 8 45.5 11.5t50.5 5.5q8 0 17 0.5t17 1.5q51 2 89.5 10t38.5 43q0 80 -34 117t-116 37q-73 0 -111.5 -33.5t-46.5 -105.5h-17
q8 78 53 116.5t122 38.5t121.5 -33.5t44.5 -115.5v-264l1 -19q1 -25 11.5 -32t35.5 -7l15 1v0zM383 280q-16 -19 -51 -24.5t-77 -8.5q-9 -1 -17.5 -1.5t-17.5 -1.5q-65 -6 -119 -28.5t-54 -97.5q0 -60 43.5 -87t95.5 -30h5.5h5.5q80 0 133 57t53 136v86v0zM224 551h-31
l160 98h30l-159 -98v0z" />
    <glyph glyph-name="agrave" unicode="&#xe0;" horiz-adv-x="482" 
d="M462 16v-16h-25q-34 0 -44 16t-10 50v49q-25 -58 -73 -93.5t-114 -35.5h-5.5h-5.5q-58 3 -106.5 34t-48.5 97q0 47 26 79t69 48q21 8 45.5 11.5t50.5 5.5q8 0 17 0.5t17 1.5q51 2 89.5 10t38.5 43q0 80 -34 117t-116 37q-73 0 -111.5 -33.5t-46.5 -105.5h-17
q8 78 53 116.5t122 38.5t121.5 -33.5t44.5 -115.5v-264l1 -19q1 -25 11.5 -32t35.5 -7l15 1v0zM383 280q-16 -19 -51 -24.5t-77 -8.5q-9 -1 -17.5 -1.5t-17.5 -1.5q-65 -6 -119 -28.5t-54 -97.5q0 -60 43.5 -87t95.5 -30h5.5h5.5q80 0 133 57t53 136v86v0zM258 551l-159 98
h30l160 -98h-31v0z" />
    <glyph glyph-name="acircumflex" unicode="&#xe2;" horiz-adv-x="482" 
d="M462 16v-16h-25q-34 0 -44 16t-10 50v49q-25 -58 -73 -93.5t-114 -35.5h-5.5h-5.5q-58 3 -106.5 34t-48.5 97q0 47 26 79t69 48q21 8 45.5 11.5t50.5 5.5q8 0 17 0.5t17 1.5q51 2 89.5 10t38.5 43q0 80 -34 117t-116 37q-73 0 -111.5 -33.5t-46.5 -105.5h-17
q8 78 53 116.5t122 38.5t121.5 -33.5t44.5 -115.5v-264l1 -19q1 -25 11.5 -32t35.5 -7l15 1v0zM383 280q-16 -19 -51 -24.5t-77 -8.5q-9 -1 -17.5 -1.5t-17.5 -1.5q-65 -6 -119 -28.5t-54 -97.5q0 -60 43.5 -87t95.5 -30h5.5h5.5q80 0 133 57t53 136v86v0zM386 548h-28
l-119 87l-115 -87h-28l133 100h22l135 -100v0z" />
    <glyph glyph-name="adieresis" unicode="&#xe4;" horiz-adv-x="482" 
d="M462 16v-16h-25q-34 0 -44 16t-10 50v49q-25 -58 -73 -93.5t-114 -35.5h-5.5h-5.5q-58 3 -106.5 34t-48.5 97q0 47 26 79t69 48q21 8 45.5 11.5t50.5 5.5q8 0 17 0.5t17 1.5q51 2 89.5 10t38.5 43q0 80 -34 117t-116 37q-73 0 -111.5 -33.5t-46.5 -105.5h-17
q8 78 53 116.5t122 38.5t121.5 -33.5t44.5 -115.5v-264l1 -19q1 -25 11.5 -32t35.5 -7l15 1v0zM383 280q-16 -19 -51 -24.5t-77 -8.5q-9 -1 -17.5 -1.5t-17.5 -1.5q-65 -6 -119 -28.5t-54 -97.5q0 -60 43.5 -87t95.5 -30h5.5h5.5q80 0 133 57t53 136v86v0zM155 549h-17v99
h17v-99v0zM344 549h-17v99h17v-99v0z" />
    <glyph glyph-name="atilde" unicode="&#xe3;" horiz-adv-x="482" 
d="M462 16v-16h-25q-34 0 -44 16t-10 50v49q-25 -58 -73 -93.5t-114 -35.5h-5.5h-5.5q-58 3 -106.5 34t-48.5 97q0 47 26 79t69 48q21 8 45.5 11.5t50.5 5.5q8 0 17 0.5t17 1.5q51 2 89.5 10t38.5 43q0 80 -34 117t-116 37q-73 0 -111.5 -33.5t-46.5 -105.5h-17
q8 78 53 116.5t122 38.5t121.5 -33.5t44.5 -115.5v-264l1 -19q1 -25 11.5 -32t35.5 -7l15 1v0zM383 280q-16 -19 -51 -24.5t-77 -8.5q-9 -1 -17.5 -1.5t-17.5 -1.5q-65 -6 -119 -28.5t-54 -97.5q0 -60 43.5 -87t95.5 -30h5.5h5.5q80 0 133 57t53 136v86v0zM366 636
q-1 -4 -1.5 -7.5t-1.5 -7.5q-6 -19 -18.5 -35.5t-33.5 -19.5q-22 0 -38 9t-30 19q-1 1 -2 1.5t-2 1.5q-11 9 -23.5 16t-27.5 9q-25 0 -37.5 -16t-17.5 -39h-17q1 4 2 7.5t2 7.5q6 22 21.5 40t40.5 18q18 0 32.5 -9t27.5 -19l1 -1h1q13 -11 27 -19.5t31 -8.5q19 0 29 13
t15 29q1 3 1.5 5.5t1.5 5.5h17v0z" />
    <glyph glyph-name="aring" unicode="&#xe5;" horiz-adv-x="482" 
d="M462 16v-16h-25q-34 0 -44 16t-10 50v49q-25 -58 -73 -93.5t-114 -35.5h-5.5h-5.5q-58 3 -106.5 34t-48.5 97q0 47 26 79t69 48q21 8 45.5 11.5t50.5 5.5q8 0 17 0.5t17 1.5q51 2 89.5 10t38.5 43q0 80 -34 117t-116 37q-73 0 -111.5 -33.5t-46.5 -105.5h-17
q8 78 53 116.5t122 38.5t121.5 -33.5t44.5 -115.5v-264l1 -19q1 -25 11.5 -32t35.5 -7l15 1v0zM383 280q-16 -19 -51 -24.5t-77 -8.5q-9 -1 -17.5 -1.5t-17.5 -1.5q-65 -6 -119 -28.5t-54 -97.5q0 -60 43.5 -87t95.5 -30h5.5h5.5q80 0 133 57t53 136v86v0zM313 601
q0 -28 -20.5 -48.5t-49.5 -20.5q-28 0 -50.5 20t-22.5 49t21 51t51 22q29 0 50 -22t21 -51v0zM298 601q0 23 -16.5 40.5t-39.5 17.5t-40 -17t-17 -40t17.5 -39t40.5 -16q22 0 38.5 16t16.5 38v0z" />
    <glyph glyph-name="ccedilla" unicode="&#xe7;" horiz-adv-x="471" 
d="M243 -33h15v-66q0 -25 -4 -43t-18 -35q-4 -5 -10 -10.5l-13 -11.5v21q5 5 8.5 9t6.5 8q10 14 12.5 29.5t2.5 35.5v63v0zM425 163h16q-13 -81 -63 -129t-136 -48q-105 0 -158.5 77t-53.5 173q0 101 55.5 176.5t163.5 75.5q68 0 124.5 -40.5t60.5 -112.5h-17q-3 68 -55 103
t-115 35q-100 0 -150 -71t-50 -164q0 -91 48 -164.5t148 -73.5q78 0 123.5 45t58.5 118v0z" />
    <glyph glyph-name="eacute" unicode="&#xe9;" horiz-adv-x="478" 
d="M425 164h17q-14 -76 -65.5 -126.5t-133.5 -50.5q-107 0 -160 76.5t-53 173.5q0 99 53.5 175.5t162.5 76.5q92 0 147 -67.5t55 -154.5v-10v-9q-1 -5 -1 -10v-10h-399q2 -89 49 -157.5t146 -68.5q74 0 122 45.5t60 116.5v0zM430 244v4t1 5v4v4v2.5v3.5q-2 77 -50.5 141.5
t-132.5 64.5q-101 0 -149 -68.5t-51 -160.5h382v0zM221 551h-31l160 98h30l-159 -98v0z" />
    <glyph glyph-name="egrave" unicode="&#xe8;" horiz-adv-x="478" 
d="M425 164h17q-14 -76 -65.5 -126.5t-133.5 -50.5q-107 0 -160 76.5t-53 173.5q0 99 53.5 175.5t162.5 76.5q92 0 147 -67.5t55 -154.5v-10v-9q-1 -5 -1 -10v-10h-399q2 -89 49 -157.5t146 -68.5q74 0 122 45.5t60 116.5v0zM430 244v4t1 5v4v4v2.5v3.5q-2 77 -50.5 141.5
t-132.5 64.5q-101 0 -149 -68.5t-51 -160.5h382v0zM256 551l-159 98h30l160 -98h-31v0z" />
    <glyph glyph-name="ecircumflex" unicode="&#xea;" horiz-adv-x="478" 
d="M425 164h17q-14 -76 -65.5 -126.5t-133.5 -50.5q-107 0 -160 76.5t-53 173.5q0 99 53.5 175.5t162.5 76.5q92 0 147 -67.5t55 -154.5v-10v-9q-1 -5 -1 -10v-10h-399q2 -89 49 -157.5t146 -68.5q74 0 122 45.5t60 116.5v0zM430 244v4t1 5v4v4v2.5v3.5q-2 77 -50.5 141.5
t-132.5 64.5q-101 0 -149 -68.5t-51 -160.5h382v0zM384 549h-28l-119 87l-115 -87h-28l133 100h22l135 -100v0z" />
    <glyph glyph-name="edieresis" unicode="&#xeb;" horiz-adv-x="478" 
d="M425 164h17q-14 -76 -65.5 -126.5t-133.5 -50.5q-107 0 -160 76.5t-53 173.5q0 99 53.5 175.5t162.5 76.5q92 0 147 -67.5t55 -154.5v-10v-9q-1 -5 -1 -10v-10h-399q2 -89 49 -157.5t146 -68.5q74 0 122 45.5t60 116.5v0zM430 244v4t1 5v4v4v2.5v3.5q-2 77 -50.5 141.5
t-132.5 64.5q-101 0 -149 -68.5t-51 -160.5h382v0zM153 549h-17v99h17v-99v0zM342 549h-17v99h17v-99v0z" />
    <glyph glyph-name="iacute" unicode="&#xed;" horiz-adv-x="145" 
d="M85 473v-473h-15v473h15v0zM55 551h-31l160 98h30l-159 -98v0z" />
    <glyph glyph-name="igrave" unicode="&#xec;" horiz-adv-x="145" 
d="M85 473v-473h-15v473h15v0zM90 551l-159 98h30l160 -98h-31v0z" />
    <glyph glyph-name="icircumflex" unicode="&#xee;" horiz-adv-x="145" 
d="M85 473v-473h-15v473h15v0zM217 549h-28l-119 87l-115 -87h-28l133 100h22l135 -100v0z" />
    <glyph glyph-name="idieresis" unicode="&#xef;" horiz-adv-x="145" 
d="M85 473v-473h-15v473h15v0zM-14 549h-17v99h17v-99v0zM175 549h-17v99h17v-99v0z" />
    <glyph glyph-name="ntilde" unicode="&#xf1;" horiz-adv-x="499" 
d="M70 473h16v-116q24 59 66.5 97t109.5 38q89 0 133 -52t44 -138v-302h-16v289q0 80 -35.5 133.5t-124.5 53.5q-94 0 -135.5 -68.5t-41.5 -151.5v-256h-16v473v0zM374 636q-1 -4 -1.5 -7.5t-1.5 -7.5q-6 -19 -18.5 -35.5t-33.5 -19.5q-22 0 -38 9t-30 19q-1 1 -2 1.5
t-2 1.5q-11 9 -23.5 16t-27.5 9q-25 0 -37.5 -16t-17.5 -39h-17q1 4 2 7.5t2 7.5q6 22 21.5 40t40.5 18q18 0 32.5 -9t27.5 -19l1 -1h1q13 -11 27 -19.5t31 -8.5q19 0 29 13t15 29q1 3 1.5 5.5t1.5 5.5h17v0z" />
    <glyph glyph-name="oacute" unicode="&#xf3;" horiz-adv-x="490" 
d="M460 231q0 -99 -53 -172t-161 -73q-109 0 -162.5 77t-53.5 177t55 174t162 74q110 0 161.5 -79.5t51.5 -177.5v0zM444 231q0 92 -46.5 167t-150.5 75q-100 0 -150.5 -70t-50.5 -163q0 -94 48.5 -166.5t151.5 -72.5q101 0 149.5 69t48.5 161v0zM227 551h-31l160 98h30
l-159 -98v0z" />
    <glyph glyph-name="ograve" unicode="&#xf2;" horiz-adv-x="490" 
d="M460 231q0 -99 -53 -172t-161 -73q-109 0 -162.5 77t-53.5 177t55 174t162 74q110 0 161.5 -79.5t51.5 -177.5v0zM444 231q0 92 -46.5 167t-150.5 75q-100 0 -150.5 -70t-50.5 -163q0 -94 48.5 -166.5t151.5 -72.5q101 0 149.5 69t48.5 161v0zM262 551l-159 98h30
l160 -98h-31v0z" />
    <glyph glyph-name="ocircumflex" unicode="&#xf4;" horiz-adv-x="490" 
d="M460 231q0 -99 -53 -172t-161 -73q-109 0 -162.5 77t-53.5 177t55 174t162 74q110 0 161.5 -79.5t51.5 -177.5v0zM444 231q0 92 -46.5 167t-150.5 75q-100 0 -150.5 -70t-50.5 -163q0 -94 48.5 -166.5t151.5 -72.5q101 0 149.5 69t48.5 161v0zM390 549h-28l-119 87
l-115 -87h-28l133 100h22l135 -100v0z" />
    <glyph glyph-name="odieresis" unicode="&#xf6;" horiz-adv-x="490" 
d="M460 231q0 -99 -53 -172t-161 -73q-109 0 -162.5 77t-53.5 177t55 174t162 74q110 0 161.5 -79.5t51.5 -177.5v0zM444 231q0 92 -46.5 167t-150.5 75q-100 0 -150.5 -70t-50.5 -163q0 -94 48.5 -166.5t151.5 -72.5q101 0 149.5 69t48.5 161v0zM159 549h-17v99h17v-99v0z
M348 549h-17v99h17v-99v0z" />
    <glyph glyph-name="otilde" unicode="&#xf5;" horiz-adv-x="490" 
d="M460 231q0 -99 -53 -172t-161 -73q-109 0 -162.5 77t-53.5 177t55 174t162 74q110 0 161.5 -79.5t51.5 -177.5v0zM444 231q0 92 -46.5 167t-150.5 75q-100 0 -150.5 -70t-50.5 -163q0 -94 48.5 -166.5t151.5 -72.5q101 0 149.5 69t48.5 161v0zM370 636q-1 -4 -1.5 -7.5
t-1.5 -7.5q-6 -19 -18.5 -35.5t-33.5 -19.5q-22 0 -38 9t-30 19q-1 1 -2 1.5t-2 1.5q-11 9 -23.5 16t-27.5 9q-25 0 -37.5 -16t-17.5 -39h-17q1 4 2 7.5t2 7.5q6 22 21.5 40t40.5 18q18 0 32.5 -9t27.5 -19l1 -1h1q13 -11 27 -19.5t31 -8.5q19 0 29 13t15 29q1 3 1.5 5.5
t1.5 5.5h17v0z" />
    <glyph glyph-name="uacute" unicode="&#xfa;" horiz-adv-x="491" 
d="M431 474v-474h-17v116q-16 -57 -63 -92t-107 -35q-89 0 -131.5 59t-42.5 141v285h15v-285q0 -75 39.5 -131t121.5 -56q41 0 76.5 21t58.5 53q21 30 27 64t6 69v265h17v0zM228 552h-31l160 98h30l-159 -98v0z" />
    <glyph glyph-name="ugrave" unicode="&#xf9;" horiz-adv-x="491" 
d="M431 474v-474h-17v116q-16 -57 -63 -92t-107 -35q-89 0 -131.5 59t-42.5 141v285h15v-285q0 -75 39.5 -131t121.5 -56q41 0 76.5 21t58.5 53q21 30 27 64t6 69v265h17v0zM263 552l-159 98h30l160 -98h-31v0z" />
    <glyph glyph-name="ucircumflex" unicode="&#xfb;" horiz-adv-x="491" 
d="M431 474v-474h-17v116q-16 -57 -63 -92t-107 -35q-89 0 -131.5 59t-42.5 141v285h15v-285q0 -75 39.5 -131t121.5 -56q41 0 76.5 21t58.5 53q21 30 27 64t6 69v265h17v0zM390 549h-28l-119 87l-115 -87h-28l133 100h22l135 -100v0z" />
    <glyph glyph-name="udieresis" unicode="&#xfc;" horiz-adv-x="491" 
d="M431 474v-474h-17v116q-16 -57 -63 -92t-107 -35q-89 0 -131.5 59t-42.5 141v285h15v-285q0 -75 39.5 -131t121.5 -56q41 0 76.5 21t58.5 53q21 30 27 64t6 69v265h17v0zM159 549h-17v99h17v-99v0zM348 549h-17v99h17v-99v0z" />
    <glyph glyph-name="dagger" unicode="&#x2020;" horiz-adv-x="537" 
d="M277 666v-233h220v-16h-220v-594h-17v594h-220v16h220v233h17v0z" />
    <glyph glyph-name="degree" horiz-adv-x="500" 
d="M379 527q0 -52 -38 -90.5t-91 -38.5q-52 0 -90.5 38t-38.5 90q0 54 37.5 92t92.5 38q53 0 90.5 -38t37.5 -91v0zM360 527q0 45 -32.5 77.5t-77.5 32.5t-77.5 -32.5t-32.5 -77.5q0 -44 32.5 -77t76.5 -33q45 0 78 32.5t33 77.5v0z" />
    <glyph glyph-name="cent" unicode="&#xa2;" horiz-adv-x="571" 
d="M472 256h18q-12 -79 -58.5 -126t-128.5 -53v-98h-17v99q-108 6 -157 81t-49 175q0 98 52 169t154 78v82h17v-82q74 -5 120.5 -43t59.5 -112h-18q-11 66 -54 100t-108 38v-470q77 6 116 47.5t53 114.5v0zM286 93v471q-94 -8 -141.5 -73t-47.5 -156q0 -93 44.5 -163
t144.5 -79v0z" />
    <glyph glyph-name="sterling" unicode="&#xa3;" horiz-adv-x="571" 
d="M510 81l11 -11q-30 -35 -70 -58.5t-88 -23.5q-23 0 -44.5 6t-42.5 15q-1 0 -2 0.5t-2 1.5q-22 8 -45 15.5t-47 7.5q-33 0 -61.5 -12.5t-54.5 -30.5l-14 17q42 36 76 83t34 105q0 29 -8.5 57.5t-20.5 54.5h-73v16h65l-8 14t-9 14q0 1 -0.5 2t-1.5 2q-19 31 -35 64t-16 71
q0 70 51 107t113 48q13 2 26 3t26 1q7 0 13.5 -0.5t13.5 -0.5q45 -4 87.5 -23t68.5 -58q16 -24 22 -51t7 -55q1 -7 1 -14v-14h-17q0 95 -48 148t-146 53q-12 0 -24.5 -1t-24.5 -3q-57 -9 -104.5 -42t-47.5 -98q0 -32 12 -59t28 -53q1 -2 2.5 -4.5t3.5 -5.5l12.5 -22
t12.5 -23h151v-16h-143q12 -27 19.5 -55t7.5 -59q0 -59 -32 -104.5t-75 -81.5q10 7 20 12.5l19 10.5q16 8 33 13t39 5q25 0 48 -7t45 -16q1 0 1.5 -0.5l0.5 -0.5q21 -8 42.5 -14.5t44.5 -7.5q45 0 82 23t66 55v0z" />
    <glyph glyph-name="section" unicode="&#xa7;" horiz-adv-x="485" 
d="M429 531h-17q-6 83 -47.5 104.5t-115.5 21.5q-9 0 -18.5 -0.5t-18.5 -1.5q-48 -4 -87.5 -26.5t-39.5 -80.5q0 -59 35.5 -82.5t84.5 -38.5l108 -33q50 -16 91.5 -46t41.5 -89q0 -58 -39 -91t-85 -56q-2 -1 -3.5 -1.5t-2.5 -1.5q49 -14 87 -45t38 -86q0 -70 -52 -107
t-114 -44q-7 0 -13.5 -0.5t-13.5 -0.5q-89 0 -148.5 37.5t-59.5 136.5h18v-5v-6q-1 -3 -1 -6v-6q0 -65 46.5 -95t102.5 -37q11 -2 22.5 -2.5t22.5 -0.5h8h8q59 4 108.5 37t49.5 101q0 54 -38.5 78t-85.5 39q-4 1 -8.5 2.5t-8.5 2.5l-101 28q-52 15 -91 48t-39 91
q0 59 39.5 95t90.5 53q-49 16 -81.5 45.5t-32.5 86.5q0 59 42 86.5t93 35.5l24.5 2t23.5 1q82 0 126.5 -27t50.5 -116v0zM296 115l17 8.5t18 9.5q37 19 68 47.5t31 74.5q0 53 -34.5 80t-79.5 40l-113 35q-1 0 -1.5 -0.5t-1.5 -0.5q-47 -14 -87 -44.5t-44 -85.5
q0 -61 36.5 -91.5t90.5 -45.5l100 -27v0z" />
    <glyph glyph-name="bullet" horiz-adv-x="600" 
d="M198 286q0 40 28 68t68 28q41 0 69.5 -28t28.5 -68t-28.5 -68t-69.5 -28q-40 0 -68 28t-28 68v0z" />
    <glyph glyph-name="paragraph" unicode="&#xb6;" horiz-adv-x="501" 
d="M214 -113v422q-82 0 -143.5 44t-61.5 134q0 95 63 137.5t148 42.5h220v-18h-64v-762h-19v762h-123v-762h-20v0z" />
    <glyph glyph-name="germandbls" unicode="&#xdf;" horiz-adv-x="472" 
d="M87 0h-17v508q0 82 42 127.5t125 45.5q69 0 118.5 -44.5t49.5 -115.5q0 -57 -32.5 -94.5t-85.5 -51.5q77 -13 116 -53.5t39 -122.5q0 -55 -20 -103.5t-73 -74.5q-21 -11 -44.5 -15t-47.5 -5h-14h-14h-22v17h8h8q4 -1 8 -1h8q92 0 138.5 44t46.5 138q0 109 -64 136.5
t-153 29.5v16q70 0 125.5 30t55.5 111q0 65 -45.5 104.5t-108.5 39.5q-35 0 -68 -13t-55 -43q-18 -25 -21 -54.5t-3 -60.5v-495v0z" />
    <glyph glyph-name="registered" unicode="&#xae;" horiz-adv-x="793" 
d="M396 677q142 0 243 -101t101 -243q0 -141 -101 -241.5t-243 -100.5q-141 0 -242 100.5t-101 241.5q0 142 101 243t242 101v0zM396 658q-133 0 -228 -95.5t-95 -229.5q0 -133 95 -229t228 -96q134 0 228.5 96t94.5 229q0 134 -94.5 229.5t-228.5 95.5v0zM248 526h167h8.5
t8.5 -1q45 -3 82.5 -26.5t37.5 -76.5q0 -37 -20.5 -64t-56.5 -37q53 -13 61.5 -45.5t8.5 -69.5v-3.5v-2.5q0 -19 2 -38t11 -35h-21q-5 8 -7 19t-3 22v8.5v8.5v6v6q-2 71 -24 92.5t-101 21.5h-135v-184h-19v399v0zM267 508v-179h132h6.5h6.5q45 2 82.5 20.5t37.5 72.5
q0 44 -31 63t-69 22q-5 1 -10.5 1h-11.5h-143v0z" />
    <glyph glyph-name="copyright" unicode="&#xa9;" horiz-adv-x="793" 
d="M396 677q142 0 243 -101t101 -243q0 -141 -101 -241.5t-243 -100.5q-141 0 -242 100.5t-101 241.5q0 142 101 243t242 101v0zM396 658q-133 0 -228 -95.5t-95 -229.5q0 -133 95 -229t228 -96q134 0 228.5 96t94.5 229q0 134 -94.5 229.5t-228.5 95.5v0zM584 296
q-5 -75 -57.5 -122t-127.5 -47q-88 0 -139.5 60t-51.5 143q0 86 50.5 148.5t141.5 62.5h4.5h5.5q58 -3 108 -37t58 -96h-18q-12 57 -57 86t-101 29q-81 0 -126 -59t-45 -134q0 -76 45.5 -130.5t125.5 -54.5q71 0 113.5 42t52.5 109h18v0z" />
    <glyph glyph-name="trademark" unicode="&#x2122;" horiz-adv-x="881" 
d="M189 267h-19v384h-149v16h319v-16h-151v-384v0zM820 267h-19v360v6l-171 -366h-19l-171 367v-367h-18v400h24l175 -377l176 377h23v-400v0z" />
    <glyph glyph-name="acute" unicode="&#xb4;" horiz-adv-x="500" 
d="M186 551h-31l160 98h30l-159 -98v0z" />
    <glyph glyph-name="dieresis" unicode="&#xa8;" horiz-adv-x="500" 
d="M164 549h-17v99h17v-99v0zM353 549h-17v99h17v-99v0z" />
    <glyph glyph-name="notequal" unicode="&#x2260;" horiz-adv-x="500" 
 />
    <glyph glyph-name="AE" unicode="&#xc6;" horiz-adv-x="893" 
d="M840 16v-16h-426v219h-304l-85 -219h-18l259 667h574v-16h-409v-299h365v-15h-365v-321h409v0zM414 234v417h-137l-160 -417h297v0z" />
    <glyph glyph-name="Oslash" unicode="&#xd8;" horiz-adv-x="685" 
d="M614 656l12 -12l-57 -64q46 -54 64.5 -116t18.5 -133q0 -139 -78.5 -241t-228.5 -102q-66 0 -121 22.5t-100 69.5l-67 -74l-12 11l68 76q-15 20 -26 38.5t-20 36.5q-18 38 -25.5 78t-7.5 91q0 138 79.5 240.5t227.5 102.5q64 0 118 -21.5t99 -66.5l56 64v0zM135 93l6 -6
t6 -5q42 -40 88 -59.5t108 -19.5q141 0 217 98t76 229q0 65 -18.5 126.5t-59.5 111.5l-423 -475v0zM547 580q-42 42 -93.5 63.5t-111.5 21.5q-139 0 -215 -98.5t-76 -228.5q0 -54 9.5 -98t32.5 -85q7 -12 15 -24t17 -24l422 473v0z" />
    <glyph glyph-name="infinity" unicode="&#x221e;" 
 />
    <glyph glyph-name="plusminus" unicode="&#xb1;" horiz-adv-x="500" 
d="M33 100h434v-19h-434v19v0zM33 354h207v187h20v-187h207v-19h-207v-188h-20v188h-207v19v0z" />
    <glyph glyph-name="lessequal" unicode="&#x2264;" horiz-adv-x="500" 
 />
    <glyph glyph-name="greaterequal" unicode="&#x2265;" horiz-adv-x="500" 
 />
    <glyph glyph-name="yen" unicode="&#xa5;" horiz-adv-x="547" 
d="M261 0v266h-167v19h167l-86 137h-150v18h140l-140 227h23l225 -368l228 368h22l-142 -227h141v-18h-151l-85 -137h180v-19h-183v-266h-22v0z" />
    <glyph glyph-name="mu" unicode="&#xb5;" horiz-adv-x="498" 
d="M66 -162v640h20v-286q0 -79 33.5 -132.5t123.5 -53.5q76 0 119.5 57.5t47.5 126.5q1 4 1 8v8v272h20v-478h-20v113q-22 -55 -65.5 -90t-105.5 -35q-51 0 -88.5 20.5t-65.5 62.5v-233h-20v0z" />
    <glyph glyph-name="partialdiff" unicode="&#x2202;" horiz-adv-x="500" 
 />
    <glyph glyph-name="summation" unicode="&#x3a3;" horiz-adv-x="500" 
 />
    <glyph glyph-name="product" unicode="&#x220f;" 
 />
    <glyph glyph-name="pi" unicode="&#x3c0;" horiz-adv-x="500" 
 />
    <glyph glyph-name="integral" unicode="&#x222b;" 
 />
    <glyph glyph-name="ordfeminine" unicode="&#xaa;" horiz-adv-x="347" 
d="M322 309v-18h-280v18h280v0zM292 369h-21q-4 11 -6 23t-2 24v6t1 6q-19 -33 -47 -50t-67 -17q-41 0 -74.5 19t-33.5 66q0 49 35 68t76 23q3 0 5.5 0.5t5.5 0.5q10 1 18.5 1t16.5 1q31 1 47 7t16 38q0 42 -25 58t-64 16q-44 0 -67 -22t-27 -65h-19q4 50 34 77.5t79 27.5
q45 0 76.5 -18.5t32.5 -68.5l1 -7v-130v-7v-7q0 -4 0.5 -7.5t0.5 -6.5q0 -15 2 -29t6 -27v0zM264 536q-13 -9 -34.5 -11.5t-44.5 -4.5h-7.5h-6.5q-40 -3 -74 -15t-34 -59q0 -37 27 -52t59 -15q62 0 88.5 41t26.5 96v20v0z" />
    <glyph glyph-name="ordmasculine" unicode="&#xba;" horiz-adv-x="347" 
d="M314 309v-18h-280v18h280v0zM174 677q68 0 104 -45.5t36 -109.5q0 -65 -34 -113t-105 -48t-105.5 48t-34.5 113q0 62 37 108.5t102 46.5v0zM175 659q-58 0 -89 -42t-31 -95q0 -56 29.5 -99.5t90.5 -43.5q62 0 90.5 43.5t28.5 99.5q0 54 -30 95.5t-89 41.5v0z" />
    <glyph glyph-name="Omega" unicode="&#x3a9;" horiz-adv-x="500" 
 />
    <glyph glyph-name="ae" unicode="&#xe6;" horiz-adv-x="831" 
d="M778 163h17q-14 -76 -65.5 -126.5t-133.5 -50.5q-81 0 -130 45t-74 118q-16 -72 -67.5 -117.5t-128.5 -45.5h-5.5h-5.5q-58 3 -106.5 34t-48.5 97q0 47 26 79t69 48q21 8 45.5 11.5t50.5 5.5q8 0 17 0.5t17 1.5q51 2 89.5 10t38.5 43q0 80 -34 117t-116 37
q-73 0 -111.5 -33.5t-46.5 -105.5h-17q8 78 53 116.5t122 38.5q76 0 121 -34.5t45 -114.5q23 70 74 111t126 41q92 0 147 -67.5t55 -154.5v-10t-1 -10q0 -5 -0.5 -10t-0.5 -10h-398q2 -89 49.5 -157.5t145.5 -68.5q74 0 122 45.5t60 116.5v0zM383 280q-16 -19 -51 -24.5
t-77 -8.5q-9 -1 -17.5 -1.5t-17.5 -1.5q-65 -6 -119 -28.5t-54 -97.5q0 -60 43.5 -87t95.5 -30h5.5h5.5q80 0 133 57t53 136v86v0zM783 244v4t1 4v4v4v2.5v3.5q-2 77 -50 141.5t-133 64.5q-102 0 -149.5 -68t-50.5 -160h382v0z" />
    <glyph glyph-name="oslash" unicode="&#xf8;" horiz-adv-x="494" 
d="M451 465l13 -13l-46 -48q24 -39 35 -81.5t11 -88.5q0 -100 -52.5 -173.5t-162.5 -73.5q-47 0 -88 18t-71 54l-47 -51l-13 12l50 54q-24 39 -34.5 81t-10.5 88q0 99 55.5 172.5t161.5 73.5q47 0 85.5 -18.5t70.5 -52.5l43 47v0zM101 72q30 -35 66.5 -52.5t82.5 -17.5
q102 0 149.5 69t47.5 162q0 42 -9.5 82.5t-31.5 76.5l-305 -320v0zM395 406q-28 31 -64.5 49t-78.5 18q-98 0 -149.5 -68t-51.5 -160q0 -8 0.5 -16.5t0.5 -16.5q3 -34 12 -66t28 -60l303 320v0z" />
    <glyph glyph-name="questiondown" unicode="&#xbf;" horiz-adv-x="467" 
d="M222 303h16q0 -46 -11 -76t-34 -57q-9 -10 -20 -20.5l-24 -22.5q-3 -2 -5.5 -4.5t-4.5 -5.5q-31 -29 -56.5 -63.5t-25.5 -78.5q0 -71 52 -110t118 -39q49 0 90 19.5t67 62.5q13 21 18 44.5t7 47.5q1 6 1.5 13t0.5 14h16q-2 -94 -50 -155t-150 -61q-73 0 -130 42.5
t-57 121.5q0 52 30 90t66 71q2 1 3.5 2.5l2.5 2.5l28.5 28t21.5 24q17 21 23.5 45t6.5 65v0zM222 383v90h16v-90h-16v0z" />
    <glyph glyph-name="exclamdown" unicode="&#xa1;" horiz-adv-x="163" 
d="M90 300v-493h-17v493h17v0zM90 383h-17v91h17v-91v0z" />
    <glyph glyph-name="logicalnot" unicode="&#xac;" horiz-adv-x="500" 
d="M446 0v248h-413v19h433v-267h-20v0z" />
    <glyph glyph-name="radical" unicode="&#x221a;" horiz-adv-x="500" 
 />
    <glyph glyph-name="florin" unicode="&#x192;" horiz-adv-x="477" 
d="M358 388l-2 -12h-120l-72 -373q-2 -11 -5 -23.5l-6 -25.5q-12 -49 -39 -90t-85 -41q-5 0 -9.5 0.5t-9.5 0.5q-5 1 -9 2t-9 3l2 12q9 -1 18.5 -2.5t19.5 -1.5q50 0 74 38t35 84q5 20 8 38.5t7 33.5v1.5v1.5l65 342h-111l2 12h111q2 12 4.5 24t4.5 24q0 2 0.5 4.5t0.5 5.5
q13 74 40 136t115 62q11 0 21.5 -1.5t20.5 -4.5l-3 -12q-3 0 -5.5 0.5t-4.5 1.5l-16 2t-16 1q-69 0 -93 -41.5t-36 -101.5l-18 -100h120v0z" />
    <glyph glyph-name="approxequal" unicode="&#x2248;" horiz-adv-x="500" 
 />
    <glyph glyph-name="Delta" unicode="&#x2206;" horiz-adv-x="500" 
 />
    <glyph glyph-name="guillemotleft" unicode="&#xab;" horiz-adv-x="277" 
d="M124 374v-31l-76 -103l76 -102v-30l-91 124v16l91 126v0zM237 374v-31l-76 -103l76 -102v-30l-91 124v16l91 126v0z" />
    <glyph glyph-name="guillemotright" unicode="&#xbb;" horiz-adv-x="277" 
d="M40 374l91 -126v-16l-91 -124v30l76 102l-76 103v31v0zM153 374l91 -126v-16l-91 -124v30l76 102l-76 103v31v0z" />
    <glyph glyph-name="ellipsis" unicode="&#x2026;" horiz-adv-x="286" 
d="M40 91h15v-91h-15v91v0zM135 91h16v-91h-16v91v0zM231 91h15v-91h-15v91v0z" />
    <glyph glyph-name="Agrave" unicode="&#xc0;" horiz-adv-x="571" 
d="M565 0h-19l-87 217h-345l-89 -217h-18l273 667h18l267 -667v0zM451 235l-163 409l-166 -409h329v0zM303 738l-159 98h30l160 -98h-31v0z" />
    <glyph glyph-name="Atilde" unicode="&#xc3;" horiz-adv-x="571" 
d="M565 0h-19l-87 217h-345l-89 -217h-18l273 667h18l267 -667v0zM451 235l-163 409l-166 -409h329v0zM411 823q-1 -4 -1.5 -7.5t-1.5 -7.5q-6 -19 -18.5 -35.5t-33.5 -19.5q-22 0 -38 9t-30 19q-1 1 -2 1.5t-2 1.5q-11 9 -23.5 16t-27.5 9q-25 0 -37.5 -16t-17.5 -39h-17
q1 4 2 7.5t2 7.5q6 22 21.5 40t40.5 18q18 0 32.5 -9t27.5 -19l1 -1h1q13 -11 27 -19.5t31 -8.5q19 0 29 13t15 29q1 3 1.5 5.5t1.5 5.5h17v0z" />
    <glyph glyph-name="Otilde" unicode="&#xd5;" horiz-adv-x="686" 
d="M343 -13q-147 1 -228 105t-81 242q0 137 81 241.5t228 104.5t228.5 -104t81.5 -242t-81 -242t-229 -104v-1zM343 3q142 0 218 99t76 232q0 132 -76 231.5t-218 99.5q-141 0 -217 -100t-76 -231q0 -132 75.5 -231.5t217.5 -99.5v0zM468 823q-1 -4 -1.5 -7.5t-1.5 -7.5
q-6 -19 -18.5 -35.5t-33.5 -19.5q-22 0 -38 9t-30 19q-1 1 -2 1.5t-2 1.5q-11 9 -23.5 16t-27.5 9q-25 0 -37.5 -16t-17.5 -39h-17q1 4 2 7.5t2 7.5q6 22 21.5 40t40.5 18q18 0 32.5 -9t27.5 -19l1 -1h1q13 -11 27 -19.5t31 -8.5q19 0 29 13t15 29q1 3 1.5 5.5t1.5 5.5h17v0
z" />
    <glyph glyph-name="OE" unicode="&#x152;" horiz-adv-x="1038" 
d="M985 16v-16h-431v69q-43 -41 -94 -61t-112 -20q-149 0 -232 104t-83 244q0 143 89 243.5t236 100.5q55 0 105.5 -20.5t90.5 -55.5v63h431v-16h-414v-298h369v-16h-369v-321h414v0zM554 586q-42 35 -90.5 57t-104.5 22q-143 0 -226 -95t-83 -234q0 -133 78 -233t220 -100
q59 0 112.5 21.5t93.5 64.5v497v0z" />
    <glyph glyph-name="oe" unicode="&#x153;" horiz-adv-x="840" 
d="M789 155h17q-15 -78 -67.5 -124.5t-134.5 -46.5q-81 0 -128 47.5t-58 123.5q-14 -74 -58 -122t-125 -48q-111 0 -158 76t-47 173v6.5v7.5q3 90 50 165.5t150 75.5q83 0 128 -44.5t60 -120.5q15 69 65.5 117.5t124.5 48.5q104 0 153 -70t49 -165q0 -7 -0.5 -14t-1.5 -15
h-380q0 -85 37 -156t137 -71q78 0 124 41.5t63 114.5v0zM411 235q0 89 -38 163.5t-142 74.5q-99 0 -141.5 -72.5t-43.5 -159.5v-3.5v-2.5q0 -90 43.5 -162.5t145.5 -72.5q94 0 133 67.5t43 148.5v9.5v9.5v0zM792 243q0 88 -39.5 160t-142.5 72q-97 0 -139 -70.5t-43 -155.5
v-3.5v-2.5h364v0z" />
    <glyph glyph-name="endash" horiz-adv-x="499" 
d="M439 245v-16h-369v16h369v0z" />
    <glyph glyph-name="emdash" unicode="&#x2014;" horiz-adv-x="623" 
d="M623 245v-16h-623v16h623v0z" />
    <glyph glyph-name="quotedblleft" unicode="&#x201c;" horiz-adv-x="212" 
d="M57 464h-17v83q0 35 8 64t32 56v-28q-16 -21 -19.5 -43.5t-3.5 -48.5v-83v0zM149 464h-18v83q0 35 8.5 64t32.5 56v-28q-16 -21 -19.5 -43.5t-3.5 -48.5v-83v0z" />
    <glyph glyph-name="quotedblright" unicode="&#x201d;" horiz-adv-x="212" 
d="M63 667h17v-83q0 -35 -7.5 -64.5t-32.5 -55.5v27q16 22 19.5 44.5t3.5 48.5v83v0zM154 667h18v-83q0 -35 -8 -64.5t-33 -55.5v27q16 22 19.5 44.5t3.5 48.5v83v0z" />
    <glyph glyph-name="quoteleft" unicode="&#x2018;" horiz-adv-x="120" 
d="M57 464h-17v83q0 35 8 64t32 56v-28q-16 -21 -19.5 -43.5t-3.5 -48.5v-83v0z" />
    <glyph glyph-name="quoteright" unicode="&#x2019;" horiz-adv-x="120" 
d="M63 667h17v-83q0 -35 -7.5 -64.5t-32.5 -55.5v27q16 22 19.5 44.5t3.5 48.5v83v0z" />
    <glyph glyph-name="divide" unicode="&#xf7;" horiz-adv-x="500" 
d="M250 159q11 0 18.5 -7.5t7.5 -18.5q0 -10 -7.5 -18t-18.5 -8q-10 0 -18 8t-8 18q0 11 8 18.5t18 7.5v0zM33 336h434v-19h-434v19v0zM250 546q11 0 18.5 -7.5t7.5 -18.5t-7.5 -19t-18.5 -8q-10 0 -18 8t-8 19t8 18.5t18 7.5v0z" />
    <glyph glyph-name="lozenge" unicode="&#x25ca;" horiz-adv-x="500" 
 />
    <glyph glyph-name="ydieresis" unicode="&#xff;" horiz-adv-x="418" 
d="M412 473l-211 -543q-3 -6 -5.5 -12l-4.5 -11q-16 -37 -38 -52t-71 -15h-5.5h-4.5q-2 1 -4.5 1h-4.5v15q2 1 4.5 1t4.5 -1h4.5h4.5q40 0 58 9.5t31 36.5q3 6 5.5 12.5l5.5 14.5l29 72l-203 472h19l193 -453l175 453h18v0zM123 549h-17v99h17v-99v0zM312 549h-17v99h17v-99
v0z" />
    <glyph glyph-name="Ydieresis" unicode="&#x178;" horiz-adv-x="578" 
d="M301 0h-17v281l-277 386h20l250 -348l9 -13t5 -10l6 8t5 8l249 355h20l-270 -386v-281v0zM203 736h-17v99h17v-99v0zM392 736h-17v99h17v-99v0z" />
    <glyph glyph-name="fraction" unicode="&#x2215;" horiz-adv-x="102" 
d="M-163 0l428 667h19l-427 -667h-20v0z" />
    <glyph glyph-name="currency" unicode="&#xa4;" horiz-adv-x="667" 
d="M88 109l84 87q-26 32 -41 69t-15 77q0 41 15 78t41 68l-88 86l14 14l87 -86q31 28 69 43t79 15t79.5 -15t68.5 -43l88 86l14 -14l-88 -86q27 -31 41.5 -68.5t14.5 -78.5q0 -40 -14.5 -77t-41.5 -68l88 -87l-14 -14l-88 88q-31 -27 -68.5 -41.5t-78.5 -14.5
q-40 0 -77.5 14.5t-68.5 41.5l-87 -88l-13 14v0zM334 542q-82 0 -139.5 -59.5t-57.5 -140.5q0 -80 58.5 -138.5t138.5 -58.5t138 58.5t58 138.5q0 81 -57.5 140.5t-138.5 59.5v0z" />
    <glyph glyph-name="guilsinglleft" unicode="&#x2039;" horiz-adv-x="171" 
d="M131 374v-31l-76 -103l76 -102v-30l-91 124v16l91 126v0z" />
    <glyph glyph-name="guilsinglright" unicode="&#x203a;" horiz-adv-x="171" 
d="M40 374l91 -126v-16l-91 -124v30l76 102l-76 103v31v0z" />
    <glyph glyph-name="fi" unicode="&#xf001;" horiz-adv-x="385" 
d="M118 0h-15v457h-76v16h76v64q0 55 16.5 93t80.5 38h27v-16h-27q-14 0 -28 -2t-26 -11q-15 -10 -20.5 -26t-6.5 -33q-1 -7 -1 -14.5v-14.5v-78h98v-16h-98v-457v0zM325 473v-473h-15v473h15v0zM325 571h-15v96h15v-96v0z" />
    <glyph glyph-name="fl" unicode="&#xf002;" horiz-adv-x="386" 
d="M118 0h-15v457h-76v16h76v64q0 55 16.5 93t80.5 38h27v-16h-27q-14 0 -28 -2t-26 -11q-15 -10 -20.5 -26t-6.5 -33q-1 -7 -1 -14.5v-14.5v-78h98v-16h-98v-457v0zM326 0h-16v667h16v-667v0z" />
    <glyph glyph-name="daggerdbl" unicode="&#x2021;" horiz-adv-x="537" 
d="M277 666v-233h220v-16h-220v-345h220v-16h-220v-233h-17v233h-220v16h220v345h-220v16h220v233h17v0z" />
    <glyph glyph-name="periodcentered" unicode="&#x2219;" horiz-adv-x="156" 
d="M88 291v-92h-20v92h20v0z" />
    <glyph glyph-name="quotesinglbase" unicode="&#x201a;" horiz-adv-x="119" 
d="M64 90h15v-82q0 -24 -3.5 -44.5t-13.5 -39.5q-4 -8 -9.5 -16.5t-12.5 -17.5v26q14 20 19 42.5t5 44.5v87v0z" />
    <glyph glyph-name="quotedblbase" unicode="&#x201e;" horiz-adv-x="215" 
d="M158 90h17v-89q0 -5 -0.5 -11.5t-0.5 -13.5q-3 -25 -12.5 -49.5t-28.5 -42.5v28q14 20 19.5 41.5t5.5 44.5v92v0zM65 90h17v-94v-4.5v-4.5q-2 -28 -12.5 -54t-29.5 -47v25q14 20 19.5 41.5t5.5 44.5v93v0z" />
    <glyph glyph-name="perthousand" unicode="&#x2030;" horiz-adv-x="971" 
d="M549 676l-438 -703h-22l438 703h22v0zM474 306q68 0 105 -45.5t37 -110.5q0 -67 -36.5 -113t-108.5 -46q-73 0 -107.5 46.5t-34.5 114.5q0 66 38.5 110t106.5 44v0zM474 288q-62 0 -94.5 -38.5t-32.5 -98.5q0 -59 30 -101.5t94 -42.5q65 0 96.5 41.5t31.5 102.5
q0 57 -32 97t-93 40v0zM810 306q72 0 108 -45t36 -113q0 -64 -37 -110t-106 -46q-72 0 -108 45t-36 113q0 66 36.5 111t106.5 45v0zM810 289q-62 0 -94 -40t-32 -99t31.5 -100.5t94.5 -41.5t94.5 41.5t31.5 99.5q0 60 -30.5 100t-95.5 40v0zM167 660q72 0 107 -46.5
t35 -113.5t-38.5 -111.5t-108.5 -44.5q-71 0 -105.5 47.5t-34.5 113.5t38 110.5t107 44.5v0zM167 642q-61 0 -94.5 -39.5t-33.5 -97.5q0 -59 30 -101t94 -42q62 0 95.5 40t33.5 99t-30.5 100t-94.5 41v0z" />
    <glyph glyph-name="Acircumflex" unicode="&#xc2;" horiz-adv-x="571" 
d="M565 0h-19l-87 217h-345l-89 -217h-18l273 667h18l267 -667v0zM451 235l-163 409l-166 -409h329v0zM431 735h-28l-119 87l-115 -87h-28l133 100h22l135 -100v0z" />
    <glyph glyph-name="Ecircumflex" unicode="&#xca;" horiz-adv-x="610" 
d="M537 0h-447v667h447v-16h-430v-298h403v-15h-403v-322h430v-16v0zM450 735h-28l-119 87l-115 -87h-28l133 100h22l135 -100v0z" />
    <glyph glyph-name="Aacute" unicode="&#xc1;" horiz-adv-x="571" 
d="M565 0h-19l-87 217h-345l-89 -217h-18l273 667h18l267 -667v0zM451 235l-163 409l-166 -409h329v0zM268 738h-31l160 98h30l-159 -98v0z" />
    <glyph glyph-name="Edieresis" unicode="&#xcb;" horiz-adv-x="610" 
d="M537 0h-447v667h447v-16h-430v-298h403v-15h-403v-322h430v-16v0zM219 736h-17v99h17v-99v0zM408 736h-17v99h17v-99v0z" />
    <glyph glyph-name="Egrave" unicode="&#xc8;" horiz-adv-x="610" 
d="M537 0h-447v667h447v-16h-430v-298h403v-15h-403v-322h430v-16v0zM322 738l-159 98h30l160 -98h-31v0z" />
    <glyph glyph-name="Iacute" unicode="&#xcd;" horiz-adv-x="223" 
d="M119 667v-667h-16v667h16v0zM94 738h-31l160 98h30l-159 -98v0z" />
    <glyph glyph-name="Icircumflex" unicode="&#xce;" horiz-adv-x="223" 
d="M119 667v-667h-16v667h16v0zM256 735h-28l-119 87l-115 -87h-28l133 100h22l135 -100v0z" />
    <glyph glyph-name="Idieresis" unicode="&#xcf;" horiz-adv-x="223" 
d="M119 667v-667h-16v667h16v0zM25 736h-17v99h17v-99v0zM214 736h-17v99h17v-99v0z" />
    <glyph glyph-name="Igrave" unicode="&#xcc;" horiz-adv-x="223" 
d="M119 667v-667h-16v667h16v0zM128 738l-159 98h30l160 -98h-31v0z" />
    <glyph glyph-name="Oacute" unicode="&#xd3;" horiz-adv-x="686" 
d="M343 -13q-147 1 -228 105t-81 242q0 137 81 241.5t228 104.5t228.5 -104t81.5 -242t-81 -242t-229 -104v-1zM343 3q142 0 218 99t76 232q0 132 -76 231.5t-218 99.5q-141 0 -217 -100t-76 -231q0 -132 75.5 -231.5t217.5 -99.5v0zM326 738h-31l160 98h30l-159 -98v0z" />
    <glyph glyph-name="Ocircumflex" unicode="&#xd4;" horiz-adv-x="686" 
d="M343 -13q-147 1 -228 105t-81 242q0 137 81 241.5t228 104.5t228.5 -104t81.5 -242t-81 -242t-229 -104v-1zM343 3q142 0 218 99t76 232q0 132 -76 231.5t-218 99.5q-141 0 -217 -100t-76 -231q0 -132 75.5 -231.5t217.5 -99.5v0zM488 736h-28l-119 87l-115 -87h-28
l133 100h22l135 -100v0z" />
    <glyph glyph-name="apple" unicode="&#xf000;" 
 />
    <glyph glyph-name="Ograve" unicode="&#xd2;" 
 />
    <glyph glyph-name="Uacute" unicode="&#xda;" horiz-adv-x="676" 
d="M571 667h15v-397q0 -127 -52.5 -204.5t-195.5 -77.5q-141 0 -194.5 76t-53.5 206v397h16v-398q0 -121 49.5 -193.5t182.5 -72.5t183 72.5t50 193.5v398v0zM321 738h-31l160 98h30l-159 -98v0z" />
    <glyph glyph-name="Ucircumflex" unicode="&#xdb;" horiz-adv-x="676" 
d="M571 667h15v-397q0 -127 -52.5 -204.5t-195.5 -77.5q-141 0 -194.5 76t-53.5 206v397h16v-398q0 -121 49.5 -193.5t182.5 -72.5t183 72.5t50 193.5v398v0zM483 736h-28l-119 87l-115 -87h-28l133 100h22l135 -100v0z" />
    <glyph glyph-name="Ugrave" unicode="&#xd9;" horiz-adv-x="676" 
d="M571 667h15v-397q0 -127 -52.5 -204.5t-195.5 -77.5q-141 0 -194.5 76t-53.5 206v397h16v-398q0 -121 49.5 -193.5t182.5 -72.5t183 72.5t50 193.5v398v0zM355 738l-159 98h30l160 -98h-31v0z" />
    <glyph glyph-name="dotlessi" unicode="&#x131;" horiz-adv-x="145" 
d="M85 473v-473h-15v473h15v0z" />
    <glyph glyph-name="circumflex" unicode="&#x2dc;" horiz-adv-x="500" 
d="M395 549h-28l-119 87l-115 -87h-28l133 100h22l135 -100v0z" />
    <glyph glyph-name="tilde" unicode="&#x2c6;" horiz-adv-x="500" 
d="M375 637q-1 -4 -1.5 -7.5t-1.5 -7.5q-6 -19 -18.5 -35.5t-33.5 -19.5q-22 0 -38 9t-30 19q-1 1 -2 1.5t-2 1.5q-11 9 -23.5 16t-27.5 9q-25 0 -37.5 -16t-17.5 -39h-17q1 4 2 7.5t2 7.5q6 22 21.5 40t40.5 18q18 0 32.5 -9t27.5 -19l1 -1h1q13 -11 27 -19.5t31 -8.5
q19 0 29 13t15 29q1 3 1.5 5.5t1.5 5.5h17v0z" />
    <glyph glyph-name="macron" unicode="&#x2c9;" horiz-adv-x="500" 
d="M395 610v-16h-290v16h290v0z" />
    <glyph glyph-name="breve" unicode="&#x2d8;" horiz-adv-x="500" 
d="M366 651q-7 -46 -39 -74t-79 -28q-44 0 -76.5 29.5t-37.5 72.5h18q6 -37 31.5 -60.5t63.5 -23.5q41 0 67.5 22t33.5 62h18v0z" />
    <glyph glyph-name="dotaccent" unicode="&#x2d9;" horiz-adv-x="500" 
d="M260 668v-97h-20v97h20v0z" />
    <glyph glyph-name="ring" unicode="&#x2da;" horiz-adv-x="500" 
d="M322 602q0 -28 -20.5 -48.5t-49.5 -20.5q-28 0 -50.5 20t-22.5 49t21 51t51 22q29 0 50 -22t21 -51v0zM307 602q0 23 -16.5 40.5t-39.5 17.5t-40 -17t-17 -40t17.5 -39t40.5 -16q22 0 38.5 16t16.5 38v0z" />
    <glyph glyph-name="cedilla" unicode="&#xb8;" horiz-adv-x="500" 
d="M257 -27h17v-70q0 -34 -9.5 -61t-38.5 -48v23q22 18 26.5 39t4.5 47v70v0z" />
    <glyph glyph-name="hungarumlaut" unicode="&#x2ba;" horiz-adv-x="500" 
d="M305 681l-95 -131h-22l92 131h25v0zM419 681l-96 -131h-21l91 131h26v0z" />
    <glyph glyph-name="ogonek" unicode="&#x2db;" horiz-adv-x="500" 
d="M464 0h24q-2 0 -4 -1.5t-3 -2.5q-19 -14 -34.5 -33.5t-15.5 -43.5q0 -26 19.5 -41.5t44.5 -17.5q15 0 30 2.5t29 7.5v-20q-13 -4 -27 -6.5t-28 -2.5h-6t-6 1q-28 3 -51.5 22t-23.5 49q0 28 15 49.5t37 37.5v0z" />
    <glyph glyph-name="caron" unicode="&#x2c7;" horiz-adv-x="500" 
d="M395 649l-135 -100h-22l-133 100h28l115 -87l119 87h28v0z" />
    <glyph glyph-name="Lslash" unicode="&#x141;" horiz-adv-x="552" 
d="M242 388v-20l-112 -83v-269h395v-16h-413v272l-65 -49v20l65 49v375h18v-363l112 84v0z" />
    <glyph glyph-name="lslash" unicode="&#x142;" horiz-adv-x="279" 
d="M219 412v-20l-66 -52v-340h-17v328l-66 -51v20l66 51v319h17v-307l66 52v0z" />
    <glyph glyph-name="Scaron" unicode="&#x160;" horiz-adv-x="613" 
d="M69 253v-28q0 -117 68.5 -169t178.5 -52q12 0 24 1t25 3q67 9 122.5 48.5t55.5 116.5q0 80 -53.5 108t-118.5 45l-131 36q-5 1 -11 2.5t-11 3.5q-54 16 -99.5 46t-45.5 97q0 85 60 122t132 44q8 0 17 0.5t18 0.5q111 0 175 -53.5t64 -169.5h-17q0 105 -58.5 156.5
t-161.5 51.5q-12 0 -24 -1l-24 -2q-61 -8 -112 -42.5t-51 -105.5q0 -57 39 -85t86 -42l13.5 -4l13.5 -4l133 -36q1 0 1.5 -0.5t1.5 -0.5q70 -19 125.5 -49.5t55.5 -117.5q0 -83 -61 -127t-134 -53q-13 -2 -25.5 -3t-24.5 -1q-114 0 -188 55.5t-74 176.5v32h16v0zM451 835
l-135 -100h-22l-133 100h28l115 -87l119 87h28v0z" />
    <glyph glyph-name="scaron" unicode="&#x161;" horiz-adv-x="459" 
d="M46 162h17q0 -77 47.5 -118.5t122.5 -41.5q7 0 14 0.5t14 0.5q50 6 92 33t42 85q0 60 -49.5 81t-109.5 35q-2 0 -3.5 0.5t-2.5 0.5q-63 14 -114.5 38t-51.5 90q0 56 40.5 84.5t89.5 35.5q8 1 17 1.5t17 0.5q74 0 121.5 -35t47.5 -115h-16q-2 72 -42.5 103t-109.5 31
q-7 0 -15 -0.5t-15 -1.5q-44 -5 -81 -29.5t-37 -75.5q0 -57 47.5 -77t106.5 -33q3 -1 6 -1.5t5 -1.5q63 -13 114.5 -37.5t51.5 -93.5q0 -64 -46.5 -94.5t-102.5 -36.5q-7 -1 -15 -1.5t-15 -0.5q-83 0 -134 44.5t-53 129.5v0zM374 648l-135 -100h-22l-133 100h28l115 -87
l119 87h28v0z" />
    <glyph glyph-name="Zcaron" unicode="&#x17d;" horiz-adv-x="602" 
d="M548 16v-16h-495v24l467 627h-446v16h462v-22l-468 -629h480v0zM446 835l-135 -100h-22l-133 100h28l115 -87l119 87h28v0z" />
    <glyph glyph-name="zcaron" unicode="&#x17e;" horiz-adv-x="506" 
d="M446 16v-16h-376v24l340 432h-315v17h334v-21l-342 -436h359v0zM398 649l-135 -100h-22l-133 100h28l115 -87l119 87h28v0z" />
    <glyph glyph-name="brokenbar" unicode="&#xa6;" horiz-adv-x="500" 
d="M240 153h20v-320h-20v320v0zM240 666h20v-320h-20v320v0z" />
    <glyph glyph-name="Eth" unicode="&#xd0;" horiz-adv-x="636" 
d="M69 667h218q153 0 226 -95t73 -239q0 -142 -76 -237.5t-227 -95.5h-214v334h-87v19h87v314v0zM89 353h133v-19h-133v-315h183q12 0 24 0.5t24 1.5q20 1 40 5t39 11q82 31 120.5 103.5t44.5 153.5q1 10 1.5 19.5t0.5 19.5q0 139 -67.5 227.5t-215.5 88.5h-194v-296v0z" />
    <glyph glyph-name="eth" unicode="&#xf0;" horiz-adv-x="501" 
d="M159 655l10 17q23 -11 45.5 -23.5t43.5 -27.5l77 60l12 -15l-73 -57q90 -64 137 -155.5t47 -202.5v-2.5v-3.5q-1 -97 -49 -177t-160 -80q-104 0 -155 72.5t-51 167.5q0 101 52.5 175.5t160.5 74.5q56 0 94.5 -22.5t70.5 -65.5q-29 65 -65 111.5t-91 88.5l-3.5 3.5
t-3.5 2.5l-82 -65l-12 17l77 60q-19 13 -40 25t-42 22v0zM256 460q-101 0 -147 -69.5t-46 -163.5q0 -88 45.5 -155t141.5 -67q98 0 140.5 70t46.5 155q1 5 1 10.5v10.5q0 83 -45 146t-137 63v0z" />
    <glyph glyph-name="Yacute" unicode="&#xdd;" 
 />
    <glyph glyph-name="yacute" unicode="&#xfd;" 
 />
    <glyph glyph-name="Thorn" unicode="&#xde;" horiz-adv-x="498" 
d="M68 667h20v-80h174q91 0 152 -39t61 -143q0 -87 -58.5 -134t-140.5 -47h-188v-224h-20v667v0zM88 569v-326h159q33 0 65 2.5t61 18.5q40 22 61 59t21 82q0 94 -55.5 129t-138.5 35h-173v0z" />
    <glyph glyph-name="thorn" unicode="&#xfe;" horiz-adv-x="525" 
d="M87 667v-324q23 71 68 109.5t124 38.5q103 0 153 -77.5t51 -170.5v-1.5v-1.5q0 -96 -51 -174t-158 -78q-71 0 -119 36t-68 103l-1 -294h-19v834h20v0zM278 473q-97 0 -144.5 -72.5t-47.5 -161.5v-2.5v-3.5q1 -85 44.5 -156.5t141.5 -71.5q101 0 145.5 73t44.5 162v6.5
v7.5q-3 82 -46.5 150.5t-137.5 68.5v0z" />
    <glyph glyph-name="minus" unicode="&#x2212;" horiz-adv-x="500" 
d="M33 336h434v-19h-434v19v0z" />
    <glyph glyph-name="multiply" unicode="&#xd7;" horiz-adv-x="500" 
d="M84 506l166 -166l165 166l14 -14l-166 -165l166 -166l-14 -13l-165 165l-166 -165l-13 13l165 166l-165 165l13 14v0z" />
    <glyph glyph-name="onesuperior" unicode="&#xb9;" horiz-adv-x="353" 
d="M236 254h-15v362q-5 -14 -22 -27t-37 -22q-12 -6 -23.5 -10.5t-20.5 -7.5v16q31 9 57 27.5t45 43.5h16v-382v0z" />
    <glyph glyph-name="twosuperior" unicode="&#xb2;" horiz-adv-x="353" 
d="M306 270v-16h-260q8 49 42 80.5t74 58.5l6 4l6 4q41 28 73.5 60t32.5 81q0 41 -30.5 63.5t-68.5 22.5q-58 0 -84.5 -33t-26.5 -89h-16q0 62 32 100t96 38q44 0 79.5 -27.5t35.5 -74.5q0 -56 -36.5 -90t-80.5 -63q-1 -1 -3 -2t-3 -2q-36 -24 -67 -50t-40 -64l239 -1v0z
" />
    <glyph glyph-name="threesuperior" unicode="&#xb3;" horiz-adv-x="353" 
d="M41 389h18q0 -57 28.5 -91.5t88.5 -34.5q45 0 82 26t37 75q0 54 -35 70t-76 19q-7 0 -13.5 0.5t-13.5 0.5v17q9 0 18 0.5t18 0.5q35 3 63.5 18.5t28.5 57.5q0 40 -29.5 59.5t-65.5 21.5h-4h-4q-57 0 -85.5 -29.5t-30.5 -85.5h-17q2 62 37.5 96.5t96.5 34.5h4h4
q42 -2 76.5 -27t34.5 -71q0 -34 -19.5 -54.5t-49.5 -30.5q37 -10 58 -34t21 -63q0 -58 -41.5 -88t-94.5 -30q-66 0 -100.5 39t-34.5 103v0z" />
    <glyph glyph-name="onehalf" unicode="&#xbd;" horiz-adv-x="809" 
d="M191 0l428 667h19l-427 -667h-20v0zM762 16v-16h-260q7 49 41.5 80.5t74.5 59.5q3 2 6 3.5t6 3.5q41 29 73.5 60.5t32.5 80.5q0 41 -30 63.5t-68 22.5q-58 0 -84.5 -32t-26.5 -90h-17q0 62 32 100t96 38q44 0 79.5 -27.5t35.5 -74.5q0 -56 -36.5 -90t-80.5 -63
q-2 -2 -4 -3t-4 -3q-35 -24 -65.5 -49.5t-39.5 -62.5l239 -1v0zM236 254h-15v362q-5 -14 -22 -27t-37 -22q-12 -6 -23.5 -10.5t-20.5 -7.5v16q31 10 57 28.5t45 43.5h16v-383v0z" />
    <glyph glyph-name="onequarter" unicode="&#xbc;" horiz-adv-x="809" 
d="M191 0l428 667h19l-427 -667h-20v0zM700 0h-16v100h-189v18l187 264h18v-266h70v-16h-70v-100v0zM684 116v241l-170 -241h170v0zM236 254h-15v362q-5 -14 -22 -27t-37 -22q-12 -6 -23.5 -10.5t-20.5 -7.5v16q31 10 57 28.5t45 43.5h16v-383v0z" />
    <glyph glyph-name="threequarters" unicode="&#xbe;" horiz-adv-x="809" 
d="M191 0l427 667h20l-427 -667h-20v0zM700 0h-16v100h-190v18l188 264h18v-266h70v-16h-70v-100v0zM684 116v241l-170 -241h170v0zM41 388h18q0 -57 28.5 -91.5t88.5 -34.5q45 0 82 26t37 75q0 54 -35 70t-76 19q-7 0 -13.5 0.5t-13.5 0.5v17h16.5t17.5 1q35 3 64.5 18
t29.5 58q0 40 -29.5 60t-65.5 22h-4h-4q-57 0 -85.5 -30t-30.5 -86h-17q2 62 37 97t97 35h4h4q42 -2 76.5 -27t34.5 -71q0 -34 -19.5 -54.5t-49.5 -31.5q37 -9 58 -33t21 -64q0 -58 -41.5 -87.5t-94.5 -29.5q-65 0 -100 38.5t-35 102.5v0z" />
    <glyph glyph-name="franc" unicode="&#x20a3;" horiz-adv-x="500" 
 />
    <glyph glyph-name="Gbreve" unicode="&#x11e;" 
 />
    <glyph glyph-name="gbreve" unicode="&#x11f;" 
 />
    <glyph glyph-name="Idot" unicode="&#x130;" 
 />
    <glyph glyph-name="Scedilla" unicode="&#x15e;" 
 />
    <glyph glyph-name="scedilla" unicode="&#x15f;" 
 />
    <glyph glyph-name="Cacute" unicode="&#x106;" 
 />
    <glyph glyph-name="cacute" unicode="&#x107;" 
 />
    <glyph glyph-name="Ccaron" unicode="&#x10c;" 
 />
    <glyph glyph-name="ccaron" unicode="&#x10d;" 
 />
    <glyph glyph-name="dslash" unicode="&#x111;" 
 />
    <glyph glyph-name="arrowright" unicode="&#x2192;" horiz-adv-x="500" 
 />
    <glyph glyph-name="house" unicode="&#x2302;" 
 />
    <glyph glyph-name="endash" unicode="&#x2013;" horiz-adv-x="499" 
d="M439 245v-16h-369v16h369v0z" />
    <glyph glyph-name="sfthyphen" unicode="&#xad;" horiz-adv-x="500" 
 />
    <glyph glyph-name="filledbox" unicode="&#x25a0;" horiz-adv-x="500" 
 />
    <glyph glyph-name="bullet" unicode="&#x2022;" horiz-adv-x="600" 
d="M198 286q0 40 28 68t68 28q41 0 69.5 -28t28.5 -68t-28.5 -68t-69.5 -28q-40 0 -68 28t-28 68v0z" />
    <glyph glyph-name="overstore" unicode="&#xaf;" 
 />
    <glyph glyph-name="degree" unicode="&#xb0;" horiz-adv-x="500" 
d="M379 527q0 -52 -38 -90.5t-91 -38.5q-52 0 -90.5 38t-38.5 90q0 54 37.5 92t92.5 38q53 0 90.5 -38t37.5 -91v0zM360 527q0 45 -32.5 77.5t-77.5 32.5t-77.5 -32.5t-32.5 -77.5q0 -44 32.5 -77t76.5 -33q45 0 78 32.5t33 77.5v0z" />
    <glyph glyph-name="middot" unicode="&#xb7;" 
 />
    <glyph glyph-name="underscoredbl" unicode="&#x2017;" horiz-adv-x="500" 
 />
    <glyph glyph-name="exclamdbl" unicode="&#x203c;" horiz-adv-x="500" 
 />
    <glyph glyph-name="nsuperior" unicode="&#x207f;" horiz-adv-x="500" 
 />
    <glyph glyph-name="peseta" unicode="&#x20a7;" horiz-adv-x="500" 
 />
    <glyph glyph-name="Gamma" unicode="&#x393;" horiz-adv-x="500" 
 />
    <glyph glyph-name="Theta" unicode="&#x398;" horiz-adv-x="500" 
 />
    <glyph glyph-name="Phi" unicode="&#x3a6;" horiz-adv-x="500" 
 />
    <glyph glyph-name="alpha" unicode="&#x3b1;" horiz-adv-x="500" 
 />
    <glyph glyph-name="delta" unicode="&#x3b4;" horiz-adv-x="500" 
 />
    <glyph glyph-name="epsilon" unicode="&#x3b5;" horiz-adv-x="500" 
 />
    <glyph glyph-name="sigma" unicode="&#x3c3;" 
 />
    <glyph glyph-name="tau" unicode="&#x3c4;" horiz-adv-x="500" 
 />
    <glyph glyph-name="phi" unicode="&#x3c6;" 
 />
    <glyph glyph-name="arrowleft" unicode="&#x2190;" 
 />
    <glyph glyph-name="arrowup" unicode="&#x2191;" 
 />
    <glyph glyph-name="arrowdown" unicode="&#x2193;" 
 />
    <glyph glyph-name="arrowboth" unicode="&#x2194;" 
 />
    <glyph glyph-name="arrowupdn" unicode="&#x2195;" 
 />
    <glyph glyph-name="arrowupdnbase" unicode="&#x21a8;" 
 />
    <glyph glyph-name="orthogonal" unicode="&#x221f;" 
 />
    <glyph glyph-name="intersection" unicode="&#x2229;" 
 />
    <glyph glyph-name="equivalence" unicode="&#x2261;" 
 />
    <glyph glyph-name="revlogicalnot" unicode="&#x2310;" 
 />
    <glyph glyph-name="integraltp" unicode="&#x2320;" 
 />
    <glyph glyph-name="integralbt" unicode="&#x2321;" 
 />
    <glyph glyph-name="filledrect" unicode="&#x25ac;" 
 />
    <glyph glyph-name="circle" unicode="&#x25cb;" 
 />
    <glyph glyph-name="triagup" unicode="&#x25b2;" 
 />
    <glyph glyph-name="triagrt" unicode="&#x25ba;" 
 />
    <glyph glyph-name="triagdn" unicode="&#x25bc;" 
 />
    <glyph glyph-name="triaglf" unicode="&#x25c4;" 
 />
    <glyph glyph-name="invbullet" unicode="&#x25d8;" 
 />
    <glyph glyph-name="invcircle" unicode="&#x25d9;" 
 />
    <glyph glyph-name="Rcaron" unicode="&#x158;" 
 />
    <glyph glyph-name="upblock" unicode="&#x2580;" 
 />
    <glyph glyph-name="dnblock" unicode="&#x2584;" 
 />
    <glyph glyph-name="block" unicode="&#x2588;" 
 />
    <glyph glyph-name="lfblock" unicode="&#x258c;" 
 />
    <glyph glyph-name="rtblock" unicode="&#x2590;" 
 />
    <glyph glyph-name="ltshade" unicode="&#x2591;" 
 />
    <glyph glyph-name="shade" unicode="&#x2592;" 
 />
    <glyph glyph-name="dkshade" unicode="&#x2593;" 
 />
    <glyph glyph-name="smileface" unicode="&#x263a;" 
 />
    <glyph glyph-name="invsmileface" unicode="&#x263b;" 
 />
    <glyph glyph-name="sun" unicode="&#x263c;" 
 />
    <glyph glyph-name="female" unicode="&#x2640;" 
 />
    <glyph glyph-name="male" unicode="&#x2642;" 
 />
    <glyph glyph-name="spade" unicode="&#x2660;" 
 />
    <glyph glyph-name="club" unicode="&#x2663;" 
 />
    <glyph glyph-name="heart" unicode="&#x2665;" 
 />
    <glyph glyph-name="diamond" unicode="&#x2666;" 
 />
    <glyph glyph-name="musicalnote" unicode="&#x266a;" 
 />
    <glyph glyph-name="musicalnotedbl" unicode="&#x266b;" 
 />
    <glyph glyph-name="Abreve" unicode="&#x102;" 
 />
    <glyph glyph-name="abreve" unicode="&#x103;" 
 />
    <glyph glyph-name="Aogonek" unicode="&#x104;" 
 />
    <glyph glyph-name="aogonek" unicode="&#x105;" 
 />
    <glyph glyph-name="Dcaron" unicode="&#x10e;" 
 />
    <glyph glyph-name="dcaron" unicode="&#x10f;" 
 />
    <glyph glyph-name="Dslash" unicode="&#x110;" 
 />
    <glyph glyph-name="Eogonek" unicode="&#x118;" 
 />
    <glyph glyph-name="eogonek" unicode="&#x119;" 
 />
    <glyph glyph-name="Ecaron" unicode="&#x11a;" 
 />
    <glyph glyph-name="ecaron" unicode="&#x11b;" 
 />
    <glyph glyph-name="Lacute" unicode="&#x139;" 
 />
    <glyph glyph-name="lacute" unicode="&#x13a;" 
 />
    <glyph glyph-name="Lcaron" unicode="&#x13d;" 
 />
    <glyph glyph-name="lcaron" unicode="&#x13e;" 
 />
    <glyph glyph-name="Nacute" unicode="&#x143;" 
 />
    <glyph glyph-name="nacute" unicode="&#x144;" 
 />
    <glyph glyph-name="Ncaron" unicode="&#x147;" 
 />
    <glyph glyph-name="ncaron" unicode="&#x148;" 
 />
    <glyph glyph-name="Odblacute" unicode="&#x150;" 
 />
    <glyph glyph-name="odblacute" unicode="&#x151;" 
 />
    <glyph glyph-name="Racute" unicode="&#x154;" 
 />
    <glyph glyph-name="racute" unicode="&#x155;" 
 />
    <glyph glyph-name="rcaron" unicode="&#x159;" 
 />
    <glyph glyph-name="Sacute" unicode="&#x15a;" 
 />
    <glyph glyph-name="sacute" unicode="&#x15b;" 
 />
    <glyph glyph-name="Tcedilla" unicode="&#x162;" 
 />
    <glyph glyph-name="tcedilla" unicode="&#x163;" 
 />
    <glyph glyph-name="Tcaron" unicode="&#x164;" 
 />
    <glyph glyph-name="tcaron" unicode="&#x165;" 
 />
    <glyph glyph-name="Uring" unicode="&#x16e;" 
 />
    <glyph glyph-name="uring" unicode="&#x16f;" 
 />
    <glyph glyph-name="Udblacute" unicode="&#x171;" 
 />
    <glyph glyph-name="udblacute" unicode="&#x170;" 
 />
    <glyph glyph-name="Zacute" unicode="&#x179;" 
 />
    <glyph glyph-name="zacute" unicode="&#x17a;" 
 />
    <glyph glyph-name="Zdot" unicode="&#x17b;" 
 />
    <glyph glyph-name="zdot" unicode="&#x17c;" 
 />
    <glyph glyph-name="Ldot" unicode="&#x13f;" 
 />
    <glyph glyph-name="ldot" unicode="&#x140;" 
 />
    <glyph glyph-name="2500" unicode="&#x2500;" 
 />
    <glyph glyph-name="2502" unicode="&#x2502;" 
 />
    <glyph glyph-name="250c" unicode="&#x250c;" 
 />
    <glyph glyph-name="2510" unicode="&#x2510;" 
 />
    <glyph glyph-name="2514" unicode="&#x2514;" 
 />
    <glyph glyph-name="2518" unicode="&#x2518;" 
 />
    <glyph glyph-name="251c" unicode="&#x251c;" 
 />
    <glyph glyph-name="2524" unicode="&#x2524;" 
 />
    <glyph glyph-name="252c" unicode="&#x252c;" 
 />
    <glyph glyph-name="2534" unicode="&#x2534;" 
 />
    <glyph glyph-name="253c" unicode="&#x253c;" 
 />
    <glyph glyph-name="2550" unicode="&#x2550;" 
 />
    <glyph glyph-name="2551" unicode="&#x2551;" 
 />
    <glyph glyph-name="2552" unicode="&#x2552;" 
 />
    <glyph glyph-name="2553" unicode="&#x2553;" 
 />
    <glyph glyph-name="2554" unicode="&#x2554;" 
 />
    <glyph glyph-name="2555" unicode="&#x2555;" 
 />
    <glyph glyph-name="2556" unicode="&#x2556;" 
 />
    <glyph glyph-name="2557" unicode="&#x2557;" 
 />
    <glyph glyph-name="2558" unicode="&#x2558;" 
 />
    <glyph glyph-name="2559" unicode="&#x2559;" 
 />
    <glyph glyph-name="255a" unicode="&#x255a;" 
 />
    <glyph glyph-name="255b" unicode="&#x255b;" 
 />
    <glyph glyph-name="255c" unicode="&#x255c;" 
 />
    <glyph glyph-name="255d" unicode="&#x255d;" 
 />
    <glyph glyph-name="255e" unicode="&#x255e;" 
 />
    <glyph glyph-name="255f" unicode="&#x255f;" 
 />
    <glyph glyph-name="2560" unicode="&#x2560;" 
 />
    <glyph glyph-name="2561" unicode="&#x2561;" 
 />
    <glyph glyph-name="2562" unicode="&#x2562;" 
 />
    <glyph glyph-name="2563" unicode="&#x2563;" 
 />
    <glyph glyph-name="2564" unicode="&#x2564;" 
 />
    <glyph glyph-name="2565" unicode="&#x2565;" 
 />
    <glyph glyph-name="2566" unicode="&#x2566;" 
 />
    <glyph glyph-name="2567" unicode="&#x2567;" 
 />
    <glyph glyph-name="2568" unicode="&#x2568;" 
 />
    <glyph glyph-name="2569" unicode="&#x2569;" 
 />
    <glyph glyph-name="256a" unicode="&#x256a;" 
 />
    <glyph glyph-name="256b" unicode="&#x256b;" 
 />
    <glyph glyph-name="256c" unicode="&#x256c;" 
 />
    </font>
</defs>
</svg>
