<?xml version="1.0" standalone="no"?>
<!DOCTYPE svg PUBLIC "-//W3C//DTD SVG 1.1//EN" "http://www.w3.org/Graphics/SVG/1.1/DTD/svg11.dtd" >
<svg width="100%" height="100%" 
xmlns="http://www.w3.org/2000/svg" 
xmlns:xlink="http://www.w3.org/1999/xlink">
<defs>
<font id="HelveticaItalic" horiz-adv-x="500" >
  <font-face 
    font-family="HelveticaItalicFont"
    font-weight="100"
    font-style="italic"
    font-stretch="normal"
    units-per-em="1000"
    panose-1="0 0 0 0 0 0 0 0 0 0"
    ascent="800"
    descent="-200"
    x-height="514"
    cap-height="714"
    bbox="-167 -214 1059 924"
    underline-thickness="50"
    underline-position="-75"
    slope="-12"
    stemh="20"
    stemv="20"
    unicode-range="U+0020-U+FB02"
  />
<missing-glyph horiz-adv-x="278" 
 />
    <glyph glyph-name=".notdef" horiz-adv-x="278" 
 />
    <glyph glyph-name="space" unicode=" " horiz-adv-x="278" 
 />
    <glyph glyph-name="exclam" unicode="!" horiz-adv-x="185" 
d="M6 0l22 98h21l-22 -98h-21zM45 182l118 532h21l-118 -532h-21z" />
    <glyph glyph-name="quotedbl" unicode="&#x22;" horiz-adv-x="278" 
d="M126 714h20v-225h-20v225zM238 714h20v-225h-20v225z" />
    <glyph glyph-name="numbersign" unicode="#" horiz-adv-x="556" 
d="M225 680h20l-31 -234h171l31 234h20l-31 -234h116v-20h-121l-24 -177h117v-20h-121l-31 -229h-20l31 229h-172l-31 -229h-20l31 229h-125v20h130l24 177h-126v20h131zM209 426l-24 -177h171l24 177h-171z" />
    <glyph glyph-name="dollar" unicode="$" horiz-adv-x="556" 
d="M291 352l-80 -346c13 -2 26 -2 39 -2c86 0 234 42 235 188c2 107 -81 126 -194 160zM276 378l76 333c-6 1 -12 1 -18 0c-110 0 -223 -49 -227 -178c-1 -52 20 -90 64 -114c39 -21 67 -29 105 -41zM164 -113l23 100c-120 17 -205 90 -203 220c0 9 0 19 1 30h20
c-1 -8 -1 -18 -1 -31c-2 -113 74 -181 187 -197l81 348c-99 31 -188 62 -185 173c4 143 123 201 247 201c8 0 16 0 23 -1l16 70h20l-16 -71c119 -10 198 -68 198 -196c0 -7 0 -14 -1 -23h-20c1 9 1 16 1 24c-1 117 -75 167 -183 176l-77 -338c23 -8 43 -13 60 -18
c99 -31 151 -71 150 -162c-1 -157 -151 -210 -255 -210c-15 0 -29 0 -43 2l-23 -97h-20z" />
    <glyph glyph-name="percent" unicode="%" horiz-adv-x="685" 
d="M175 355c-75 0 -133 52 -133 129c0 104 62 208 174 208c81 0 134 -45 134 -134c0 -96 -65 -203 -175 -203zM175 375c93 0 155 91 155 183c0 68 -35 114 -114 114c-103 0 -154 -98 -154 -188c0 -66 50 -109 113 -109zM468 -12c-75 0 -133 52 -133 129
c0 104 62 208 174 208c81 0 134 -45 134 -134c0 -96 -65 -203 -175 -203zM468 8c93 0 155 91 155 183c0 68 -35 114 -114 114c-103 0 -154 -98 -154 -188c0 -66 50 -109 113 -109zM85 -34l476 748h23l-476 -748h-23z" />
    <glyph glyph-name="ampersand" unicode="&#x26;" horiz-adv-x="574" 
d="M407 129l-160 244c-93 -50 -213 -90 -213 -217c0 -94 76 -153 168 -153c88 0 160 53 205 126zM266 381l152 -233c21 43 35 82 47 126h20c-8 -49 -31 -102 -53 -143l85 -131h-25l-72 111c-54 -75 -118 -128 -218 -128s-188 63 -188 173c0 137 117 182 222 233
c-25 42 -72 109 -72 164c0 81 64 139 150 139c74 0 144 -43 144 -126c0 -92 -112 -144 -192 -185zM438 566c0 67 -58 106 -124 106c-65 0 -129 -40 -130 -119c1 -44 38 -104 71 -155c69 36 183 85 183 168z" />
    <glyph glyph-name="quoteright" unicode="&#x2019;" horiz-adv-x="167" 
d="M155 714h21l-29 -131c-10 -41 -32 -78 -74 -94l4 26c35 19 45 48 51 78z" />
    <glyph glyph-name="parenleft" unicode="(" horiz-adv-x="222" 
d="M264 731h25c-154 -186 -226 -405 -226 -636c0 -99 21 -190 42 -272h-20c-24 88 -42 186 -42 272c0 237 72 456 221 636z" />
    <glyph glyph-name="parenright" unicode=")" horiz-adv-x="222" 
d="M-62 -177h-25c154 186 226 405 226 636c0 99 -21 190 -42 272h20c24 -88 42 -186 42 -272c0 -237 -72 -456 -221 -636z" />
    <glyph glyph-name="asterisk" unicode="*" horiz-adv-x="352" 
d="M107 443l-14 14l99 100l-111 65l12 16l110 -64l23 140h20l-23 -143l133 48l6 -19l-133 -48l77 -102l-15 -14l-83 110z" />
    <glyph glyph-name="plus" unicode="+" horiz-adv-x="600" 
d="M290 0v243h-242v20h242v243h20v-243h242v-20h-242v-243h-20z" />
    <glyph glyph-name="comma" unicode="," horiz-adv-x="278" 
d="M90 98h21l-29 -131c-10 -41 -32 -78 -74 -94l4 26c35 19 45 48 51 78z" />
    <glyph glyph-name="hyphen" unicode="-" horiz-adv-x="333" 
d="M55 258l4 20h184l-4 -20h-184z" />
    <glyph glyph-name="period" unicode="." horiz-adv-x="278" 
d="M89 0h-21l22 98h21z" />
    <glyph glyph-name="slash" unicode="/" horiz-adv-x="333" 
d="M13 -17h-20l327 748h20z" />
    <glyph glyph-name="zero" unicode="0" horiz-adv-x="556" 
d="M516 456c0 124 -50 216 -195 216c-207 0 -283 -297 -283 -456c0 -116 60 -208 184 -208c216 0 294 276 294 448zM536 456c0 -185 -86 -468 -314 -468c-137 0 -204 102 -204 228c0 172 83 476 303 476c157 0 215 -101 215 -236z" />
    <glyph glyph-name="one" unicode="1" horiz-adv-x="556" 
d="M244 0h-21l143 658l-2 2c-58 -60 -127 -110 -212 -130l6 22c81 20 145 72 205 128h29z" />
    <glyph glyph-name="two" unicode="2" horiz-adv-x="556" 
d="M5 20h433l-4 -20h-453c12 136 141 210 251 267c97 51 270 122 270 259c0 100 -78 146 -174 146c-127 0 -209 -85 -213 -207h-20c7 139 96 227 233 227c105 0 195 -53 194 -166c1 -253 -472 -264 -517 -506z" />
    <glyph glyph-name="three" unicode="3" horiz-adv-x="556" 
d="M17 230h21c-4 -20 -5 -40 -5 -60c0 -107 88 -162 192 -162c120 0 230 63 230 196c0 120 -117 152 -217 146l5 19c111 0 264 9 264 159c0 102 -84 144 -176 144c-122 0 -193 -72 -213 -187h-20c19 126 101 207 233 207c103 0 196 -51 196 -164c0 -111 -79 -163 -182 -170
v-2c79 -7 128 -74 130 -152c0 -139 -113 -216 -250 -216c-116 0 -212 63 -212 182c0 23 2 42 4 60z" />
    <glyph glyph-name="four" unicode="4" horiz-adv-x="556" 
d="M354 198l94 445l-2 2l-413 -447h321zM351 178h-347l4 22l445 480h23l-100 -482h121l-3 -20h-121l-37 -178h-22z" />
    <glyph glyph-name="five" unicode="5" horiz-adv-x="556" 
d="M550 680l-6 -20h-337l-93 -248l-16 -36l2 -2c37 54 108 85 181 85c115 0 207 -70 207 -192c0 -157 -97 -279 -258 -279c-118 0 -201 62 -201 178c0 12 1 27 3 47h20c-2 -18 -3 -29 -3 -47c0 -104 74 -158 181 -158c154 0 238 118 238 259c0 108 -81 172 -187 172
c-72 0 -143 -33 -186 -94h-28l126 335h357z" />
    <glyph glyph-name="six" unicode="6" horiz-adv-x="556" 
d="M535 514h-20c13 99 -67 158 -167 158c-172 0 -230 -152 -250 -212c-17 -50 -35 -133 -37 -147h2c33 83 118 143 219 143c124 0 211 -83 211 -204c0 -148 -94 -264 -245 -264c-147 0 -214 88 -214 222c0 85 21 178 44 254c37 122 123 228 270 228c107 0 197 -59 187 -178z
M473 252c0 115 -84 184 -191 184c-136 0 -228 -109 -228 -234c0 -122 71 -194 194 -194c142 0 225 110 225 244z" />
    <glyph glyph-name="seven" unicode="7" horiz-adv-x="556" 
d="M125 660l3 20h430l-6 -22c-193 -189 -341 -399 -426 -658h-22c83 251 234 478 424 660h-403z" />
    <glyph glyph-name="eight" unicode="8" horiz-adv-x="556" 
d="M511 536c0 103 -101 136 -189 136c-109 0 -201 -41 -201 -155c0 -102 96 -142 185 -142c101 0 205 51 205 161zM471 186c0 126 -113 169 -215 169c-114 0 -229 -56 -229 -185c6 -119 107 -162 232 -162c127 0 212 68 212 178zM257 -12c-136 0 -249 56 -250 182
c1 129 95 191 216 200v2c-73 14 -122 67 -122 145c0 127 101 175 221 175c105 0 209 -44 209 -156c0 -146 -150 -176 -188 -176v-2c90 -16 148 -76 148 -172c0 -146 -123 -198 -234 -198z" />
    <glyph glyph-name="nine" unicode="9" horiz-adv-x="556" 
d="M502 478c0 122 -71 194 -194 194c-142 0 -225 -110 -225 -244c0 -115 84 -184 191 -184c136 0 228 109 228 234zM21 166h20c-13 -99 67 -158 167 -158c172 0 230 152 250 212c17 50 35 133 40 152l-2 2c-35 -94 -122 -150 -222 -150c-124 0 -211 83 -211 204
c0 148 94 264 245 264c147 0 214 -88 214 -222c0 -85 -21 -178 -44 -254c-37 -122 -123 -228 -270 -228c-107 0 -197 59 -187 178z" />
    <glyph glyph-name="colon" unicode=":" horiz-adv-x="278" 
d="M176 394h-21l22 98h21zM89 0h-21l22 98h21z" />
    <glyph glyph-name="semicolon" unicode=";" horiz-adv-x="278" 
d="M90 98h21l-29 -131c-10 -41 -32 -78 -74 -94l4 26c35 19 45 48 51 78zM176 394h-21l22 98h21z" />
    <glyph glyph-name="less" unicode="&#x3c;" horiz-adv-x="600" 
d="M554 13v-21l-508 249v24l508 249v-21l-490 -240z" />
    <glyph glyph-name="equal" unicode="=" horiz-adv-x="600" 
d="M552 340h-504v20h504v-20zM552 146h-504v20h504v-20z" />
    <glyph glyph-name="greater" unicode="&#x3e;" horiz-adv-x="600" 
d="M46 13l490 240l-490 240v21l508 -249v-24l-508 -249v21z" />
    <glyph glyph-name="question" unicode="?" 
d="M101 495h-20c9 135 81 236 221 236c105 0 186 -57 186 -163c0 -104 -65 -151 -142 -198c-66 -42 -96 -59 -115 -139l-12 -50h-21l13 53c21 91 60 112 125 153c92 57 132 99 132 181c0 100 -79 143 -166 143c-132 0 -193 -98 -201 -216zM181 0h-21l22 98h21z" />
    <glyph glyph-name="at" unicode="@" horiz-adv-x="800" 
d="M488 272l71 184c-19 69 -80 90 -132 90c-126 0 -213 -158 -213 -269c0 -71 50 -125 120 -125c53 0 117 24 154 120zM570 481l24 66h21l-111 -288c-23 -59 -29 -107 25 -107c82 0 193 112 194 259c1 166 -130 281 -304 281c-195 0 -342 -152 -342 -339
c0 -227 159 -345 342 -345c122 0 228 69 290 158h23c-65 -107 -190 -178 -313 -178c-178 0 -362 112 -362 365c0 207 164 359 362 359c179 0 323 -116 324 -301c1 -154 -119 -279 -216 -279c-39 0 -66 26 -59 63h-2c-37 -51 -89 -63 -136 -63c-77 0 -136 64 -136 145
c0 124 95 289 237 289c62 0 120 -32 137 -85h2z" />
    <glyph glyph-name="A" unicode="A" horiz-adv-x="574" 
d="M105 255h350l-79 431h-2zM502 0l-44 235h-366l-147 -235h-22l447 714h20l132 -714h-20z" />
    <glyph glyph-name="B" unicode="B" horiz-adv-x="611" 
d="M90 362l-73 -342h302c92 0 222 46 222 197c0 131 -103 145 -203 145h-248zM-7 0l151 714h277c62 0 181 -11 181 -159c1 -118 -97 -175 -175 -182v-2c92 -8 134 -67 134 -154c0 -138 -102 -217 -254 -217h-314zM162 694l-69 -312h258c137 0 232 63 231 173
c0 115 -81 140 -155 139h-265z" />
    <glyph glyph-name="C" unicode="C" horiz-adv-x="685" 
d="M628 252h20c-40 -156 -171 -269 -340 -269c-170 0 -276 115 -275 290c-1 222 135 456 386 458c139 1 266 -87 266 -232h-20c0 134 -122 212 -246 212c-234 0 -366 -218 -366 -438c0 -179 111 -270 255 -270c154 0 276 97 320 249z" />
    <glyph glyph-name="D" unicode="D" horiz-adv-x="667" 
d="M166 694l-148 -674h196c128 -1 204 13 291 106c59 63 108 183 108 308c0 241 -149 260 -313 260h-134zM-7 0l157 714h150c136 0 333 -3 333 -280c1 -109 -39 -239 -110 -319c-91 -102 -187 -115 -309 -115h-221z" />
    <glyph glyph-name="E" unicode="E" horiz-adv-x="519" 
d="M14 20h451l-5 -20h-470l153 714h453l-4 -20h-433l-67 -312h404l-4 -20h-405z" />
    <glyph glyph-name="F" unicode="F" horiz-adv-x="481" 
d="M468 382l-3 -20h-377l-78 -362h-20l153 714h436l-4 -20h-416l-67 -312h376z" />
    <glyph glyph-name="G" unicode="G" horiz-adv-x="722" 
d="M587 0l21 99l25 97l-2 2c-59 -138 -158 -213 -309 -215c-85 2 -162 22 -218 87c-51 59 -72 133 -71 209c-1 235 138 454 391 452c150 2 252 -80 266 -231h-20c-14 143 -108 213 -246 211c-241 2 -371 -213 -371 -432c0 -70 25 -153 75 -204c52 -52 121 -70 194 -72
c194 2 293 140 334 311h-277l4 20h295l-71 -334h-20z" />
    <glyph glyph-name="H" unicode="H" horiz-adv-x="648" 
d="M95 382h479l72 332h20l-153 -714h-20l77 362h-479l-78 -362h-20l153 714h20z" />
    <glyph glyph-name="I" unicode="I" horiz-adv-x="148" 
d="M13 0h-20l153 714h20z" />
    <glyph glyph-name="J" unicode="J" horiz-adv-x="463" 
d="M460 714h21l-113 -529c-20 -97 -62 -202 -205 -202c-123 0 -184 65 -184 161c0 30 3 53 9 76h20c-5 -28 -9 -55 -9 -76c0 -94 66 -141 164 -141c125 0 163 83 186 191z" />
    <glyph glyph-name="K" unicode="K" horiz-adv-x="593" 
d="M252 395l-183 -133l-56 -262h-20l152 714h20l-90 -424l576 424h33l-416 -307l292 -407h-24z" />
    <glyph glyph-name="L" unicode="L" horiz-adv-x="481" 
d="M18 20h413l-5 -20h-433l153 714h21z" />
    <glyph glyph-name="M" unicode="M" horiz-adv-x="796" 
d="M-7 0l151 714h30l156 -692h2l450 692h32l-152 -714h-21l146 683l-2 2l-444 -685h-26l-154 685h-2l-145 -685h-21z" />
    <glyph glyph-name="N" unicode="N" horiz-adv-x="667" 
d="M532 0h-27l-344 691h-2l-145 -691h-21l152 714h27l344 -691h2l146 691h21z" />
    <glyph glyph-name="O" unicode="O" horiz-adv-x="722" 
d="M697 434c0 -223 -135 -451 -378 -451c-184 0 -286 118 -286 297c0 223 134 451 378 451c181 0 286 -116 286 -297zM677 434c0 168 -93 277 -266 277c-232 0 -358 -221 -358 -431c0 -165 97 -277 266 -277c230 0 358 222 358 431z" />
    <glyph glyph-name="P" unicode="P" horiz-adv-x="574" 
d="M157 694l-75 -349h249c144 0 242 68 242 202c0 123 -94 147 -166 147h-250zM79 325l-70 -325h-21l153 714h270c125 0 182 -68 182 -167c0 -88 -44 -222 -268 -222h-246z" />
    <glyph glyph-name="Q" unicode="Q" horiz-adv-x="722" 
d="M616 -50l-104 93c-53 -38 -118 -60 -193 -60c-184 0 -286 118 -286 297c0 223 134 451 378 451c181 0 286 -116 286 -297c0 -146 -58 -295 -167 -379l100 -90zM496 57l-106 96l15 15l109 -99c106 81 163 226 163 365c0 168 -93 277 -266 277c-232 0 -358 -221 -358 -431
c0 -165 97 -277 266 -277c69 0 128 20 177 54z" />
    <glyph glyph-name="R" unicode="R" horiz-adv-x="593" 
d="M160 694l-71 -339h239c81 0 246 15 249 191c3 132 -102 148 -167 148h-250zM-7 0l149 714h275c79 0 183 -31 180 -168c-3 -128 -89 -202 -208 -205v-2c72 -11 109 -58 108 -148c-1 -37 -3 -76 -4 -116c0 -25 2 -51 10 -75h-20c-9 25 -11 50 -11 76c1 38 3 75 5 115
c3 122 -89 144 -149 144h-245l-70 -335h-20z" />
    <glyph glyph-name="S" unicode="S" horiz-adv-x="611" 
d="M7 237h20c-16 -148 94 -234 248 -234c81 0 233 32 233 189c0 106 -100 133 -201 162c-100 30 -201 62 -201 177c2 142 122 200 245 200c149 1 252 -61 242 -221h-20c11 147 -89 201 -222 201c-110 0 -223 -52 -225 -180c-2 -104 99 -131 200 -161s202 -63 202 -178
c0 -166 -154 -209 -253 -209c-161 0 -283 82 -268 254z" />
    <glyph glyph-name="T" unicode="T" 
d="M318 694h-258l4 20h537l-4 -20h-258l-148 -694h-21z" />
    <glyph glyph-name="U" unicode="U" horiz-adv-x="648" 
d="M140 714h21l-99 -456c-4 -29 -7 -49 -7 -73c0 -120 93 -184 215 -182c83 1 231 16 278 244l102 467h21l-100 -461c-22 -102 -73 -270 -301 -270c-127 0 -235 63 -235 202c0 39 4 62 11 99z" />
    <glyph glyph-name="V" unicode="V" horiz-adv-x="556" 
d="M221 0h-28l-126 714h20l122 -694h2l410 694h22z" />
    <glyph glyph-name="W" unicode="W" horiz-adv-x="889" 
d="M165 0h-26l-65 714h20l62 -688h2l347 688h32l62 -688h2l347 688h23l-363 -714h-26l-63 696h-2z" />
    <glyph glyph-name="X" unicode="X" horiz-adv-x="519" 
d="M472 0h-23l-185 351l-332 -351h-26l349 369l-182 345h23l175 -331l314 331h26l-331 -349z" />
    <glyph glyph-name="Y" unicode="Y" horiz-adv-x="519" 
d="M69 714l184 -392l349 392h25l-366 -411l-65 -303h-21l65 303l-194 411h23z" />
    <glyph glyph-name="Z" unicode="Z" 
d="M-52 20h509l-3 -20h-533l4 24l627 670h-475l5 20h497l-4 -24z" />
    <glyph glyph-name="bracketleft" unicode="[" horiz-adv-x="222" 
d="M180 731h120l-5 -20h-98l-191 -868h99l-5 -20h-120z" />
    <glyph glyph-name="backslash" unicode="\" horiz-adv-x="333" 
d="M340 -17h-20l-327 748h20z" />
    <glyph glyph-name="bracketright" unicode="]" horiz-adv-x="222" 
d="M20 -177h-120l5 20h98l188 868h-100l5 20h120z" />
    <glyph glyph-name="asciicircum" unicode="^" horiz-adv-x="600" 
d="M310 680l231 -453h-20l-221 433l-221 -433h-20l231 453h20z" />
    <glyph glyph-name="underscore" unicode="_" 
d="M500 -125h-500v50h500v-50z" />
    <glyph glyph-name="quoteleft" unicode="&#x2018;" horiz-adv-x="167" 
d="M111 489h-21l29 131c10 41 32 78 74 94l-4 -26c-35 -19 -45 -48 -51 -78z" />
    <glyph glyph-name="a" unicode="a" horiz-adv-x="481" 
d="M365 201l21 89l-2 2c-27 -29 -121 -29 -179 -30c-98 -5 -204 -21 -205 -147c0 -74 61 -107 133 -107c127 0 203 81 232 193zM79 365h-20c27 114 103 160 210 161c94 0 157 -39 157 -128c0 -24 -4 -43 -8 -63l-59 -251c-2 -12 -4 -20 -4 -35c0 -28 15 -33 31 -33
c12 0 24 1 35 4v-20c-13 -3 -24 -4 -34 -4c-33 0 -52 16 -52 53c0 27 6 39 10 56h-2c-48 -78 -111 -117 -210 -117c-79 0 -153 36 -153 127c0 139 112 165 224 166c105 5 202 -13 202 117c-1 83 -58 108 -137 108c-103 1 -168 -52 -190 -141z" />
    <glyph glyph-name="b" unicode="b" horiz-adv-x="537" 
d="M465 328c0 102 -56 178 -159 178c-159 0 -249 -172 -251 -308c-2 -113 58 -190 163 -190c167 0 247 177 247 320zM160 714l-69 -325l2 -2c40 79 115 139 213 139c120 0 179 -91 179 -198c0 -160 -87 -340 -267 -340c-100 0 -169 66 -176 160h-2l-32 -148h-21l152 714h21z
" />
    <glyph glyph-name="c" unicode="c" 
d="M463 359h-20c1 96 -65 147 -163 147c-165 0 -248 -165 -248 -315c0 -110 61 -183 177 -183c93 3 165 50 203 157h20c-29 -108 -120 -177 -223 -177c-126 0 -197 80 -197 203c0 168 95 335 268 335c113 0 183 -59 183 -167z" />
    <glyph glyph-name="d" unicode="d" horiz-adv-x="537" 
d="M440 336c0 102 -55 170 -163 170c-164 0 -251 -181 -251 -323c0 -102 55 -175 163 -175c165 0 249 185 251 328zM376 0l16 76l16 63l-2 2c-36 -86 -107 -153 -216 -153c-118 0 -184 77 -184 195c0 150 99 343 271 343c104 0 177 -58 177 -162h2l12 65l62 285h21
l-154 -714h-21z" />
    <glyph glyph-name="e" unicode="e" 
d="M454 253h-427c-2 -15 -3 -32 -3 -55c0 -159 106 -190 170 -190c108 0 182 51 212 161h21c-30 -116 -108 -181 -232 -181c-129 0 -191 93 -191 211c0 160 89 327 268 327c123 0 186 -87 186 -200c0 -25 -2 -45 -4 -73zM31 273h402c4 19 5 33 5 53c0 97 -54 180 -166 180
c-137 0 -216 -106 -241 -233z" />
    <glyph glyph-name="f" unicode="f" horiz-adv-x="204" 
d="M24 514h90l12 45c12 50 21 155 128 155c17 0 33 -1 51 -1l-4 -20c-14 1 -28 1 -47 1c-92 0 -95 -90 -108 -135l-11 -45h110l-5 -20h-110l-109 -494h-21l109 494h-90z" />
    <glyph glyph-name="g" unicode="g" horiz-adv-x="519" 
d="M433 330c-6 108 -51 176 -170 176c-138 0 -228 -138 -228 -273c0 -106 54 -188 170 -188c147 0 228 153 228 285zM479 514h20l-102 -476c-33 -156 -107 -227 -248 -227c-103 0 -174 51 -169 159h20c-7 -97 59 -139 149 -139c189 0 218 144 250 310l-2 2
c-36 -72 -109 -118 -192 -118c-124 0 -190 88 -190 208c0 137 90 293 260 293c94 0 163 -59 172 -165h2l14 75z" />
    <glyph glyph-name="h" unicode="h" 
d="M-19 0l154 714h21l-56 -264l-13 -58l2 -2c46 84 108 136 208 136c88 0 152 -50 151 -140c0 -27 -7 -54 -12 -81l-64 -305h-21l65 310c5 25 12 51 12 76c-1 80 -56 120 -131 120c-153 0 -216 -140 -244 -269l-51 -237h-21z" />
    <glyph glyph-name="i" unicode="i" horiz-adv-x="130" 
d="M111 514l-110 -514h-22l110 514h22zM106 610l23 104h22l-23 -104h-22z" />
    <glyph glyph-name="j" unicode="j" horiz-adv-x="130" 
d="M111 514l-120 -557c-15 -71 -33 -134 -117 -134c-16 0 -28 1 -41 2l3 18c14 -1 27 -1 38 -2c71 1 85 69 97 124l118 549h22zM106 610l23 104h22l-23 -104h-22z" />
    <glyph glyph-name="k" unicode="k" horiz-adv-x="444" 
d="M162 289l-126 -87l-44 -202h-21l155 714h21l-104 -483l408 283h34l-306 -214l214 -300h-27z" />
    <glyph glyph-name="l" unicode="l" horiz-adv-x="130" 
d="M1 0h-22l150 714h22z" />
    <glyph glyph-name="m" unicode="m" horiz-adv-x="778" 
d="M-23 0l111 514h22l-25 -118h2c36 69 96 130 179 130c87 0 134 -60 131 -139l2 -2c28 79 91 141 181 141c82 0 142 -48 142 -136c0 -25 -6 -54 -12 -82l-68 -308h-21l72 327c5 22 9 37 9 63c0 72 -48 116 -122 116c-120 0 -176 -124 -196 -214l-64 -292h-21l73 344
c3 16 5 32 5 49c0 68 -43 113 -111 113c-110 0 -189 -128 -207 -227l-61 -279h-21z" />
    <glyph glyph-name="n" unicode="n" 
d="M-19 0l111 514h21l-13 -64l-13 -58l2 -2c46 84 108 136 208 136c88 0 152 -50 151 -140c0 -27 -7 -54 -12 -81l-64 -305h-21l65 310c5 25 12 51 12 76c-1 80 -56 120 -131 120c-153 0 -216 -140 -244 -269l-51 -237h-21z" />
    <glyph glyph-name="o" unicode="o" horiz-adv-x="519" 
d="M6 191c0 168 95 335 268 335c124 0 198 -86 198 -211c0 -151 -94 -327 -269 -327c-126 0 -197 80 -197 203zM26 191c0 -110 61 -183 177 -183c164 0 249 169 249 307c0 119 -70 191 -178 191c-165 0 -248 -165 -248 -315z" />
    <glyph glyph-name="p" unicode="p" horiz-adv-x="537" 
d="M470 313c0 106 -44 193 -162 193c-163 0 -251 -194 -251 -333c0 -101 57 -165 163 -165c154 0 250 166 250 305zM-45 -177l146 691h21l-29 -136h2c39 80 108 148 213 148c129 0 182 -95 182 -209c0 -151 -102 -329 -270 -329c-105 0 -170 57 -176 147h-2l-66 -312h-21z
" />
    <glyph glyph-name="q" unicode="q" horiz-adv-x="537" 
d="M513 514l-150 -691h-21l44 203l23 98l-2 2c-40 -83 -108 -138 -206 -138c-111 0 -186 79 -186 189c0 150 83 349 263 349c105 0 175 -70 178 -175h2l10 53l24 110h21zM442 327c0 97 -55 179 -164 179c-166 0 -243 -184 -243 -329c0 -99 67 -169 167 -169
c157 0 240 179 240 319z" />
    <glyph glyph-name="r" unicode="r" horiz-adv-x="259" 
d="M-2 0h-21l109 514h22l-14 -66l-15 -63l2 -2c41 81 103 139 187 139c16 0 28 -1 41 -4l-4 -20c-8 2 -21 4 -36 4c-96 0 -159 -97 -181 -141c-13 -28 -25 -59 -35 -103z" />
    <glyph glyph-name="s" unicode="s" horiz-adv-x="463" 
d="M412 360h-20c13 103 -50 146 -150 146c-69 0 -155 -30 -155 -117c0 -70 60 -89 119 -112c70 -26 165 -45 166 -142c0 -108 -93 -147 -189 -147c-102 0 -187 35 -187 148c0 13 2 25 2 38h21c-17 -122 51 -166 164 -166c82 0 169 33 169 127c0 73 -65 91 -124 114
c-70 26 -161 45 -161 140s87 137 175 137c106 0 183 -43 170 -166z" />
    <glyph glyph-name="t" unicode="t" horiz-adv-x="241" 
d="M122 514l34 162h21l-34 -162h112l-4 -20h-112l-80 -375c-4 -18 -9 -39 -10 -59c0 -47 39 -44 69 -44c19 0 34 1 48 4l-4 -20c-18 -3 -37 -4 -55 -4c-39 0 -78 10 -78 58c0 20 5 39 8 59l81 381h-97l4 20h97z" />
    <glyph glyph-name="u" unicode="u" 
d="M479 514l-111 -514h-21l13 64l13 58l-2 2c-46 -84 -108 -136 -208 -136c-88 0 -152 50 -151 140c0 27 7 54 12 81l64 305h21l-65 -310c-5 -25 -12 -51 -12 -76c1 -80 56 -120 131 -120c153 0 217 140 244 269l50 237h22z" />
    <glyph glyph-name="v" unicode="v" horiz-adv-x="407" 
d="M142 0h-27l-94 514h21l88 -494h2l283 494h23z" />
    <glyph glyph-name="w" unicode="w" horiz-adv-x="685" 
d="M721 514l-273 -514h-30l-56 494h-2l-262 -494h-30l-59 514h21l55 -494h2l262 494h30l56 -494h2l261 494h23z" />
    <glyph glyph-name="x" unicode="x" horiz-adv-x="407" 
d="M190 252l-241 -252h-27l256 268l-133 246h23l126 -232l218 232h26l-232 -249l146 -265h-23z" />
    <glyph glyph-name="y" unicode="y" horiz-adv-x="407" 
d="M43 514l95 -488l281 488h25l-337 -583c-39 -66 -61 -103 -140 -107c-11 -1 -23 -1 -34 -1l3 20c78 -3 101 15 141 79l44 77l-100 515h22z" />
    <glyph glyph-name="z" unicode="z" horiz-adv-x="407" 
d="M-36 20h367l-5 -20h-391l6 27l470 467h-355l4 20h384l-6 -23z" />
    <glyph glyph-name="braceleft" unicode="{" horiz-adv-x="333" 
d="M151 -177h-46c-42 0 -59 17 -59 56c0 12 1 32 8 68l35 170c4 17 6 36 7 55c0 40 -11 79 -47 99l4 20c54 4 92 70 109 157l35 171c17 78 41 112 94 112h49l-4 -20h-45c-41 0 -58 -25 -73 -96l-37 -173c-16 -76 -47 -147 -109 -166c26 -18 44 -48 44 -99
c1 -18 -2 -39 -7 -63l-35 -170c-5 -23 -8 -45 -8 -65c0 -30 14 -36 40 -36h49z" />
    <glyph glyph-name="bar" unicode="|" horiz-adv-x="222" 
d="M121 -214h-20v1000h20v-1000z" />
    <glyph glyph-name="braceright" unicode="}" horiz-adv-x="333" 
d="M-70 -177l4 20h48c38 0 59 20 69 72l43 199c17 76 54 145 106 166c-32 13 -44 53 -44 98c0 24 3 49 7 72l36 172c2 9 7 30 7 51c0 26 -13 38 -41 38h-50l4 20h48c37 0 59 -21 59 -58c0 -13 -3 -31 -8 -56l-35 -172c-4 -24 -7 -46 -7 -67c0 -50 17 -83 46 -88l-5 -22
c-46 -13 -88 -87 -103 -157l-43 -198c-9 -54 -35 -90 -91 -90h-50z" />
    <glyph glyph-name="asciitilde" unicode="~" horiz-adv-x="600" 
d="M93 203l-15 13c19 38 52 81 111 81c38 0 78 -14 115 -33c36 -18 73 -35 101 -35c44 0 75 37 101 74l16 -12c-27 -37 -58 -82 -117 -82c-35 0 -68 16 -102 33c-32 16 -69 35 -114 35c-48 0 -73 -33 -96 -74z" />
    <glyph glyph-name="exclamdown" unicode="&#xa1;" horiz-adv-x="185" 
d="M147 542l-22 -98h-21l22 98h21zM108 360l-119 -537h-21l119 537h21z" />
    <glyph glyph-name="cent" unicode="&#xa2;" horiz-adv-x="556" 
d="M204 11l105 495c-160 -3 -248 -159 -248 -304c0 -103 42 -177 143 -191zM327 505l-106 -496c3 -1 6 -1 10 -1c99 3 172 54 210 160h20c-29 -107 -121 -180 -230 -180c-5 0 -10 0 -14 1l-22 -103h-18l23 106c-113 12 -159 98 -159 210c0 156 96 324 272 324l18 82h18
l-18 -83c99 -6 161 -63 161 -164h-20c1 90 -58 140 -145 144z" />
    <glyph glyph-name="sterling" unicode="&#xa3;" horiz-adv-x="556" 
d="M311 345h-154c8 -32 11 -59 11 -86c0 -100 -65 -172 -131 -227l2 -4c22 11 48 20 74 20c40 0 75 -11 107 -22c33 -11 63 -23 94 -23c62 -1 124 37 152 86l14 -12c-31 -63 -104 -94 -166 -94c-32 0 -64 12 -97 23s-67 22 -104 22c-41 0 -89 -18 -114 -42l-12 16
c73 78 161 145 161 257c0 32 -3 57 -12 86h-94l3 20h83c-15 44 -35 90 -35 159c0 141 103 207 233 207c71 0 216 -27 216 -183c0 -14 0 -30 -1 -44h-20c1 14 1 29 1 45c0 118 -96 162 -196 162c-111 0 -213 -54 -213 -186c0 -79 16 -90 36 -160h168z" />
    <glyph glyph-name="fraction" unicode="&#x2044;" horiz-adv-x="167" 
d="M-166 -34l476 748h23l-476 -748h-23z" />
    <glyph glyph-name="yen" unicode="&#xa5;" horiz-adv-x="556" 
d="M236 203h140l-4 -20h-140l-37 -183h-20l37 183h-140l4 20h140l20 102h-140l5 20h132l-6 11l-171 378h20l175 -385l328 385h23l-331 -389h130l-5 -20h-140z" />
    <glyph glyph-name="florin" unicode="&#x192;" horiz-adv-x="556" 
d="M396 411h-123l-92 -360c-32 -127 -53 -228 -168 -228c-14 0 -29 0 -46 2l6 20c15 -2 29 -3 41 -2c102 8 118 102 147 211l91 357h-115l6 20h114l44 174c26 99 60 126 151 126c22 0 35 -1 48 -2l-6 -20c-13 0 -25 2 -42 2c-79 0 -110 -29 -132 -113l-42 -167h124z" />
    <glyph glyph-name="section" unicode="&#xa7;" horiz-adv-x="556" 
d="M21 5h20c-14 -110 49 -174 152 -174c71 0 141 42 142 125c1 60 -45 93 -85 133l-106 107c-43 40 -89 96 -88 157c1 84 62 149 137 158c-16 22 -27 48 -26 81c0 90 76 139 154 139c107 0 180 -72 165 -185h-20c14 104 -51 165 -145 165c-67 0 -134 -42 -134 -119
c-1 -65 48 -98 90 -138l105 -98c51 -46 81 -97 81 -152c-1 -89 -72 -147 -145 -156c21 -20 37 -55 37 -92c-1 -90 -75 -145 -163 -145c-111 0 -186 71 -171 194zM163 207l141 -141c72 7 138 61 139 138c0 64 -51 115 -74 136l-165 153c-40 -1 -127 -43 -128 -140
c-1 -57 51 -111 87 -146z" />
    <glyph glyph-name="currency" unicode="&#xa4;" horiz-adv-x="556" 
d="M503 579l14 -14l-57 -57c44 -47 66 -107 66 -168c0 -60 -22 -120 -66 -168l57 -57l-14 -14l-57 57c-47 -43 -107 -65 -168 -66c-60 0 -120 22 -168 66l-57 -57l-14 14l57 57c-44 48 -66 108 -66 168c1 61 23 121 66 168l-57 57l14 14l57 -57c48 44 108 66 168 66
c61 0 121 -22 168 -66zM506 340c0 126 -102 228 -228 228c-125 0 -228 -103 -228 -228s103 -228 228 -228s228 103 228 228z" />
    <glyph glyph-name="quotesingle" unicode="'" horiz-adv-x="167" 
d="M126 714h20v-225h-20v225z" />
    <glyph glyph-name="quotedblleft" unicode="&#x201c;" horiz-adv-x="278" 
d="M114 489h-21l29 131c10 41 32 78 74 94l-4 -26c-35 -19 -45 -48 -51 -78zM215 489h-21l29 131c10 41 32 78 74 94l-4 -26c-35 -19 -45 -48 -51 -78z" />
    <glyph glyph-name="guillemotleft" unicode="&#xab;" horiz-adv-x="352" 
d="M55 260l3 16l131 139h2l-9 -37l-106 -113l60 -112l-6 -32h-2zM156 260l3 16l131 139h2l-9 -37l-106 -113l60 -112l-6 -32h-2z" />
    <glyph glyph-name="guilsinglleft" unicode="&#x2039;" horiz-adv-x="259" 
d="M55 260l3 16l131 139h2l-9 -37l-106 -113l60 -112l-6 -32h-2z" />
    <glyph glyph-name="guilsinglright" unicode="&#x203a;" horiz-adv-x="259" 
d="M174 276l-3 -16l-131 -139h-2l9 37l106 113l-59 112l5 32h2z" />
    <glyph glyph-name="fi" unicode="&#xfb01;" horiz-adv-x="333" 
d="M24 514h90l12 45c12 50 21 155 128 155c17 0 33 -1 51 -1l-4 -20c-14 1 -28 1 -47 1c-92 0 -95 -90 -108 -135l-11 -45h110l-5 -20h-110l-109 -494h-21l109 494h-90zM314 514l-110 -514h-22l110 514h22zM309 610l23 104h22l-23 -104h-22z" />
    <glyph glyph-name="fl" unicode="&#xfb02;" horiz-adv-x="333" 
d="M24 514h90l12 45c12 50 21 155 128 155c17 0 33 -1 51 -1l-4 -20c-14 1 -28 1 -47 1c-92 0 -95 -90 -108 -135l-11 -45h110l-5 -20h-110l-109 -494h-21l109 494h-90zM204 0h-22l150 714h22z" />
    <glyph glyph-name="endash" unicode="&#x2013;" 
d="M-10 278h500l-4 -20h-500z" />
    <glyph glyph-name="dagger" unicode="&#x2020;" horiz-adv-x="556" 
d="M288 449h-209l3 20h211l52 245h21l-52 -245h209l-4 -20h-210l-126 -590h-21z" />
    <glyph glyph-name="daggerdbl" unicode="&#x2021;" horiz-adv-x="556" 
d="M435 56h-209l-42 -196h-21l42 196h-211l5 20h210l90 421h-211l5 20h211l43 197h21l-43 -197h209l-5 -20h-209l-90 -421h209z" />
    <glyph glyph-name="periodcentered" unicode="&#xb7;" horiz-adv-x="278" 
d="M109 340c0 18 14 32 32 32s32 -14 32 -32s-14 -32 -32 -32s-32 14 -32 32z" />
    <glyph glyph-name="paragraph" unicode="&#xb6;" horiz-adv-x="600" 
d="M184 -140l99 478c-119 0 -205 67 -178 198c28 136 141 178 262 178h188l-177 -854h-21l173 834h-152l-173 -834h-21z" />
    <glyph glyph-name="bullet" unicode="&#x2022;" 
d="M72 357c0 99 79 179 178 179s179 -80 179 -179s-80 -178 -179 -178s-178 79 -178 178z" />
    <glyph glyph-name="quotesinglbase" unicode="&#x201a;" horiz-adv-x="167" 
d="M37 98h21l-29 -131c-10 -41 -32 -78 -74 -94l4 26c35 19 45 48 51 78z" />
    <glyph glyph-name="quotedblbase" unicode="&#x201e;" horiz-adv-x="278" 
d="M40 98h21l-29 -131c-10 -41 -32 -78 -74 -94l4 26c35 19 45 48 51 78zM141 98h21l-29 -131c-10 -41 -32 -78 -74 -94l4 26c35 19 45 48 51 78z" />
    <glyph glyph-name="quotedblright" unicode="&#x201d;" horiz-adv-x="278" 
d="M162 714h21l-29 -131c-10 -41 -32 -78 -74 -94l4 26c35 19 45 48 51 78zM263 714h21l-29 -131c-10 -41 -32 -78 -74 -94l4 26c35 19 45 48 51 78z" />
    <glyph glyph-name="guillemotright" unicode="&#xbb;" horiz-adv-x="352" 
d="M277 276l-3 -16l-131 -139h-2l9 37l106 113l-59 112l5 32h2zM176 276l-3 -16l-131 -139h-2l9 37l106 113l-59 112l5 32h2z" />
    <glyph glyph-name="ellipsis" unicode="&#x2026;" horiz-adv-x="1000" 
d="M167 0h-21l22 98h21zM500 0h-21l22 98h21zM833 0h-21l22 98h21z" />
    <glyph glyph-name="perthousand" unicode="&#x2030;" horiz-adv-x="1037" 
d="M820 -12c-75 0 -133 52 -133 129c0 104 62 208 174 208c81 0 134 -45 134 -134c0 -96 -65 -203 -175 -203zM820 8c93 0 155 91 155 183c0 68 -35 114 -114 114c-103 0 -154 -98 -154 -188c0 -66 50 -109 113 -109zM216 692c81 0 134 -45 134 -134
c0 -96 -65 -203 -175 -203c-75 0 -133 52 -133 129c0 104 62 208 174 208zM216 672c-103 0 -154 -98 -154 -188c0 -66 50 -109 113 -109c93 0 155 91 155 183c0 68 -35 114 -114 114zM456 -12c-75 0 -133 52 -133 129c0 104 62 208 174 208c81 0 134 -45 134 -134
c0 -96 -65 -203 -175 -203zM456 8c93 0 155 91 155 183c0 68 -35 114 -114 114c-103 0 -154 -98 -154 -188c0 -66 50 -109 113 -109zM87 -34l476 748h23l-476 -748h-23z" />
    <glyph glyph-name="questiondown" unicode="&#xbf;" 
d="M369 47h20c-9 -135 -81 -236 -221 -236c-105 0 -186 57 -186 163c0 104 65 151 142 198c66 42 96 59 115 139l12 50h21l-13 -53c-21 -91 -60 -112 -125 -153c-92 -57 -132 -99 -132 -181c0 -100 79 -143 166 -143c132 0 193 98 201 216zM289 542h21l-22 -98h-21z" />
    <glyph glyph-name="grave" unicode="`" horiz-adv-x="130" 
d="M58 731h25l112 -144h-25z" />
    <glyph glyph-name="acute" unicode="&#xb4;" horiz-adv-x="130" 
d="M248 731l-163 -144h-28l163 144h28z" />
    <glyph glyph-name="circumflex" unicode="&#x2c6;" horiz-adv-x="130" 
d="M169 731l91 -144h-24l-82 130l-124 -130h-26l135 144h30z" />
    <glyph glyph-name="tilde" unicode="&#x2dc;" horiz-adv-x="130" 
d="M264 678h19c-9 -36 -33 -77 -75 -77c-49 0 -82 61 -129 61c-31 0 -46 -35 -53 -60h-20c8 41 33 80 79 80c49 0 77 -61 128 -61c28 0 43 35 51 57z" />
    <glyph glyph-name="macron" unicode="&#xaf;" horiz-adv-x="130" 
d="M27 649h233l-5 -20h-232z" />
    <glyph glyph-name="breve" unicode="&#x2d8;" horiz-adv-x="130" 
d="M29 703h20c-2 -52 35 -91 90 -91c57 0 102 38 120 91h20c-16 -64 -73 -111 -139 -111s-111 43 -111 111z" />
    <glyph glyph-name="dotaccent" unicode="&#x2d9;" horiz-adv-x="130" 
d="M97 671h21l-13 -81h-21z" />
    <glyph glyph-name="dieresis" unicode="&#xa8;" horiz-adv-x="130" 
d="M218 671h21l-13 -81h-21zM60 671h21l-13 -81h-21z" />
    <glyph glyph-name="ring" unicode="&#x2da;" horiz-adv-x="130" 
d="M41 664c0 53 43 96 96 96s96 -43 96 -96s-43 -96 -96 -96s-96 43 -96 96zM61 664c0 -42 34 -76 76 -76s76 34 76 76s-34 76 -76 76s-76 -34 -76 -76z" />
    <glyph glyph-name="cedilla" unicode="&#xb8;" horiz-adv-x="130" 
d="M-89 -162l8 19c25 -13 53 -21 80 -21c33 0 73 15 73 53c0 31 -29 42 -53 42c-19 0 -41 -8 -55 -13l-15 9l73 73h26l-40 -42l-13 -9l2 -2c6 2 14 4 22 4c40 0 73 -21 73 -62c0 -52 -50 -73 -94 -73c-31 0 -60 10 -87 22z" />
    <glyph glyph-name="hungarumlaut" unicode="&#x2dd;" horiz-adv-x="130" 
d="M203 731l-163 -144h-28l163 144h28zM363 731l-163 -144h-28l163 144h28z" />
    <glyph glyph-name="ogonek" unicode="&#x2db;" horiz-adv-x="130" 
d="M49 5h32c-87 -58 -123 -91 -123 -136c0 -19 10 -38 37 -38c41 0 63 21 79 38l13 -12c-27 -37 -65 -46 -92 -46c-44 0 -57 36 -57 58c0 61 51 96 111 136z" />
    <glyph glyph-name="caron" unicode="&#x2c7;" horiz-adv-x="130" 
d="M146 587h-30l-91 144h24l82 -130l124 130h26z" />
    <glyph glyph-name="emdash" unicode="&#x2014;" horiz-adv-x="1000" 
d="M856 258h-740l4 20h740z" />
    <glyph glyph-name="AE" unicode="&#xc6;" horiz-adv-x="833" 
d="M386 20h393l-4 -20h-414l59 274h-276l-215 -274h-27l557 714h452l-4 -20h-379l-66 -312h349l-4 -20h-349zM156 294h267l85 400h-41z" />
    <glyph glyph-name="ordfeminine" unicode="&#xaa;" horiz-adv-x="289" 
d="M85 591h-20c15 64 66 101 135 101c50 0 111 -10 111 -72c0 -15 -3 -34 -6 -46l-35 -148c-2 -7 -2 -14 -2 -22c0 -9 3 -15 16 -15c9 0 14 0 19 1l-4 -19c-8 -2 -16 -2 -23 -2c-16 0 -28 14 -28 36c0 12 5 24 9 33h-2c-25 -50 -83 -74 -144 -74c-77 0 -99 46 -99 80
c0 86 83 96 107 98c34 3 70 4 104 6c44 1 68 21 68 67c0 21 0 55 -89 57c-59 1 -97 -25 -117 -81zM264 495l15 54l-2 1c-15 -25 -82 -23 -116 -25c-49 -3 -129 -4 -129 -80c0 -42 35 -61 79 -61c74 0 132 36 153 111z" />
    <glyph glyph-name="Lslash" unicode="&#x141;" horiz-adv-x="481" 
d="M426 0h-433l60 286l-102 -65l7 28l102 64l86 401h21l-82 -385l237 149l-7 -28l-236 -149l-61 -281h413z" />
    <glyph glyph-name="Oslash" unicode="&#xd8;" horiz-adv-x="722" 
d="M56 -33l-14 12l68 83c-51 53 -77 128 -77 218c0 223 134 451 378 451c80 0 146 -23 193 -64l59 71l14 -11l-59 -73c52 -53 79 -128 79 -220c0 -223 -135 -451 -378 -451c-83 0 -149 24 -196 66zM606 639l-469 -573c44 -40 106 -63 182 -63c230 0 358 222 358 431
c0 87 -24 157 -71 205zM124 79l468 573c-45 38 -105 59 -181 59c-232 0 -358 -221 -358 -431c0 -83 24 -152 71 -201z" />
    <glyph glyph-name="OE" unicode="&#x152;" horiz-adv-x="981" 
d="M528 112l101 476c-48 86 -127 123 -222 123c-229 0 -354 -221 -354 -429c0 -161 91 -279 261 -279c109 0 200 87 214 109zM956 362h-354l-73 -342h399l-4 -20h-420l17 77h-2c-49 -58 -126 -94 -205 -94c-183 0 -281 128 -281 299c0 106 32 223 97 308
c67 88 166 141 277 141c94 0 180 -35 227 -116l22 99h403l-4 -20h-383l-67 -312h355z" />
    <glyph glyph-name="ordmasculine" unicode="&#xba;" horiz-adv-x="311" 
d="M339 568c0 -98 -63 -204 -175 -204c-82 0 -127 51 -127 126c0 101 62 202 180 202c83 0 122 -55 122 -124zM319 568c0 66 -30 104 -102 104c-113 0 -160 -92 -160 -182c0 -59 32 -106 107 -106c107 0 155 97 155 184z" />
    <glyph glyph-name="ae" unicode="&#xe6;" horiz-adv-x="833" 
d="M385 273h376c4 19 5 33 5 53c0 97 -54 180 -166 180c-116 0 -197 -118 -215 -233zM782 253h-400c-7 -19 -10 -45 -10 -71c0 -102 64 -174 163 -174c103 0 183 52 209 161h23c-32 -116 -110 -181 -234 -181c-98 0 -175 71 -176 167h-2c-30 -91 -122 -167 -226 -167
c-79 0 -153 36 -153 127c0 139 112 165 224 166c34 2 65 4 89 6c64 5 95 31 96 94c0 90 -54 125 -120 125c-103 1 -168 -52 -190 -141h-20c27 114 103 160 210 161c78 0 144 -48 136 -143l2 -2c31 80 105 145 197 145c123 0 186 -88 186 -200c0 -25 -2 -52 -4 -73zM371 297
l-2 2c-19 -20 -46 -29 -74 -31c-32 -3 -64 -6 -94 -6c-98 -5 -204 -21 -205 -147c0 -74 61 -107 133 -107c80 0 147 45 188 111c27 45 43 131 54 178z" />
    <glyph glyph-name="dotlessi" unicode="&#x131;" horiz-adv-x="130" 
d="M111 514l-110 -514h-22l110 514h22z" />
    <glyph glyph-name="lslash" unicode="&#x142;" horiz-adv-x="130" 
d="M57 371l-78 -54l5 28l79 54l66 315h22l-63 -298l87 59l-6 -28l-87 -59l-81 -388h-22z" />
    <glyph glyph-name="oslash" unicode="&#xf8;" horiz-adv-x="519" 
d="M410 444l-327 -399c27 -27 69 -37 120 -37c164 0 249 169 249 307c0 55 -15 100 -42 129zM69 58l329 401c-31 31 -73 47 -124 47c-165 0 -248 -165 -248 -315c0 -55 14 -101 43 -133zM456 530l15 -12l-47 -57c31 -35 48 -86 48 -146c0 -151 -94 -327 -269 -327
c-55 0 -101 11 -133 41l-47 -58l-15 12l48 59c-32 35 -50 87 -50 149c0 168 95 335 268 335c56 0 103 -18 137 -51z" />
    <glyph glyph-name="oe" unicode="&#x153;" horiz-adv-x="889" 
d="M426 319c0 102 -40 187 -149 187c-170 0 -251 -165 -251 -315c0 -111 59 -183 173 -183c78 0 139 49 175 110c30 53 52 140 52 201zM445 273h381c2 19 4 33 4 50c0 98 -47 183 -159 183c-127 0 -201 -112 -226 -233zM843 253h-402c-5 -21 -8 -48 -8 -75
c0 -90 54 -170 171 -170c106 0 178 51 210 161h20c-29 -115 -109 -181 -230 -181c-167 0 -187 145 -189 168h-2c-36 -87 -100 -168 -214 -168c-124 0 -193 80 -193 203c0 168 93 335 271 335c111 0 168 -88 165 -192l2 -2c29 107 109 194 227 194c119 0 179 -88 179 -203
c0 -21 -3 -50 -7 -70z" />
    <glyph glyph-name="germandbls" unicode="&#xdf;" horiz-adv-x="481" 
d="M202 388l6 20c115 0 221 48 221 174c0 79 -62 124 -143 124c-123 0 -155 -79 -177 -184l-111 -522h-21l112 528c24 112 65 198 197 198c90 0 163 -50 163 -144c0 -105 -69 -170 -162 -183v-2c85 -13 128 -75 128 -159c0 -131 -91 -246 -241 -246c-22 0 -38 3 -54 5l6 20
c15 -3 32 -5 48 -5c129 0 221 97 221 226c0 120 -91 153 -193 150z" />
    <glyph glyph-name="divide" unicode="&#xf7;" horiz-adv-x="600" 
d="M552 243h-504v20h504v-20zM341 465c0 -23 -11 -41 -41 -41c-29 0 -41 18 -41 41c0 24 18 41 41 41s41 -18 41 -41zM341 41c0 -23 -11 -41 -41 -41c-29 0 -41 18 -41 41c0 24 18 41 41 41s41 -18 41 -41z" />
    <glyph glyph-name="threequarters" unicode="&#xbe;" horiz-adv-x="834" 
d="M199 -34l476 748h23l-476 -748h-23zM54 415h21c-3 -12 -4 -24 -4 -36c0 -56 51 -89 118 -89c71 0 143 38 143 109c0 66 -61 84 -118 84h-17l5 20h15c63 0 149 7 149 91c0 53 -55 78 -108 78c-72 0 -117 -37 -131 -104h-20c12 76 65 124 151 124c67 0 128 -30 128 -98
c0 -67 -48 -98 -114 -103v-2c49 -3 79 -39 80 -90c0 -83 -74 -129 -163 -129c-75 0 -138 33 -138 109c0 14 2 25 3 36zM670 119l61 265l-1 -1l-2 2l-265 -266h207zM667 99h-226l6 28l280 281h30l-66 -289h72l-3 -20h-72l-23 -99h-21z" />
    <glyph glyph-name="onequarter" unicode="&#xbc;" horiz-adv-x="834" 
d="M156 -34l476 748h23l-476 -748h-23zM265 685h26l-96 -408h-20l91 385l-2 2c-35 -36 -86 -66 -137 -77l6 19c53 14 95 45 132 79zM633 119l61 265l-1 -1l-2 2l-265 -266h207zM630 99h-226l6 28l280 281h30l-66 -289h72l-3 -20h-72l-23 -99h-21z" />
    <glyph glyph-name="onesuperior" unicode="&#xb9;" horiz-adv-x="333" 
d="M253 685h26l-96 -408h-20l91 385l-2 2c-35 -36 -86 -66 -137 -77l6 19c53 14 95 45 132 79z" />
    <glyph glyph-name="multiply" unicode="&#xd7;" horiz-adv-x="600" 
d="M490 50l-190 190l-190 -190l-14 14l190 190l-190 189l14 14l190 -189l190 189l14 -14l-190 -189l190 -190z" />
    <glyph glyph-name="registered" unicode="&#xae;" horiz-adv-x="800" 
d="M274 135v430h141c97 0 142 -43 142 -116s-52 -107 -112 -112l132 -202h-25l-129 200c-10 -1 -20 -1 -31 -1h-98v-199h-20zM294 354h104c58 0 139 9 139 95c0 79 -60 96 -124 96h-119v-191zM26 357c0 207 167 374 374 374s374 -167 374 -374s-167 -374 -374 -374
s-374 167 -374 374zM46 357c0 -196 158 -354 354 -354s354 158 354 354s-158 354 -354 354s-354 -158 -354 -354z" />
    <glyph glyph-name="Thorn" unicode="&#xde;" horiz-adv-x="574" 
d="M135 570l-75 -349h249c144 0 242 69 242 203c0 123 -94 146 -166 146h-250zM145 714h21l-26 -124h249c125 0 182 -67 182 -166c0 -176 -145 -223 -268 -223h-246l-43 -201h-21z" />
    <glyph glyph-name="brokenbar" unicode="&#xa6;" horiz-adv-x="222" 
d="M121 161v-250h-20v250h20zM121 661v-250h-20v250h20z" />
    <glyph glyph-name="Eth" unicode="&#xd0;" horiz-adv-x="667" 
d="M355 362h-262l-75 -342h196c128 -1 204 13 291 106c59 63 108 183 108 308c0 241 -149 260 -313 260h-134l-69 -312h262zM73 362h-82l4 20h82l73 332h150c136 0 333 -3 333 -280c1 -109 -39 -239 -110 -319c-91 -102 -187 -115 -309 -115h-221z" />
    <glyph glyph-name="onehalf" unicode="&#xbd;" horiz-adv-x="834" 
d="M96 -34l476 748h23l-476 -748h-23zM205 685h26l-96 -408h-20l91 385l-2 2c-35 -36 -86 -66 -137 -77l6 19c53 14 95 45 132 79zM443 20h273l-4 -20h-292c3 88 90 133 162 167c63 31 167 66 167 148c0 60 -44 80 -106 80c-83 0 -129 -43 -131 -116h-20
c4 83 56 136 151 136c43 0 126 -11 126 -100c1 -151 -298 -158 -326 -295z" />
    <glyph glyph-name="minus" unicode="&#x2212;" horiz-adv-x="600" 
d="M48 263h504v-20h-504v20z" />
    <glyph glyph-name="ccedilla" unicode="&#xe7;" 
d="M412 165h20c-28 -103 -112 -171 -209 -176l-30 -31l-13 -9l2 -2c6 2 14 4 22 4c40 0 73 -21 73 -62c0 -52 -50 -73 -94 -73c-31 0 -60 10 -87 22l8 19c25 -13 53 -21 80 -21c33 0 73 15 73 53c0 31 -29 42 -53 42c-19 0 -41 -8 -55 -13l-15 9l62 62
c-118 5 -184 83 -184 202c0 168 95 335 268 335c113 0 183 -59 183 -167h-20c1 96 -65 147 -163 147c-165 0 -248 -165 -248 -315c0 -110 61 -183 177 -183c93 3 165 50 203 157z" />
    <glyph glyph-name="eth" unicode="&#xf0;" horiz-adv-x="519" 
d="M26 191c0 -111 61 -183 177 -183c157 0 251 154 251 312c0 101 -74 174 -171 174c-174 0 -257 -153 -257 -303zM165 587l133 67c-21 19 -47 40 -83 60l19 14c34 -20 64 -44 85 -64l134 68l13 -16l-132 -67c95 -104 140 -211 140 -319c0 -210 -120 -342 -271 -342
c-126 0 -197 80 -197 203c0 168 95 323 278 323c61 0 127 -31 156 -87h2c-25 87 -90 173 -131 213l-133 -68z" />
    <glyph glyph-name="plusminus" unicode="&#xb1;" horiz-adv-x="600" 
d="M290 90v198h-242v20h242v198h20v-198h242v-20h-242v-198h-20zM48 0v20h504v-20h-504z" />
    <glyph glyph-name="Ccedilla" unicode="&#xc7;" horiz-adv-x="685" 
d="M628 252h20c-40 -156 -171 -269 -339 -269l-24 -25l-13 -9l2 -2c6 2 14 4 22 4c40 0 73 -21 73 -62c0 -52 -50 -73 -94 -73c-31 0 -60 10 -87 22l8 19c25 -13 53 -21 80 -21c33 0 73 15 73 53c0 31 -29 42 -53 42c-19 0 -41 -8 -55 -13l-15 9l58 58
c-156 10 -252 122 -251 288c-1 222 135 456 386 458c139 1 266 -87 266 -232h-20c0 134 -122 212 -246 212c-234 0 -366 -218 -366 -438c0 -179 111 -270 255 -270c154 0 276 97 320 249z" />
    <glyph glyph-name="thorn" unicode="&#xfe;" horiz-adv-x="537" 
d="M470 313c0 106 -44 193 -162 193c-163 0 -251 -194 -251 -333c0 -101 57 -165 163 -165c154 0 250 166 250 305zM-45 -177l188 891h21l-71 -336h2c39 80 108 148 213 148c129 0 182 -95 182 -209c0 -151 -102 -329 -270 -329c-105 0 -170 57 -176 147h-2l-66 -312h-21z
" />
    <glyph glyph-name="copyright" unicode="&#xa9;" horiz-adv-x="800" 
d="M593 428h-20c-13 87 -85 131 -165 131c-125 0 -197 -89 -197 -207c0 -117 75 -212 200 -212c73 0 141 49 162 136h20c-21 -92 -91 -156 -182 -156c-134 0 -220 101 -220 231c0 131 81 228 217 228c94 0 172 -54 185 -151zM26 357c0 207 167 374 374 374
s374 -167 374 -374s-167 -374 -374 -374s-374 167 -374 374zM46 357c0 -196 158 -354 354 -354s354 158 354 354s-158 354 -354 354s-354 -158 -354 -354z" />
    <glyph glyph-name="logicalnot" unicode="&#xac;" horiz-adv-x="600" 
d="M532 93v247h-484v20h504v-267h-20z" />
    <glyph glyph-name="twosuperior" unicode="&#xb2;" horiz-adv-x="333" 
d="M38 297h273l-4 -20h-292c3 88 90 133 162 167c63 31 167 66 167 148c0 60 -44 80 -106 80c-83 0 -129 -43 -131 -116h-20c4 83 56 136 151 136c43 0 126 -11 126 -100c1 -151 -298 -158 -326 -295z" />
    <glyph glyph-name="threesuperior" unicode="&#xb3;" horiz-adv-x="333" 
d="M29 415h21c-3 -12 -4 -24 -4 -36c0 -56 51 -89 118 -89c71 0 143 38 143 109c0 66 -61 84 -118 84h-17l5 20h15c63 0 149 7 149 91c0 53 -55 78 -108 78c-72 0 -117 -37 -131 -104h-20c12 76 65 124 151 124c67 0 128 -30 128 -98c0 -67 -48 -98 -114 -103v-2
c49 -3 79 -39 80 -90c0 -83 -74 -129 -163 -129c-75 0 -138 33 -138 109c0 14 2 25 3 36z" />
    <glyph glyph-name="trademark" unicode="&#x2122;" horiz-adv-x="990" 
d="M232 694h-150v20h320v-20h-150v-392h-20v392zM516 302h-20v412h34l162 -384l162 384h34v-412h-20v392h-2l-164 -392h-20l-164 392h-2v-392z" />
    <glyph glyph-name="degree" unicode="&#xb0;" horiz-adv-x="278" 
d="M67 554c0 -65 53 -118 118 -118s118 53 118 118s-53 118 -118 118s-118 -53 -118 -118zM47 554c0 76 62 138 138 138s138 -62 138 -138s-62 -138 -138 -138s-138 62 -138 138z" />
    <glyph glyph-name="mu" unicode="&#xb5;" horiz-adv-x="556" 
d="M509 514l-111 -514h-21l13 64l13 58l-2 2c-46 -84 -108 -136 -208 -136c-68 0 -139 32 -139 141h-2l-12 -76l-50 -230h-21l149 689h21l-59 -273c-14 -66 -32 -231 113 -231c153 0 217 140 244 269l50 237h22z" />
    <glyph glyph-name="Aacute" unicode="&#xc1;" horiz-adv-x="574" 
d="M105 255h350l-79 431h-2zM502 0l-44 235h-366l-147 -235h-22l447 714h20l132 -714h-20zM488 895l-163 -144h-28l163 144h28z" />
    <glyph glyph-name="Acircumflex" unicode="&#xc2;" horiz-adv-x="574" 
d="M105 255h350l-79 431h-2zM502 0l-44 235h-366l-147 -235h-22l447 714h20l132 -714h-20zM409 895l91 -144h-24l-82 130l-124 -130h-26l135 144h30z" />
    <glyph glyph-name="Adieresis" unicode="&#xc4;" horiz-adv-x="574" 
d="M105 255h350l-79 431h-2zM502 0l-44 235h-366l-147 -235h-22l447 714h20l132 -714h-20zM458 835h21l-13 -81h-21zM300 835h21l-13 -81h-21z" />
    <glyph glyph-name="Agrave" unicode="&#xc0;" horiz-adv-x="574" 
d="M105 255h350l-79 431h-2zM502 0l-44 235h-366l-147 -235h-22l447 714h20l132 -714h-20zM298 895h25l112 -144h-25z" />
    <glyph glyph-name="Aring" unicode="&#xc5;" horiz-adv-x="574" 
d="M105 255h350l-79 431h-2zM502 0l-44 235h-366l-147 -235h-22l447 714h20l132 -714h-20zM283 828c0 53 43 96 96 96s96 -43 96 -96s-43 -96 -96 -96s-96 43 -96 96zM303 828c0 -42 34 -76 76 -76s76 34 76 76s-34 76 -76 76s-76 -34 -76 -76z" />
    <glyph glyph-name="Atilde" unicode="&#xc3;" horiz-adv-x="574" 
d="M105 255h350l-79 431h-2zM502 0l-44 235h-366l-147 -235h-22l447 714h20l132 -714h-20zM504 842h19c-9 -36 -33 -77 -75 -77c-49 0 -82 61 -129 61c-31 0 -46 -35 -53 -60h-20c8 41 33 80 79 80c49 0 77 -61 128 -61c28 0 43 35 51 57z" />
    <glyph glyph-name="Eacute" unicode="&#xc9;" horiz-adv-x="519" 
d="M14 20h451l-5 -20h-470l153 714h453l-4 -20h-433l-67 -312h404l-4 -20h-405zM461 895l-163 -144h-28l163 144h28z" />
    <glyph glyph-name="Ecircumflex" unicode="&#xca;" horiz-adv-x="519" 
d="M14 20h451l-5 -20h-470l153 714h453l-4 -20h-433l-67 -312h404l-4 -20h-405zM382 895l91 -144h-24l-82 130l-124 -130h-26l135 144h30z" />
    <glyph glyph-name="Edieresis" unicode="&#xcb;" horiz-adv-x="519" 
d="M14 20h451l-5 -20h-470l153 714h453l-4 -20h-433l-67 -312h404l-4 -20h-405zM431 835h21l-13 -81h-21zM273 835h21l-13 -81h-21z" />
    <glyph glyph-name="Egrave" unicode="&#xc8;" horiz-adv-x="519" 
d="M14 20h451l-5 -20h-470l153 714h453l-4 -20h-433l-67 -312h404l-4 -20h-405zM271 895h25l112 -144h-25z" />
    <glyph glyph-name="Iacute" unicode="&#xcd;" horiz-adv-x="148" 
d="M13 0h-20l153 714h20zM275 895l-163 -144h-28l163 144h28z" />
    <glyph glyph-name="Icircumflex" unicode="&#xce;" horiz-adv-x="148" 
d="M13 0h-20l153 714h20zM196 895l91 -144h-24l-82 130l-124 -130h-26l135 144h30z" />
    <glyph glyph-name="Idieresis" unicode="&#xcf;" horiz-adv-x="148" 
d="M13 0h-20l153 714h20zM245 835h21l-13 -81h-21zM87 835h21l-13 -81h-21z" />
    <glyph glyph-name="Igrave" unicode="&#xcc;" horiz-adv-x="148" 
d="M13 0h-20l153 714h20zM85 895h25l112 -144h-25z" />
    <glyph glyph-name="Ntilde" unicode="&#xd1;" horiz-adv-x="667" 
d="M532 0h-27l-344 691h-2l-145 -691h-21l152 714h27l344 -691h2l146 691h21zM533 842h19c-9 -36 -33 -77 -75 -77c-49 0 -82 61 -129 61c-31 0 -46 -35 -53 -60h-20c8 41 33 80 79 80c49 0 77 -61 128 -61c28 0 43 35 51 57z" />
    <glyph glyph-name="Oacute" unicode="&#xd3;" horiz-adv-x="722" 
d="M697 434c0 -223 -135 -451 -378 -451c-184 0 -286 118 -286 297c0 223 134 451 378 451c181 0 286 -116 286 -297zM677 434c0 168 -93 277 -266 277c-232 0 -358 -221 -358 -431c0 -165 97 -277 266 -277c230 0 358 222 358 431zM544 895l-163 -144h-28l163 144h28z" />
    <glyph glyph-name="Ocircumflex" unicode="&#xd4;" horiz-adv-x="722" 
d="M697 434c0 -223 -135 -451 -378 -451c-184 0 -286 118 -286 297c0 223 134 451 378 451c181 0 286 -116 286 -297zM677 434c0 168 -93 277 -266 277c-232 0 -358 -221 -358 -431c0 -165 97 -277 266 -277c230 0 358 222 358 431zM465 895l91 -144h-24l-82 130l-124 -130
h-26l135 144h30z" />
    <glyph glyph-name="Odieresis" unicode="&#xd6;" horiz-adv-x="722" 
d="M697 434c0 -223 -135 -451 -378 -451c-184 0 -286 118 -286 297c0 223 134 451 378 451c181 0 286 -116 286 -297zM677 434c0 168 -93 277 -266 277c-232 0 -358 -221 -358 -431c0 -165 97 -277 266 -277c230 0 358 222 358 431zM514 835h21l-13 -81h-21zM356 835h21
l-13 -81h-21z" />
    <glyph glyph-name="Ograve" unicode="&#xd2;" horiz-adv-x="722" 
d="M697 434c0 -223 -135 -451 -378 -451c-184 0 -286 118 -286 297c0 223 134 451 378 451c181 0 286 -116 286 -297zM677 434c0 168 -93 277 -266 277c-232 0 -358 -221 -358 -431c0 -165 97 -277 266 -277c230 0 358 222 358 431zM354 895h25l112 -144h-25z" />
    <glyph glyph-name="Otilde" unicode="&#xd5;" horiz-adv-x="722" 
d="M697 434c0 -223 -135 -451 -378 -451c-184 0 -286 118 -286 297c0 223 134 451 378 451c181 0 286 -116 286 -297zM677 434c0 168 -93 277 -266 277c-232 0 -358 -221 -358 -431c0 -165 97 -277 266 -277c230 0 358 222 358 431zM560 842h19c-9 -36 -33 -77 -75 -77
c-49 0 -82 61 -129 61c-31 0 -46 -35 -53 -60h-20c8 41 33 80 79 80c49 0 77 -61 128 -61c28 0 43 35 51 57z" />
    <glyph glyph-name="Scaron" unicode="&#x160;" horiz-adv-x="611" 
d="M7 237h20c-16 -148 94 -234 248 -234c81 0 233 32 233 189c0 106 -100 133 -201 162c-100 30 -201 62 -201 177c2 142 122 200 245 200c149 1 252 -61 242 -221h-20c11 147 -89 201 -222 201c-110 0 -223 -52 -225 -180c-2 -104 99 -131 200 -161s202 -63 202 -178
c0 -166 -154 -209 -253 -209c-161 0 -283 82 -268 254zM387 751h-30l-91 144h24l82 -130l124 130h26z" />
    <glyph glyph-name="Uacute" unicode="&#xda;" horiz-adv-x="648" 
d="M140 714h21l-99 -456c-4 -29 -7 -49 -7 -73c0 -120 93 -184 215 -182c83 1 231 16 278 244l102 467h21l-100 -461c-22 -102 -73 -270 -301 -270c-127 0 -235 63 -235 202c0 39 4 62 11 99zM525 895l-163 -144h-28l163 144h28z" />
    <glyph glyph-name="Ucircumflex" unicode="&#xdb;" horiz-adv-x="648" 
d="M140 714h21l-99 -456c-4 -29 -7 -49 -7 -73c0 -120 93 -184 215 -182c83 1 231 16 278 244l102 467h21l-100 -461c-22 -102 -73 -270 -301 -270c-127 0 -235 63 -235 202c0 39 4 62 11 99zM436 895l91 -144h-24l-82 130l-124 -130h-26l135 144h30z" />
    <glyph glyph-name="Udieresis" unicode="&#xdc;" horiz-adv-x="648" 
d="M140 714h21l-99 -456c-4 -29 -7 -49 -7 -73c0 -120 93 -184 215 -182c83 1 231 16 278 244l102 467h21l-100 -461c-22 -102 -73 -270 -301 -270c-127 0 -235 63 -235 202c0 39 4 62 11 99zM490 835h21l-13 -81h-21zM332 835h21l-13 -81h-21z" />
    <glyph glyph-name="Ugrave" unicode="&#xd9;" horiz-adv-x="648" 
d="M140 714h21l-99 -456c-4 -29 -7 -49 -7 -73c0 -120 93 -184 215 -182c83 1 231 16 278 244l102 467h21l-100 -461c-22 -102 -73 -270 -301 -270c-127 0 -235 63 -235 202c0 39 4 62 11 99zM325 895h25l112 -144h-25z" />
    <glyph glyph-name="Yacute" unicode="&#xdd;" horiz-adv-x="519" 
d="M69 714l184 -392l349 392h25l-366 -411l-65 -303h-21l65 303l-194 411h23zM461 895l-163 -144h-28l163 144h28z" />
    <glyph glyph-name="Ydieresis" unicode="&#x178;" horiz-adv-x="519" 
d="M69 714l184 -392l349 392h25l-366 -411l-65 -303h-21l65 303l-194 411h23zM431 835h21l-13 -81h-21zM273 835h21l-13 -81h-21z" />
    <glyph glyph-name="Zcaron" unicode="&#x17d;" 
d="M-52 20h509l-3 -20h-533l4 24l627 670h-475l5 20h497l-4 -24zM349 751h-30l-91 144h24l82 -130l124 130h26z" />
    <glyph glyph-name="aacute" unicode="&#xe1;" horiz-adv-x="481" 
d="M365 201l21 89l-2 2c-27 -29 -121 -29 -179 -30c-98 -5 -204 -21 -205 -147c0 -74 61 -107 133 -107c127 0 203 81 232 193zM79 365h-20c27 114 103 160 210 161c94 0 157 -39 157 -128c0 -24 -4 -43 -8 -63l-59 -251c-2 -12 -4 -20 -4 -35c0 -28 15 -33 31 -33
c12 0 24 1 35 4v-20c-13 -3 -24 -4 -34 -4c-33 0 -52 16 -52 53c0 27 6 39 10 56h-2c-48 -78 -111 -117 -210 -117c-79 0 -153 36 -153 127c0 139 112 165 224 166c105 5 202 -13 202 117c-1 83 -58 108 -137 108c-103 1 -168 -52 -190 -141zM388 731l-163 -144h-28l163 144
h28z" />
    <glyph glyph-name="acircumflex" unicode="&#xe2;" horiz-adv-x="481" 
d="M365 201l21 89l-2 2c-27 -29 -121 -29 -179 -30c-98 -5 -204 -21 -205 -147c0 -74 61 -107 133 -107c127 0 203 81 232 193zM79 365h-20c27 114 103 160 210 161c94 0 157 -39 157 -128c0 -24 -4 -43 -8 -63l-59 -251c-2 -12 -4 -20 -4 -35c0 -28 15 -33 31 -33
c12 0 24 1 35 4v-20c-13 -3 -24 -4 -34 -4c-33 0 -52 16 -52 53c0 27 6 39 10 56h-2c-48 -78 -111 -117 -210 -117c-79 0 -153 36 -153 127c0 139 112 165 224 166c105 5 202 -13 202 117c-1 83 -58 108 -137 108c-103 1 -168 -52 -190 -141zM309 731l91 -144h-24l-82 130
l-124 -130h-26l135 144h30z" />
    <glyph glyph-name="adieresis" unicode="&#xe4;" horiz-adv-x="481" 
d="M365 201l21 89l-2 2c-27 -29 -121 -29 -179 -30c-98 -5 -204 -21 -205 -147c0 -74 61 -107 133 -107c127 0 203 81 232 193zM79 365h-20c27 114 103 160 210 161c94 0 157 -39 157 -128c0 -24 -4 -43 -8 -63l-59 -251c-2 -12 -4 -20 -4 -35c0 -28 15 -33 31 -33
c12 0 24 1 35 4v-20c-13 -3 -24 -4 -34 -4c-33 0 -52 16 -52 53c0 27 6 39 10 56h-2c-48 -78 -111 -117 -210 -117c-79 0 -153 36 -153 127c0 139 112 165 224 166c105 5 202 -13 202 117c-1 83 -58 108 -137 108c-103 1 -168 -52 -190 -141zM358 671h21l-13 -81h-21z
M200 671h21l-13 -81h-21z" />
    <glyph glyph-name="agrave" unicode="&#xe0;" horiz-adv-x="481" 
d="M365 201l21 89l-2 2c-27 -29 -121 -29 -179 -30c-98 -5 -204 -21 -205 -147c0 -74 61 -107 133 -107c127 0 203 81 232 193zM79 365h-20c27 114 103 160 210 161c94 0 157 -39 157 -128c0 -24 -4 -43 -8 -63l-59 -251c-2 -12 -4 -20 -4 -35c0 -28 15 -33 31 -33
c12 0 24 1 35 4v-20c-13 -3 -24 -4 -34 -4c-33 0 -52 16 -52 53c0 27 6 39 10 56h-2c-48 -78 -111 -117 -210 -117c-79 0 -153 36 -153 127c0 139 112 165 224 166c105 5 202 -13 202 117c-1 83 -58 108 -137 108c-103 1 -168 -52 -190 -141zM198 731h25l112 -144h-25z" />
    <glyph glyph-name="aring" unicode="&#xe5;" horiz-adv-x="481" 
d="M365 201l21 89l-2 2c-27 -29 -121 -29 -179 -30c-98 -5 -204 -21 -205 -147c0 -74 61 -107 133 -107c127 0 203 81 232 193zM79 365h-20c27 114 103 160 210 161c94 0 157 -39 157 -128c0 -24 -4 -43 -8 -63l-59 -251c-2 -12 -4 -20 -4 -35c0 -28 15 -33 31 -33
c12 0 24 1 35 4v-20c-13 -3 -24 -4 -34 -4c-33 0 -52 16 -52 53c0 27 6 39 10 56h-2c-48 -78 -111 -117 -210 -117c-79 0 -153 36 -153 127c0 139 112 165 224 166c105 5 202 -13 202 117c-1 83 -58 108 -137 108c-103 1 -168 -52 -190 -141zM217 664c0 53 43 96 96 96
s96 -43 96 -96s-43 -96 -96 -96s-96 43 -96 96zM237 664c0 -42 34 -76 76 -76s76 34 76 76s-34 76 -76 76s-76 -34 -76 -76z" />
    <glyph glyph-name="atilde" unicode="&#xe3;" horiz-adv-x="481" 
d="M365 201l21 89l-2 2c-27 -29 -121 -29 -179 -30c-98 -5 -204 -21 -205 -147c0 -74 61 -107 133 -107c127 0 203 81 232 193zM79 365h-20c27 114 103 160 210 161c94 0 157 -39 157 -128c0 -24 -4 -43 -8 -63l-59 -251c-2 -12 -4 -20 -4 -35c0 -28 15 -33 31 -33
c12 0 24 1 35 4v-20c-13 -3 -24 -4 -34 -4c-33 0 -52 16 -52 53c0 27 6 39 10 56h-2c-48 -78 -111 -117 -210 -117c-79 0 -153 36 -153 127c0 139 112 165 224 166c105 5 202 -13 202 117c-1 83 -58 108 -137 108c-103 1 -168 -52 -190 -141zM404 678h19
c-9 -36 -33 -77 -75 -77c-49 0 -82 61 -129 61c-31 0 -46 -35 -53 -60h-20c8 41 33 80 79 80c49 0 77 -61 128 -61c28 0 43 35 51 57z" />
    <glyph glyph-name="eacute" unicode="&#xe9;" 
d="M454 253h-427c-2 -15 -3 -32 -3 -55c0 -159 106 -190 170 -190c108 0 182 51 212 161h21c-30 -116 -108 -181 -232 -181c-129 0 -191 93 -191 211c0 160 89 327 268 327c123 0 186 -87 186 -200c0 -25 -2 -45 -4 -73zM31 273h402c4 19 5 33 5 53c0 97 -54 180 -166 180
c-137 0 -216 -106 -241 -233zM397 731l-163 -144h-28l163 144h28z" />
    <glyph glyph-name="ecircumflex" unicode="&#xea;" 
d="M454 253h-427c-2 -15 -3 -32 -3 -55c0 -159 106 -190 170 -190c108 0 182 51 212 161h21c-30 -116 -108 -181 -232 -181c-129 0 -191 93 -191 211c0 160 89 327 268 327c123 0 186 -87 186 -200c0 -25 -2 -45 -4 -73zM31 273h402c4 19 5 33 5 53c0 97 -54 180 -166 180
c-137 0 -216 -106 -241 -233zM318 731l91 -144h-24l-82 130l-124 -130h-26l135 144h30z" />
    <glyph glyph-name="edieresis" unicode="&#xeb;" 
d="M454 253h-427c-2 -15 -3 -32 -3 -55c0 -159 106 -190 170 -190c108 0 182 51 212 161h21c-30 -116 -108 -181 -232 -181c-129 0 -191 93 -191 211c0 160 89 327 268 327c123 0 186 -87 186 -200c0 -25 -2 -45 -4 -73zM31 273h402c4 19 5 33 5 53c0 97 -54 180 -166 180
c-137 0 -216 -106 -241 -233zM367 671h21l-13 -81h-21zM209 671h21l-13 -81h-21z" />
    <glyph glyph-name="egrave" unicode="&#xe8;" 
d="M454 253h-427c-2 -15 -3 -32 -3 -55c0 -159 106 -190 170 -190c108 0 182 51 212 161h21c-30 -116 -108 -181 -232 -181c-129 0 -191 93 -191 211c0 160 89 327 268 327c123 0 186 -87 186 -200c0 -25 -2 -45 -4 -73zM31 273h402c4 19 5 33 5 53c0 97 -54 180 -166 180
c-137 0 -216 -106 -241 -233zM207 731h25l112 -144h-25z" />
    <glyph glyph-name="iacute" unicode="&#xed;" horiz-adv-x="130" 
d="M111 514l-110 -514h-22l110 514h22zM248 731l-163 -144h-28l163 144h28z" />
    <glyph glyph-name="icircumflex" unicode="&#xee;" horiz-adv-x="130" 
d="M111 514l-110 -514h-22l110 514h22zM149 731l91 -144h-24l-82 130l-124 -130h-26l135 144h30z" />
    <glyph glyph-name="idieresis" unicode="&#xef;" horiz-adv-x="130" 
d="M111 514l-110 -514h-22l110 514h22zM198 671h21l-13 -81h-21zM40 671h21l-13 -81h-21z" />
    <glyph glyph-name="igrave" unicode="&#xec;" horiz-adv-x="130" 
d="M111 514l-110 -514h-22l110 514h22zM58 731h25l112 -144h-25z" />
    <glyph glyph-name="ntilde" unicode="&#xf1;" 
d="M-19 0l111 514h21l-13 -64l-13 -58l2 -2c46 84 108 136 208 136c88 0 152 -50 151 -140c0 -27 -7 -54 -12 -81l-64 -305h-21l65 310c5 25 12 51 12 76c-1 80 -56 120 -131 120c-153 0 -216 -140 -244 -269l-51 -237h-21zM422 678h19c-9 -36 -33 -77 -75 -77
c-49 0 -82 61 -129 61c-31 0 -46 -35 -53 -60h-20c8 41 33 80 79 80c49 0 77 -61 128 -61c28 0 43 35 51 57z" />
    <glyph glyph-name="oacute" unicode="&#xf3;" horiz-adv-x="519" 
d="M6 191c0 168 95 335 268 335c124 0 198 -86 198 -211c0 -151 -94 -327 -269 -327c-126 0 -197 80 -197 203zM26 191c0 -110 61 -183 177 -183c164 0 249 169 249 307c0 119 -70 191 -178 191c-165 0 -248 -165 -248 -315zM407 731l-163 -144h-28l163 144h28z" />
    <glyph glyph-name="ocircumflex" unicode="&#xf4;" horiz-adv-x="519" 
d="M6 191c0 168 95 335 268 335c124 0 198 -86 198 -211c0 -151 -94 -327 -269 -327c-126 0 -197 80 -197 203zM26 191c0 -110 61 -183 177 -183c164 0 249 169 249 307c0 119 -70 191 -178 191c-165 0 -248 -165 -248 -315zM328 731l91 -144h-24l-82 130l-124 -130h-26
l135 144h30z" />
    <glyph glyph-name="odieresis" unicode="&#xf6;" horiz-adv-x="519" 
d="M6 191c0 168 95 335 268 335c124 0 198 -86 198 -211c0 -151 -94 -327 -269 -327c-126 0 -197 80 -197 203zM26 191c0 -110 61 -183 177 -183c164 0 249 169 249 307c0 119 -70 191 -178 191c-165 0 -248 -165 -248 -315zM377 671h21l-13 -81h-21zM219 671h21l-13 -81
h-21z" />
    <glyph glyph-name="ograve" unicode="&#xf2;" horiz-adv-x="519" 
d="M6 191c0 168 95 335 268 335c124 0 198 -86 198 -211c0 -151 -94 -327 -269 -327c-126 0 -197 80 -197 203zM26 191c0 -110 61 -183 177 -183c164 0 249 169 249 307c0 119 -70 191 -178 191c-165 0 -248 -165 -248 -315zM217 731h25l112 -144h-25z" />
    <glyph glyph-name="otilde" unicode="&#xf5;" horiz-adv-x="519" 
d="M6 191c0 168 95 335 268 335c124 0 198 -86 198 -211c0 -151 -94 -327 -269 -327c-126 0 -197 80 -197 203zM26 191c0 -110 61 -183 177 -183c164 0 249 169 249 307c0 119 -70 191 -178 191c-165 0 -248 -165 -248 -315zM423 678h19c-9 -36 -33 -77 -75 -77
c-49 0 -82 61 -129 61c-31 0 -46 -35 -53 -60h-20c8 41 33 80 79 80c49 0 77 -61 128 -61c28 0 43 35 51 57z" />
    <glyph glyph-name="scaron" unicode="&#x161;" horiz-adv-x="463" 
d="M412 360h-20c13 103 -50 146 -150 146c-69 0 -155 -30 -155 -117c0 -70 60 -89 119 -112c70 -26 165 -45 166 -142c0 -108 -93 -147 -189 -147c-102 0 -187 35 -187 148c0 13 2 25 2 38h21c-17 -122 51 -166 164 -166c82 0 169 33 169 127c0 73 -65 91 -124 114
c-70 26 -161 45 -161 140s87 137 175 137c106 0 183 -43 170 -166zM313 587h-30l-91 144h24l82 -130l124 130h26z" />
    <glyph glyph-name="uacute" unicode="&#xfa;" 
d="M479 514l-111 -514h-21l13 64l13 58l-2 2c-46 -84 -108 -136 -208 -136c-88 0 -152 50 -151 140c0 27 7 54 12 81l64 305h21l-65 -310c-5 -25 -12 -51 -12 -76c1 -80 56 -120 131 -120c153 0 217 140 244 269l50 237h22zM406 731l-163 -144h-28l163 144h28z" />
    <glyph glyph-name="ucircumflex" unicode="&#xfb;" 
d="M479 514l-111 -514h-21l13 64l13 58l-2 2c-46 -84 -108 -136 -208 -136c-88 0 -152 50 -151 140c0 27 7 54 12 81l64 305h21l-65 -310c-5 -25 -12 -51 -12 -76c1 -80 56 -120 131 -120c153 0 217 140 244 269l50 237h22zM327 731l91 -144h-24l-82 130l-124 -130h-26
l135 144h30z" />
    <glyph glyph-name="udieresis" unicode="&#xfc;" 
d="M479 514l-111 -514h-21l13 64l13 58l-2 2c-46 -84 -108 -136 -208 -136c-88 0 -152 50 -151 140c0 27 7 54 12 81l64 305h21l-65 -310c-5 -25 -12 -51 -12 -76c1 -80 56 -120 131 -120c153 0 217 140 244 269l50 237h22zM376 671h21l-13 -81h-21zM218 671h21l-13 -81h-21
z" />
    <glyph glyph-name="ugrave" unicode="&#xf9;" 
d="M479 514l-111 -514h-21l13 64l13 58l-2 2c-46 -84 -108 -136 -208 -136c-88 0 -152 50 -151 140c0 27 7 54 12 81l64 305h21l-65 -310c-5 -25 -12 -51 -12 -76c1 -80 56 -120 131 -120c153 0 217 140 244 269l50 237h22zM216 731h25l112 -144h-25z" />
    <glyph glyph-name="yacute" unicode="&#xfd;" horiz-adv-x="407" 
d="M43 514l95 -488l281 488h25l-337 -583c-39 -66 -61 -103 -140 -107c-11 -1 -23 -1 -34 -1l3 20c78 -3 101 15 141 79l44 77l-100 515h22zM387 731l-163 -144h-28l163 144h28z" />
    <glyph glyph-name="ydieresis" unicode="&#xff;" horiz-adv-x="407" 
d="M43 514l95 -488l281 488h25l-337 -583c-39 -66 -61 -103 -140 -107c-11 -1 -23 -1 -34 -1l3 20c78 -3 101 15 141 79l44 77l-100 515h22zM347 671h21l-13 -81h-21zM189 671h21l-13 -81h-21z" />
    <glyph glyph-name="zcaron" unicode="&#x17e;" horiz-adv-x="407" 
d="M-36 20h367l-5 -20h-391l6 27l470 467h-355l4 20h384l-6 -23zM285 587h-30l-91 144h24l82 -130l124 130h26z" />
    </font>
</defs>
</svg>
