<?xml version="1.0" standalone="no"?>
<!DOCTYPE svg PUBLIC "-//W3C//DTD SVG 1.1//EN" "http://www.w3.org/Graphics/SVG/1.1/DTD/svg11.dtd" >
<svg width="100%" height="100%" 
xmlns="http://www.w3.org/2000/svg" 
xmlns:xlink="http://www.w3.org/1999/xlink">
<defs>
<font id="TimesNormal" horiz-adv-x="980" >
  <font-face 
    font-family="TimesNormalFont"
    font-weight="5"
    font-stretch="normal"
    units-per-em="2048"
    panose-1="2 2 6 3 5 3 5 2 3 4"
    ascent="1638"
    descent="-410"
    x-height="885"
    cap-height="1341"
    bbox="-144 -458 2044 1817"
    underline-thickness="100"
    underline-position="-173"
    unicode-range="U+0021-U+2122"
  />
<missing-glyph horiz-adv-x="1593" 
d="M304 1257v-1236h984v1236h-984zM1296 1269v-1260h-1000v1260h1000z" />
    <glyph glyph-name=".notdef" horiz-adv-x="1593" 
d="M304 1257v-1236h984v1236h-984zM1296 1269v-1260h-1000v1260h1000z" />
    <glyph glyph-name=".notdef" horiz-adv-x="1593" 
d="M304 1257v-1236h984v1236h-984zM1296 1269v-1260h-1000v1260h1000z" />
    <glyph glyph-name=".notdef" horiz-adv-x="1593" 
d="M304 1257v-1236h984v1236h-984zM1296 1269v-1260h-1000v1260h1000z" />
    <glyph glyph-name=".notdef" horiz-adv-x="1593" 
d="M304 1257v-1236h984v1236h-984zM1296 1269v-1260h-1000v1260h1000z" />
    <glyph glyph-name="exclam" unicode="!" horiz-adv-x="682" 
d="M342 381h-2l-86 792q-4 51 -4 75q0 56 27 89q27 30 65 30q39 0 64 -30q26 -33 26 -101q0 -23 -2 -63zM340 173q37 0 63.5 -26.5t26.5 -63.5q0 -38 -26.5 -65t-63.5 -27t-63.5 26.5t-26.5 65.5q0 37 26.5 63.5t63.5 26.5z" />
    <glyph glyph-name="quotedbl" unicode="&#x22;" horiz-adv-x="836" 
d="M592 822l-72 397v47q0 55 21.5 78t58.5 23q34 0 56 -23t22 -64q0 -84 -19 -181l-53 -277h-14zM228 822l-51 280q-23 121 -23 163q0 55 21 79q21 23 56 23t58 -23.5t23 -64.5q0 -38 -26 -178l-50 -279h-8z" />
    <glyph glyph-name="numbersign" unicode="#" horiz-adv-x="1028" 
d="M143 -9l92 455h-175v43h184l77 382h-263v41h271l92 455h39l-92 -455h393l95 455h37l-95 -455h173v-41h-181l-80 -382h260v-43h-269l-95 -455h-37l95 455h-390l-92 -455h-39zM673 489l80 382h-393l-77 -382h390z" />
    <glyph glyph-name="dollar" unicode="$" horiz-adv-x="990" 
d="M520 594l-9 7l-11 8l-9 7l-3 2v-607l2 1l8 1.5q8 1.5 13 3.5q77 15 117 39q58 36 94 98.5t36 131.5q0 72 -43 136q-41 62 -195 172zM236 1116q0 -79 47 -147q46 -66 154 -142l9 -7l10 -8l9 -6l3 -2v528l-2 -1l-20 -2q-102 -13 -156 -69q-54 -57 -54 -144zM120 65v249h4
q15 -131 93 -207t229 -90l6 -1l8 -1h6l2 -1v618h-1l-8 6q-217 137 -289 240q-48 70 -48 173q0 114 85.5 200t242.5 105h5l6 1h5h2v92h20v-91l2 1l7 -0.5q7 -0.5 10 -1.5q74 -5 126 -19q27 -8 177 -64v-255q-17 146 -87 220q-73 77 -213 92l-20 2h-2v-541l7 -6
q242 -175 311 -255q68 -80 68 -197q0 -129 -98 -229q-99 -100 -269 -115h-5.5h-6l-5.5 -1h-2v-127h-20v127h-2l-17 2q-87 4 -164 21.5t-165 52.5zM810 1018v-8h2z" />
    <glyph glyph-name="percent" unicode="%" horiz-adv-x="1496" 
d="M1115 1368l36 -1l-769 -1405l-36 1zM355 1367q122 0 191 -105q68 -105 68 -245q0 -167 -77.5 -255.5t-183.5 -88.5q-72 0 -133 40.5t-98.5 121.5t-37.5 182.5t38 185t102 124t131 40.5zM447 746q53 82 53 267q0 195 -52 276q-38 61 -96 61q-62 0 -106 -68
q-44 -67 -44 -264q0 -143 23 -216q18 -60 58 -95q27 -23 66 -23q59 0 98 62zM1145 653q64 0 129.5 -42t102.5 -123t37 -181q0 -170 -80 -257t-186 -87q-66 0 -128 42t-99 120.5t-37 181.5q0 101 37 183.5t99 122.5t125 40zM1245 45q51 78 51 261q0 193 -51 272
q-39 61 -99 61q-59 0 -99 -64q-47 -75 -47 -274q0 -186 48 -260q39 -61 98 -61q57 0 99 65z" />
    <glyph glyph-name="ampersand" unicode="&#x26;" horiz-adv-x="1459" 
d="M933 853h378q-79 -9 -120 -40q-47 -36 -136 -197q-90 -162 -196 -293l-11 -14l11 -13q93 -107 164 -150q73 -44 152 -44q78 0 131 41q42 33 67 93l1 -1q-36 -124 -108 -184q-77 -63 -179 -63q-76 0 -156 43q-83 44 -180 147l-14 16l-13 -15q-101 -109 -179.5 -150
t-169.5 -41q-130 0 -205 82q-74 82 -74 194q0 114 56 230q58 117 218 243q2 1 3.5 2.5t4 3t3.5 2.5l1 1l-1 1l-3 6.5l-5 10.5q-48 108 -63 168q-14 60 -14 123q0 161 116 245q93 67 211 67q110 0 178.5 -65t68.5 -159q0 -99 -66 -174q-69 -78 -251 -172l-18 -9l1 -2l9 -18
q125 -222 266 -413l16 -22l17 20q181 215 182 366q0 53 -36 96q-22 27 -57 35v3zM621 1333q-98 0 -148 -69q-49 -66 -49 -132q0 -50 19 -115q18 -66 67 -182l8 -18v-1l2 1l18 8q129 62 193 140q67 81 67 180q0 81 -51 134q-51 54 -126 54zM260 356q0 -114 58 -199
q59 -89 156 -89q52 0 100 27t126 110l12 13l-1 1l-10 15q-135 183 -182 260q-53 86 -112 203q-1 3 -2.5 6l-3.5 7l-3 7l-1 2l-10 -13q-63 -73 -94 -157q-33 -87 -33 -193z" />
    <glyph glyph-name="quotesingle" unicode="'" horiz-adv-x="369" 
d="M176 822l-50 280q-24 122 -24 163q0 56 21 80q20 22 55 22q36 0 59 -23.5t23 -63.5q0 -36 -25 -179l-51 -279h-8z" />
    <glyph glyph-name="parenleft" unicode="(" horiz-adv-x="681" 
d="M567 -376q-96 58 -168 131q-142 143 -218 335q-75 192 -75 401q0 304 149 555q127 214 323 324q-95 -64 -161 -165q-82 -125 -121 -305q-40 -181 -40 -383q0 -215 34 -392q26 -141 64 -227q40 -89 102 -166q43 -53 111 -108z" />
    <glyph glyph-name="parenright" unicode=")" horiz-adv-x="681" 
d="M65 1390l1 -2l7 -3zM73 1385q125 -66 211 -155q140 -143 217 -336t76 -401q0 -305 -149 -555q-118 -198 -294 -306q77 60 132 142q82 120 121 306q39 183 39 383q0 213 -33 392q-26 142 -64 227q-39 86 -103 165q-55 69 -153 138z" />
    <glyph glyph-name="asterisk" unicode="*" horiz-adv-x="1024" 
d="M678 1065q-75 -17 -132 -41q60 39 104 90q68 80 96 96t56 16q24 0 40 -16.5t16 -39.5q0 -28 -25 -51q-28 -26 -155 -54zM498 1016q6 -3 13 -8l-29 14q-58 28 -136 44q-118 25 -143 44q-37 28 -37 66q0 19 16.5 35.5t37.5 16.5q28 0 60 -19q34 -20 87 -81q58 -68 117 -104
zM542 989l1 -1.5l1 -1.5l11 -6l-8 6zM481 985l2 1q-64 -41 -107 -89q-72 -79 -106 -101q-22 -14 -43 -14q-24 0 -42.5 18.5t-18.5 35.5q0 19 16 41q17 23 54 38q27 11 118 31q66 14 127 39zM555 980q51 -24 123 -37q113 -20 147 -50q31 -29 31 -57q0 -21 -16.5 -37.5
t-37.5 -16.5q-23 0 -56 19q-34 20 -93 90q-39 47 -98 89zM514 961l1 7q1 3 1 9v5v-5q-2 -6 -2 -8v-8zM514 961q3 -54 24 -123q34 -112 34 -154q0 -32 -18.5 -53t-34.5 -22q-27 -1 -52 24q-15 15 -15 52q0 43 22 108q24 70 30 95q4 21 10 73zM516 982v4q-1 -2 0 -4zM514 1002
l-4 -2l4 3v-1zM514 1002q0 -3 1.5 -8.5t1.5 -7.5q0 2 0.5 7t0.5 8v2h-1zM517 1003l-1 1l-2 1v1l9 -6l-6 3v0zM514 1006v0v0v0zM514 1006l1 1h2zM515 1007l1 1v10v1q-2 -7 -2 -10v-3zM514 1004v1q-1 1 -2 0h-1l3 -2v0l2 1h-2zM515 1048v-5v-7h1v6q0 3 -1 6zM515 1048
q-6 73 -29 138q-32 96 -32 130q0 45 18 66q17 20 45 20q21 0 38 -20q17 -21 17 -64t-24 -121q-27 -85 -33 -149z" />
    <glyph glyph-name="plus" unicode="+" horiz-adv-x="1155" 
d="M556 160v499h-498v43h498v497h38v-497h500v-43h-500v-499h-38z" />
    <glyph glyph-name="comma" unicode="," horiz-adv-x="512" 
d="M128 -316v4q99 36 156 108q60 76 60 162q0 26 -12 43q-3 4 -10 11v0q-9 6 -19 6q-15 0 -57 -22q-13 -7 -29 -7q-41 0 -65 23.5t-24 67.5q0 42 32 71q33 31 79 31q58 0 104 -52q47 -52 47 -140q0 -97 -68 -181q-62 -77 -194 -125z" />
    <glyph glyph-name="hyphen" unicode="-" horiz-adv-x="682" 
d="M104 515h474v-112h-474v112z" />
    <glyph glyph-name="hyphen" unicode="&#xad;" horiz-adv-x="682" 
d="M104 515h474v-112h-474v112z" />
    <glyph glyph-name="period" unicode="." horiz-adv-x="512" 
d="M256 176q39 0 65.5 -27t26.5 -66.5t-27 -66.5t-65 -27t-65 27t-27 66q0 40 27 67t65 27z" />
    <glyph glyph-name="slash" unicode="/" horiz-adv-x="568" 
d="M545 1400l-477 -1407l-36 1l478 1407z" />
    <glyph glyph-name="zero" unicode="0" horiz-adv-x="990" 
d="M84 669q0 229 68 391.5t180 241.5q83 64 167 64q138 0 257 -153q150 -194 150 -522q0 -233 -65.5 -394t-164.5 -232.5t-187 -71.5q-175 0 -299 219q-106 190 -106 457zM369 1268q-73 -87 -99.5 -268q-27.5 -181 -27.5 -355q0 -281 71 -463q59 -161 179 -161q59 0 118 52
q60 53 91 172q47 174 47 489q0 234 -49 392q-37 121 -95 172q-43 37 -106 37q-72 0 -129 -67z" />
    <glyph glyph-name="one" unicode="1" horiz-adv-x="1006" 
d="M252 1225v-1l13 7zM265 1231l298 144h10v-1127q0 -117 11 -150q11 -34 45 -50q33 -16 115 -20v-3h-472v3q85 3 115 19q31 16 44.5 45.5t13.5 155.5v732q0 149 -10 194q-9 38 -33 58q-23 19 -56 19q-32 0 -81 -20z" />
    <glyph glyph-name="two" unicode="2" horiz-adv-x="989" 
d="M886 243h1l-81 -226h-752l-1 11q345 320 485 526t139 381q0 137 -80.5 225t-193.5 88q-101 0 -183 -60q-81 -60 -122 -170h-2q27 164 121 256q95 92 237 92q150 0 254 -100.5q104 -101.5 104 -237.5q0 -97 -47 -198q-73 -158 -231 -339q-243 -277 -298 -325l-36 -33h389
q106 0 152 8.5t83 34.5q36 25 62 67z" />
    <glyph glyph-name="three" unicode="3" horiz-adv-x="990" 
d="M322 688v0v0zM121 1105h-1q55 122 135 192q81 69 199 69q145 0 227 -99q61 -75 61 -158q0 -138 -178 -292l-20 -19l-2 -1l2 -1l24 -10q120 -47 181 -134t61 -204q0 -170 -107 -293q-141 -162 -393 -162q-132 0 -174 30t-42 59q0 21 17.5 38.5t42.5 17.5q23 0 47 -7
q15 -4 73 -36q56 -30 85 -38q41 -12 78 -12q103 0 183 84.5t80 200.5q0 83 -38 161q-28 59 -61 91q-45 42 -117 76t-150 34q68 15 132 55q74 47 111 117t37 153q0 110 -66.5 179t-163.5 69q-156 0 -263 -160zM334 692v0q-1 0 -3 -2z" />
    <glyph glyph-name="four" unicode="4" horiz-adv-x="989" 
d="M726 482h182v-107h-182v-358h-125v358h-559l-1 106l605 885h80v-884zM86 482h515v750z" />
    <glyph glyph-name="five" unicode="5" horiz-adv-x="988" 
d="M403 1338h431l-60 -135h-394l-102 -214l2 -1l23 -4q246 -38 392 -191q127 -131 127 -307q0 -103 -41.5 -191t-105.5 -149q-64 -62 -138 -100q-105 -53 -215 -53q-116 0 -165 37.5t-49 78.5q0 20 17.5 36.5t44.5 16.5q23 0 39.5 -7t62.5 -39q79 -55 157 -55
q118 0 209.5 94t91.5 228q0 128 -81 239.5t-215 170.5q-97 43 -271 52z" />
    <glyph glyph-name="six" unicode="6" horiz-adv-x="990" 
d="M834 1358h40v-4q-124 -14 -206 -53t-161.5 -120.5t-131.5 -182.5q-51 -100 -88 -238l-14 -48l4 2q38 26 38 27q135 97 266 97q126 0 222.5 -106.5t96.5 -275.5q0 -164 -98 -300q-118 -163 -305 -163q-124 0 -215 87q-184 175 -184 451q0 178 71.5 337.5t200 282
t244.5 165t220 42.5zM277 699l-6 -5v-1l-0.5 -3.5q-0.5 -3.5 -0.5 -4.5q-20 -136 -20 -220q0 -98 38 -214q37 -116 106 -185q53 -52 131 -52q92 0 163.5 88t71.5 246q0 175 -71 306q-70 132 -199 132q-39 0 -83.5 -17t-129.5 -70v0z" />
    <glyph glyph-name="seven" unicode="7" horiz-adv-x="990" 
d="M90 1050l-4 -5l1 -1q1 1 1.5 3t1.5 3zM98 1066l109 272h681v-15l-438 -1335l-69 1l391 1221h-385q-114 0 -167 -29q-73 -40 -122 -115z" />
    <glyph glyph-name="eight" unicode="8" horiz-adv-x="884" 
d="M363 697q-137 131 -175 206q-38 76 -38 158q0 124 81 214.5t211 90.5q125 0 204.5 -84t79.5 -190q0 -71 -44 -146t-185 -180l-18 -14l17 -16q148 -135 197 -211q63 -97 63 -204q0 -135 -88.5 -231.5t-225.5 -96.5q-151 0 -239 115q-69 91 -69 200q0 85 51 169t177 191
l16 14zM341 912l129 -147l8 11q90 110 117 176t27 149q0 112 -49.5 177t-129.5 65t-133.5 -64t-53.5 -151q0 -56 22.5 -111.5t62.5 -104.5zM398 659l-2.5 2.5l-3 3.5l-2.5 3l-1 1l-1 -1q-1 -1 -2.5 -3l-3 -4l-2.5 -3q-65 -73 -97 -158q-33 -86 -33 -186q0 -135 59 -218.5
t146 -83.5q86 0 141.5 66.5t55.5 160.5q0 78 -33 139q-56 106 -221 281z" />
    <glyph glyph-name="nine" unicode="9" horiz-adv-x="990" 
d="M156 -3h-38v3q125 5 233 63q109 58 210 205t143 323l11 45l-3 -2q-36 -23 -36 -24q-147 -99 -261 -99q-130 0 -226.5 105t-96.5 281q0 173 97 307q117 162 298 162q151 0 264 -132q141 -165 141 -411q0 -221 -108 -409t-296 -315q-150 -102 -332 -102zM714 655l5 4v1l1 7
q20 131 20 210q0 99 -34.5 214.5t-96.5 180t-143 64.5q-93 0 -163.5 -86t-70.5 -250q0 -217 93 -340q66 -93 166 -93q47 0 110 23t113 65z" />
    <glyph glyph-name="colon" unicode=":" horiz-adv-x="569" 
d="M289 924q37 0 63 -26.5t26 -65t-26 -65t-63 -26.5t-63 26.5t-26 65t26 65t63 26.5zM287 175q38 0 64.5 -27t26.5 -65.5t-27 -65t-64 -26.5t-63 26.5t-26 65t26 65.5t63 27z" />
    <glyph glyph-name="semicolon" unicode=";" horiz-adv-x="568" 
d="M282 925q37 0 63.5 -26t26.5 -64.5t-26.5 -65t-63.5 -26.5t-64 26.5t-27 65t27 64.5t64 26zM162 -315l2 1q97 36 154 108q61 78 61 164q0 27 -13 44q-3 4 -10 11h-1v1q-11 6 -20 6q-16 0 -58 -22q-13 -7 -28 -7q-40 0 -62.5 23t-22.5 66q0 41 30 70q31 30 77 30
q57 0 102 -51q46 -51 45 -139q0 -97 -66 -180q-62 -78 -190 -125z" />
    <glyph glyph-name="less" unicode="&#x3c;" horiz-adv-x="1155" 
d="M57 692l1036 448v-41l-959 -416l959 -420v-44l-1036 452v21z" />
    <glyph glyph-name="equal" unicode="=" horiz-adv-x="1155" 
d="M58 863h1036v-43h-1036v43zM58 537h1036v-43h-1036v43z" />
    <glyph glyph-name="greater" unicode="&#x3e;" horiz-adv-x="1155" 
d="M1093 667l-1035 -448l-1 40l960 416l-960 420l1 45l1035 -452v-21z" />
    <glyph glyph-name="question" unicode="?" horiz-adv-x="741" 
d="M347 176q38 0 64.5 -26.5t26.5 -66.5q0 -38 -27 -64.5t-64 -26.5t-63 26.5t-26 64.5q0 39 26 66t63 27zM373 518q-24 -63 -31 -176q5 107 19 181q17 84 67 226q39 112 53 176q15 66 15 128q0 133 -47 214q-47 83 -115 83q-60 0 -96 -47q-38 -48 -38 -103q0 -40 12 -101
q10 -49 10 -72v-2v-2q0 -25 -12 -43q-12 -17 -30 -18q-24 0 -44 35q-22 36 -22 103q0 105 67 185q69 82 189 82q147 0 217 -112q51 -84 51 -183q0 -70 -24 -141q-27 -78 -96 -176q-120 -171 -145 -237z" />
    <glyph glyph-name="at" unicode="@" horiz-adv-x="1884" 
d="M1040.5 318.5q72.5 95.5 105.5 188.5q56 161 56 266q0 17 -2 33l16 -66l53 177l113 15l-110 -367q-66 -230 -80 -286q-16 -61 -16 -100q0 -41 28 -69.5t69 -28.5q80 0 187 76q108 77 183 246q75 165 75 351q0 176 -86 326q-86 151 -241 232q-153 79 -342 79
q-237 0 -440 -126t-321 -360q-118 -233 -118 -487q0 -235 104.5 -428t293.5 -293q189 -98 406 -98q269 0 487 144q213 141 331 409h14q-90 -250 -309 -407q-232 -167 -528 -167q-232 0 -432 110q-198 109 -309 311q-110 205 -110 445q0 260 121.5 483t339 349t464.5 126
q202 0 364 -84q161 -83 245 -241q84 -161 84 -339t-79 -355q-79 -175 -200 -253.5t-252 -78.5q-68 0 -99.5 29.5t-31.5 87.5q0 55 16 143l17 81l-53 -63q-147 -177 -232 -228t-146 -51t-110 57q-50 58 -50 156q0 140 92 316t244 286q110 80 193 80q59 0 99 -30
q28 -21 43 -61q-10 21 -26 38q-42 46 -104 46q-84 0 -167 -86q-116 -119 -197 -318q-61 -148 -61 -240q0 -71 41 -116q41 -47 95 -47q65 0 134 47q66 45 138.5 140.5zM1200 806q-4 26 -13 48q6 -15 10 -32z" />
    <glyph glyph-name="A" unicode="A" horiz-adv-x="1435" 
d="M393 505h524l-259 632zM926 475h-543l-96 -223q-36 -83 -36 -123.5t35 -69.5q23 -18 70 -28h-303q55 14 78 35q55 52 118 204l461 1105h3l456 -1117q57 -139 108 -184q35 -31 84 -43h-396q33 8 54 25q34 27 34 68v1v1q0 46 -41 145zM936 28q-9 -3 -19 -4l1 2l-1 2h19z
M1386 28h15l-1 -3l1 -1q-8 1 -15 4zM27 28l-1 0.5l-1 0.5l7 -1q-1 0 -3.5 -2t-4.5 -3q0 1 1.5 1.5t1.5 1.5l1 1zM387 28h19l-1 -3l1 -1q-10 1 -19 4z" />
    <glyph glyph-name="B" unicode="B" horiz-adv-x="1322" 
d="M577 690q-60 0 -104 -2q-47 -2 -72 -7l-17 -4h-2v-596l18 -4q115 -28 228 -28q185 0 285.5 88.5t100.5 218.5q0 85 -46.5 165t-146.5 124.5t-244 44.5zM872 1230.5q-102 90.5 -292 90.5q-99 0 -180 -23q-2 -1 -5 -1.5t-6.5 -1.5t-4.5 -1h-2v-563h2l17 -4q35 -7 84 -10
q48 -4 104 -4q146 0 223 34t119.5 105.5t42.5 156.5q0 131 -102 221.5zM825 690l85 -18q133 -29 198 -90q90 -84 90 -206q0 -93 -60 -178t-164.5 -125.5t-323.5 -40.5h-508q47 15 73.5 53.5t26.5 162.5v870q0 135 -36 174q-26 29 -64 42h457q153 0 249 -24q140 -35 213 -119
t73 -194q0 -94 -57 -168t-170 -111l-76 -26zM42 1341h31q17 0 33 -2v0q1 0 1 -1v0v-1q0 -1 -1 -1h-64v5zM42 25v5h64q2 0 2 -1.5t-1 -1.5v0q-17 -2 -34 -2h-31z" />
    <glyph glyph-name="C" unicode="C" horiz-adv-x="1320" 
d="M1179 1363l24 -361q-61 168 -168 254q-116 92 -279 92q-138 0 -249.5 -73t-176 -231.5t-64.5 -388.5q0 -191 61 -334.5t181.5 -220t274.5 -76.5q134 0 236 58q77 44 164 146q-78 -109 -173 -169q-125 -79 -299 -79q-312 0 -491 245q-134 185 -134 432q0 201 88 368
t239 259q149 92 326 92q137 0 271 -72q48 -25 70 -25q38 0 64 27q22 22 35 57zM1182 1377l1 1l-2 -1h1v0zM1238 304l-5 -5v0v0l-0.5 0.5l-0.5 0.5l3 6zM1183 1379v0v0z" />
    <glyph glyph-name="D" unicode="D" horiz-adv-x="1435" 
d="M1008 1142.5q-156 169.5 -401 169.5q-89 0 -206 -30q-3 -1 -6 -1.5t-6 -1.5t-5 -1h-2v-1197l20 -4q126 -29 213 -29q237 0 393 171t156 462q0 292 -156 461.5zM207 1292q-26 29 -63 42h424q291 0 441 -66.5t242.5 -220.5t92.5 -356q0 -272 -165 -455q-184 -204 -558 -204
h-477q46 15 72 55q26 39 26 161v870q0 135 -35 174zM44 1341h31q17 0 33 -2v0q1 0 1 -1v0v-1q0 -1 -1 -1h-64v5zM44 25v5h64v-1.5v-1.5v0q-16 -2 -33 -2h-31z" />
    <glyph glyph-name="E" unicode="E" horiz-adv-x="1206" 
d="M923 498v6l2 -6h-1h-1zM1048 1085v-1q0 1 -0.5 4t-0.5 5q0 7 -1 10l4 -16zM770 1307h-382v-579h313q121 0 165 41q38 37 54 106v-338q-10 54 -20 75q-21 42 -66 65q-46 24 -133 24h-313v-467q0 -94 10 -119t36 -40t86 -15h223q115 0 171 17t107 67q51 51 105 143
l-89 -255h-894q15 5 37 17q41 22 54 59q14 37 14 140v874q0 138 -33 174q-23 26 -60 38h875l12 -216q-18 70 -42 106q-29 45 -84 67q-40 16 -146 16zM50 1341h30q20 0 36 -2q1 0 1 -1v0v-1q0 -1 -1 -1h-66v5zM50 25v5h58v-1.5v-1.5q-13 -2 -28 -2h-30z" />
    <glyph glyph-name="F" unicode="F" horiz-adv-x="1073" 
d="M562 25h-28q-13 0 -26 2v0q-1 0 -1 1v0v1q0 1 1 1h54v-5zM42 25v5h61q1 0 1 -1v0v-1q0 -1 -1 -1v0q-15 -2 -33 -2h-28zM42 1341h28q14 0 29 -2v0q1 0 1 -1v0v-1q0 -1 -1 -1h-57v5zM980 1080v4q0 2 1 1h1l0.5 -0.5l0.5 -0.5l1 -4h-4zM678 1307h-300v-576h249q87 0 128 43
q33 33 49 106v-313q-6 27 -20 52q-15 31 -52 53q-38 22 -106 22h-248v-446q0 -109 13 -144q11 -31 49 -54q21 -13 36 -18l-335 1q43 14 69 48q30 37 30 168v868q0 105 -17 145q-13 33 -50 54q-22 13 -39 18h833l9 -221q-23 67 -51 103q-35 46 -89 69q-54 22 -158 22z
M806 906v12l2 -1l1 1q0 1 0.5 2t1.5 2q0 -3 -2.5 -8.5t-2.5 -7.5z" />
    <glyph glyph-name="G" unicode="G" horiz-adv-x="1433" 
d="M1204 1351l28 -330q-50 132 -126 206q-125 123 -320 123q-264 0 -403 -219q-117 -183 -117 -431q0 -196 77 -360.5t201.5 -241.5t254.5 -77q76 -1 147 19q71 19 138 58l3 2l4 2l4 2h1v398q0 105 -18 142t-46 51q-21 11 -44 17l346 1q-47 -15 -69 -56q-23 -40 -23 -159
v-404q-105 -58 -209 -86t-234 -28q-370 0 -567 248q-148 187 -148 429q0 174 84 338q100 194 268 295q141 86 332 86q70 0 125 -12q56 -12 164 -55q59 -23 72 -23h13q27 0 45 24q11 14 17 41zM1238 984v4v1v-1l2 -4h-2zM1204 1377v1v-1v0zM1204 1377h2v-4z" />
    <glyph glyph-name="H" unicode="H" horiz-adv-x="1425" 
d="M380 1116v-408h658v408q0 108 -15 146q-12 32 -50 54q-22 13 -38 18h348q-18 -6 -38 -17q-40 -22 -53.5 -59t-13.5 -142v-867q0 -106 16 -145q13 -32 49 -54q21 -12 39 -18h-342q43 14 68 48q30 38 30 166v434h-658v-432q0 -108 15 -144q12 -31 50 -54q20 -12 38 -18
h-341q44 14 69 48q29 37 29 168v868q0 107 -16 146q-13 33 -49 54q-22 12 -39 18h347q-16 -6 -37 -17q-38 -21 -52 -59t-14 -142zM576 1341v-5h-58q-2 0 -2 1.5t1 1.5v0q14 2 29 2h30zM44 1341h27q15 0 30 -2v0l0.5 -1.5q0.5 -1.5 -0.5 -1.5h-57v5zM44 25v5h61l0.5 -1.5
q0.5 -1.5 -0.5 -1.5v0q-16 -2 -34 -2h-27zM576 25h-30q-15 0 -29 2v0v0v1v1q0 1 1 1h58v-5zM844 25v5h60q2 0 2 -1.5t-1 -1.5v0q-16 -2 -33 -2h-28zM1376 25h-30q-16 0 -30 2v0v0v1v1q0 1 1 1h59v-5zM1376 1341v-5h-59l-0.5 1.5q-0.5 1.5 0.5 1.5v0q15 2 29 2h30zM844 1341
h28q15 0 29 -2v0v0v-1v-1q0 -1 -1 -1h-56v5z" />
    <glyph glyph-name="I" unicode="I" horiz-adv-x="654" 
d="M596 30v-5h-30q-16 0 -30 2v0v0v1v1q0 1 1 1h59zM152 1334h345q-43 -14 -69 -48q-30 -38 -30 -168v-869q0 -106 16 -144q13 -33 50 -55q20 -12 38 -18l-345 1q44 14 70 48q29 37 29 168v868q0 106 -16 145q-13 33 -49 54q-22 12 -39 18zM596 1341v-5h-63q-2 0 -1.5 1.5
l0.5 1.5v0q17 2 34 2h30zM60 1341h27q15 0 30 -2v0l0.5 -1.5q0.5 -1.5 -0.5 -1.5h-57v5zM60 25v5h61l0.5 -1.5q0.5 -1.5 -0.5 -1.5v0q-16 -2 -34 -2h-27z" />
    <glyph glyph-name="J" unicode="J" horiz-adv-x="752" 
d="M210 1336v5h31q15 0 29 -2v0v0v-1v-1q0 -1 -1 -1h-59zM340 1314q-17 10 -36 16h329q-43 -14 -69 -48q-30 -38 -30 -169v-667q0 -150 -30 -241t-100 -157q-69 -66 -171 -66q-85 0 -132 40.5t-47 90.5q0 40 18 58q26 25 60 24q23 0 43.5 -17t56.5 -102q29 -69 78 -69
q37 0 64 41q28 41 28 134v931q0 106 -15 145q-12 35 -47 56zM732 1341v-5h-63l-0.5 1.5q-0.5 1.5 0.5 1.5v0q16 2 33 2h30z" />
    <glyph glyph-name="K" unicode="K" horiz-adv-x="1419" 
d="M966 1182l-197 -205l-212 -221l496 -512q126 -127 212 -170q57 -29 117 -43l-496 1q19 7 31 16q30 23 30 57q0 32 -11 55q-10 22 -66 78l-447 454l128 122q297 286 350 365q30 45 31 82v1q0 33 -27 57q-10 9 -24 14l313 -1l-11 -3q-38 -12 -89 -44t-128 -103zM135 1334
h349q-19 -7 -39 -17q-37 -20 -52 -58q-15 -37 -15 -142v-378v-89l45 43l-45 46v-89v-401q0 -107 16 -145q12 -31 50 -54q20 -12 38 -18l-341 1q43 14 69 48q28 37 28 168v868q0 109 -15 146q-12 31 -49 53q-21 12 -39 18zM572 1341v-5h-55l-0.5 1.5q-0.5 1.5 0.5 1.5
q14 2 28 2h27zM42 1341h29q16 0 30 -2q1 0 1 -1.5t-1 -1.5h-59v5zM42 25v5h63l0.5 -1.5q0.5 -1.5 -0.5 -1.5q-16 -2 -34 -2h-29zM572 25h-27q-15 0 -29 2v0v1v1q0 1 1 1h55v-5zM1252 1336h-20v1.5v1.5q10 1 19 2h1v-5zM808 1341h12q17 0 31 -2v0v-1v-1q0 -1 -1 -1h-42v5z
M838 30h17q2 0 1.5 -1.5l-0.5 -1.5q-8 -1 -17 -2h-1v5z" />
    <glyph glyph-name="L" unicode="L" horiz-adv-x="1205" 
d="M610 1336h-43q-2 0 -1.5 1.5l0.5 1.5q22 2 45 2h18l-19 -23v18zM149 1333l362 1q-21 -5 -40 -15q-48 -25 -65.5 -61.5t-17.5 -163.5v-845q0 -91 18 -124q14 -27 45 -40.5t161 -13.5h96q156 0 223.5 24.5t120.5 85.5q34 38 69 104l-81 -253h-891q47 16 73 56q24 36 24 161
v868q0 137 -33 174q-25 29 -64 42zM50 1341h31q18 0 33 -2v0v-1.5v-1.5h-64v5zM50 25v5h64v-1.5v-1.5v0q-16 -2 -33 -2h-31zM1156 363l-13 -27l-1 -1v0v0q-1 0 -1 1h1v0l8 25z" />
    <glyph glyph-name="M" unicode="M" horiz-adv-x="1776" 
d="M1388 1267l-553 -1234h-2l-555 1234v-1021q0 -134 34 -172q25 -28 62 -41h-233q46 15 71 52q26 37 26 159v879q0 96 -22 139q-18 36 -59 58q-17 9 -36 14h269l498 -1102l492 1102h248q-47 -15 -72.5 -51.5t-25.5 -158.5v-880q0 -133 34 -171q24 -27 62 -40h-334
q46 15 70 53q26 39 26 160v1021zM1194 25v5h62v-1.5v-1.5v0q-16 -2 -33 -2h-29zM1726 25h-28q-19 0 -35 2v0q-1 0 -1 1v0v1q0 1 1 1h63v-5zM1726 1341v-5h-62v1.5v1.5v0q16 2 34 2h28zM42 1341q1 0 13 -1t18 -1q1 0 1 -1v0v-1q0 -1 -1 -1h-31v5zM42 25v5h63q1 0 1 -1.5
t-1 -1.5v0q-16 -2 -34 -2h-29zM474 25h-30q-18 0 -34 2v0v1.5v1.5h64v-5z" />
    <glyph glyph-name="N" unicode="N" horiz-adv-x="1434" 
d="M-21 1340h3q24 0 38 -2q1 0 1 -1q0 -2 -1 -3l-36 -1zM975 1340h28q17 0 32 -2q1 0 2 -1v-1q0 -1 -1 -1v-1h-61v6zM1401 1340v-6h-61l-0.5 2q-0.5 2 0.5 2q16 2 33 2h28zM488 24h-28q-18 0 -34 2q-1 0 -1 2t1 2h62v-6zM58 24v6h63v-2v-2q-16 -2 -34 -2h-29zM389 29h-232
q46 15 72 53q25 37 25 158v943v0q-5 7 -5 8q-59 69 -93 93q-33 24 -97 44l-2 1l262 1l847 -1066v853q0 135 -32 173q-23 27 -62 39h232q-46 -15 -72 -53t-26 -151v-9v-1127l-911 1160v-907q0 -136 31 -172q24 -28 63 -41z" />
    <glyph glyph-name="O" unicode="O" horiz-adv-x="1435" 
d="M727 1376q246 0 431.5 -197t185.5 -493q0 -305 -187 -505.5t-446 -200.5q-262 0 -444.5 195t-182.5 508q0 318 213 518q181 175 430 175zM1034 166q128 159 128 493q0 363 -140 542q-114 146 -314 146q-188 0 -302 -145q-140 -177 -140 -515q0 -345 145 -534
q112 -146 298 -146q197 0 325 159z" />
    <glyph glyph-name="P" unicode="P" horiz-adv-x="1095" 
d="M684 1266q-69 41 -156 41q-51 0 -131 -20l-19 -4v-606h2l18 -4q49 -10 92 -15q41 -5 70 -5q110 0 190 88t80 227q0 93 -38.5 175t-107.5 123zM407 662l-27 6h-2v-420q0 -134 34 -173q25 -29 62 -42h-333q48 16 75 56q24 35 24 160v869q0 137 -34 174q-26 28 -64 42h367
q172 0 270 -28t164.5 -112.5t66.5 -200.5q0 -160 -105.5 -259.5t-295.5 -99.5q-47 0 -98 7q-47 6 -104 21zM42 1341h32q16 0 32 -2v0v-1.5v-1.5h-64v5zM42 25v5h64v-1.5v-1.5v0q-15 -2 -32 -2h-32zM572 25h-32q-16 0 -31 2v0q-1 0 -1 1v0v1q0 1 1 1h63v-5z" />
    <glyph glyph-name="Q" unicode="Q" horiz-adv-x="1435" 
d="M1314 -394v5h3h1l28 -2v-11l-29 5v0q-3 0 -3 3zM856 -38q102 -181 219 -264q58 -42 122 -66q-59 13 -129 35q-148 49 -280 136q-134 88 -231 187l-4 4h-1l-3 1q-135 56 -216 122q-117 96 -183 234q-66 139 -66 330q0 300 189 497.5t451 197.5q248 0 434 -197.5
t186 -501.5q0 -246 -133 -430t-342 -250l-26 -9h-2zM1164 662q0 245 -77 418q-60 136 -156 199q-97 64 -219 64q-187 0 -303 -139q-143 -170 -143 -513q0 -337 145 -520q115 -146 301 -147h1q193 0 312 146q139 169 139 492z" />
    <glyph glyph-name="R" unicode="R" horiz-adv-x="1323" 
d="M782 1225q-84 87 -223 87q-60 0 -158 -19l-17 -4h-2v-611h23q18 0 32 -0.5t23 -0.5q198 0 302 90.5t104 232.5q0 138 -84 225zM1156 74q54 -33 132 -50l-284 -1l-448 637l-1 1h-11q-55 -2 -81 -2h-26q-6 0 -30 2l-23 1h-2v-414q0 -135 34 -173q25 -29 62 -42h-334
q46 15 73 56q25 37 25 160v869q0 136 -35 174q-26 29 -63 42h367q207 0 302 -30t160 -108t65 -186q0 -116 -74 -201.5t-233 -121.5l-35 -8l294 -421q98 -142 166 -184zM44 1341h31q17 0 33 -2v0q1 0 1 -1v0v-1q0 -1 -1 -1h-64v5zM44 25v5h64v-1.5v-1.5v0q-16 -2 -33 -2h-31z
M578 25h-33q-17 0 -32 2v0q-1 0 -1 1v0v1q0 1 1 1h65v-5z" />
    <glyph glyph-name="S" unicode="S" horiz-adv-x="919" 
d="M710 1377q0 -6 -2 -12q0 3 1 8q0 1 -0.5 2.5t-0.5 2.5l1 -2zM149 -21v-1v1zM154 369q22 -113 58 -178q33 -75 101 -126t146 -51q92 0 149.5 74t57.5 176q0 56 -22 111q-22 56 -68 106q-32 35 -155 132q-121 97 -174 154t-80 124t-27 147q0 137 80.5 237.5t198.5 100.5
q73 0 158 -52q46 -29 66 -29q27 0 44 21q11 15 19 38v-355q-16 94 -52 165q-34 77 -95.5 126.5t-125.5 49.5q-75 0 -128 -71.5q-53 -72.5 -53 -164.5q0 -70 37 -128q51 -82 218 -210q138 -105 187 -157t75.5 -122q26.5 -69 26.5 -147q0 -147 -88 -253.5t-220 -106.5
q-40 0 -79 9q-24 6 -99 38q-74 32 -98 33q-28 0 -44 -22q-8 -12 -14 -35v366zM151 401v1v-1zM149 -21l1 2l1 -2h-1h-1zM151 401l-1 -2v1z" />
    <glyph glyph-name="T" unicode="T" horiz-adv-x="1187" 
d="M78 1127l11 218h1022l10 -223q-8 34 -20 56q-34 64 -89.5 95t-141.5 31h-202v-1058q0 -134 32 -171q25 -29 64 -41h-332q46 14 72 54q25 38 25 158v1058h-177q-97 0 -140 -15q-58 -21 -89 -67t-45 -95zM367 24h-29v5h52q1 0 1 -2v-2q-13 -1 -24 -1zM857 29v-5h-27
q-11 0 -24 1q-1 0 -1 2t1 2h51z" />
    <glyph glyph-name="U" unicode="U" horiz-adv-x="1425" 
d="M962 1336v5h31q17 0 32 -2v0l0.5 -1.5q0.5 -1.5 -0.5 -1.5h-63zM121 1330h337q-44 -15 -70 -54q-30 -44 -30 -163v-595q0 -81 16 -187q15 -106 55 -168t114 -102q75 -40 182 -40q135 0 243 62t148 159t40 318v553q0 137 -33 175q-24 29 -63 42h244q-49 -17 -82 -68
q-26 -38 -26 -157v-554q0 -201 -37 -309t-145.5 -184.5t-300.5 -76.5q-209 0 -314 73t-150 197q-31 87 -31 329v533q0 135 -40 180q-22 25 -57 37zM556 1341v-5h-63q-2 0 -1.5 1.5l0.5 1.5v0q15 2 32 2h32zM20 1341h31q18 0 34 -2v0l0.5 -1.5q0.5 -1.5 -0.5 -1.5h-65v5z
M1396 1341v-5h-60l-1 1v0.5v1.5v0v0q14 2 28 2h33z" />
    <glyph glyph-name="V" unicode="V" horiz-adv-x="1434" 
d="M1034 1337h-6h-1h7zM1399 1335h-3q1 0 2 2v-1zM45 1336l-16 -2l1 2l-1 2zM515 1335q8 2 16 3l-1 -2l1 -2zM488 1332q-48 -11 -71 -30q-33 -28 -33 -75q0 -56 47 -166l359 -850l332 840q49 124 49 171v1q0 37 -35 71q-28 25 -80 38h321q-53 -16 -81 -42q-56 -51 -100 -159
l-457 -1144h-5l-491 1155q-39 92 -58 117q-26 34 -66 53q-25 13 -49 20h418zM1026 1337v-24l-18 26h8q3 0 6 -1q1 0 2 -1h1h1z" />
    <glyph glyph-name="W" unicode="W" horiz-adv-x="1889" 
d="M1864 1334h-16q-2 0 -2 2t1 2q9 1 17 2v-6zM1500 1340q5 0 26 -2q1 0 0.5 -2l-0.5 -2h-26v6zM36 1340q10 -1 19 -2q1 0 1 -1v-1v-1q0 -1 -1 -1h-19v6zM497 1340v-6h-35v2v2q14 2 30 2h5zM672 1340h2q10 -1 19 -2q1 0 1 -2t-1 -2h-21v6zM1152 1340v-6h-46v2v2q14 2 30 2
h16zM724 1330h-5v0l-0.5 -0.5l-0.5 -0.5zM724 1330l350 -1q-21 -8 -34 -21q-34 -30 -34 -82q-1 -54 46 -186l279 -802l276 812q47 135 47 179q0 30 -19 56t-48 37q-8 3 -17 6l245 2q-15 -6 -32 -15q-36 -21 -68 -78q-15 -27 -65 -172l-368 -1077h-7l-320 914l-317 -914h-3
l-391 1111q-44 125 -58 152q-22 43 -62 65q-18 9 -31 14l337 -1q-20 -7 -35 -21q-34 -31 -34 -75q0 -37 45 -169l283 -826l245 720l-74 213q-22 54 -48 93q-14 21 -37 38q-28 20 -51 28z" />
    <glyph glyph-name="X" unicode="X" horiz-adv-x="1387" 
d="M1025 1111l-261 -355l281 -446q114 -180 173 -230q42 -35 93 -49h-420q7 2 12 4q26 11 42.5 35.5t16.5 51.5q0 29 -10 55q-6 16 -51 93l-221 379l-289 -393q-44 -60 -54.5 -83.5t-10.5 -49.5q0 -44 32 -71q17 -14 44 -21h-338q16 4 36 13q65 28 121 73q55 45 127 139
l317 414l-265 403q-106 161 -182 212q-52 34 -111 48h458q-30 -8 -48 -23q-33 -27 -32 -66v-1v-2q0 -45 48 -121l211 -340l236 333q39 55 49 79q10 26 10 52v2q0 26 -15 48q-19 27 -44 37l-6 2l300 1q-13 -4 -27 -10q-55 -25 -99 -65q-46 -43 -123 -148zM1327 1340h1v-4h-9
l-0.5 1.5q-0.5 1.5 0.5 1.5v0q4 1 8 1zM894 1336v4q12 0 26 -1q2 0 2 -1h-1v-1q0 -1 -1 -1h-26zM619 1340h1v-4h-10v1.5v1.5v0q4 1 9 1zM50 1336v4q6 -1 9 -1q1 0 1 -1v0v-1q0 -1 -1 -1h-9zM458 29v-4h-2q-5 1 -9 1l-0.5 1.5q-0.5 1.5 0.5 1.5h11zM844 25h-2v4h16v-1.5v-1.5
v0q-7 -1 -14 -1zM1354 29v-4v0q-3 1 -6 1q-2 0 -2 1h1v1q0 1 1 1h6z" />
    <glyph glyph-name="Y" unicode="Y" horiz-adv-x="1414" 
d="M72 1334h412q-18 -6 -36 -17q-47 -28 -47 -87q0 -41 63 -142l294 -472l272 453q61 101 61 152v2q0 33 -17 62q-17 28 -46 42q-6 3 -15 6l308 1q-10 -4 -35 -16q-54 -26 -95 -71q-40 -43 -101 -142l-316 -517v-344q0 -134 33 -171q24 -27 61 -40h-330q45 15 70.5 51.5
t25.5 159.5v325l-1 1l-363 570q-65 99 -91 127q-25 27 -103 65q-1 0 -2 1t-2 1zM558 1341v-5h-39q-1 0 -1.5 1.5t0.5 1.5v0q14 2 28 2h12zM28 1341q9 -1 16 -2v0v-1.5v-1.5h-16v5zM443 25v5h61v-1.5v-1.5v0q-16 -2 -33 -2h-28zM962 25h-24q-18 0 -34 2v0v0v1v1q0 1 1 1h57
v-5zM952 1341h3q13 0 25 -2l0.5 -0.5l0.5 -0.5q0 -2 -1 -2h-23zM1376 1341v-5h-26v1v2q9 2 20 2h6z" />
    <glyph glyph-name="Z" unicode="Z" horiz-adv-x="1204" 
d="M165 1092l20 241h914l-868 -1274h581q134 0 206 59q58 47 103 162l-45 -259h-1038l-1 6l870 1269h-463q-109 0 -162 -26t-81 -75q-20 -35 -36 -103zM156 1038l-1 -2q1 1 1 2zM1140 343l-6 -19v-1q-2 0 -2 1l4 24zM156 1038v2q1 3 1 5v-7v1z" />
    <glyph glyph-name="bracketleft" unicode="[" horiz-adv-x="682" 
d="M586 -387l-396 -1v1755h396v-40h-290v-1675h290v-39z" />
    <glyph glyph-name="backslash" unicode="\" horiz-adv-x="568" 
d="M68 1401l476 -1407l-35 -1l-477 1407z" />
    <glyph glyph-name="bracketright" unicode="]" horiz-adv-x="682" 
d="M96 1367l398 1v-1756h-398v40h290v1675h-290v40z" />
    <glyph glyph-name="asciicircum" unicode="^" horiz-adv-x="959" 
d="M485 1364l401 -677h-43l-362 607l-362 -607h-45l406 677h5z" />
    <glyph glyph-name="underscore" unicode="_" horiz-adv-x="1024" 
d="M1018 -421h-1012v40h1012v-40z" />
    <glyph glyph-name="grave" unicode="`" horiz-adv-x="679" 
d="M163 1370h162l91 -301z" />
    <glyph glyph-name="a" unicode="a" horiz-adv-x="864" 
d="M255.5 119.5q49.5 -55.5 113.5 -55.5q80 0 201 107l7 7h1v400l-32 -14q-149 -66 -184 -87q-81 -48 -118 -101q-38 -54 -38 -119q0 -82 49.5 -137.5zM541 142q-129 -108 -161 -124q-45 -23 -100 -23q-85 0 -139.5 60t-54.5 161q0 62 26 107q38 65 136 125q99 61 316 150
q2 1 4 1.5t4.5 1.5t4.5 2h1v54q0 151 -47 211.5t-135 60.5q-67 0 -110 -40q-46 -42 -46 -95v-3q0 -9 2 -29q1 -19 1 -29l-1 -1v-1q0 -34 -17 -53t-43 -19t-44 19t-18 56q0 76 81 142.5t223 66.5q107 0 175 -39q51 -29 77 -89q16 -41 16 -173v-323q0 -137 6 -173t23 -53
q17 -16 41 -16q22 0 41 11q10 6 22 17q-89 -109 -167 -109q-37 0 -58.5 27t-21.5 101v49zM849 132l2 2q0 1 -0.5 1.5l-0.5 0.5l2 -2z" />
    <glyph glyph-name="b" unicode="b" horiz-adv-x="978" 
d="M312 761l4 6q120 176 255 176q126 0 224 -117t98 -325q0 -239 -155 -388q-132 -127 -283 -127q-72 0 -145 28q-74 28 -151 80v964q0 160 -9 202t-31 60t-44 18q-14 0 -26 -1l211 85h15v-703v-17l14 22q0 1 1 1v0q0 2 -2 4q-1 1 -2 0.5t-3 -0.5q-1 -1 -1 -2l-6 -7l-1 -1
v-17v-571q6 -7 7 -7q51 -55 107 -84q56 -28 115 -28q98 0 181 113t82 319q0 192 -83 298t-188 106q-55 0 -112 -31q-32 -18 -72 -56z" />
    <glyph glyph-name="c" unicode="c" horiz-adv-x="865" 
d="M788 335l1 3l3 -5l-5 -13q-1 -1 -2 -1h-1q-1 0 -1 1v0h1v0q2 7 4 15zM689 168q41 35 81 110q-39 -126 -123 -201q-101 -91 -211 -91q-134 0 -244 128t-110 349q0 215 122 347.5t277 132.5q120 0 199.5 -66t79.5 -133q0 -28 -18 -45t-52 -17q-48 0 -71 30q-13 17 -19 76
q-6 61 -45 99q-39 36 -105 36q-102 0 -167 -87q-87 -109 -87 -284q0 -177 84 -317t222 -140q101 0 187 73z" />
    <glyph glyph-name="d" unicode="d" horiz-adv-x="977" 
d="M664 110q-59 -66 -118 -96q-57 -28 -121 -28q-133 0 -239 122.5t-106 318t118 356.5q119 161 292 161q105 0 174 -72l40 -40v227q0 160 -9 201q-8 41 -29 59.5t-52 18.5q-6 0 -12 -1l200 85h18v-1060q0 -167 9 -209q8 -42 30.5 -61.5t52.5 -19.5q6 0 14 1l-206 -87h-16
v170zM513 49q96 0 184 103l2 2l2 2l2 2h1l-2 501q-6 76 -36.5 139.5t-83 97t-103.5 33.5q-92 0 -166 -91q-97 -118 -97 -331q0 -218 92 -338t205 -120z" />
    <glyph glyph-name="e" unicode="e" horiz-adv-x="864" 
d="M184 603v-22q-2 -3 -2 -5q0 -219 103 -346.5t237 -127.5q95 0 160 49q60 45 101 129q-28 -102 -111 -195q-88 -99 -219 -99q-142 0 -253.5 125.5t-111.5 340.5q0 235 114.5 363.5t270.5 128.5q135 0 226 -96q89 -94 95 -245h-610zM422 920q-86 0 -156 -74t-81 -203
q0 -4 -1 -8t-1.5 -9.5t-0.5 -7.5l-1 -2h453l-1 2l-1 23q-5 95 -23 138q-28 65 -78 103q-52 38 -109 38z" />
    <glyph glyph-name="f" unicode="f" horiz-adv-x="638" 
d="M602 877h-220v-624q0 -137 31 -176q23 -30 54 -43h-294q13 5 28 14q39 24 54 64t15 141v624h-178v28h178v83q0 131 41 222q42 90 119.5 144.5t175.5 54.5q96 0 178 -64q50 -39 50 -82q0 -20 -20 -41t-39 -21q-17 0 -37.5 14t-57.5 68.5t-72 76t-76 21.5q-51 0 -86 -29.5
t-49.5 -85.5t-14.5 -272v-89h220v-28zM94 23v6h48v-2v-2v0q-12 -2 -26 -2h-22zM582 23h-60q-14 0 -26 2v0v0v1v1v1q0 1 1 1h85v-6z" />
    <glyph glyph-name="g" unicode="g" horiz-adv-x="978" 
d="M931 876v0v2h-1v0l-1 1h-2q-2 3 -2 8v6l25 -10l-13 -9zM618 -7q-204 6 -327 23l-12 1h-1v0l-3 -4q-3 -4 -4 -5q-49 -55 -75 -102q-28 -48 -28 -90q0 -60 71 -105q105 -66 289 -66q177 0 271 69q95 69 95 155q0 68 -67 96q-57 24 -209 28zM623.5 393q52.5 66 52.5 201
q0 172 -70 270q-55 78 -143 78q-81 0 -135 -68.5t-54 -202.5q0 -170 71 -266q57 -78 143 -78q83 0 135.5 66zM928 874v0q2 -4 2 -16q0 -15 -1 -23h-1v-1h-1q-9 -1 -40 -1h-166l29 -38q52 -68 52 -175q0 -122 -89.5 -208.5t-236.5 -86.5q-63 0 -125 19q-2 1 -3 1l-4 2l-3 1
h-1h-1l-2 -2l-28 14q-78 39 -120 110q-41 70 -41 155q0 131 94.5 224.5t236.5 93.5q118 0 202 -63l2 -2l1 -1h1h202q29 0 39 -1q0 -1 2 -2zM297 306l17 14l24 23l2 2l-3 1l-7 -6q-19 -18 -33 -34zM297 306q-20 -23 -30 -45q-19 -35 -19 -63t23 -52t76 -32q32 -5 135 -8
q195 -12 253 -33q86 -13 134.5 -60t48.5 -118q0 -98 -98 -188q-149 -135 -376 -135q-180 0 -306 84q-64 42 -64 84q0 19 8 39q14 31 67 99q8 10 101 108l19 22l-24 15q-48 30 -66 50q-17 21 -17 45q0 30 25 72q21 36 110 116zM928 834v-9l6 10h-6v0v-1z" />
    <glyph glyph-name="h" unicode="h" 
d="M37 1324l-9 -4l1 2h-2h-2l2 0.5q2 0.5 3 0.5q5 1 7 1zM292 1419v-1198q0 -100 13 -129t44 -47q9 -5 21 -9h-275q11 4 25 11q29 16 42 49q14 33 13 124v834q0 160 -8 202q-9 42 -31 60.5t-55 18.5q-5 0 -12 -1l208 85h15zM365 796q80 88 130 115q58 32 113 32
q67 0 116 -39t74 -124q17 -58 17 -213v-9v-9v-327q0 -93 17 -130q14 -33 41 -48q8 -4 18 -8h-262q14 6 25 14q31 26 40 71q3 14 3 101v328q0 155 -16 209t-55 82t-91 28t-108 -29q-29 -15 -62 -44zM61 30q1 0 1 -1v-1q-15 -2 -32 -3h-2l2 3l-2 2h33zM405 28l-0.5 1
q-0.5 1 0.5 1h38l-2 -2l2 -3h-2q-20 1 -36 3v0zM597 30q1 0 1 -1v-1q-20 -3 -44 -3h-6l2 3l-2 2h49zM923 28q0 2 1 2h36l-2 -2l2 -3h-2q-19 1 -35 3v0zM342 772l2 2zM342 772q-2 -2 -5 -4q-5 -4 -6 -7l-30 -35z" />
    <glyph glyph-name="i" unicode="i" horiz-adv-x="545" 
d="M111 855l216 88h16v-723q0 -92 15 -126q15 -35 44 -52q7 -4 16 -7h-269q10 3 15 6q27 15 44 52q16 36 16 128v358q0 154 -10 201q-9 41 -30 59q-22 18 -56 17q-8 0 -17 -1zM83 847l-8 -4l1 2h-2h-1q3 1 4 1q4 1 6 1zM227.5 1388.5q22.5 22.5 55.5 22.5q32 0 55 -22.5
t23 -55t-23 -55.5t-55 -23t-55 23t-23 55.5t22.5 55zM114 29q1 0 1 -1l-1 -1q-16 -2 -37 -3h-2l2 3l-2 2h39zM452 27v2h38l-3 -2l3 -3h-3q-19 1 -34 3h-1z" />
    <glyph glyph-name="j" unicode="j" horiz-adv-x="547" 
d="M119 854l213 89h14v-922q0 -231 -93 -340t-241 -109q-83 0 -120 28q-36 28 -36 52q0 25 18 42q18 18 40 18q19 0 43 -11q16 -7 64 -51q50 -46 93 -46q33 0 62 24t41 73q13 49 13 198v672q0 156 -11 205q-9 43 -29 61q-22 18 -56 18q-7 0 -15 -1zM88 844l-10 -5l1 0.5
q1 0.5 1 1.5l1 1l-2 1zM286 1412q33 0 55.5 -23t22.5 -57q0 -31 -23.5 -54.5t-54.5 -23.5q-32 0 -56 23t-24 55q0 33 24 56.5t56 23.5zM79 843h-1h1z" />
    <glyph glyph-name="k" unicode="k" horiz-adv-x="946" 
d="M302 469l-1 3v29l-1 1v68l47 -64l-45 -45v7v1zM55 1320l-20 -12q0 1 1 1.5l1 0.5v2l-1 1q10 4 19 7zM80 1328l203 83h14v-909v0l1 -3v-14v-11v-4v-2h2q0 -58 -1 -124v-125q0 -95 14 -127q15 -34 41 -50q8 -5 20 -9h-281q15 5 29 12q29 15 43 45q17 37 17 124v833
q0 162 -8 203q-8 40 -31 58q-23 19 -57 20h-6zM568 906v9h4q2 0 5 -2l12 -7h-21zM921 906h-21q-2 0 -3 0.5l-1 0.5v3q0 3 3 4q9 2 19 3l3 1v-12zM643 87q0 31 -42 89l-250 341l198 200q72 71 85 90q10 15 11 32v3v1v1v1q0 32 -20 51q-5 5 -13 9h219q-16 -6 -40 -18
q-57 -26 -117 -85l-231 -231l231 -312q92 -124 127 -159q48 -49 86 -65q2 -1 6 -2h-285q10 5 20 13q15 11 15 41zM26 24v5h16q1 0 1 -2t-1 -2v0q-8 -1 -16 -1zM447 29v-5h-2q-9 0 -18 1v0q-1 0 -1 1v1v1q0 1 1 1h20zM951 29v-5q-10 0 -22 1q-1 0 -1 1v1v1q0 1 1 1h22z" />
    <glyph glyph-name="l" unicode="l" horiz-adv-x="545" 
d="M121 1326l202 84h17v-1191q0 -91 14.5 -124.5t46.5 -51.5q11 -7 21 -10h-277q8 3 18 8q28 16 43 51.5t15 126.5v832q0 158 -8 198.5t-30 58.5t-54 18h-8zM92 1318l-18 -11q0 1 1 1.5l1 0.5l1 2h-1l-1 1q9 3 17 6zM81 29h26v-2.5v-2.5l-8 -1h-9l-8 -1h-1v7zM493 22v0
q-4 0 -28 2q-1 0 -1 2.5t1 2.5h28v-7z" />
    <glyph glyph-name="m" unicode="m" horiz-adv-x="1547" 
d="M40 847l-8 -4l1 2h-2h-2h2q2 1 3 1q4 0 6 1zM434 841l-29 -18l46 46q40 36 87.5 55t93.5 19q76 0 129.5 -44.5t72.5 -134.5q1 -6 5 -17q3 -10 5 -15h-1l-4 -21l-1 -3q0 -5 0.5 -14.5t1 -16.5t0.5 -12v-443q0 -100 13 -129.5t46 -47.5q11 -5 21 -9h-272q15 5 26 12
q33 22 46 67q5 17 5 84v422q0 123 -35 177q-49 75 -140 75q-59 0 -116 -32zM612 30v-1v-1q-17 -2 -38 -3h-2l2 3l-2 2h40zM956 28v2h39l-2 -2l2 -3h-2q-20 1 -37 3v0zM1157 30q1 0 1 -1v-1v0q-19 -3 -41 -3h-3l2 3l-2 2h43zM1464 36h-275q17 6 32 16q32 22 41 65q4 17 4 105
v399q0 121 -29 172q-44 77 -142 77q-58 0 -114 -29q-36 -18 -81 -56q81 92 138 122q66 36 132 36q65 0 115 -33.5t79 -112.5q20 -52 20 -166v-5v-6v-399q0 -92 17 -128q13 -30 43 -48q9 -5 20 -9zM1496 28v1q0 1 1 1h34l-2 -2l2 -3h-2q-18 1 -33 3v0zM846 727l4 6l9 8v0h1
v-2l-13 -16zM69 30q1 0 1 -1v-1v0q-16 -2 -35 -3h-2l2 3l-2 2h36zM372 36h-268q9 3 16 7q29 16 44 51.5t15 127.5v354q0 157 -9 203q-8 42 -30 60t-55 18q-6 0 -13 -1l210 87h14v-217v-16l29 29l12 13l6 5l-9 9l-3 -2q-1 -1 -2 -3l-6 -6l-7 -8q-10 -12 -13 -15l-7 -6v-16
v-488q0 -96 15.5 -129.5t43.5 -49.5q8 -4 17 -7zM409 28l-0.5 1q-0.5 1 0.5 1h43l-2 -2l2 -3h-2q-23 1 -41 3v0zM861 742l-1 -1h2zM861 742l-1 2h-1l20 20q-5 -5 -6 -7zM859 741v0v0z" />
    <glyph glyph-name="n" unicode="n" 
d="M364 795q129 148 244 148q64 0 111 -34t77 -113q21 -57 20 -179v-394q0 -92 17 -130q14 -32 42 -49q9 -5 17 -8h-264q14 5 25 14q32 26 42 71q4 17 4 101v380q0 134 -36 199q-36 66 -123 66q-89 0 -176 -72zM26 845h-1l1 -1l-2 -2h1q1 0 1 1l1 1zM72 30v-1v-1
q-18 -3 -39 -3h-5l2 3l-2 2h44zM364 36h-262q29 12 43 34q30 45 30 152v344q0 169 -8 212q-9 43 -30.5 61t-56.5 18q-8 0 -17 -1l215 87h13v-223v-16l34 42l7 9l19 24q1 1 0 2t-2 0q-16 -15 -30 -30l-22 -24l-6 -7v-16v-481q0 -100 13 -128q15 -35 44 -52q8 -4 16 -7z
M401 28l-0.5 1q-0.5 1 0.5 1h41l-2 -2l2 -3h-2q-21 1 -39 3v0zM596 30v-1v-1q-19 -3 -43 -3h-4l2 3l-2 2h47zM927 28v1v1h38l-2 -2l2 -3h-3q-19 1 -35 3v0zM24 842v0z" />
    <glyph glyph-name="o" unicode="o" 
d="M490 943q186 0 305 -155q101 -133 101 -305q0 -122 -56 -247t-151.5 -187.5t-209.5 -62.5q-184 0 -299 161q-98 138 -98 308q0 125 59 248.5t153.5 181.5t195.5 58zM691 101q67 91 67 302q0 261 -108 412q-73 110 -190 110q-56 0 -112.5 -36.5t-92 -124t-35.5 -221.5
q0 -214 82 -373q82 -160 219 -160q103 0 170 91z" />
    <glyph glyph-name="p" unicode="p" 
d="M8 831l1 6h1q14 5 25 7h1v0v0q0 -1 -1 -1zM364 -424h-283q19 6 32 13q25 14 38 46q13 31 13 137v890q0 95 -10 126q-9 31 -33 47t-61 17h-2h-2l217 87h7v-247v-52l44 78l7 12l1 1v2v1q0 3 -2 5l-1 1q-1 1 -3 1q-3 0 -5 -3l-33 -39l-2 -2l-3 -2l-2 -3h-1v-52v-312
q0 -111 12 -157q17 -70 73 -120q57 -50 144 -50q106 0 172 91q87 113 87 312q0 228 -98 350q-67 91 -162 91q-52 0 -102 -28q-18 -10 -44 -36q47 71 91 109q62 53 130 53q122 0 208 -104q107 -130 107 -339q0 -236 -130 -389q-105 -123 -256 -123q-64 0 -113 20
q-36 14 -80 56l-39 36v-335q0 -99 14 -131q14 -33 45 -49q9 -4 25 -9zM2 -431v4h42v-2q-15 -2 -32 -2h-10zM434 -431h-1l-28 2v0q0 2 1 2h28v-4zM56 852h-1l-1 -1z" />
    <glyph glyph-name="q" unicode="q" 
d="M709 881q55 28 106 62h3v-1187q0 -93 16 -124q15 -32 44 -48q9 -5 21 -8h-268q8 3 19 9q26 15 39 49q15 35 15 123v454v7l-42 -50l-19 -23q-1 -1 0 -2t2 -1q26 24 53 63q1 1 3 4l2 2h1v7v448q0 83 -22 133.5t-75 85.5t-120 35q-118 0 -202.5 -106.5t-84.5 -316.5
q0 -201 87 -308t206 -107q62 0 111 29q15 9 26 18q-64 -74 -113 -104q-60 -37 -123 -37q-118 0 -216 117.5t-98 318.5q0 231 131 375t306 144q50 0 91.5 -15t74.5 -46l4 -3h1h20v1zM552 -431l6 4h35l0.5 -1q0.5 -1 -0.5 -1q-17 -2 -36 -2h-5zM972 -431l-29 2h-1q0 2 1 2h29
v-4z" />
    <glyph glyph-name="r" unicode="r" horiz-adv-x="642" 
d="M376 823q79 120 162 120q45 0 74.5 -27q29.5 -26 29.5 -60q0 -29 -19 -50t-45.5 -21t-69.5 35q-44 35 -74 35q-27 0 -53 -27zM67 856l213 87h11v-714q0 -82 19 -127q14 -33 48 -55q11 -7 24 -11h-287q18 6 32 14q33 21 46 65q5 17 5 84v381q0 164 -8 201t-31.5 56.5
t-55.5 19.5q-8 0 -16 -1zM22 839v3h1l5 2l2 -1l-1 -1zM59 30l0.5 -1q0.5 -1 -0.5 -1v0q-15 -2 -32 -3h-2l2 3l-2 2h34zM414 28v2h34l-3 -2l3 -3h-3q-16 1 -31 3v0zM302 689h-1h-1l-6 -13v2v1l1 1l1 4l4 8h1l1 1q13 29 25 51h1l1 -1zM329 743v1v-1zM329 747l-1 -3h1h6z
M329 747h-1q8 15 17 28l-14 -26z" />
    <glyph glyph-name="s" unicode="s" horiz-adv-x="659" 
d="M509 664v14v2q1 0 1.5 -0.5l0.5 -0.5l3 -10zM112 278q0 -1 -1 -1h-1v0q-2 7 -3 14v3l3 -2l2 2v-16zM115 4v238q25 -106 78 -168q63 -76 145 -76q60 0 98.5 49t38.5 118q0 82 -40 135q-40 54 -151 128q-109 73 -142 130q-31 53 -31 134q0 108 55 179.5t143 71.5
q39 0 96 -22q42 -16 60 -16t28 9q7 6 13 19v-221q-27 113 -67 161q-47 58 -123 58q-58 0 -96 -45t-38 -103q0 -64 29 -113q28 -48 104 -97l114 -74q147 -96 147 -249q0 -118 -69.5 -191t-157.5 -73q-67 0 -149 29q-31 11 -48 11q-22 0 -37 -22zM114 -3v0zM508 940l1 4v0z
" />
    <glyph glyph-name="t" unicode="t" horiz-adv-x="545" 
d="M538 154l-1 -1v2zM485 91q10 7 17 13q-25 -38 -58 -65q-54 -43 -114 -43q-40 0 -77.5 23t-56 65.5q-18.5 41.5 -18.5 137.5v655h-133q46 25 96 72q57 53 103 127q20 32 51 109v-285h214v-27h-214v-628q0 -98 31.5 -137.5t83.5 -39.5q40 0 75 23zM298 1215l4 -5l-2 -6
q0 -1 -1 -1v1h-1v11zM536 157l1 -2v4zM536 157l-2 -3q-8 -14 -9 -18h-1h-1q-1 0 -1 0.5v0.5l10 22l1 2z" />
    <glyph glyph-name="u" unicode="u" 
d="M633 137q-87 -97 -134 -123q-55 -31 -115 -31q-65 0 -114.5 39.5t-70.5 104.5q-20 65 -20 189v408q0 70 -17 101q-17 30 -50 47q-11 7 -19 10h202v-588q0 -138 49.5 -185t119.5 -47q47 0 103 29q30 16 66 46zM676 849q-23 23 -60 33h204v-531q0 -162 9 -202t32 -59.5
t44 -19.5q13 0 23 1l-209 -88h-15v223v11l-40 -46l-4 -5l-5 -5l-5 -5q-1 -1 0 -2t2 0l46 44l6 7v1v11v516q-1 89 -28 116zM-1 890h21q8 0 22 -1q1 0 1 -1v-1v-1q0 -1 -1 -1h-20v-17z" />
    <glyph glyph-name="v" unicode="v" horiz-adv-x="984" 
d="M34 884h-5h5zM51 883h301q-14 -6 -24 -16q-26 -26 -26 -69q0 -37 22 -92l225 -562l233 581q25 62 25 92q0 22 -12 39q-14 20 -37 27h163q-20 -7 -31 -16q-36 -31 -69 -110l-315 -775h-9l-310 757q-24 58 -45 84q-22 27 -58 46q-13 7 -33 14zM698 886v5h1q10 0 20 -1v-1
v-1q0 -1 -1 -1v-1h-20zM398 891h10v-5h-26q-2 0 -1.5 2l0.5 2q8 1 17 1zM758 883h-3h3z" />
    <glyph glyph-name="w" unicode="w" horiz-adv-x="1435" 
d="M31 882l-5 3v-3h5zM1390 882q-75 -28 -112 -124l-297 -776h-8l-238 623l-277 -623h-5l-285 757q-30 78 -60 105q-26 24 -67 38h287q-20 -7 -35 -21q-17 -17 -17 -56q0 -31 19 -83l210 -581l220 490l-55 143q-26 67 -71 95q-9 7 -25 12l291 1q-29 -8 -47 -22
q-28 -22 -28 -67v-1.5v-1.5q0 -26 10 -49l225 -585l210 566q23 59 23 93q0 30 -22 47q-17 13 -35 19zM1399 882v0zM1399 882h2.5h2.5v3z" />
    <glyph glyph-name="x" unicode="x" 
d="M140 856q-29 19 -58 28l307 1q-13 -6 -27 -18q-16 -15 -16 -47q0 -30 37 -88l31 -49l80 -135l92 133q73 106 73 138q1 31 -17 47q-13 12 -26 18l200 1q-24 -8 -45 -21q-50 -33 -137 -151l-127 -176v0l228 -335q87 -123 123 -147q22 -14 49 -23h-308q14 6 25 15
q27 21 27 53v16v1l-65 114l-145 223l-161 -222q-65 -90 -70 -114v0v-8q0 -35 26 -58q14 -13 32 -20h-201q18 7 33 18q40 29 132 150l196 262l-177 261q-77 110 -111 133zM302 29v-5h-1q-2 1 -5 1v0v1v1v1q0 1 1 1h5zM562 24h-1v5h8l0.5 -2q0.5 -2 -0.5 -2v0q-3 -1 -7 -1z
M948 29v-5h-1q-2 1 -6 1v0v1v1v1q0 1 1 1h6z" />
    <glyph glyph-name="y" unicode="y" horiz-adv-x="984" 
d="M29 881l-5 3v-3h5zM960 883v1l1 -1h-1zM936 880q-11 -4 -25 -13q-24 -15 -47 -49q-11 -15 -37 -81l-366 -914q-52 -129 -128 -191q-77 -63 -150 -63q-50 0 -80.5 28t-30.5 63q0 33 20 51.5t59 18.5q27 0 81 -21q42 -16 57 -16q37 0 77 36q39 35 75 130l65 167h1l-322 698
q-14 31 -51 81q-30 41 -46 52t-49 23h305q-15 -6 -26 -16q-28 -25 -28 -66q0 -44 33 -117l237 -510l223 555q19 48 19 89q0 24 -12.5 40.5t-31.5 24.5h178zM706 886v5h1q7 0 14 -1q1 0 1 -1v-1v-1q0 -1 -1 -1h-15zM396 891h2v-5h-21l-0.5 2q-0.5 2 0.5 2q9 1 19 1zM961 883
q-1 -1 1 -1z" />
    <glyph glyph-name="z" unicode="z" horiz-adv-x="850" 
d="M770 139q7 14 13 39l-6 -154h-723l-1 5l596 841h-319q-95 0 -131 -15t-59 -58q-18 -33 -26 -74l4 173h687v-6l-603 -843h352q106 0 148.5 21t67.5 71zM113 703l-2 -17h1zM795 264l2 3v-3q-3 -18 -5 -34v0v0q-2 0 -2 1l2 36z" />
    <glyph glyph-name="braceleft" unicode="{" horiz-adv-x="982" 
d="M311 494l2 2q-4 -1 -6 -2l-3 -2q2 0 7 2zM758 1382q-67 -28 -104 -73q-60 -69 -60 -153q0 -59 24 -160q20 -92 20 -160q0 -95 -68 -184q-49 -63 -135 -106q18 13 31 26q66 67 66 150q0 57 -24 153q-22 95 -22 163q0 127 99 234q71 77 173 110zM389 460q-15 7 -32 13
q17 -6 32 -13zM389 460q114 -49 179 -131q70 -90 70 -185q0 -68 -20 -161q-24 -102 -24 -160q0 -85 60 -153q38 -45 108 -75q-105 32 -177 111q-99 107 -99 235q0 68 22 164q24 96 24 152q0 82 -66 149q-32 33 -77 54zM304 492l53 -19q-25 9 -53 13v6z" />
    <glyph glyph-name="bar" unicode="|" horiz-adv-x="410" 
d="M220 1399v-1817l-36 -1v1817z" />
    <glyph glyph-name="braceright" unicode="}" horiz-adv-x="983" 
d="M642 464q4 2 18 6zM699 483q2 1 6 1.5t6 1.5l4 1q-4 0 -9 -2q-6 -2 -7 -2zM258 -403q68 29 106 74q60 69 61 153q0 62 -24 160q-22 90 -22 154v2.5v2.5q0 95 69 185q50 64 137 108q-17 -13 -33 -29q-65 -68 -65 -147v-1v-1q0 -57 23 -152t23 -164q0 -127 -100 -234
q-72 -78 -175 -111zM627 520q16 -8 34 -14q-18 7 -34 14zM627 520q-114 49 -178 130q-71 90 -70 186q0 65 22 160q24 101 24 160q1 84 -61 153q-40 45 -108 74q105 -33 177 -110q99 -107 100 -236q0 -66 -23 -163q-23 -95 -23 -152q0 -81 65 -149q31 -32 75 -53zM661 506
q2 -1 3 -1q-2 1 -3 1zM714 487l-50 18q24 -8 51 -12z" />
    <glyph glyph-name="asciitilde" unicode="~" horiz-adv-x="1106" 
d="M1061 655h4q-8 -108 -67 -170q-63 -68 -156 -68q-43 0 -93 15q-57 17 -272 105q-159 65 -227 65q-78 0 -132 -48q-49 -44 -71 -135h-4q9 113 66 174q61 65 145 65q39 0 84 -13q105 -30 272 -102q173 -74 246 -74q84 0 140 54q53 48 65 132z" />
    <glyph glyph-name="Adieresis" unicode="&#xc4;" horiz-adv-x="1434" 
d="M540 1697q35 0 58.5 -25t23.5 -62t-24 -61.5t-57.5 -24.5t-58 24.5t-24.5 61.5t24 62t58 25zM883.5 1697q33.5 0 58 -25t24.5 -62t-24 -61.5t-58 -24.5t-59 24.5t-25 61.5t25 62t58.5 25zM391 505h524l-259 631zM923 475h-543l-95 -223q-34 -80 -36 -122v-1v-1
q0 -41 35 -69q22 -18 69 -28h-302q55 14 78 35q55 52 118 204l461 1104h2l456 -1116q57 -139 108 -184q35 -31 84 -43h-396q33 8 54 25q34 27 34 68v1v1q0 47 -42 145zM933 28q-9 -2 -19 -4l1 2l-1 2h19zM1383 28h15l-1 -2l1 -2q-8 2 -15 4zM25 28l-1 0.5l-1 0.5l7 -1
q-1 0 -3.5 -2t-4.5 -3q0 1 1.5 1.5t1.5 1.5l1 2h-1zM384 28h19l-1 -2l1 -2q-10 2 -19 4z" />
    <glyph glyph-name="Ccedilla" unicode="&#xc7;" horiz-adv-x="1317" 
d="M1178 1377v1h-1v-1h1zM610 -150l78 129h-3h-11h-11q-279 16 -444 244q-133 184 -133 433q0 201 87 368q88 167 240 260q150 92 324 92q136 0 269 -72q47 -25 71 -25q37 0 64 26q21 23 33 57l26 -360q-62 167 -165 251q-118 95 -282 95q-136 0 -247 -73t-175 -232
q-65 -159 -65 -388q0 -190 61 -334.5t181 -220.5t273 -76q134 0 236 59q77 45 166 152q-80 -113 -175 -176q-125 -81 -298 -81h-18l-43 -70h2q3 -1 9 -2l10 -2q5 -1 9 -2q53 -14 78 -47q25 -32 25 -77q0 -62 -51 -109.5t-133 -47.5q-28 0 -44 2q60 0 100 39.5t40 92.5
q0 38 -30 68q-23 23 -54 27zM590 -176l-12 24l28 1l-2 -3zM1176 1377v-1v1v0z" />
    <glyph glyph-name="Eacute" unicode="&#xc9;" horiz-adv-x="1200" 
d="M923 498v6l2 -6h-1h-1zM1041 1093l1 -7v0zM769 1307h-381v-579h313q121 0 165 41q38 37 54 106v-338q-10 54 -20 75q-21 42 -66 65q-46 24 -133 24h-313v-467q0 -94 10 -119t36 -40t85 -15h222q114 0 169.5 17t105.5 67t102 142l-84 -254h-891q15 5 37 17q41 22 54 59
q14 37 14 140v874q0 138 -33 174q-23 26 -60 38h873l12 -224q-18 77 -42 114q-28 44 -84 67q-40 16 -145 16zM525 1494h3v0l6 7l-4 -14zM50 1341h30q20 0 36 -2q1 0 1 -1v0v-1q0 -1 -1 -1h-66v5zM50 25v5h58v-1.5v-1.5q-13 -2 -28 -2h-30zM534 1501q5 5 4 5l241 291h-157
l-86 -290z" />
    <glyph glyph-name="Odieresis" unicode="&#xd6;" horiz-adv-x="1174" 
d="M605 1376q191 0 334 -197t143 -493q0 -306 -148 -506t-353 -200q-207 0 -352 195t-145 508q0 318 188 518q140 175 333 175zM810 167q90 159 90 492q0 362 -98 540q-80 148 -223 148q-133 0 -214 -147q-99 -178 -99 -513q0 -345 102 -532q80 -148 212 -148q140 0 230 160
zM709 1697q34 0 57.5 -25t23.5 -62t-23 -61.5t-57.5 -24.5t-58 24.5t-23.5 61.5t23.5 62t57.5 25zM366 1697q35 0 58.5 -25t23.5 -62t-24 -61.5t-58 -24.5t-58 24.5t-24 61.5t24 62t58 25z" />
    <glyph glyph-name="Udieresis" unicode="&#xdc;" horiz-adv-x="1424" 
d="M527.5 1672q23.5 25 57.5 25t57.5 -25t23.5 -61t-24 -60.5t-57.5 -24.5t-57 24.5t-23.5 60.5t23.5 61zM868 1672q24 25 57.5 25t58 -25t24.5 -61t-24 -60.5t-58 -24.5t-58 24.5t-24 60.5t24 61zM960 1336v5h32q17 0 32 -2v0v0v-1v-1q0 -1 -1 -1h-63zM121 1330h337
q-44 -15 -70 -54q-30 -44 -30 -163v-595q0 -81 16 -187q15 -106 55 -168.5t114.5 -102t181.5 -39.5q135 0 242.5 62t148 158.5t40.5 318.5v553q0 137 -34 175q-25 29 -63 42h243q-49 -18 -81 -68q-25 -37 -25 -157v-554q0 -201 -37 -309q-38 -108 -146.5 -184.5
t-299.5 -76.5q-209 0 -315 74q-105 73 -150 196q-30 85 -30 329v533q0 135 -40 180q-22 25 -57 37zM556 1341v-5h-63l-0.5 1.5q-0.5 1.5 0.5 1.5v0q14 2 31 2h32zM20 1341h31q18 0 34 -2v0l0.5 -1.5q0.5 -1.5 -0.5 -1.5h-65v5zM1394 1341v-5h-60q-2 0 -2 1.5t1 1.5v0
q13 2 28 2h33z" />
    <glyph glyph-name="aacute" unicode="&#xe1;" horiz-adv-x="864" 
d="M849 132l2 2h1zM244 376q-38 -54 -38 -119q0 -82 49.5 -137.5t113.5 -55.5q80 0 201 107l7 7h1v400l-32 -14q-153 -69 -184 -87q-81 -48 -118 -101zM578 173l-37 -31q-129 -108 -161 -124q-45 -23 -100 -23q-85 0 -139.5 60t-54.5 161q0 62 26 107q38 65 136 126t316 149
l14 5v54q0 151 -47 211.5t-135 60.5q-67 0 -110 -40q-46 -42 -46 -95v-3q0 -9 2 -29q1 -19 1 -29l-1 -1v-1q0 -34 -17 -53t-43 -19t-44 19t-18 56q0 76 81 142.5t223 66.5q107 0 175 -39q51 -29 77 -89q16 -41 16 -173v-323q0 -137 6 -173t23 -53q17 -16 41 -16q22 0 41 11
q10 6 22 17q-89 -109 -167 -109q-38 0 -59 27t-21 101v49zM360 1089h4l3 4l1 2l-4 -12zM851 135h-1h1zM368 1095l2 3l3 4l232 291h-152l-82 -290z" />
    <glyph glyph-name="acircumflex" unicode="&#xe2;" horiz-adv-x="864" 
d="M201 1110h3l0.5 -0.5q0.5 -0.5 1 -0.5t0.5 -1v0v-2v0v-1l-17 -30l-14 23h14zM672 1099v4l1 1h2h1q0 -1 1 -1l5 -5h16l-14 -23zM511 1385l142 -258l-236 195l-188 -180l137 243h145zM541 142q-129 -108 -161 -124q-45 -23 -100 -23q-85 0 -139.5 60t-54.5 161q0 62 26 107
q38 65 135 125q98 61 317 150q2 1 4 1.5t4.5 1.5t4.5 2h1v54q0 151 -47 211.5t-135 60.5q-67 0 -110 -40q-46 -42 -46 -95v-3q0 -9 2 -29q1 -19 1 -29l-1 -1v-1q0 -34 -17 -53t-43 -19t-44 19t-18 56q0 76 81 142.5t223 66.5q107 0 175 -39q51 -29 77 -89q16 -41 16 -173
v-323q0 -137 6 -173t23 -53q17 -16 41 -16q22 0 41 11q10 6 22 17q-89 -109 -167 -109q-37 0 -58.5 27t-21.5 101v49zM255.5 119.5q49.5 -55.5 113.5 -55.5q80 0 201 107l7 7h1v400l-32 -14q-149 -66 -184 -87q-81 -48 -118 -101q-38 -54 -38 -119q0 -82 49.5 -137.5z
M849 132l2 2q0 1 -0.5 1.5l-0.5 0.5l2 -2z" />
    <glyph glyph-name="adieresis" unicode="&#xe4;" horiz-adv-x="864" 
d="M269 1326q36 0 59.5 -25t23.5 -60.5t-24 -60t-58 -24.5q-35 0 -59.5 24.5t-24.5 60t24 60.5t59 25zM603.5 1326q32.5 0 57.5 -25t25 -60.5t-25 -60t-57.5 -24.5t-56 24.5t-23.5 60t23.5 60.5t56 25zM255.5 119.5q49.5 -55.5 113.5 -55.5q80 0 201 107l7 7h1v400l-32 -14
q-149 -66 -184 -87q-81 -48 -118 -101q-38 -54 -38 -119q0 -82 49.5 -137.5zM541 142q-129 -108 -161 -124q-45 -23 -100 -23q-85 0 -139.5 60t-54.5 161q0 62 26 107q38 65 136 125q99 61 316 150q2 1 4 1.5t4.5 1.5t4.5 2h1v54q0 151 -47 211.5t-135 60.5q-67 0 -110 -40
q-46 -42 -46 -95v-3q0 -9 2 -29q1 -19 1 -29l-1 -1v-1q0 -34 -17 -53t-43 -19t-44 19t-18 56q0 76 81 142.5t223 66.5q107 0 175 -39q51 -29 77 -89q16 -41 16 -173v-323q0 -137 6 -173t23 -53q17 -16 41 -16q22 0 41 11q10 6 22 17q-89 -109 -167 -109q-37 0 -58.5 27
t-21.5 101v49zM849 132l2 2q0 1 -0.5 1.5l-0.5 0.5l2 -2z" />
    <glyph glyph-name="ccedilla" unicode="&#xe7;" horiz-adv-x="865" 
d="M332 -375l-0.5 0.5l-0.5 0.5h-23v0q4 0 12 -0.5t12 -0.5zM380 -148l-12 -23l-14 23h26zM794 344l-7 -16v0v0h-1q-1 0 -1.5 0.5t-1.5 0.5h1v0l4 14zM689 174q41 36 81 113q-39 -129 -123 -205q-85 -78 -175 -92h-4h-4l-42 -75l28 -9q51 -16 74 -45q24 -33 24 -79
q0 -62 -48 -109q-49 -49 -127 -49q-9 0 -20 1q42 6 74 39q39 40 39 94q0 40 -29 68q-23 22 -52 28l76 134h-26q-133 0 -243 128t-110 348q0 214 122 347q121 132 277 132q120 0 199.5 -66t79.5 -132q0 -28 -18 -45.5t-52 -17.5q-48 0 -71 30q-13 17 -19 76q-6 61 -45 99
q-39 36 -105 36q-102 0 -166 -86q-88 -108 -88 -283q0 -177 86 -313q82 -141 220 -141q102 0 187 74z" />
    <glyph glyph-name="eacute" unicode="&#xe9;" horiz-adv-x="784" 
d="M339 1089h2l2 5l3 4l-4 -15zM184 603v-22q-2 -3 -2 -5q0 -217 90 -346q89 -128 205 -128q82 0 138 49q52 45 88 129q-25 -102 -98 -195q-78 -99 -194 -99q-126 0 -224.5 125.5t-98.5 340.5q0 235 101.5 363.5t239.5 128.5q120 0 201 -96q78 -94 84 -245h-530zM533 779
q-23 65 -64 103q-42 38 -90 38q-70 0 -128 -75q-56 -72 -67 -202q0 -4 -0.5 -8t-1 -9.5t-1.5 -7.5v-2h373l-1 2l-1 23q-4 96 -19 138zM351 1110l64 280h121z" />
    <glyph glyph-name="edieresis" unicode="&#xeb;" horiz-adv-x="863" 
d="M184 603v-22q-2 -3 -2 -5q0 -219 103 -346.5t237 -127.5q94 0 164 52q57 43 96 125q-28 -102 -110 -194q-89 -99 -220 -99q-142 0 -253 125.5t-111 340.5q0 235 114 363.5t271 128.5q135 0 224 -95t95 -246h-608zM422 920q-85 0 -155 -74t-82 -203q0 -4 -1 -8t-1.5 -9.5
t-0.5 -7.5l-1 -2h453l-1 2l-0.5 9q-0.5 9 -1.5 14q-5 97 -23 139q-28 65 -79 103q-51 37 -107 37zM637 1325q34 0 59.5 -25t25.5 -60.5t-25 -60t-59.5 -24.5t-59 24.5t-24.5 60t24.5 60.5t58.5 25zM307 1325q34 0 56.5 -25t22.5 -60.5t-23.5 -60t-54.5 -24.5
q-35 0 -60.5 24.5t-25.5 60t25 60.5t60 25z" />
    <glyph glyph-name="iacute" unicode="&#xed;" horiz-adv-x="545" 
d="M192 1108l86 282h155zM111 855l216 88h15v-723q0 -93 16 -127q16 -35 44 -51q7 -4 16 -7h-269q10 3 15 6q27 15 44 52q16 36 16 128v358q0 154 -10 201q-9 41 -30 59q-22 18 -56 17q-8 0 -17 -1zM83 847l-8 -4l1 2h-2h-1q3 1 4 1q4 1 6 1zM176 1089h3l6 6l-4 -12zM114 29
q1 0 1 -1l-1 -1q-16 -2 -37 -3h-2l2 3l-2 2h39zM452 27v2h38l-3 -2l3 -3h-3q-19 1 -35 3v0z" />
    <glyph glyph-name="icircumflex" unicode="&#xee;" horiz-adv-x="545" 
d="M114 855l215 88h16v-723q0 -93 15 -127q16 -35 44 -51q7 -4 17 -7h-268q8 3 14 6q27 15 43.5 51.5t16.5 128.5v358q0 156 -10 201q-8 41 -29.5 58.5t-56.5 17.5q-8 0 -17 -1zM86 847l-8 -4l1 2h-2h-1q3 1 4 1q4 1 6 1zM25 1098l11 11h1l1 1h1l1 -1l1 -1l1 -2h-1l-17 -31
l-12 23h13zM543 1075l-23 39l20 -16h16zM361 1385l149 -259l-250 195l-195 -181l140 245h156zM117 29q1 0 1 -1v-1q-17 -2 -38 -3h-2l2 3l-2 2h39zM455 27v1v1h38l-2 -2l2 -3h-3q-19 1 -35 3v0z" />
    <glyph glyph-name="oacute" unicode="&#xf3;" 
d="M415 1110l80 280h145zM302 170q82 -160 219 -160q103 0 170 91t67 302q0 261 -108 412q-73 110 -190 110q-55 0 -111.5 -36.5t-92.5 -124t-36 -221.5q0 -213 82 -373zM296 885q94 58 194 58q186 0 305 -155q101 -133 101 -305q0 -122 -56 -247q-56 -124 -153 -187
q-96 -63 -208 -63q-184 0 -299 161q-98 138 -98 308q0 125 59 248q61 124 155 182zM399 1089h3l3 5l4 4l-5 -15z" />
    <glyph glyph-name="ocircumflex" unicode="&#xf4;" 
d="M691 101q67 91 67 302q0 261 -108 412q-73 110 -190 110q-56 0 -112.5 -36.5t-92 -124t-35.5 -221.5q0 -214 82 -373q82 -160 219 -160q103 0 170 91zM490 943q186 0 305 -155q101 -133 101 -305q0 -122 -56 -247t-151.5 -187.5t-209.5 -62.5q-184 0 -299 161
q-98 138 -98 308q0 125 59 248.5t153.5 181.5t195.5 58zM574 1385l144 -258l-240 195l-185 -180l134 243h147zM736 1100v2v0l2 2h2h1q0 -1 1 -1l5 -5h16l-14 -23l-13 24v1v0zM266 1110h2l1 -1l1 -1v0v-2v0v-1l-16 -30l-14 23h13l11 11h1v1h1z" />
    <glyph glyph-name="odieresis" unicode="&#xf6;" horiz-adv-x="981" 
d="M490 943q186 0 305 -155q101 -133 101 -305q0 -122 -56 -247t-151 -187.5t-209 -62.5q-185 0 -300 161q-98 138 -98 308q0 125 59.5 248.5t153.5 181.5t195 58zM691 101q67 91 67 302q0 261 -107 412q-74 110 -190 110q-56 0 -112.5 -36.5t-92.5 -124t-36 -221.5
q0 -214 82 -373q82 -160 219 -160q103 0 170 91zM656 1325q33 0 57.5 -25t24.5 -60.5t-24.5 -60t-57.5 -24.5t-56.5 24.5t-23.5 60t23.5 60.5t56.5 25zM322.5 1325q33.5 0 56.5 -25t23 -60.5t-23.5 -60t-54.5 -24.5q-35 0 -60.5 24.5t-25.5 60t25.5 60.5t59 25z" />
    <glyph glyph-name="uacute" unicode="&#xfa;" 
d="M633 137q-87 -97 -134 -123q-55 -31 -115 -31q-65 0 -114.5 39.5t-70.5 104.5q-20 65 -20 189v408q0 70 -17 101q-17 30 -50 47q-11 7 -19 10h202v-588q0 -138 49.5 -185t119.5 -47q47 0 103 29q30 16 66 46zM400 1098l81 280h147zM676 849q-23 23 -60 33h204v-531
q0 -162 9 -202t32 -59.5t44 -19.5q13 0 23 1l-209 -88h-15v223v11l-40 -46l-4 -5l-5 -5l-5 -5q-1 -1 0 -2t2 0l46 44l6 7v1v11v516q-1 89 -28 116zM-1 890h21q8 0 22 -1q1 0 1 -1v-1v-1q0 -1 -1 -1h-20v-17zM384 1077h3l3 4l3 4l-4 -15z" />
    <glyph glyph-name="udieresis" unicode="&#xfc;" 
d="M634 137q-87 -97 -134 -123q-55 -31 -116 -31q-65 0 -114.5 39.5t-70.5 104.5q-20 65 -20 189v408q0 70 -17 101q-17 30 -50 47q-11 7 -19 10h202v-588q0 -138 50 -185t119 -47q48 0 104 29q30 15 66 46zM676 849q-23 23 -60 33h204v-531q0 -162 9 -202t32 -59.5
t44 -19.5q13 0 23 1l-209 -88h-15v223v11l-40 -46l-13 -15q-1 -1 0 -2t2 0l45 44l6 7v1v11v516q-1 89 -28 116zM610 1300q24 25 57.5 25t57 -25t23.5 -62t-23.5 -61.5t-57 -24.5t-57.5 24.5t-24 61.5t24 62zM272 1300q24 25 56 25q33 0 57.5 -25t24.5 -62t-23.5 -61.5
t-57 -24.5t-57.5 24.5t-24 61.5t24 62zM-1 890h21q8 0 22 -1q1 0 1 -1v-1v-1q0 -1 -1 -1h-20v-17z" />
    <glyph glyph-name="dagger" unicode="&#x2020;" horiz-adv-x="1024" 
d="M505 838q7 -60 25 -99q22 -50 67 -91q-45 -175 -63 -352q-15 -144 -28 -494q-8 282 -28 480q-20 194 -65 366q46 43 67 92q17 38 25 98zM506 981q-1 7 -3 17q-10 40 -32 90q-51 123 -51 185q0 48 27 78q27 29 61 29q31 0 58 -30q28 -31 28 -77q0 -26 -7 -54
q-8 -35 -45 -122q-25 -59 -36 -116zM575 914q46 8 90 25q94 38 111 42v0q21 6 40 6q39 0 62 -22q22 -21 22 -55q0 -31 -22 -51q-23 -22 -58 -22q-51 0 -155 46q-47 21 -74 27zM440 911q-46 -10 -95 -30q-100 -43 -143 -43q-35 0 -56.5 20t-21.5 52q0 34 22 55q23 23 58 23
q21 0 40 -5q10 -3 101 -44q45 -19 95 -28zM484 915q1 0 3.5 0.5t3.5 0.5t3 0.5t4 0.5h3h1l1 2l1 9v13v0h1q2 0 1 -1h1q1 -7 0 -11v-3v-4.5q-1 -2.5 -1 -4.5v-2l13 1l6 -1q9 -1 22 -2q1 0 0.5 -1l-0.5 -1q-2 0 -10 -1t-12 -1h-3.5h-3.5v0l-11 -1v-14v-16l-0.5 -0.5
q-0.5 -0.5 -1.5 -0.5v0v1h-1q-1 5 0 16l-1 13v1h-2l-10 1h-2.5h-2.5q-4 0 -11.5 1t-9.5 1q-1 0 -0.5 1l0.5 1v0q3 0 9.5 1t9.5 1zM503 -409l1 54q0 1 1 1t1 -1q1 -25 1 -47v-1h2z" />
    <glyph glyph-name="degree" unicode="&#xb0;" horiz-adv-x="819" 
d="M405 1363q119 0 202 -83t83 -204q0 -118 -83.5 -201t-201.5 -83q-117 0 -200 83t-83 201q0 119 82.5 203t200.5 84zM230 905q72 -72 175 -72q102 0 174.5 72t72.5 173q0 102 -72 173.5t-175 71.5t-175 -72t-72 -173t72 -173z" />
    <glyph glyph-name="section" unicode="&#xa7;" horiz-adv-x="1024" 
d="M594 1354q64 -13 109 -56q63 -61 63 -137q0 -31 -20 -54q-12 -13 -36 -12q-24 0 -39 16t-15 37q0 11 8 49q6 24 6 47q0 51 -37 85q-16 16 -39 25zM620 147l17 10l19 13l-32 -20zM409 -367q-49 15 -87 53q-64 62 -64 139q0 28 18 47q16 18 38 18q20 0 35 -17t15 -47
q0 -22 -7 -54q-9 -33 -9 -55q0 -40 35 -67q14 -11 26 -17zM454 -378q16 -2 32 -2q28 0 54 5q-23 -8 -48 -8q-20 0 -38 5zM315 769q-81 -79 -81 -181q0 -77 42 -141q55 -85 202 -196q67 -50 120 -100l12 -10l1 -1l3 1l15 -18q67 -74 93 -127q24 -51 24 -111q0 -112 -75 -188
q-40 -40 -90 -58q25 14 48 35q63 59 63 130q0 68 -36 124q-51 80 -179 175q-186 138 -251 241q-46 74 -46 158q0 86 50 170q32 52 85 97zM410 834v1l-11 -5.5l-11 -5.5l-10 -6l-11 -8l13 7l19 11zM395 857q-64 71 -92 129q-27 56 -27 115q0 108 76 183q48 48 109 66
q-35 -15 -64 -44q-57 -57 -57 -141q0 -70 31 -119q49 -76 156 -153q200 -145 270 -253q48 -74 47.5 -158t-49.5 -170q-29 -50 -77 -93q72 76 72 170q0 70 -48 146q-48 75 -186 184q-81 63 -131 108l-12 11h-1h-1zM552 1361q11 -1 17 -2q-10 1 -17 2zM552 1361q-11 2 -15 2
q-6 0 -39 -4q12 2 39 2h15zM656 170l24 17q-9 -7 -24 -17z" />
    <glyph glyph-name="bullet" unicode="&#x2022;" horiz-adv-x="717" 
d="M363 908q95 0 162 -67.5t67 -164t-67 -164t-162 -67.5t-162 67.5t-67 164t66.5 164t162.5 67.5z" />
    <glyph glyph-name="paragraph" unicode="&#xb6;" horiz-adv-x="928" 
d="M774 1322v-1743l-24 -1v1744h-234v-1743h-26v1042h-2l-8.5 0.5q-8.5 0.5 -12.5 0.5q-187 8 -277 49q-87 39 -134 121q-46 83 -46 189q0 103 39 167q56 90 145 137q92 48 242 48h472v-11h-134z" />
    <glyph glyph-name="germandbls" unicode="&#xdf;" horiz-adv-x="979" 
d="M297 34h-208q22 7 36 16q28 18 42 53q13 34 13 133v742q0 239 87 339q83 94 233 94q144 0 231.5 -85t87.5 -218q0 -101 -49 -170q-35 -49 -126 -90l-56 -26l57 -19q127 -39 191 -133q65 -95 65 -253q0 -170 -85 -294q-86 -125 -222 -125q-73 0 -115.5 41t-42.5 98
q0 33 13.5 48.5q12.5 15.5 38.5 15.5t39.5 -14.5t13.5 -41.5q0 -17 -2 -26q-6 -29 -6 -40q0 -28 21 -48.5q20 -20.5 54 -20.5q68 0 115 63q55 76 55 234q0 217 -74 345q-74 127 -210 144v17q94 6 149 73q55 68 55 226q0 142 -56.5 209.5q-57.5 67.5 -149.5 67.5
q-88 0 -141.5 -71.5t-53.5 -270.5v-1013zM44 24v5h6q1 0 1 -2t-1 -2v0q-3 -1 -6 -1z" />
    <glyph glyph-name="registered" unicode="&#xae;" horiz-adv-x="1533" 
d="M403 1094l-2 3h2q14 -1 25 -3v-2l-27 -2zM728 258l-5 1q-13 2 -15 2q-2 1 -2 5t3 4h19v-12zM388 270h13q3 0 3 -5q0 -3 -2 -4l-14 -3v12zM768 1364q169 0 331 -89q161 -89 251 -255q92 -164 92 -343q0 -178 -91 -342q-91 -166 -248 -255q-158 -90 -336 -90
q-177 0 -336 90q-158 89 -248 255q-91 166 -91 343q0 179 92 343t254 253q162 90 330 90zM1095 96q157 88 244 248q87 161 87 334.5t-88 333.5q-89 161 -247 248q-159 87 -324.5 87t-323.5 -87q-157 -86 -247 -248q-88 -159 -88 -334q0 -174 87 -334q86 -158 244.5 -247.5
t327.5 -89.5q170 0 328 89zM1136 264l3 -3h-3q-11 2 -16 4l-0.5 0.5l-0.5 0.5v2h20zM1098 271h-115l-271 404l-1 1h-12q59 6 94 21q54 25 85 74q30 49 30 106q0 90 -57 152q-49 53 -122 60l35 2q129 0 194 -60q64 -58 64 -141q0 -68 -42 -118q-45 -53 -150 -83q-4 -1 -9 -2
l-11 -3l-9 -2l-2 -1l219 -327q37 -55 71 -78q6 -4 9 -5zM678 1089l51 1h-26q-12 0 -25 -1zM678 1090q-30 -4 -64 -17l-14 -5v-1v-725q7 -44 38 -65q4 -3 11 -6h-199q1 0 2 1t2 1q28 17 39 44q9 19 9 102v522q0 78 -5 92q-9 31 -34 49q-5 3 -9 5z" />
    <glyph glyph-name="copyright" unicode="&#xa9;" horiz-adv-x="1556" 
d="M1078 360q36 33 56 62q-31 -40 -56 -62zM778 1364q173 0 338 -89q165 -88 256.5 -253.5t91.5 -343.5q0 -179 -90 -343q-92 -165 -254 -255q-161 -90 -341 -90t-342 90t-254 255q-91 164 -91 343q0 180 92 344q92 165 257 253q164 89 337 89zM1112 96q160 88 248 248
q89 161 89.5 334.5t-90.5 333.5q-91 161 -251 248q-161 87 -330 87q-168 0 -329 -87q-160 -86 -251 -248q-90 -160 -90 -334t89 -334q88 -158 248.5 -247.5t332.5 -89.5q174 0 334 89zM1107 1111l17 -227q-39 108 -114 164q-82 62 -198 64h6q45 0 72 -6q19 -4 106 -34
q27 -9 44 -10q24 0 41 14q13 13 23 35h3zM768 1108q21 3 44 4h-5q-20 0 -39 -4zM768 1110q-64 -7 -118 -37q-70 -37 -113 -97q-32 -44 -53 -120q-22 -74 -22 -157q0 -219 97 -326q98 -108 258 -108q119 0 212 57q-104 -73 -246 -73q-190 0 -314.5 122.5t-124.5 298.5
q0 183 133 312q116 114 291 128z" />
    <glyph glyph-name="trademark" unicode="&#x2122;" horiz-adv-x="2005" 
d="M780 1169l-4 32v0v0v0h2q4 -12 7 -29l1 -2l-4 3zM589 561v11h-20q-3 0 -3 -3q0 -1 -1 -1v-1q0 -3 4 -4q3 0 8.5 -1t6.5 -1v0h5zM258 567.5q0 4.5 -3 4.5h-9v-10l9 1q3 0 3 4.5zM49 1172l-3 -2v2q3 13 7 24v0v0q2 0 2 -1l-3 -26l-1 1v0zM1954 1341h1v-5h-25q-1 0 -0.5 1.5
l0.5 1.5q16 1 24 2zM1958 561v11h-20q-3 0 -3 -3q0 -1 -1 -1v-1q0 -3 4 -4q3 0 8.5 -1t6.5 -1v0h5zM1593 561h2q5 0 13 1t11.5 1q3.5 1 3.5 5t-3 4h-29v-11h2zM889 1336v5q15 0 28 -2h1v-1.5v-1.5h-29zM72 1334h685l12 -105q-15 31 -39 51q-48 39 -156 39h-99v-602
q0 -93 25 -122q12 -14 36 -23h-246q27 9 41 26q23 29 23 118v601v2h-100q-104 0 -150 -36q-26 -21 -43 -58zM1141 1333l289 -605l280 605h185l-8 -4q-27 -14 -38 -43q-10 -26 -10 -102v-468q0 -95 24 -121q13 -14 39 -23l-246 -1q2 1 3.5 1.5t3 2t2.5 1.5q29 16 41 43t12 96
v598l-346 -741h-1l-347 729v-585q0 -73 10 -98q12 -28 37 -43q3 -2 6 -3h-125q1 0 2.5 1l1.5 1q28 15 39 42q10 25 12 100v466q0 81 -11 106q-13 28 -39 42q-2 1 -7 3h191zM1169 560l-5 6l5 6h-66q-3 0 -4 -4v-1q0 -2 2 -3l1 -1v0q16 -3 39 -3h28zM878 572l6 -6l-6 -6h10
q20 0 37 3q2 0 2 2l1 1l-0.5 1.5l-0.5 1.5q-1 3 -3 3h-46z" />
    <glyph glyph-name="acute" unicode="&#xb4;" horiz-adv-x="684" 
d="M273 1082l88 285h157zM261 1057l-4 6h4l4 6z" />
    <glyph glyph-name="dieresis" unicode="&#xa8;" horiz-adv-x="682" 
d="M518 1314q35 0 59.5 -25t24.5 -62t-24.5 -61.5t-59.5 -24.5t-60.5 24.5t-25.5 61.5t25.5 62t60.5 25zM165 1314q36 0 60.5 -25t24.5 -62t-25 -61.5t-59 -24.5q-35 0 -60.5 24.5t-25.5 61.5t25 62t60 25z" />
    <glyph glyph-name="plusminus" unicode="&#xb1;" horiz-adv-x="1124" 
d="M32 162v37h498v462h-498v38h498v497h32v-497h501v-38h-501v-462h502l-1 -37h-1031z" />
    <glyph glyph-name="mu" unicode="&#xb5;" horiz-adv-x="1177" 
d="M220 893h116v-509q0 -148 20 -206q16 -48 56 -77q41 -29 90 -29q119 0 236 124l-9 -9l-9 -10q-83 -99 -157 -142q-71 -42 -139 -42q-48 0 -81 19q-22 13 -55 59l-39 56l-1 -4q0 -7 -0.5 -20.5t-1 -24.5t-1.5 -21q-1 -25 -1 -46q0 -85 35 -245q13 -61 13 -100
q0 -40 -23 -64q-21 -23 -48 -23q-26 0 -44 20q-19 23 -19 66t28 159q19 75 22 108q12 113 12 181v77v703zM1060 136q-14 -60 -47 -93q-48 -50 -117 -50q-67 0 -101 49q-26 37 -34 121l-4 52l5 6v672h118v-633q0 -104 9 -137q9 -32 31 -50.5t51 -18.5q37 0 62 31q16 19 27 51
zM1068 172q2 9 2 10h-1q0 -2 -0.5 -5t-0.5 -5zM754 216l-16 -19l17 19h-1z" />
    <glyph glyph-name="logicalnot" unicode="&#xac;" horiz-adv-x="1155" 
d="M60 855h1032v-362h-32v325h-1000v37z" />
    <glyph glyph-name="guillemotleft" unicode="&#xab;" horiz-adv-x="1022" 
d="M470 8h-8l-368 448l368 446h8l-233 -446zM921 8h-8l-375 448l375 446h8l-230 -446z" />
    <glyph glyph-name="guillemotright" unicode="&#xbb;" horiz-adv-x="1022" 
d="M555 902h7l367 -448l-367 -446h-7l231 446zM102 902h9l374 -448l-374 -446h-9l232 446z" />
    <glyph glyph-name="ellipsis" unicode="&#x2026;" horiz-adv-x="2048" 
d="M341 171q37 0 62 -25.5t25 -63.5t-25.5 -63.5q-24.5 -25.5 -60.5 -25.5t-63 26q-25 25 -25 63t25.5 63.5t61.5 25.5zM1024 171q36 0 62 -25.5t26 -63.5t-26 -63.5t-62 -25.5t-62 26q-26 25 -26 63t26 63.5t62 25.5zM1707 171q36 0 61.5 -25.5t25.5 -63.5t-25.5 -63.5
q-24.5 -25.5 -60.5 -25.5t-63 26q-25 25 -25 63t25 63.5t62 25.5z" />
    <glyph glyph-name="endash" unicode="&#x2013;" horiz-adv-x="1024" 
d="M1020 472h-1016v34h1016v-34z" />
    <glyph glyph-name="emdash" unicode="&#x2014;" horiz-adv-x="2048" 
d="M2044 474h-2040v30h2039z" />
    <glyph glyph-name="quotedblleft" unicode="&#x201c;" horiz-adv-x="909" 
d="M306 1360l-2 -1q-84 -46 -121 -96q-43 -55 -43 -121q0 -40 15 -60q16 -23 39 -23q18 0 41 8q20 7 34 7q32 0 56.5 -24.5t24.5 -60.5q0 -40 -31 -69t-77 -29q-58 0 -106 52t-48 129q0 92 62 175q57 75 156 113zM769 1351q-86 -53 -116 -96q-37 -53 -37 -121q0 -35 17 -54
q18 -22 39 -22q16 0 41 9q19 7 36 7q32 0 56.5 -23.5t24.5 -58.5q0 -41 -32.5 -71.5t-79.5 -30.5q-57 0 -103.5 51t-46.5 128q0 99 61 180q51 67 140 102z" />
    <glyph glyph-name="quotedblright" unicode="&#x201d;" horiz-adv-x="909" 
d="M136 1098v1q97 56 129 104q35 51 35 119q0 36 -14 54q-16 23 -41 23q-15 0 -40 -9q-19 -7 -36 -7q-33 0 -57 24t-24 59q0 40 32.5 70.5t78.5 30.5q57 0 104 -51t47 -130q0 -98 -62 -181q-57 -72 -152 -107zM612 1097l2 2q82 44 120 95q44 56 44 122q0 42 -15 61
q-16 22 -39 22q-16 0 -42 -9q-20 -7 -33 -7q-32 0 -56.5 25t-24.5 60q0 40 31.5 69.5t75.5 29.5q59 0 107 -52q48 -53 48 -130q0 -92 -62 -175q-57 -75 -156 -113z" />
    <glyph glyph-name="quoteleft" unicode="&#x2018;" horiz-adv-x="682" 
d="M424 1359l-2 -2q-96 -60 -134 -115q-32 -46 -32 -104q0 -39 17 -59q18 -24 43 -24q11 0 35 8t37 8q31 0 55.5 -24t24.5 -61q0 -43 -23 -64q-37 -34 -86 -34q-59 0 -106 51t-47 127q0 110 83 202q50 56 135 91z" />
    <glyph glyph-name="quoteright" unicode="&#x2019;" horiz-adv-x="682" 
d="M260 898v4q98 60 135 114q31 44 31 104q0 38 -17 57q-19 24 -42 24q-15 0 -37 -8q-21 -8 -35 -8q-31 0 -56 24t-25 61q0 41 24 63q37 34 86 34q58 0 105 -50q47 -51 47 -127q0 -110 -83 -202q-48 -53 -133 -90z" />
    <glyph glyph-name="divide" unicode="&#xf7;" horiz-adv-x="1080" 
d="M540 1052q25 0 43.5 -18.5t18.5 -46.5t-18.5 -46.5t-44.5 -18.5q-25 0 -43 18.5t-18 46.5t18 46.5t44 18.5zM36 699h1008v-38h-1008v38zM540 432q26 0 44 -19t18 -47t-18.5 -47t-43.5 -19t-43.5 19t-18.5 47t18 47t44 19z" />
    <glyph glyph-name="currency" unicode="&#xa4;" horiz-adv-x="1023" 
d="M795 985l142 143l24 -24l-142 -141v-1l5.5 -6q5.5 -6 7.5 -9q98 -124 98 -267q0 -146 -98 -268q-2 -2 -4 -4.5t-4.5 -5t-3.5 -4.5l-1 -1l142 -146l-24 -22l-140 143l-17 -12q-128 -101 -256 -101q-82 0 -164 30q-78 29 -114 68l-16 16l-1 2l-146 -146l-23 22l143 146
l-14 16q-97 110 -97 265q0 149 97 268q2 2 4 4.5l4.5 5.5l4.5 5l1 1l-143 143l23 23l145 -143l16 14q49 43 125 71t145 28q66 0 137.5 -25t127.5 -74zM511 295q159 0 273 113q113 113 113 270q0 97 -52 190q-51 92 -145 143q-93 50 -188 50q-161 0 -273.5 -113.5
t-112.5 -270.5q0 -156 113 -269t272 -113z" />
    <glyph glyph-name="guilsinglleft" unicode="&#x2039;" horiz-adv-x="680" 
d="M524 8h-7l-368 448l368 446h7l-232 -446z" />
    <glyph glyph-name="guilsinglright" unicode="&#x203a;" horiz-adv-x="681" 
d="M153 902h9l374 -448l-374 -446h-9l231 446z" />
    <glyph glyph-name="daggerdbl" unicode="&#x2021;" horiz-adv-x="1024" 
d="M512 571q-7 74 -30 136q-18 50 -54 93q35 30 52 61q18 33 30 88q8 -52 26 -84t56 -66q-41 -65 -61 -132q-13 -42 -19 -96zM510 448v36q0 24 1 46q1 -18 1 -36q0 -23 -2 -46zM511 27q-10 54 -28 84q-18 29 -57 64q39 55 57 107q20 58 27 127q6 -59 20 -101q19 -62 63 -133
q-37 -35 -55 -67q-17 -30 -27 -81zM511 1052q-2 17 -7 31q-18 61 -44 132q-20 54 -23 57q-3 15 -3 39q0 41 22 65q22 23 55 23t53 -22t20 -70q0 -27 -4.5 -45.5t-34.5 -86.5q-25 -58 -34 -123zM510 -67q8 -44 12 -58q8 -28 21 -60q47 -108 47 -154q0 -35 -22 -58.5
t-55 -23.5q-32 0 -54.5 24t-22.5 61q0 21 6 44q5 20 40 113q19 55 28 112zM512 -25l-1 -10h-1v-5v-5l-1 4v2.5q0 2.5 -0.5 3.5t-0.5 3v3v3v1h-2l1 4v1l-2 2l-1 2v1q2 0 2 -1h2l2 18v8h1l1 -8l4 -18h1q1 0 1 -0.5t1 -0.5v-1h19v-1q0 -1 -0.5 -1t-2 -0.5t-2.5 -0.5
q-3 -1 -8 -1.5t-7 -1.5l-4 -1h-2zM570 -18q15 3 23 5q20 6 74 29q81 34 125 34q31 0 50.5 -18t19.5 -47q0 -31 -19.5 -51t-49.5 -20q-35 0 -117 36q-48 21 -78 28q-9 2 -28 4zM514 991l-3 -15h-1v-4v-4v4v4h-1l-1 15l-19 3h-1q-1 2 0 2l17 2h3v1v3v3q0 1 0.5 3t0.5 4v3l1 6
l1 -7l-1 -16h3l-1 -1l20 -1q1 0 0.5 -1l-0.5 -1v0zM574 994q12 2 25 5q30 7 80 29q74 32 116 32q30 0 48.5 -17.5t18.5 -46.5q0 -30 -20 -49q-19 -19 -51 -19q-45 0 -116 32q-56 25 -75 29zM448 993q-13 -2 -22 -4q-19 -5 -90 -33q-65 -26 -109 -26q-28 0 -46.5 18t-18.5 49
q0 28 18 45.5t46 17.5q43 0 122 -33q47 -19 80 -28q13 -5 20 -6zM471 -16q8 -1 17 -1q1 0 4 1q2 1 3 0q-1 0 -3 1h-4q-9 0 -17 -1zM471 -16q-36 -3 -59 -8q-28 -7 -76 -29q-72 -33 -104 -33q-31 0 -49.5 17.5t-18.5 47.5q0 33 19 51q20 20 54 20q35 0 104 -31q49 -22 80 -29
q20 -4 50 -6zM495 -16v1v-1zM510 10h1h-1zM511 10v1v-1zM496 -16q1 0 3 -1h4h1l-1 2h-1q-1 0 -3 -1h-3zM496 -16v0v0zM513 998q1 0 2 1t1 0l-1 1z" />
    <glyph glyph-name="quotesinglbase" unicode="&#x201a;" horiz-adv-x="681" 
d="M130 -315l2 1q97 36 154 108q61 78 61 164q0 27 -13 44q-3 4 -10 11h-1v1q-11 6 -20 6q-16 0 -58 -22q-13 -7 -28 -7q-40 0 -62.5 23t-22.5 66q0 41 30 70q31 30 77 30q57 0 102 -51q46 -51 45 -139q0 -97 -66 -180q-62 -78 -190 -125z" />
    <glyph glyph-name="quotedblbase" unicode="&#x201e;" horiz-adv-x="909" 
d="M159 -278q79 49 108 92q35 52 35 120q0 37 -14 56q-17 24 -43 24q-16 0 -41 -9q-19 -7 -35 -7q-32 0 -55.5 23t-23.5 57q0 39 31 68q32 31 78 31q55 0 102 -51t47 -127q0 -97 -62 -179q-48 -63 -127 -98zM651 -269q56 36 85 74q44 55 44 123q0 43 -15 63q-17 23 -41 23
q-17 0 -43 -9q-20 -7 -32 -7q-31 0 -55 24t-24 58q0 39 30 67q31 30 75 30q58 0 105 -51q48 -52 48 -128q0 -93 -62 -174q-43 -57 -115 -93zM137 -291v1l5 3q-1 0 -3 -0.5t-3 -0.5v-2v0zM614 -290v1q2 1 7 4l4 2l-4 -2q-5 -2 -8 -3l-1 -1v-1h0.5h1.5zM625 -283q2 1 3 1
q-1 0 -3 -1z" />
    <glyph glyph-name="perthousand" unicode="&#x2030;" horiz-adv-x="1927" 
d="M1055 1364l-820 -1399l-32 1l820 1399zM353 1364q70 0 132 -41t98 -121q37 -83 37 -183q0 -161 -80 -250q-79 -89 -183 -89q-68 0 -131 41t-100 117q-38 80 -38 182q0 99 38 184q37 82 98 121q60 39 129 39zM254 747q39 -61 101 -61q59 0 98 63q53 84 53 279
q0 185 -52 264q-41 63 -105 63q-39 0 -65 -21q-40 -33 -58 -98q-24 -79 -24 -219q0 -190 52 -270zM908 650q66 0 128 -41q61 -40 98 -120q38 -83 38 -177q0 -105 -37 -186q-36 -78 -101 -119t-129 -41q-102 0 -183 90q-82 91 -82 250q0 101 38 185q36 80 102 119
q65 40 128 40zM804 37q39 -60 99 -60q61 0 101 61q54 81 54 265q0 192 -55 276q-40 62 -99 62q-39 0 -69 -24q-41 -34 -61 -102q-20 -66 -20 -215q0 -185 50 -263zM1570 650q62 0 128 -40q65 -39 102 -116q36 -79 36 -174q0 -116 -34 -195q-34 -76 -99 -117
q-65 -42 -131.5 -42t-128.5 41q-62 40 -98 117q-37 80 -37 175q0 113 37 196q36 81 100 117q65 38 125 38zM1574 -23q39 0 68 24q40 33 61 105q21 66 21 221q0 178 -52 253q-41 61 -102 61q-63 0 -99 -58q-49 -78 -49 -279q0 -189 50 -266q39 -61 102 -61z" />
    <glyph glyph-name="Acircumflex" unicode="&#xc2;" horiz-adv-x="1435" 
d="M474 1507h1v-1h1h1v-1v-1h1v-3l-17 -30l-14 24h13l12 10l0.5 0.5l0.5 0.5zM965 1495h15l-13 -24l-23 39l20 -15h1zM790 1781l144 -259l-244 195l-189 -180l135 244h154zM924 475h-543l-96 -223q-36 -83 -36 -123.5t35 -69.5q23 -18 70 -28h-303q55 14 78 35
q55 52 118 204l461 1105h3l456 -1117q57 -139 108 -184q35 -31 84 -43h-396q33 8 54 25q34 27 34 68v1v1q0 46 -41 145zM391 505h524l-259 632zM934 28q-9 -3 -19 -4l1 2l-1 2h19zM1384 28h15l-1 -3l1 -1q-8 1 -15 4zM25 28l-1 0.5l-1 0.5l7 -1q-1 0 -3.5 -2t-4.5 -3
q0 1 1.5 1.5t1.5 1.5l1 1zM385 28h19l-1 -3l1 -1q-10 1 -19 4z" />
    <glyph glyph-name="Aacute" unicode="&#xc1;" horiz-adv-x="1435" 
d="M631 1485h4l5 6l-4 -13zM1012 271l-86 204h-543l-96 -223q-36 -83 -36 -123.5t35 -69.5q23 -18 70 -28h-303q55 14 78 35q55 52 118 204l461 1105h3l456 -1117q57 -139 108 -184q35 -31 84 -43h-396q33 8 54 25q34 27 34 68v1v1q0 46 -41 145zM917 505l-259 632
l-265 -632h524zM936 28q-9 -3 -19 -4l1 2l-1 2h19zM1386 28h15l-1 -3l1 -1q-8 1 -15 4zM27 28l-1 0.5l-1 0.5l7 -1q-1 0 -3.5 -2t-4.5 -3q0 1 1.5 1.5t1.5 1.5l1 1zM387 28h19l-1 -3l1 -1q-10 1 -19 4zM647 1504l84 281h151z" />
    <glyph glyph-name="Edieresis" unicode="&#xcb;" horiz-adv-x="1200" 
d="M1042 1085l-1 -1q0 1 -0.5 4t-0.5 5v11l4 -19l-1 2zM377.5 1672q23.5 25 57.5 25q35 0 59 -25t24 -61t-24.5 -60.5t-57.5 -24.5q-34 0 -58 24.5t-24 60.5t23.5 61zM718.5 1672q24.5 25 58.5 25t57.5 -25t23.5 -61t-23.5 -60.5t-57.5 -24.5t-58.5 24.5t-24.5 60.5t24.5 61
zM769 1307h-381v-579h313q121 0 166 41q37 34 53 100v-324q-8 47 -18 67q-22 43 -68 66t-134 23h-312v-467q0 -94 10 -119t35.5 -40t85.5 -15h221q114 0 169 17q57 17 107 67q50 49 102 141l-85 -253h-890q15 5 37 17q41 22 54 59q14 37 14 140v874q0 138 -33 174
q-23 26 -60 38h871l12 -213q-16 67 -40 103q-29 44 -85 67q-40 16 -144 16zM50 1341h30q20 0 36 -2q1 0 1 -1v0v-1q0 -1 -1 -1h-66v5zM50 25v5h58v-1.5v-1.5q-13 -2 -28 -2h-30zM926 931v-1q-1 -9 -1 -17v0l-1 -1v1v18h2z" />
    <glyph glyph-name="Iacute" unicode="&#xcd;" horiz-adv-x="654" 
d="M258 1510l86 284h154zM596 30v-5h-30q-16 0 -30 2v0v0v1v1q0 1 1 1h59zM152 1334h345q-43 -14 -69 -48q-30 -38 -30 -168v-869q0 -106 16 -144q13 -33 50 -55q20 -12 38 -18l-345 1q44 14 70 48q29 37 29 168v868q0 106 -16 145q-13 33 -49 54q-22 12 -39 18zM596 1341
v-5h-63q-2 0 -1.5 1.5l0.5 1.5v0q17 2 34 2h30zM60 1341h27q15 0 30 -2v0l0.5 -1.5q0.5 -1.5 -0.5 -1.5h-57v5zM60 25v5h61l0.5 -1.5q0.5 -1.5 -0.5 -1.5v0q-16 -2 -34 -2h-27z" />
    <glyph glyph-name="Icircumflex" unicode="&#xce;" horiz-adv-x="654" 
d="M73 1504l11 10l0.5 0.5l0.5 0.5v1q1 -1 3 -1l0.5 -0.5q0.5 -0.5 1 -0.5t0.5 -1h1l-1 -3v0l-17 -30l-14 24h14v0zM584 1480l-12 24v2l1 2v0v1v0h1v0l1 1q1 0 1 -1q1 -1 2 -1l5 -4h17zM406 1790l147 -259l-247 195l-193 -181l138 245h155zM598 30v-5h-31q-15 0 -28 2h-1
q-1 0 -1 1v0q0 1 1 1v1h60zM153 1334h345q-43 -14 -69 -48q-28 -37 -28 -159v-4v-5v-869q0 -107 14 -144q12 -32 50 -55q20 -12 39 -18l-345 1q43 14 69 48q29 37 30 168v868q0 105 -16 145q-13 33 -50 54q-22 12 -39 18zM598 1341v-5h-64q-2 0 -1.5 1.5l0.5 1.5v0
q17 2 34 2h31zM60 1341h28q15 0 30 -2v0l0.5 -1.5q0.5 -1.5 -0.5 -1.5h-58v5zM60 25v5h62l0.5 -1.5q0.5 -1.5 -0.5 -1.5v0q-16 -2 -34 -2h-28z" />
    <glyph glyph-name="Oacute" unicode="&#xd3;" horiz-adv-x="1435" 
d="M411 153q112 -146 298 -146q197 0 325 159t128 493q0 363 -140 542q-114 146 -314 146q-188 0 -302 -145q-140 -177 -140 -515q0 -346 145 -534zM297 1201q181 175 430 175q246 0 431 -197q186 -198 186 -493q0 -304 -187 -505t-446 -201q-261 0 -444 196
q-183 197 -183 507q0 318 213 518zM630 1485h3v0l5 6l-4 -12zM638 1491l5 6l242 292h-158l-86 -291z" />
    <glyph glyph-name="Ocircumflex" unicode="&#xd4;" horiz-adv-x="1435" 
d="M1034 166q128 159 128 493q0 363 -140 542q-114 146 -314 146q-188 0 -302 -145q-140 -177 -140 -515q0 -345 145 -534q112 -146 298 -146q197 0 325 159zM727 1376q246 0 431.5 -197t185.5 -493q0 -305 -187 -505.5t-446 -200.5q-262 0 -444.5 195.5t-182.5 507.5
q0 316 213 519q183 174 430 174zM787 1782l145 -259l-243 195l-189 -181l135 245h152zM963 1495h14l-14 -23l-20 37l19 -14h1zM472 1507h3l2 -1q1 -1 0 -2q-1 -2 0 -2l-17 -30l-14 23h14z" />
    <glyph glyph-name="Uacute" unicode="&#xda;" horiz-adv-x="1425" 
d="M643 1513l83 281h151zM962 1336v5h31q17 0 32 -2v0l0.5 -1.5q0.5 -1.5 -0.5 -1.5h-63zM628 1494h3l6 7l-5 -14zM121 1330h337q-44 -15 -70 -54q-30 -44 -30 -163v-595q0 -81 16 -187q15 -106 55 -168t114 -102q75 -40 182 -40q135 0 243 62t148 159t40 318v553
q0 137 -33 175q-24 29 -63 42h244q-49 -17 -82 -68q-26 -38 -26 -157v-554q0 -201 -37 -309t-145.5 -184.5t-300.5 -76.5q-209 0 -314 73t-150 197q-31 87 -31 329v533q0 135 -40 180q-22 25 -57 37zM556 1341v-5h-63q-2 0 -1.5 1.5l0.5 1.5v0q15 2 32 2h32zM20 1341h31
q18 0 34 -2v0l0.5 -1.5q0.5 -1.5 -0.5 -1.5h-65v5zM1396 1341v-5h-60l-1 1v0.5v1.5v0v0q14 2 28 2h33z" />
    <glyph glyph-name="dotlessi" unicode="&#x131;" horiz-adv-x="545" 
d="M111 855l216 88h15v-723q0 -93 16 -127q16 -35 44 -51q7 -4 16 -7h-269q10 3 15 6q27 15 44 52q16 36 16 128v358q0 154 -10 201q-9 41 -30 59q-22 18 -56 17q-8 0 -17 -1zM83 847l-8 -4l1 2h-2h-1q3 1 4 1q4 1 6 1zM114 29q1 0 1 -1l-1 -1q-16 -2 -37 -3h-2l2 3l-2 2h39
zM452 27v2h38l-3 -2l3 -3h-3q-19 1 -35 3v0z" />
    <glyph glyph-name="circumflex" unicode="&#x2c6;" horiz-adv-x="681" 
d="M263 1362h156l150 -260l-251 196l-195 -182zM70 1073h12l12 12l1 1h2q0 -1 1 -1l1 -1v0q0 -1 1 -2l-1 -1v0l-17 -31zM616 1073l-16 -23l-12 24v2v2v0l1 1l1 1h2q1 -1 2 -1l6 -6h16z" />
    <glyph glyph-name="breve" unicode="&#x2d8;" horiz-adv-x="680" 
d="M605 1334q0 -1 -1 -1v0q-1 0 -1 1q1 5 1 6v1h4zM596 1310q-18 -81 -76 -137q-76 -73 -179 -73q-101 0 -176 72q-61 58 -79 142q29 -42 64 -63q78 -45 193 -45t191 44q38 23 62 60zM77 1345v-3q0 -4 2 -8v-1.5l-1 -0.5l-2 1l-1 5h-4z" />
    <glyph glyph-name="dotaccent" unicode="&#x2d9;" horiz-adv-x="682" 
d="M342 1314q35 0 60.5 -25t25.5 -62t-25.5 -62t-60.5 -25t-60.5 25t-25.5 62t25 62t61 25z" />
    <glyph glyph-name="ring" unicode="&#x2da;" horiz-adv-x="682" 
d="M341 1401q70 0 119.5 -49t49.5 -119q0 -71 -49.5 -121t-119.5 -50q-69 0 -118 49t-49 122q0 70 48.5 119t118.5 49zM238 1130.5q42 -42.5 103 -42.5t103 42.5t42 101.5q0 60 -42 102t-103 42t-103 -42.5t-42 -101.5t42 -101.5z" />
    <glyph glyph-name="cedilla" unicode="&#xb8;" horiz-adv-x="682" 
d="M372 -4h10l-44 -71l2 -1q3 -1 8 -2t9.5 -2t8.5 -2q57 -15 83 -48q25 -32 25 -79q0 -64 -52 -112q-54 -50 -141 -50q-29 0 -73 6v3q15 -2 27 -2q60 0 101.5 39.5q41.5 38.5 41.5 90.5q0 39 -30 68q-24 24 -59 28zM274 -157l-9 16h18z" />
    <glyph glyph-name="hungarumlaut" unicode="&#x2dd;" horiz-adv-x="681" 
d="M477 1367h126l-179 -286zM164 1367h125l-178 -283zM102 1056l-5 6h3l2 3v0q0 1 1 1v0q1 0 1 -0.5v-1.5z" />
    <glyph glyph-name="ogonek" unicode="&#x2db;" horiz-adv-x="682" 
d="M238 -7h7q-15 -37 -15 -75q0 -94 61 -150q77 -69 177 -69q44 0 91 13q-57 -31 -89 -41q-43 -13 -93 -13q-101 0 -154 49q-51 47 -51 114q0 48 19 98q19 45 47 74zM572 -283l5 1l1 2q-1 0 -3 -1.5t-3 -1.5z" />
    <glyph glyph-name="caron" unicode="&#x2c7;" horiz-adv-x="681" 
d="M70 1365l12 23l23 -39l-21 16h-14zM616 1365h-14l-13 -12v0h-3h-1l-1 1q-1 1 0 2v1h-1l17 31zM420 1077h-156l-149 260l250 -195l195 180zM583 1357v0v0z" />
    <glyph glyph-name="Lslash" unicode="&#x141;" horiz-adv-x="1206" 
d="M1032 166q46 49 76 101l-72 -235h-905q21 7 39 16q40 21 55 60q15 38 15 143v345l-206 -165v32l206 172v478q0 118 -14 151q-13 32 -53 56q-16 9 -32 14h335q-21 -7 -35 -16q-37 -25 -53 -81q-10 -30 -10 -123v-359l222 186v-33l-222 -191v-461q0 -93 14 -123t50 -46
q25 -14 121 -14h148q141 0 195 16q75 23 126 77zM596 1341v-5h-80v1.5v1.5v0q18 2 39 2h41zM44 1341h23q19 0 36 -2v0q1 0 1 -1v0v-1q0 -1 -1 -1h-59v5zM44 25v5h52v-1.5v-1.5v0q-14 -2 -29 -2h-23z" />
    <glyph glyph-name="lslash" unicode="&#x142;" horiz-adv-x="546" 
d="M121 1314l221 95h2v-634l172 141v-24l-172 -142v-534q0 -101 14 -129t45 -44q11 -5 22 -9h-271q10 4 19 9q28 16 41.5 48.5t13.5 136.5v429l-186 -153v23l186 154v365q0 148 -10 192q-7 34 -32 55q-24 21 -56 21h-2h-2h-5zM125 27l1 -1q0 -2 -2 -2q-19 -4 -46 -4h-11l3 4
l-3 5zM516 21h-19h-1h-1q-19 1 -36 3v0v0v1v1v2l1 1h34v14z" />
    <glyph glyph-name="Scaron" unicode="&#x160;" horiz-adv-x="919" 
d="M708 1377q0 -6 -2 -12q0 3 1 8q0 1 -0.5 2.5t-0.5 2.5l1 -2zM147 -21v-1v1zM152 369q22 -113 58 -178q33 -75 101 -126t146 -51q92 0 149.5 74t57.5 176q0 56 -22 111q-22 56 -68 106q-32 35 -155 132q-121 97 -174 154t-80 124t-27 147q0 137 80.5 237.5t198.5 100.5
q73 0 158 -52q46 -29 66 -29q27 0 44 21q11 15 19 38v-355q-16 94 -52 165q-34 77 -95.5 126.5t-125.5 49.5q-75 0 -128 -71.5q-53 -72.5 -53 -164.5q0 -70 37 -128q51 -82 218 -210q138 -105 187 -157t75.5 -122q26.5 -69 26.5 -147q0 -147 -88 -253.5t-220 -106.5
q-40 0 -79 9q-24 6 -99 38q-74 32 -98 33q-28 0 -44 -22q-8 -12 -14 -35v366zM149 401v1v-1zM404 1498l-98 256l163 -192l128 177l-92 -241h-101zM282 1785h-10l10 24l14 -39l-13 15h-1zM617 1773h-1l-1 1l-1 3v0l11 32l11 -24h-9l-9 -10l-0.5 -0.5zM147 -21l1 2l1 -2h-1h-1
zM149 401l-1 -2v1z" />
    <glyph glyph-name="scaron" unicode="&#x161;" horiz-adv-x="659" 
d="M509 944v0v0zM115 4v238q25 -106 78 -168q63 -76 145 -76q60 0 98.5 49t38.5 118q0 82 -40 135q-40 54 -151 128q-109 73 -142 130q-31 53 -31 134q0 108 55 179.5t143 71.5q39 0 96 -22q42 -16 60 -16t28 9q7 6 13 19v-221q-27 113 -67 161q-47 58 -123 58
q-58 0 -96 -45t-38 -103q0 -64 29 -113q28 -48 104 -97l114 -74q147 -96 147 -249q0 -118 -69.5 -191t-157.5 -73q-67 0 -149 29q-31 11 -48 11q-22 0 -37 -22zM532 1388l-10 -11h-1v0q-1 -1 -2 -1h-1q-1 1 -2 1v1q0 2 -1 2v0l17 31l14 -23h-13h-1zM127 1411l14 -23v-2v-1
v-1l-2 -2h-2q-1 1 -2 1l-6 5v0h-15zM274 1101l-115 257l188 -193l146 179l-108 -243h-111zM112 278q0 -1 -1 -1h-1q-2 7 -3 14v3l3 -2l2 2v-16zM509 664v14v2q1 0 1.5 -0.5l0.5 -0.5l3 -10z" />
    <glyph glyph-name="Zcaron" unicode="&#x17d;" horiz-adv-x="1204" 
d="M165 1092l20 241h914l-868 -1274h581q134 0 206 59q58 47 103 162l-45 -259h-1038l-1 6l870 1269h-463q-109 0 -162 -26t-81 -75q-20 -35 -36 -103zM156 1038l-1 -2q1 1 1 2zM868 1784l-12 -11l-0.5 -0.5l-0.5 -0.5h-3l-1 1l-1 1v2h1l17 31l12 -23h-12zM369 1807l19 -38
l-19 15h-15zM543 1498l-143 258l241 -194l187 179l-135 -243h-150zM1140 343l-6 -19v-1q-2 0 -2 1l4 24zM156 1038v2q1 3 1 5v-7v1z" />
    <glyph glyph-name="zcaron" unicode="&#x17e;" horiz-adv-x="844" 
d="M666 1364h-2l-2 2v0v2v0v1l17 30l12 -23h-12l-12 -11zM207 1374q0 -1 -1 -2v0l-1 -1l-1 -1h-2l-1 1l-6 5h-14l12 24l13 -25v-1h1zM365 1090l-140 257l231 -194l183 179l-132 -242h-142zM766 139q6 13 11 31l-5 -146h-718l-1 5l592 841h-320q-95 0 -131 -15t-59 -58
q-16 -29 -25 -66l4 165h686v-6l-603 -843h352q106 0 149 21q43 20 68 71zM104 686v-1v-2q0 3 1.5 7.5t1.5 7.5v-12l-2 1z" />
    <glyph glyph-name="brokenbar" unicode="&#xa6;" horiz-adv-x="410" 
d="M220 1398v-694h-36v694h36zM220 276v-694h-36v694h36z" />
    <glyph glyph-name="Yacute" unicode="&#xdd;" horiz-adv-x="1414" 
d="M677 1513l83 281h149zM661 1494h4l5 6l-4 -13zM72 1334h412q-18 -6 -36 -17q-47 -28 -47 -87q0 -41 63 -142l294 -472l272 453q61 101 61 152v2q0 33 -17 62q-17 28 -46 42q-6 3 -15 6l308 1q-10 -4 -35 -16q-54 -26 -95 -71q-40 -43 -101 -142l-316 -517v-344
q0 -134 33 -171q24 -27 61 -40h-330q45 15 70.5 51.5t25.5 159.5v325l-1 1l-363 570q-65 99 -91 127q-25 27 -103 65q-1 0 -2 1t-2 1zM558 1341v-5h-39q-1 0 -1.5 1.5t0.5 1.5v0q14 2 28 2h12zM28 1341q9 -1 16 -2v0v-1.5v-1.5h-16v5zM443 25v5h61v-1.5v-1.5v0
q-16 -2 -33 -2h-28zM962 25h-24q-18 0 -34 2v0v0v1v1q0 1 1 1h57v-5zM952 1341h3q13 0 25 -2l0.5 -0.5l0.5 -0.5q0 -2 -1 -2h-23zM1376 1341v-5h-26v1v2q9 2 20 2h6z" />
    <glyph glyph-name="yacute" unicode="&#xfd;" horiz-adv-x="946" 
d="M406 1096l80 283h142zM29 881l-5 3v-3h5zM922 883v1l1 -1h-1zM899 880q-11 -4 -24 -13q-23 -15 -45 -49q-10 -15 -36 -81l-351 -914q-50 -129 -122 -191q-73 -63 -144 -63q-48 0 -77.5 28t-29.5 63q0 33 19.5 51.5t57.5 18.5q26 0 78 -21q40 -16 54 -16q36 0 75 36
q37 35 72 130l63 167v0l-310 698q-14 31 -49 81q-29 41 -44 52q-16 11 -48 23h296q-14 -6 -25 -16q-27 -25 -27 -66q0 -44 31 -117l226 -510l212 555q18 48 18 89q0 24 -11.5 40.5t-30.5 24.5h172zM391 1077h3l6 7l-4 -14zM676 886v5h1q7 0 14 -1q1 0 1 -1v-1v-1q0 -1 -1 -1
h-15zM385 891h3v-5h-22v2v2q9 1 19 1zM923 883q-1 -1 1 -1z" />
    <glyph glyph-name="multiply" unicode="&#xd7;" horiz-adv-x="1109" 
d="M182 320l345 361l-344 360l25 25l341 -360l341 360l23 -24l-343 -360l345 -362l-24 -25l-343 362l-342 -361z" />
    <glyph glyph-name="Scedilla" unicode="&#x15e;" horiz-adv-x="959" 
d="M750 1377q0 -6 -2 -12q0 3 1 8q0 1 -0.5 2.5t-0.5 2.5l1 -2zM149 -21v-1v1zM154 374q22 -114 58 -181q31 -76 99 -127q71 -52 156 -52q99 0 159 73q80 74 80 176q0 56 -24 112t-74 106q-39 38 -163 131q-137 102 -191 156q-56 56 -85 123t-29 146q0 137 86 238t213 101
q79 0 168 -52q48 -29 72 -29q30 0 47 21q12 14 20 38v-356q-18 95 -54 165q-36 76 -104 127q-67 50 -139 50q-82 0 -139 -72q-58 -72 -58 -164q0 -70 40 -128q54 -82 234 -210q147 -104 200 -157q53 -52 81.5 -122q28.5 -69 28.5 -147q0 -146 -112 -253t-281 -107h-27
l-10 -26l9 26l-16 2q-14 2 -31 7q-21 6 -80 36q-65 34 -86 34q-24 0 -36 -21q-8 -12 -12 -31v367zM151 406v1v-3.5q1 -2.5 1 -4.5v-10l-4 18l1 -2zM363 -176l-9 23h16zM149 -21l1 2l1 -3l-1 1h-1zM392 -90l14 44l-14 -43v-1zM392 -89l25 -8q45 -15 65 -47t20 -77
q0 -63 -34.5 -110.5t-91.5 -47.5q-24 0 -34 2q32 0 54 40t22 93q0 39 -16 67q-12 22 -29 27z" />
    <glyph glyph-name="scedilla" unicode="&#x15f;" horiz-adv-x="659" 
d="M509 944v0v0zM236 -376q22 7 38 39q21 41 21 94q0 40 -15 68q-12 23 -28 28l18 61l27 -8q46 -15 68.5 -46.5t22.5 -77.5q0 -62 -37 -110.5t-96 -48.5q-9 0 -19 1zM249 -149l-6 -23l-8 23h14zM112 286q0 -1 -1 -1h-1q-2 7 -3 14v3l3 -2l2 2v-16zM509 664v14v2
q1 0 1.5 -0.5l0.5 -0.5l3 -10zM225 -376v0zM225 -376l-0.5 0.5l-0.5 0.5h-12v0q2 0 6.5 -0.5t6.5 -0.5zM270 -86l4 10zM274 -76l18 63h-1l-14 2q-44 4 -97 29q-21 10 -35 10h-2q-17 0 -29 -22l1 243q25 -106 78 -170q64 -78 145 -78q60 0 98.5 49t38.5 117q0 82 -40 135
q-40 54 -151 127q-109 73 -142 130q-31 53 -31 134q0 108 55 179t143 71q39 0 96 -22q42 -16 60 -16t28 9q7 6 13 19v-221q-27 111 -67 160q-47 59 -123 59q-58 0 -96 -45t-38 -102q0 -65 29 -114q27 -46 104 -96l114 -74q147 -96 147 -248q0 -118 -86 -191
q-83 -70 -186 -73h-4h-4h-1z" />
    <glyph glyph-name="Cacute" unicode="&#x106;" horiz-adv-x="1317" 
d="M1175 1363l25 -361q-62 168 -168 254q-114 92 -278 92q-137 0 -248.5 -73t-175.5 -231.5t-64 -388.5q0 -191 61 -334.5t181 -220t273 -76.5q133 0 236 58q81 46 168 152q-79 -113 -177 -175q-125 -79 -299 -79q-312 0 -489 245q-134 186 -134 432q0 201 88 368
q89 168 238 259q149 92 325 92q137 0 270 -72q47 -25 71 -25q38 0 63 27q21 22 34 57zM1178 1377l1 1l-2 -1h1v0zM661 1504l83 282h150zM646 1485h4l4 5l-4 -11zM1179 1379v0v0z" />
    <glyph glyph-name="cacute" unicode="&#x107;" horiz-adv-x="802" 
d="M637 170q36 35 67 99q-36 -120 -107 -192q-89 -91 -192 -91q-123 0 -223 128t-100 349q0 215 110 347.5t252 132.5q109 0 181.5 -66t72.5 -133q0 -28 -18 -45t-52 -17q-48 0 -71 30q-13 17 -17 76q-5 59 -40 97q-34 38 -90 38q-88 0 -142 -87q-72 -108 -72 -284
q0 -178 75 -317q75 -140 200 -140q89 0 166 75zM356 1088l4 7q1 0 1 1v0l1 -1l-2 -12zM725 336v2l5 -5l-8 -16v0h-2v0h1zM369 1114l66 276h132z" />
    <glyph glyph-name="Ccaron" unicode="&#x10c;" horiz-adv-x="1317" 
d="M1175 1363l25 -361q-62 169 -171 256q-112 90 -275 90q-137 0 -248.5 -73t-175.5 -231t-64 -389q0 -192 61 -335t181 -219.5t273 -76.5q133 0 229 54q85 48 173 152q-79 -110 -183 -175q-118 -75 -291 -75q-312 0 -489 245q-134 186 -134 432q0 201 88 368t237.5 259
t325.5 92q137 0 270 -72q47 -25 71 -25q38 0 63 27q21 22 34 57zM1178 1377l1 1l-2 -1h1v0zM657 1498l-143 259l240 -194l187 180l-134 -245h-150zM483 1785h-15l13 23l23 -39l-20 16h-1zM969 1773h-3q-1 1 -2 1v1q0 1 -1 1q1 1 1 2l17 30l14 -23h-14zM1179 1379v0v0z" />
    <glyph glyph-name="ccaron" unicode="&#x10d;" horiz-adv-x="689" 
d="M542 1388l-12 -12h-2q-1 1 -2 1l-1 1q-1 1 0 2v0q1 1 0 2l19 30l12 -24h-13h-1zM212 1412l7 -25v0l1 -1q0 -2 -2 -3v-1h-2v0l-3 5l-1 1h-8zM310 1101l-78 255l129 -191l140 176l-111 -240h-80zM612 336v2l4 -5l-7 -16h-2zM540 170q27 34 51 97q-30 -119 -87 -190
q-73 -91 -158 -91q-101 0 -183 128q-81 128 -81 349q0 215 90 347.5t206 132.5q89 0 147.5 -66t58.5 -133q0 -28 -17.5 -45t-51.5 -17q-48 0 -71 30q-14 17 -18 76q-4 60 -26 97q-23 38 -59 38q-59 0 -96 -87q-49 -108 -49 -284q0 -178 58 -317q58 -140 157 -140
q69 0 129 75zM216 1382v0h1h-1z" />
    <glyph glyph-name="dslash" unicode="&#x111;" 
d="M944 89v0l-14 -4h-1q0 1 1 2l13 6zM674 832v277h-278v35h278l-1 2v9q0 9 -1 14q-4 104 -24 133q-21 30 -64 30q-6 0 -12 -1l200 85h18v-272h153v-35h-153v-746q0 -167 9 -209q8 -42 31 -62t53 -20q5 0 10 1l-203 -87h-16v169l-40 -45q-60 -66 -118 -95q-57 -29 -121 -29
q-133 0 -239 122.5t-106 318t118 356.5q119 161 292 161q104 0 174 -72zM186 507q0 -218 93 -338q92 -120 204 -120q96 0 184 102l2 2l2 2l2 2l1 1l-2 501q-6 76 -36.5 139.5t-83 97t-103.5 33.5q-92 0 -166 -91q-97 -117 -97 -331z" />
    <glyph glyph-name="periodcentered" unicode="&#xb7;" horiz-adv-x="682" 
d="M600 785q34 0 58 -23.5t24 -60.5q0 -34 -24.5 -58t-57.5 -24t-57.5 24t-24.5 58q0 35 24 59.5t58 24.5z" />
    <glyph glyph-name="Abreve" unicode="&#x102;" horiz-adv-x="1435" 
d="M455 1751h-4l6 6l1 -2v-8v-1h-1v0h-1zM975 1752q-2 -5 -4 -9v-1h-1q-1 0 -1 1l2 12v0v2zM904 1664q36 22 58 55q-19 -80 -77 -137q-71 -70 -171 -70q-99 0 -169 69q-61 60 -80 146q28 -41 63 -62q76 -46 188 -46q113 0 188 45zM1021 271l-85 204h-543l-96 -223
q-35 -82 -35 -124q0 -41 34 -69q22 -18 70 -28h-303q55 14 78 35q55 51 118 204l462 1104h2l456 -1116q57 -139 108 -184q35 -31 84 -43h-396q33 8 54 25q34 27 33 68v1v1q0 46 -41 145zM927 505l-258 631l-266 -631h524zM946 28q-9 -3 -19 -4l1 2l-1 2h19zM1396 28h15
l-1 -3l1 -1q-8 1 -15 4zM37 28l-1 0.5l-1 0.5l7 -1q-1 0 -3.5 -2t-4.5 -3q0 1 1.5 1.5t1.5 1.5l1 1zM397 28h19l-1 -3l1 -1q-10 1 -19 4z" />
    <glyph glyph-name="abreve" unicode="&#x103;" horiz-adv-x="863" 
d="M848 134q0 1 -1 1zM240 376q-38 -54 -38 -119q0 -82 50 -137.5t113 -55.5q78 0 201 108l8 6v401l-32 -14q-152 -68 -184 -88q-81 -48 -118 -101zM574 173l-37 -31q-129 -108 -161 -124q-45 -23 -100 -23q-85 0 -139.5 60t-54.5 161q0 61 27 107q40 66 136 126
q94 58 315 149l4 2l4 1l5 2h1v54q0 151 -46.5 211.5t-134.5 60.5q-66 0 -110 -40q-47 -42 -47 -94v-3l1 -1h1v-13.5v-22.5l2 -23v0q0 -35 -17.5 -54t-44.5 -19q-26 0 -43 19t-17 56q0 76 80.5 142.5t221.5 66.5q106 0 175 -39q53 -30 77 -89q14 -38 14 -173v-323
q0 -138 7 -174t24 -52t42 -16q22 0 40 11q12 7 24 19q-90 -111 -169 -111q-38 0 -59 27t-21 101v49zM614 1265q39 23 61 58q-18 -80 -79 -138q-71 -69 -164 -69q-94 0 -165 69q-62 59 -80 143q28 -40 64 -62q77 -46 182 -46q106 0 181 45zM687 1354l-3 -7h-1q-1 0 -1 0.5
v1.5v4v1h5zM176 1352h-3l5 6v-2l2 -8v-0.5q0 -0.5 -0.5 -0.5h-1h-0.5zM238 791v0l1 1h-1v-1z" />
    <glyph glyph-name="Aogonek" unicode="&#x104;" horiz-adv-x="1434" 
d="M386 28h19l-1 -3l1 -1q-10 1 -19 4zM27 28l-1 0.5l-1 0.5l7 -2q-1 0 -4 -2q-1 0 -1.5 -0.5l-0.5 -0.5q1 1 1 2l1 1zM1385 28h15l-1 -3l1 -1q-8 1 -15 4zM935 28l-18 -4l1 1l-1 3h18zM925 475h-543l-95 -223q-36 -83 -36 -124q0 -40 35 -69q23 -18 69 -28h-302
q55 14 78 35q55 52 118 204l460 1105h3l456 -1117q57 -140 107 -184q35 -31 85 -43h-396q33 8 54 25q35 28 35 70q0 47 -42 145zM393 505h524l-259 632zM1038 -97q19 46 47 75h6q-14 -38 -14 -74q0 -94 58 -147q74 -68 178 -68q43 0 87 11q-56 -30 -88 -40q-39 -12 -91 -12
q-98 0 -149.5 47t-51.5 113q-1 48 18 95zM1414 -295l-1 -1zM1414 -295l8 3h1h1l1 3l-3 -1q-2 -1 -4 -3z" />
    <glyph glyph-name="aogonek" unicode="&#x105;" horiz-adv-x="864" 
d="M852 136q0 1 -1 1zM363 478q-82 -47 -119 -100q-38 -54 -38 -120q0 -82 49.5 -137t113.5 -55q80 0 205 106l3 3l3 2l3 2l1 1v399l-33 -14q-149 -65 -188 -87zM582 174l-37 -30q-133 -109 -164 -124q-47 -23 -100 -23q-85 0 -140 60t-55 161q0 62 26 107q37 64 136 124
q103 63 321 149l14 6h1v53q0 151 -48 211.5t-138 60.5q-68 0 -112 -40q-46 -42 -46 -95v-2q0 -9 2 -29q1 -20 1 -30l-1 -1v-1q0 -34 -17 -53t-43 -18q-26 0 -44 19t-18 56q0 75 80.5 141.5t226.5 66.5q109 0 178 -39q50 -28 73 -89q14 -40 14 -173v-321q0 -137 7 -173
q6 -36 23 -52.5t41 -16.5q22 0 40 11q12 7 24 19q-90 -111 -165 -111h-16v-1l-1 -1l-16 9q-14 7 -24 18q-23 26 -23 103v22.5v22.5v3zM969 -292h-1q-2 0 -3 -1l3 3v-1zM969 -292h1h-1zM645 -4v-2l2 2h-2zM645 -6l-1 -1q-1 -4 -1 -5q-17 -42 -17 -79q0 -95 58 -151
q73 -69 176 -69q40 0 82 10q-52 -26 -83 -36q-40 -12 -90 -12q-96 0 -145.5 47.5t-49.5 114.5q0 49 17 97q16 42 41 72z" />
    <glyph glyph-name="Dcaron" unicode="&#x10e;" horiz-adv-x="1435" 
d="M913 1793l-11 -10l-1 -1q-1 0 -1 -1q-1 1 -2 1l-2 2v0v2v1l17 30l13 -24h-13v0zM408 1817l20 -38l-20 14h-14zM585 1507l-146 259l245 -194l189 179l-137 -244h-151zM1008 1142.5q-156 169.5 -401 169.5q-89 0 -206 -30q-3 -1 -6 -1.5t-6 -1.5t-5 -1h-2v-1197l20 -4
q126 -29 213 -29q237 0 393 171t156 462q0 292 -156 461.5zM207 1292q-26 29 -63 42h424q291 0 441 -66.5t242.5 -220.5t92.5 -357q0 -271 -165 -454q-184 -204 -558 -204h-477q46 15 72 55q26 39 26 161v870q0 135 -35 174zM44 1341h31q17 0 33 -2v0q1 0 1 -1v0v-1
q0 -1 -1 -1h-64v5zM44 25v5h64v-1.5v-1.5v0q-16 -2 -33 -2h-31z" />
    <glyph glyph-name="dcaron" unicode="&#x10f;" horiz-adv-x="1281" 
d="M1169 1047q-48 -52 -133 -87l2 1q97 57 136 109q32 42 32 102q0 38 -18 58q-18 23 -45 23q-16 0 -37 -8q-23 -9 -37 -9q-29 0 -52 23.5t-23 59.5q0 40 23 60q35 32 83 32q57 0 103.5 -48.5t46.5 -120.5q0 -107 -81 -195zM671 111q-63 -67 -120 -96q-58 -29 -123 -29
q-136 0 -242 122.5t-106 318t118 356.5q119 161 296 161q107 0 178 -72l40 -38v220q0 156 -9 196q-9 41 -30 59t-54 18q-6 0 -12 -1l203 85h14v-1051q0 -166 10 -207q9 -41 30.5 -61t52.5 -20q6 0 12 1l-201 -87h-16v167zM518 49q97 0 187 103l2 2l2 2l2 2h1l-2 501
q-6 76 -37 139.5t-85 97t-105 33.5q-95 0 -170 -91q-97 -116 -97 -331q0 -218 92.5 -338t209.5 -120z" />
    <glyph glyph-name="Dslash" unicode="&#x110;" horiz-adv-x="1435" 
d="M384 733h384v-28h-384v-622l19 -4q126 -29 213 -29q236 0 392 171t156 462q0 292 -156 461.5t-400 169.5q-90 0 -206 -30l-18 -4v-547zM207 1292q-26 29 -63 42h424q302 0 444.5 -68.5t237 -219.5t94.5 -354q0 -276 -176 -468t-548 -192h-476q46 15 73 56q25 36 25 158
v459h-194v28h194v385q0 135 -35 174zM44 1341h31q17 0 33 -2v0q1 0 1 -1v0v-1q0 -1 -1 -1h-64v5zM44 25v5h64v-1.5v-1.5v0q-16 -2 -33 -2h-31z" />
    <glyph glyph-name="Eogonek" unicode="&#x118;" horiz-adv-x="1200" 
d="M1123 -290l1 1zM730 -188q0 49 18 95t47 77h5q-14 -38 -14 -76q0 -94 57 -150q71 -69 173 -69q40 0 84 11q-54 -29 -85 -38q-38 -12 -89 -12q-95 0 -145.5 48t-50.5 114zM768 1307h-380v-578h313q122 0 167 41q36 33 52 100v-324q-10 51 -18 67q-20 41 -67 65
q-45 24 -134 24h-313v-466q0 -94 10 -119t35.5 -40t85.5 -15h221q114 0 170 17t107.5 67.5t102.5 140.5l-87 -253h-890q15 5 37 17q41 22 54 59q14 37 14 139v874q0 137 -33 173q-23 26 -60 38h873l8 -214q-16 70 -38 104q-28 44 -86 67q-40 16 -144 16zM50 1341h30
q20 0 36 -2q1 0 1 -1v0v-1q0 -1 -1 -1h-66v5zM50 27v5h58v-1.5v-1.5q-13 -2 -28 -2h-30zM926 496l-1 -1l-1 1v2h2v-2zM928 932v-1q-1 -9 -2 -17q0 -1 -1 -1t-1 1v18h4zM1041 1084l1 6q0 -1 2 -4v-0.5v-0.5l-1 1l-1 -1q-1 0 -1 -1zM1041 1084v0z" />
    <glyph glyph-name="eogonek" unicode="&#x119;" horiz-adv-x="837" 
d="M847 -294l9 3v1zM607 642q-5 98 -19 137q-25 64 -74 102.5t-103 38.5q-82 0 -149 -74q-67 -73 -78 -202q0 -4 -0.5 -8t-1 -9.5t-1.5 -7.5v-2h427v2zM184 604v-23v0v-2h-2v-2q0 -216 106 -343q95 -127 226 -127q87 0 153 54q52 43 89 125q-26 -103 -96 -191
q-44 -56 -97 -82l-4 -2l-1 -3v0l-1 -1v-1l-14 -4q-14 -4 -22 -6q-31 -8 -69 -8q-145 0 -254.5 125.5t-109.5 339.5q0 234 109.5 362.5t265.5 128.5q129 0 214 -97q83 -94 89 -243h-582zM555 -3l5 10l-3 -1v-1zM555 -3q-13 -47 -13 -89q0 -96 52 -150q66 -69 161 -69
q38 0 79 12q-48 -27 -81 -38q-38 -12 -84 -12q-88 0 -133.5 47.5t-45.5 113.5q0 47 17 98q13 37 31 63zM184 579v0v0z" />
    <glyph glyph-name="Ecaron" unicode="&#x11a;" horiz-adv-x="1200" 
d="M923 498v6l2 -6h-1h-1zM1041 1093l1 -7v0zM852 1793l-13 -10l-0.5 -0.5l-0.5 -0.5h-3v0l-1 1q-1 1 0 1v3l17 30l14 -24h-13zM349 1817l22 -39l-21 15h-14zM525 1507l-144 259l242 -194l188 179l-135 -244h-151zM769 1307h-381v-579h313q121 0 165 41q38 37 54 106v-338
q-10 54 -20 75q-21 42 -66 65q-46 24 -133 24h-313v-467q0 -94 10 -119t36 -40t85 -15h222q114 0 169.5 17t105.5 67t102 142l-84 -254h-891q15 5 37 17q41 22 54 59q14 37 14 140v874q0 138 -33 174q-23 26 -60 38h873l12 -224q-18 77 -42 114q-28 44 -84 67
q-40 16 -145 16zM50 1341h30q20 0 36 -2q1 0 1 -1v0v-1q0 -1 -1 -1h-66v5zM50 25v5h58v-1.5v-1.5q-13 -2 -28 -2h-30z" />
    <glyph glyph-name="ecaron" unicode="&#x11b;" horiz-adv-x="864" 
d="M422 920q-86 0 -156 -75q-69 -73 -81 -202q0 -4 -1 -8l-2 -9v-8l-1 -2h453l-1 2l-1 23q-5 97 -23 139q-29 66 -79 103q-51 37 -108 37zM184 580v0v-2h-2v-2q0 -219 103 -346.5t237 -127.5q95 0 160 49q60 45 101 129q-28 -102 -111 -195q-88 -99 -219 -99
q-142 0 -253.5 125.5t-111.5 340.5q0 235 114.5 363.5t270.5 128.5q135 0 226 -96q89 -94 95 -245h-610v-23zM393 1101l-143 258l235 -194l188 179l-138 -243h-142zM231 1386v-2l-1 -1h1l-1 -1h-4q0 1 -1 1l-5 5h-1h-15l14 23l13 -24v-1zM701 1376h-2l-2 2l-1 2v0v1l17 31
l15 -24h-14l-12 -11zM184 578v0v0z" />
    <glyph glyph-name="Lacute" unicode="&#x139;" horiz-adv-x="1205" 
d="M610 1336h-43q-2 0 -1.5 1.5l0.5 1.5q22 2 45 2h18l-19 -23v18zM149 1333l362 1q-21 -5 -40 -15q-48 -25 -65 -61q-18 -37 -18 -164v-845q0 -91 18 -124q14 -27 45 -41q31 -13 161 -13h96q156 0 223 25t121 85q34 38 69 104l-81 -253l-891 1q47 16 73 56q24 36 24 161
v867q0 137 -33 174q-25 29 -64 42zM50 1341h31q18 0 33 -2q1 0 0.5 -1.5l-0.5 -1.5h-64v5zM50 25v5h64v-1.5v-1.5q-16 -2 -33 -2h-31zM1156 363l-13 -27l-1 -1v0q-1 0 -1 1h1l8 25zM433 1494h4l4 6l-3 -13zM441 1500l5 6l241 291h-158l-85 -290z" />
    <glyph glyph-name="lacute" unicode="&#x13a;" horiz-adv-x="545" 
d="M206 1503l86 282h156zM121 1326l202 84h17v-1191q0 -91 15 -125q14 -33 46 -51q11 -7 21 -10h-277q8 3 18 8q28 16 43 51q16 36 15 127v832q0 158 -8 198q-8 41 -30 59t-54 18h-8zM92 1318l-18 -11q0 1 1 1.5l1 0.5l1 2h-1l-1 1q9 3 17 6zM191 1484h4l5 6l-4 -12zM81 29
h26v-2.5v-2.5l-8 -1h-9l-8 -1h-1v7zM493 22v0q-4 0 -28 2q-1 0 -1 2.5t1 2.5h28v-7z" />
    <glyph glyph-name="Lcaron" unicode="&#x13d;" horiz-adv-x="1203" 
d="M610 1337h-43q-2 0 -1.5 1l0.5 1q21 2 45 2h19l-20 -21v17zM1060 1198q0 -94 -63 -175q-31 -40 -78 -71q26 22 48 50q59 76 59 165q0 29 -15 47q-4 5 -11 11q-10 7 -21 7q-17 0 -59 -22q-13 -7 -27 -7q-38 0 -59.5 22t-21.5 63q0 39 30 68t73 29q55 0 100 -51t45 -136z
M149 1334h362q-23 -5 -40 -14q-48 -24 -65.5 -61t-17.5 -164v-846q0 -91 18 -124q14 -27 44 -41q30 -13 162 -13h96q156 0 223 25t119 84q35 39 70 104l-79 -252l-892 1q47 16 73 56q24 36 24 161v868q0 137 -33 174q-25 29 -64 42zM50 1341h31q18 0 33 -2v-1l-64 -1v4z
M50 25v5h64v-1.5v-1.5q-16 -2 -33 -2h-31zM1152 361l-11 -26q-1 -1 -2 -1h-1q-1 0 -1 1l11 30zM833 903q26 12 57 29q-23 -15 -57 -29zM833 903l-22 -8l-1 -1v-1h1v1q11 4 22 9z" />
    <glyph glyph-name="lcaron" unicode="&#x13e;" horiz-adv-x="773" 
d="M113 1324l207 87h14v-1192q0 -91 14 -125q13 -33 41 -50q11 -7 21 -10h-266q8 3 18 8q28 16 43 51q16 36 15 126v831q0 157 -8 198t-30 59q-22 19 -54 19q-3 0 -15 -2zM83 1315l-7 -4l1 2h-2v0zM740 1237q0 -110 -78 -200q-46 -53 -125 -89q92 60 127 113q30 45 30 105v2
q0 37 -16.5 59.5t-41.5 22.5q-16 0 -35 -8q-22 -9 -34 -9q-29 0 -49.5 23.5t-20.5 59.5q0 42 21 62q33 33 78 33q56 0 100 -49.5t44 -124.5zM80 29h26v-2v-2l-8 -1h-9l-8 -1h-1v6zM473 23v0l-25 2q-1 0 -2 1v1q0 1 1 1v1h26v-6zM75 1313h-2h2z" />
    <glyph glyph-name="Nacute" unicode="&#x143;" horiz-adv-x="1434" 
d="M-21 1340h3q24 0 38 -2q1 0 1 -1q0 -2 -1 -3l-36 -1zM975 1340h28q17 0 32 -2q1 0 2 -1v-1q0 -1 -1 -1v-1h-61v6zM1401 1340v-6h-61l-0.5 2q-0.5 2 0.5 2q16 2 33 2h28zM488 24h-28q-18 0 -34 2q-1 0 -1 2t1 2h62v-6zM58 24v6h63v-2v-2q-16 -2 -34 -2h-29zM389 29h-232
q46 15 72 53q25 37 25 158v943v0q-5 7 -5 8q-59 69 -93 93q-33 24 -97 44l-2 1l262 1l847 -1066v853q0 135 -32 173q-23 27 -62 39h232q-46 -15 -72 -53t-26 -151v-9v-1127l-911 1160v-907q0 -136 31 -172q24 -28 63 -41zM607 1493h4l5 6l-4 -13zM623 1512l85 281h151z" />
    <glyph glyph-name="nacute" unicode="&#x144;" 
d="M397 1110l82 280h148zM364 795q129 148 244 148q64 0 111 -34t77 -113q21 -57 20 -179v-394q0 -92 17 -130q14 -32 42 -49q9 -5 17 -8h-264q14 5 25 14q32 26 42 71q4 17 4 101v380q0 134 -36 199q-36 66 -123 66q-89 0 -176 -72zM26 845h-1l1 -1l-2 -2h1q1 0 1 1l1 1z
M382 1089h3l3 5l2 2l-4 -13zM72 30v-1v-1q-18 -3 -39 -3h-5l2 3l-2 2h44zM364 36h-262q29 12 43 34q30 45 30 152v344q0 169 -8 212q-9 43 -30.5 61t-56.5 18q-8 0 -17 -1l215 87h13v-223v-16l34 42l7 9l19 24q1 1 0 2t-2 0q-16 -15 -30 -30l-22 -24l-6 -7v-16v-481
q0 -100 13 -128q15 -35 44 -52q8 -4 16 -7zM401 28l-0.5 1q-0.5 1 0.5 1h41l-2 -2l2 -3h-2q-21 1 -39 3v0zM596 30v-1v-1q-19 -3 -43 -3h-4l2 3l-2 2h47zM927 28v1v1h38l-2 -2l2 -3h-3q-19 1 -35 3v0zM24 842v0z" />
    <glyph glyph-name="Ncaron" unicode="&#x147;" horiz-adv-x="1434" 
d="M985 1793l-12 -10l-0.5 -0.5l-0.5 -0.5h-3h-1v1l-1 1v2l1 1l17 30l14 -24h-14zM475 1817l13 -24l1 -3v0l-1 -1v-1v0h-1l-1 -1q-1 0 -1 1q-1 1 -2 1l-6 4h-16zM653 1507l-145 259l246 -194l190 180l-136 -245h-155zM389 30h-232q46 15 72 53q25 37 25 158v943v1l-5 7
q-59 69 -93 94q-33 24 -97 44l-2 1l262 1l847 -1068v854q0 135 -32 173q-23 27 -62 40h232q-46 -15 -72 -53t-26 -151v-9v-1128l-911 1161v-908q0 -136 31 -172q24 -28 63 -41zM58 25v5h63v-1.5v-1.5q-16 -2 -34 -2h-29zM488 25h-28q-18 0 -34 2q-1 0 -1 1.5t1 1.5h62v-5z
M1401 1341v-5h-61l-0.5 1.5q-0.5 1.5 0.5 1.5q16 2 33 2h28zM975 1341h28q17 0 32 -2q1 0 2 -1v0q0 -1 -1 -1v-1h-61v5zM-21 1341h3q24 0 38 -2q1 0 1 -1q0 -2 -1 -2l-36 -1z" />
    <glyph glyph-name="ncaron" unicode="&#x148;" 
d="M364 795q129 148 244 148q64 0 111 -34t77 -113q21 -57 20 -179v-394q0 -92 17 -130q14 -32 42 -49q9 -5 17 -8h-264q14 5 25 14q32 26 42 71q4 17 4 101v380q0 134 -36 199q-36 66 -123 66q-89 0 -176 -72zM26 845h-1l1 -1l-2 -2h1q1 0 1 1l1 1zM714 1388l-12 -12
q-1 -1 -2 -1t-1.5 0.5l-0.5 0.5h-1q-1 0 -1 2v2l18 32l12 -24h-11h-1zM216 1411l22 -39l-20 16h-1h-14zM392 1101l-143 258l239 -194l186 180l-134 -244h-148zM72 30v-1v-1q-18 -3 -39 -3h-5l2 3l-2 2h44zM364 36h-262q29 12 43 34q30 45 30 152v344q0 169 -8 212
q-9 43 -30.5 61t-56.5 18q-8 0 -17 -1l215 87h13v-223v-16l34 42l7 9l19 24q1 1 0 2t-2 0q-16 -15 -30 -30l-22 -24l-6 -7v-16v-481q0 -100 13 -128q15 -35 44 -52q8 -4 16 -7zM401 28l-0.5 1q-0.5 1 0.5 1h41l-2 -2l2 -3h-2q-21 1 -39 3v0zM596 30v-1v-1q-19 -3 -43 -3h-4
l2 3l-2 2h47zM927 28v1v1h38l-2 -2l2 -3h-3q-19 1 -35 3v0zM24 842v0z" />
    <glyph glyph-name="Odblacute" unicode="&#x150;" horiz-adv-x="1431" 
d="M1010 1786l-172 -283l52 283h120zM410 153q112 -146 297 -146q196 0 323.5 159t127.5 493q0 363 -139 542q-113 146 -313 146q-187 0 -301 -145q-139 -177 -139 -515q0 -346 144 -534zM297 1201q180 175 428 175q245 0 430 -197q185 -198 185 -493q0 -304 -187 -505
t-444 -201q-261 0 -443 196t-182 507q0 318 213 518zM521 1483h2l2 6h1h1v0q1 0 1 -0.5v-0.5l-2 -10zM706 1786l-171 -277l51 277h120z" />
    <glyph glyph-name="odblacute" unicode="&#x151;" horiz-adv-x="974" 
d="M301 170q81 -160 216 -160q102 0 168 91q67 91 67 302q0 261 -106 412q-73 110 -187 110q-55 0 -111.5 -36.5t-92 -124t-35.5 -221.5q0 -213 81 -373zM294 885q93 58 193 58q184 0 302 -155q101 -133 101 -305q0 -122 -55 -247q-56 -124 -152 -187q-95 -63 -207 -63
q-183 0 -297 161q-97 138 -97 308q0 125 59 248t153 182zM589 1085l2 5h1v0v-2v-3h-3zM769 1389l-169 -280l47 280h122zM289 1087h3l1 3q1 1 1 0h1v0q1 0 1 -0.5v-0.5l-2 -8zM470 1389l-167 -279l51 279h116z" />
    <glyph glyph-name="Racute" unicode="&#x154;" horiz-adv-x="1323" 
d="M782 1225q-84 87 -223 87q-60 0 -158 -19l-17 -4h-2v-611h23q18 0 32 -0.5t23 -0.5q198 0 302 90.5t104 232.5q0 138 -84 225zM1156 74q54 -33 132 -50l-284 -1l-448 637l-1 1h-11q-55 -2 -81 -2h-26q-6 0 -30 2l-23 1h-2v-414q0 -135 34 -173q25 -29 62 -42h-334
q46 15 73 56q25 37 25 160v868q0 136 -35 174q-26 29 -63 42l367 1q207 0 302 -30t160 -108t65 -186q0 -116 -74 -201.5t-233 -121.5l-35 -8l294 -421q99 -142 166 -184zM484 1494h4l4 6l-4 -13zM44 1341h31q17 0 33 -2q1 0 1 -1v0v-1q0 -1 -1 -1h-64v5zM44 25v5h64v-1.5
v-1.5q-16 -2 -33 -2h-31zM578 25h-33q-17 0 -32 2q-1 0 -1 1v0v1q0 1 1 1h65v-5zM492 1500l5 6l243 291h-159l-86 -290z" />
    <glyph glyph-name="racute" unicode="&#x155;" horiz-adv-x="642" 
d="M269 1108l78 282h148zM376 823q79 120 162 120q45 0 74.5 -27q29.5 -26 29.5 -60q0 -29 -19 -50t-45.5 -21t-69.5 35q-44 35 -74 35q-27 0 -53 -27zM67 856l213 87h11v-714q0 -82 19 -127q14 -33 48 -55q11 -7 24 -11h-287q18 6 32 14q33 21 46 65q5 17 5 84v381
q0 164 -8 201t-31.5 56.5t-55.5 19.5q-8 0 -16 -1zM253 1089h4l4 5l-3 -11zM22 839v3h1l5 2l2 -1l-1 -1zM59 30l0.5 -1q0.5 -1 -0.5 -1v0q-15 -2 -32 -3h-2l2 3l-2 2h34zM414 28v2h34l-3 -2l3 -3h-3q-16 1 -31 3v0zM302 689h-1h-1l-6 -13v2v1l1 1l1 4l4 8h1l1 1q13 29 25 51
h1l1 -1zM329 743v1v-1zM329 747l-1 -3h1h6zM329 747h-1q8 15 17 28l-14 -26z" />
    <glyph glyph-name="Rcaron" unicode="&#x158;" horiz-adv-x="1322" 
d="M840 1793l-12 -10l-0.5 -0.5l-0.5 -0.5v-1q-1 1 -3 1v0v0l-1 1l-1 1h1h-1v1v1v0v1l18 30l13 -24h-13zM333 1817l22 -39l-21 15h-15zM510 1507l-145 259l244 -194l190 180l-137 -245h-152zM1157 74q53 -34 129 -50l-282 -1l-448 637l-1 1h-11q-55 -2 -81 -2h-26
q-6 0 -30 2l-23 1h-2v-414q0 -135 34 -173q25 -29 62 -42h-334q46 15 73 56q25 37 25 160v869q0 136 -35 174q-26 29 -63 42h367q207 0 302 -30t160 -108t65 -186q0 -116 -74 -201.5t-233 -121.5l-35 -8l293 -419q98 -141 168 -186zM782 1225q-84 87 -223 87q-60 0 -158 -19
l-17 -4h-2v-611h23q18 0 32 -0.5t23 -0.5q198 0 302 90.5t104 232.5q0 138 -84 225zM44 1341h31q17 0 33 -2v0q1 0 1 -1v0v-1q0 -1 -1 -1h-64v5zM44 25v5h64v-1.5v-1.5v0q-16 -2 -33 -2h-31zM578 25h-33q-17 0 -32 2v0q-1 0 -1 1v0v1q0 1 1 1h65v-5z" />
    <glyph glyph-name="rcaron" unicode="&#x159;" horiz-adv-x="642" 
d="M376 823q79 120 162 120q45 0 74.5 -27q29.5 -26 29.5 -60q0 -29 -19 -50t-45.5 -21t-69.5 35q-44 35 -74 35q-27 0 -53 -27zM584 1388l-10 -12h-2q-1 -1 -2 -1q-1 1 -2 1l-1 1v1l-1 1h1l17 32l14 -23h-13h-1zM82 1411l23 -39l-21 16h-14zM264 1101l-148 257l239 -192
l188 177l-139 -242h-140zM67 856l213 87h11v-714q0 -82 19 -127q14 -33 48 -55q11 -7 24 -11h-287q18 6 32 14q33 21 46 65q5 17 5 84v381q0 164 -8 201t-31.5 56.5t-55.5 19.5q-8 0 -16 -1zM22 839v3h1l5 2l2 -1l-1 -1zM59 30l0.5 -1q0.5 -1 -0.5 -1v0q-15 -2 -32 -3h-2
l2 3l-2 2h34zM414 28v2h34l-3 -2l3 -3h-3q-16 1 -31 3v0zM302 689h-1h-1l-6 -13v2v1l1 1l1 4l4 8h1l1 1q13 29 25 51h1l1 -1zM566 1379v0zM329 743v1v-1zM329 747l-1 -3h1h6zM329 747h-1q8 15 17 28l-14 -26z" />
    <glyph glyph-name="Sacute" unicode="&#x15a;" horiz-adv-x="975" 
d="M766 1377q0 -6 -2 -12q0 3 1 8q0 1 -0.5 2.5t-0.5 2.5l1 -2zM149 -21v-1v1zM154 369q22 -114 58 -178q37 -75 114 -126q76 -51 164 -51q104 0 167 73q65 75 65 177q0 56 -25 111q-24 55 -75 106q-37 37 -170 132q-135 97 -195 155q-59 57 -88 123.5t-29 146.5
q0 137 88.5 237.5t218.5 100.5q81 0 173 -52q50 -29 73 -29q30 0 48 21q13 15 21 40v-357q-16 94 -54 164q-37 76 -107 126.5t-143 50.5q-86 0 -146 -71.5q-60 -72.5 -60 -164.5q0 -70 40 -128q55 -82 241 -210q153 -106 207 -157q54 -52 83 -122q29 -69 29 -147
q0 -147 -95.5 -253.5t-239.5 -106.5q-45 0 -86 9q-24 5 -107 38q-81 32 -107 33q-30 0 -47 -22q-10 -14 -16 -35v366zM151 401v1v-1zM415 1509l63 277h114zM402 1485h2l2 5h1h1v0v-1l-2 -10zM149 -21l1 2l1 -2h-1h-1zM151 401l-1 -2v1z" />
    <glyph glyph-name="sacute" unicode="&#x15b;" horiz-adv-x="727" 
d="M577 664v14v2q1 0 1.5 -0.5l0.5 -0.5l3 -10zM112 278q0 -1 -1 -1h-1v0q-2 7 -3 14v3l3 -2l2 2v-16zM299 1089h4l1 3v0h1q1 0 0 0v-1v0l-2 -8zM314 1110l75 280h136zM115 4v240q30 -107 93 -170q75 -76 172 -76q71 0 117 49t46 118q0 82 -48 135q-48 54 -179 128
q-129 73 -168 130q-37 53 -37 134q0 108 65 179.5t167 71.5q46 0 112 -22q49 -16 71 -16q20 0 32 9q9 7 16 20v-223q-32 113 -81 162q-57 58 -149 58q-70 0 -116 -45t-46 -103q0 -64 33 -113q32 -47 123 -97l133 -74q173 -96 173 -249q0 -118 -80.5 -191t-179.5 -73
q-77 0 -171 29q-36 11 -56 11q-25 0 -42 -22zM114 -3v0zM576 940l1 4v0z" />
    <glyph glyph-name="Tcedilla" unicode="&#x162;" horiz-adv-x="1179" 
d="M78 1127l11 218h1014l10 -223q-8 34 -20 56q-33 64 -87 95q-55 31 -139 31h-199v-1058q0 -135 31 -171q24 -29 64 -41h-331q46 14 72 54q25 38 25 158v1058h-177q-97 0 -140 -15q-58 -21 -92 -71q-29 -42 -42 -91zM620 -418q-15 -12 -38 -20l4 2q40 21 64.5 62t24.5 79
q0 26 -11 40q-8 10 -17 14q-8 3 -15 3q-12 0 -35 -12q-20 -11 -31 -11q-27 0 -42 16t-15 48q0 33 21 54t57 21q42 0 73.5 -36t31.5 -104q0 -98 -72 -156zM504 -452h1q5 0 13.5 1t13.5 1q1 0 1 -2v0v-1q-12 -4 -27 -5h-2v6zM367 24h-29v5h52q2 0 1.5 -2l-0.5 -2
q-13 -1 -24 -1zM855 29v-5h-27q-11 0 -24 1q-1 0 -0.5 2l0.5 2h51z" />
    <glyph glyph-name="tcedilla" unicode="&#x163;" horiz-adv-x="542" 
d="M535 154l-1 -1v2zM482 91q11 7 17 13q-24 -39 -57 -65q-54 -43 -114 -43q-38 0 -76 23t-56 65.5q-18 41.5 -18 137.5v655h-133q46 25 96 72q57 53 103 127q20 32 51 109v-285h211v-27h-211v-628q0 -98 31.5 -137.5t81.5 -39.5q39 0 74 23zM188 -452h1q5 0 14.5 1t14.5 1
q1 0 1 -2v0q0 -1 -1 -1q-14 -4 -30 -5v0v6zM308 -418q-15 -12 -40 -20l4 2q41 21 67 62t26 79q0 28 -11 39q-11 12 -19 15q-7 3 -16 3q-12 0 -35 -12q-20 -11 -31 -11q-29 0 -44.5 16t-15.5 48q0 33 21.5 54t58.5 21q43 0 76 -36t33 -104q0 -98 -74 -156zM298 1215l4 -5
l-2 -6q0 -1 -1 -1v0q-1 -1 -1 1v11zM533 157l1 -2v4zM533 157l-2 -3q-8 -14 -9 -18h-1h-1q-1 0 -1 0.5v0.5l10 22l1 2z" />
    <glyph glyph-name="Tcaron" unicode="&#x164;" horiz-adv-x="1187" 
d="M857 29v-5h-27q-11 0 -24 1q-1 0 -1 2t1 2h51zM367 24h-29v5h52q2 0 1.5 -2l-0.5 -2q-13 -1 -24 -1zM78 1127l11 218h1022l10 -223q-8 34 -20 56q-34 64 -89 95q-56 31 -142 31h-202v-1058q0 -134 32 -171q25 -29 64 -41h-332q46 14 72 54q25 38 25 158v1058h-177
q-97 0 -140 -15q-58 -21 -92 -71q-29 -42 -42 -91zM529 1498l-143 259l240 -194l187 180l-134 -245h-150zM353 1808l22 -39l-20 16h-1h-15zM853 1785l-12 -11l-1 -1h-3l-1 1l-1 2v1h1l17 31l13 -23h-12h-1zM835 1777v0v0z" />
    <glyph glyph-name="tcaron" unicode="&#x165;" horiz-adv-x="828" 
d="M296 1212l4 -5l-2 -6q0 -1 -1 0v0q-1 0 -1 1v10zM798 1237q0 -109 -81 -200q-47 -53 -131 -88l1 1q95 59 134 113q32 45 32 103q0 38 -17 60q-19 24 -44 24q-14 0 -36 -8q-24 -9 -36 -9q-30 0 -52.5 23.5t-22.5 59.5q0 42 21 62q34 33 83 33q58 0 103.5 -50t45.5 -124z
M469 91q10 7 12 10q-22 -36 -51 -62q-50 -43 -106 -43q-37 0 -73.5 23t-55.5 65.5q-19 41.5 -19 137.5v655h-131q46 25 95 70q58 54 103 128q18 30 50 106v-281h197v-27h-197v-628q0 -98 29 -137q29 -40 77 -40q37 0 70 23zM516 155v0q-7 -13 -15 -25v0v0h-1q-1 0 0 0v1
q6 13 12 28l1 2z" />
    <glyph glyph-name="Uring" unicode="&#x16e;" horiz-adv-x="1426" 
d="M654.5 1537q42.5 -42 100.5 -42t100 42q43 42 43 100v2q0 58 -41.5 99.5t-101.5 41.5t-101 -41q-42 -41 -42 -101q0 -58 42.5 -101zM640 1754.5q48 48.5 115.5 48.5t116 -48.5t48.5 -118t-48.5 -117.5q-47.5 -48 -115.5 -48q-67 0 -115.5 48.5t-48.5 117.5t48 117.5z
M962 1336v5h32q17 0 32 -2v0v0v-1v-1q0 -1 -1 -1h-63zM121 1330h337q-44 -15 -70 -54q-30 -44 -30 -163v-595q0 -81 16 -187q15 -106 55 -168.5t114.5 -102t181.5 -39.5q136 0 243.5 62t147.5 158.5t40 318.5v553q0 137 -32 175q-24 29 -63 42h243q-49 -18 -81 -68
q-23 -37 -23 -157v-554q0 -201 -39 -309q-38 -108 -147 -184.5t-300 -76.5q-209 0 -315 74q-105 73 -151 196q-30 85 -30 329v533q0 135 -40 180q-22 25 -57 37zM556 1341v-5h-63q-2 0 -1.5 1.5l0.5 1.5v0q15 2 32 2h32zM20 1341h31q18 0 34 -2v0l0.5 -1.5
q0.5 -1.5 -0.5 -1.5h-65v5zM1396 1341v-5h-60q-2 0 -2 1.5t1 1.5v0q13 2 28 2h33z" />
    <glyph glyph-name="uring" unicode="&#x16f;" horiz-adv-x="979" 
d="M633 138q-87 -97 -134 -124q-55 -31 -116 -31q-64 0 -113.5 39.5t-70.5 104.5q-20 65 -20 189v408q0 70 -17 101q-17 30 -50 47q-11 7 -19 10h202v-588q0 -138 50 -185t118 -47q46 0 103 29q31 17 67 47zM675 849q-23 23 -60 33h204v-531q0 -162 9 -202t32 -59.5
t44 -19.5q13 0 23 1l-209 -88h-15v223v11l-40 -46l-13 -15q-1 -1 0 -2t2 0l45 44l6 7v1v11v516q-1 89 -28 116zM364.5 1364q46.5 49 113.5 49t113.5 -49t46.5 -119q0 -71 -46.5 -121t-113.5 -50q-65 0 -112.5 49t-47.5 122q0 70 46.5 119zM378.5 1142.5
q40.5 -42.5 99.5 -42.5t99 42q40 43 40 102q0 60 -40 102q-41 42 -100 42q-58 0 -99 -42q-40 -41 -40 -102q0 -59 40.5 -101.5zM-1 890h21q8 0 22 -1q1 0 1 -1v-1v-1q0 -1 -1 -1h-20v-17z" />
    <glyph glyph-name="Udblacute" unicode="&#x170;" horiz-adv-x="1425" 
d="M1396 1341v-5h-60l-1 1v0.5v1.5v0q14 2 28 2h33zM20 1341h31q18 0 34 -2q1 0 1 -1.5t-1 -1.5h-65v5zM556 1341v-5h-63q-1 0 -1 1v0v1q0 1 1 1q14 2 31 2h32zM121 1330h337q-44 -15 -70 -54q-30 -44 -30 -163v-595q0 -81 16 -187q15 -106 55 -168t114 -102q75 -40 182 -40
q135 0 243 62t148 159t40 318v553q0 137 -33 175q-24 29 -63 42h244q-49 -17 -82 -68q-26 -38 -26 -157v-554q0 -201 -37 -309t-145.5 -184.5t-300.5 -76.5q-209 0 -314 73t-150 197q-31 87 -31 329v533q0 135 -40 180q-22 25 -57 37zM726 1795l-172 -280l52 280h120z
M540 1493h3l2 2l1 1q1 -1 0 -1l-1 -9zM1029 1795l-170 -280l50 280h120zM846 1490l4 6h1q1 0 1 -1l-2 -5h-4zM962 1336v5h31q17 0 32 -2q1 0 1 -1.5t-1 -1.5h-63zM546 1496l-1 1z" />
    <glyph glyph-name="udblacute" unicode="&#x171;" 
d="M633 137q-87 -97 -134 -123q-55 -31 -115 -31q-65 0 -114.5 39.5t-70.5 104.5q-20 65 -20 189v408q0 70 -17 101q-17 30 -50 47q-11 7 -19 10h202v-588q0 -138 49.5 -185t119.5 -47q47 0 103 29q30 16 66 46zM676 849q-23 23 -60 33h204v-531q0 -162 9 -202t32 -59.5
t44 -19.5q13 0 23 1l-209 -88h-15v223v11l-40 -46l-4 -5l-5 -5l-5 -5q-1 -1 0 -2t2 0l46 44l6 7v1v11v516q-1 89 -28 116zM-1 890h21q8 0 22 -1q1 0 1 -1v-1v-1q0 -1 -1 -1h-20v-17zM264 1076h3l1 3h1v0l1 -1l-1 -9zM448 1378l-171 -279l52 279h119zM566 1073l4 6v0
q1 0 1 -1l-1 -5h-4zM749 1378l-171 -280l51 280h120z" />
    <glyph glyph-name="Zacute" unicode="&#x179;" horiz-adv-x="1204" 
d="M165 1092l20 241h914l-868 -1274h581q134 0 206 59q58 47 103 162l-45 -259h-1038l-1 6l870 1269h-463q-109 0 -162 -26t-81 -75q-20 -35 -36 -103zM156 1038l-1 -2q1 1 1 2zM540 1504l83 281h150zM526 1485h3l5 6l-4 -13zM1140 343l-6 -19v-1q-2 0 -2 1l4 24zM156 1038
v2q1 3 1 5v-7v1z" />
    <glyph glyph-name="zacute" unicode="&#x17a;" horiz-adv-x="844" 
d="M344 1077h3v1l3 4l3 4l-4 -15zM766 139q6 13 11 31l-5 -146h-718l-1 5l592 841h-320q-95 0 -131 -15t-59 -58q-16 -29 -25 -66l4 165h686v-6l-603 -843h352q106 0 149 21q43 20 68 71zM104 686v-1v-2q0 3 1.5 7.5t1.5 7.5v-12l-2 1zM360 1098l77 281h142z" />
    <glyph glyph-name="Zdot" unicode="&#x17b;" horiz-adv-x="1200" 
d="M165 1092l20 241h912l-866 -1274h579q134 0 206 59q57 48 104 164l-46 -261h-1036l-1 6l870 1269h-462q-109 0 -163 -26q-53 -26 -81 -75q-20 -35 -36 -103zM156 1038l-1 -2q1 1 1 2zM564 1673q24 25 59 25q34 0 57.5 -25t23.5 -62t-24 -62t-57.5 -25t-58 25t-24.5 62
t24 62zM1138 343l-5 -18q0 -1 -1 -2v1q-1 0 -1.5 0.5l-0.5 0.5l5 23zM156 1038v2q1 3 1 5v-7v1z" />
    <glyph glyph-name="zdot" unicode="&#x17c;" horiz-adv-x="844" 
d="M455 1326q32 0 54.5 -25t22.5 -62t-23 -62t-55 -25t-56 25t-24 62t24 62t57 25zM766 139q6 13 11 31l-5 -146h-719v5l595 841h-322q-97 0 -132 -15t-59 -58q-16 -29 -25 -66l4 165h686v-6l-602 -843h351q106 0 149 21q43 20 68 71zM104 686v-1v-2q0 3 1.5 7.5t1.5 7.5
v-12l-2 1z" />
    </font>
</defs>
</svg>
